<svg xmlns="http://www.w3.org/2000/svg" width="516" height="98" viewBox="0 0 516 98"><g transform="translate(-284 -6054)"><g transform="translate(495 6053.999)"><path d="M393.026,380.948a8.763,8.763,0,0,1,.293,8.9,8.91,8.91,0,0,1-14.137,2.083q-.259-.259-.491-.533l-7.555-8.68,11.41-11.41,8.671,7.564A9.414,9.414,0,0,1,393.026,380.948Z" transform="translate(-305.173 -305.313)" fill="#ff9800"/><path d="M360.9,349.642l-11.41,11.41-4.68-5.378.032-.029,10.682-10.682.005-.005Z" transform="translate(-283.522 -283.647)" fill="#fff"/><path d="M203.883,26.644a5.332,5.332,0,1,1-7.539,7.541L181.261,19.1a5.332,5.332,0,1,1,7.541-7.539Z" transform="translate(-147.761 -8.223)" fill="#ff9800"/><path d="M94.354,71.735,88.1,77.986c-.012.011-.023.021-.034.032L78.015,88.072c-.011.011-.021.021-.032.034l-6.251,6.251L70.476,93.1,55.394,78.018l-1.257-1.257L76.758,54.14,78.015,55.4,93.1,70.479Z" transform="translate(-44.515 -44.517)" fill="#feb756"/><g transform="translate(1.777 31.941)"><path d="M197.49,189.953l1.257-1.257a3.555,3.555,0,0,0-4.994-5.06l-10.12,10.12a3.555,3.555,0,0,0,5.06,4.994l1.257-1.257,21.5,24.7.032-.028,10.682-10.682.005-.005Z" transform="translate(-151.942 -182.108)" fill="#ff9800"/><path d="M56.21,459.093v1.777H10v-1.777a7.11,7.11,0,0,1,7.109-7.109H49.1A7.11,7.11,0,0,1,56.21,459.093Z" transform="translate(-10 -403.59)" fill="#fff"/><path d="M64.656,401.987a4.443,4.443,0,1,1,0,8.886H34.442a4.443,4.443,0,1,1,0-8.886Z" transform="translate(-26.444 -362.48)" fill="#fff"/><path d="M34.184,196.348a5.332,5.332,0,0,1-7.541,7.539l-15.08-15.08a5.332,5.332,0,0,1,7.539-7.541Z" transform="translate(-10 -179.705)" fill="#ff9800"/></g><path d="M101.225,171.94a1.777,1.777,0,1,0,2.513,0A1.775,1.775,0,0,0,101.225,171.94Z" transform="translate(-82.805 -140.952)"/><path d="M45,401.892a6.222,6.222,0,0,0-5.013-9.905H9.775a6.216,6.216,0,0,0-5.009,9.9A8.894,8.894,0,0,0,0,409.76v1.777a1.777,1.777,0,0,0,1.777,1.777h46.21a1.777,1.777,0,0,0,1.777-1.777V409.76A8.893,8.893,0,0,0,45,401.892ZM7.89,396.322a2.648,2.648,0,0,1,1.885-.78H39.989a2.666,2.666,0,1,1,0,5.332H9.775a2.666,2.666,0,0,1-1.885-4.551ZM3.555,409.76a5.338,5.338,0,0,1,5.332-5.332H40.878a5.338,5.338,0,0,1,5.332,5.332Z" transform="translate(0 -322.316)"/><path d="M89.364,74.672a11.192,11.192,0,0,0-2.141-2.459l-8.3-7.243a1.764,1.764,0,0,0-.707-.617l-5.022-4.38L49.943,39.7a5.322,5.322,0,0,0-1.561-8.489l2.151-2.151A7.114,7.114,0,0,0,57.4,27.219a7.108,7.108,0,0,0,0-10.055L42.315,2.084A7.107,7.107,0,0,0,30.424,8.947L8.966,30.4a7.153,7.153,0,0,0-1.84-.241A7.108,7.108,0,0,0,2.1,42.3L17.18,57.379a7.107,7.107,0,0,0,11.892-6.863l2.146-2.146a5.333,5.333,0,0,0,8.492,1.558L64.47,78.375a1.786,1.786,0,0,0,.241.3c.032.032.066.061.1.09l7.378,8.477c.183.216.379.429.583.633A10.571,10.571,0,0,0,80.284,91a10.909,10.909,0,0,0,1.5-.1A10.755,10.755,0,0,0,89.714,85.4,10.517,10.517,0,0,0,89.364,74.672ZM63.733,72.114,72.1,63.742l2.685,2.342L66.072,74.8Zm-21.5-24.7,5.195-5.195L69.419,61.4l-8.025,8.026ZM34.774,4.6a3.554,3.554,0,0,1,5.027,0l15.081,15.08a3.554,3.554,0,0,1-5.026,5.027L34.775,9.624h0A3.558,3.558,0,0,1,34.774,4.6ZM24.721,54.866a3.559,3.559,0,0,1-5.028,0L4.614,39.786a3.554,3.554,0,0,1,5.025-5.028L24.721,49.84A3.557,3.557,0,0,1,24.721,54.866ZM12.153,32.245,32.261,12.137,47.342,27.219,42.364,32.2l-.049.047L32.266,42.294c-.021.02-.041.042-.061.063l-4.97,4.97Zm23.878,15.6a1.777,1.777,0,0,1-1.278-3.012l10.1-10.1a1.778,1.778,0,0,1,3.015,1.277,1.761,1.761,0,0,1-.521,1.256L46.1,38.517l-.025.025-7.522,7.522-.01.01-1.252,1.252A1.766,1.766,0,0,1,36.031,47.847Zm50.582,35.82a7.229,7.229,0,0,1-5.321,3.709,7.062,7.062,0,0,1-6.009-2.014c-.137-.136-.267-.279-.389-.423l-.017-.02-6.466-7.43,9.063-9.063,7.42,6.473.017.015A7.651,7.651,0,0,1,86.378,76.6,7.017,7.017,0,0,1,86.613,83.668Z" transform="translate(-0.017)"/><path d="M139.56,101.228a1.777,1.777,0,0,0-2.514,0l-7.541,7.541a1.777,1.777,0,0,0,2.514,2.513l7.541-7.541A1.777,1.777,0,0,0,139.56,101.228Z" transform="translate(-106.06 -82.807)"/></g><rect width="516" height="98" transform="translate(284 6054)" fill="none"/></g></svg>