<svg xmlns="http://www.w3.org/2000/svg" width="105" height="105" viewBox="0 0 105 105"><g transform="translate(-837 -2986)"><rect width="105" height="105" transform="translate(837 2986)" fill="none"/><g transform="translate(458.581 2978.618)"><g transform="translate(388.92 17.882)"><path d="M410.551,39.195,389.6,60.149l35.827,35.827L464.2,57.2l.515-24.4L452.768,20.862l-24.4.515Zm41.921,4.5a7.492,7.492,0,1,1,0-10.6A7.491,7.491,0,0,1,452.472,43.694Z" transform="translate(-387.952 -13.62)" fill="#ffee58"/><path d="M471.571,19.231c-1.679-1.677-4.534-1.8-8.04-.33a29.407,29.407,0,0,0-8.193,5.491c-.143-.143-.284-.289-.433-.43a1.688,1.688,0,0,0-1.2-.486l-24.4.515a1.64,1.64,0,0,0-1.13.481l-8.441,8.441a1.648,1.648,0,1,0,2.33,2.33l7.972-7.974,22.918-.484a31.3,31.3,0,0,0-4.787,6.738,9.137,9.137,0,1,0,9.119,9.133,9.447,9.447,0,0,0-.08-1.205l0-.017a9.12,9.12,0,0,0-5.652-7.258,29.063,29.063,0,0,1,3.79-5.122l8.679,8.677-.486,23.037L426.394,97.9l-33.5-33.5,19.79-19.788a1.648,1.648,0,0,0-2.33-2.33L389.4,63.244a1.651,1.651,0,0,0,0,2.33L425.228,101.4a1.651,1.651,0,0,0,2.33,0L466.33,62.629a1.652,1.652,0,0,0,.481-1.132l.515-24.4a1.652,1.652,0,0,0-.481-1.2l-.437-.435a29.365,29.365,0,0,0,5.494-8.193C473.364,23.765,473.247,20.908,471.571,19.231ZM448.145,48.5a5.843,5.843,0,0,1-1.322-11.537c-.656,2.566-.313,4.653,1.023,5.989a4.945,4.945,0,0,0,3.625,1.351,9.587,9.587,0,0,0,2.367-.328,5.845,5.845,0,0,1-5.693,4.524Zm5.479-7.887c-1.9.617-3.03.43-3.448.01-.527-.527-.51-1.827.01-3.443a5.841,5.841,0,0,1,3.438,3.433ZM468.862,26a25.971,25.971,0,0,1-4.784,7.129l-6.407-6.407A25.824,25.824,0,0,1,464.8,21.94c2.065-.863,3.81-1.011,4.442-.379S469.724,23.935,468.862,26Z" transform="translate(-388.92 -17.882)"/><path d="M401.893,43.223A9.011,9.011,0,0,0,400.6,54.332l-1.628,1.628a1.647,1.647,0,1,0,2.33,2.328l1.519-1.519a9.042,9.042,0,0,0,5.448,1.832c.141,0,.284,0,.425-.01a7.984,7.984,0,0,0,6.223-3.416,7.629,7.629,0,0,0,1.023-6.713,9.957,9.957,0,0,0-1.689-3.122l6.7-6.7a5.726,5.726,0,0,1-1.188,6.347,1.647,1.647,0,1,0,2.328,2.33,9.011,9.011,0,0,0,1.293-11.109l1.628-1.628a1.647,1.647,0,0,0-2.328-2.33l-1.521,1.521a9.033,9.033,0,0,0-5.873-1.822,7.984,7.984,0,0,0-6.223,3.416,7.637,7.637,0,0,0-1.023,6.713,10.009,10.009,0,0,0,1.689,3.122l-6.7,6.7a5.714,5.714,0,0,1,1.188-6.347,1.648,1.648,0,0,0-2.33-2.33ZM412.8,49.455a4.363,4.363,0,0,1-.586,3.837,4.718,4.718,0,0,1-3.676,2.009,5.74,5.74,0,0,1-3.353-.9L411.9,47.7A6.411,6.411,0,0,1,412.8,49.455Zm-1.616-8.371a4.355,4.355,0,0,1,.586-3.837,4.7,4.7,0,0,1,3.676-2.007,5.717,5.717,0,0,1,3.351.894l-6.711,6.711A6.48,6.48,0,0,1,411.184,41.085Z" transform="translate(-375.236 1.974)"/></g><path d="M399.6,28.074a1.646,1.646,0,1,0,.629-2.014A1.664,1.664,0,0,0,399.6,28.074Z" transform="translate(15.091 11.322)"/></g></g></svg>