<svg xmlns="http://www.w3.org/2000/svg" width="105" height="105" viewBox="0 0 105 105"><g transform="translate(-837 -2986)"><g transform="translate(849 2995.582)"><g transform="translate(1.843 1.843)"><g transform="translate(0 16.46)"><path d="M27.468,103h9.146v8.9H27.468Z" transform="translate(-27.468 -103)" fill="#ccf5fc"/></g><g transform="translate(9.146 0)"><path d="M130.887,10H87.644A10.349,10.349,0,0,0,77.086,20.126v60.2h53.8" transform="translate(-77.086 -10)" fill="#ff9eb1"/></g><g transform="translate(59.947)"><path d="M368.953,79.023h16.034v-58.9A10.345,10.345,0,0,0,374.429,10h-5.476" transform="translate(-368.953 -10)" fill="#ff7d97"/><g transform="translate(0 9.447)"><path d="M368.954,63.518a2.34,2.34,0,0,1,2.405-2.269h4.49a2.34,2.34,0,0,1,2.405,2.269v47.75h-6.9A2.34,2.34,0,0,1,368.954,109" transform="translate(-368.954 -61.249)" fill="#fff2a0"/></g></g><g transform="translate(9.146 70.328)"><path d="M77.086,407.8h53.8v10.862h-53.8Z" transform="translate(-77.086 -407.8)" fill="#faf7f5"/></g><g transform="translate(9.146 16.407)"><g transform="translate(50.801)"><path d="M368.954,103h21.305v8.9H368.954Z" transform="translate(-368.954 -103)" fill="#ccf5fc"/></g><g transform="translate(0 2.832)"><path d="M77.086,118.362h53.8v11.484h-53.8Z" transform="translate(-77.086 -118.362)" fill="#faf7f5"/></g></g></g><g transform="translate(0)"><path d="M362.511,245.163a1.844,1.844,0,1,0-.68,2.238A1.862,1.862,0,0,0,362.511,245.163Z" transform="translate(-298.259 -200.531)"/><path d="M100.627,16.6H97.315V12.008A12.006,12.006,0,0,0,85.338,0H38.28A12.006,12.006,0,0,0,26.3,12.008V16.6H19.248a1.783,1.783,0,0,0-1.78,1.785V27a1.783,1.783,0,0,0,1.78,1.785H26.3V89.594a1.78,1.78,0,1,0,3.561,0V85.084h3.863v4.511a1.78,1.78,0,1,0,3.561,0V85.084h3.863v4.511a1.78,1.78,0,1,0,3.561,0V85.084h3.863v4.511a1.78,1.78,0,1,0,3.561,0V85.084H56v4.511a1.78,1.78,0,1,0,3.561,0V85.084H63.42v4.511a1.78,1.78,0,1,0,3.561,0V85.084h3.863v4.511a1.78,1.78,0,1,0,3.561,0V85.084h3.863v4.511a1.78,1.78,0,1,0,3.561,0V73.3H95.535a1.783,1.783,0,0,0,1.78-1.785V28.78h3.311A1.783,1.783,0,0,0,102.407,27V18.383a1.782,1.782,0,0,0-1.78-1.785ZM29.863,12.008A8.437,8.437,0,0,1,38.28,3.569H85.338a8.437,8.437,0,0,1,8.417,8.438V16.6H90.812V13.26a4.113,4.113,0,0,0-4.1-4.114H82.372a4.113,4.113,0,0,0-4.1,4.114c0,.03,0,.06,0,.089s0,.059,0,.089v5.9h-48.4ZM80.048,51.573a1.783,1.783,0,0,0-1.78,1.785V71h-48.4V34.028h48.4v3.223a1.78,1.78,0,1,0,3.561,0V28.78h5.423v31.7h-4.88a.544.544,0,0,1-.543-.544V53.358a1.783,1.783,0,0,0-1.78-1.785Zm-1.78-21.115h-48.4V22.909h48.4ZM81.827,13.35c0-.03,0-.059,0-.089a.544.544,0,0,1,.543-.544h4.337a.544.544,0,0,1,.543.544V16.6H81.829V13.439C81.829,13.409,81.828,13.379,81.827,13.35ZM21.029,25.21V20.168H26.3V25.21Zm8.834,49.356h48.4v6.947h-48.4Zm63.892-4.833H81.829V64.014a4.127,4.127,0,0,0,.543.036h6.66a1.783,1.783,0,0,0,1.78-1.785V28.78h2.942ZM98.846,25.21H81.829V20.168H98.846Z" transform="translate(-17.468 0)"/></g></g><rect width="105" height="105" transform="translate(837 2986)" fill="none"/></g></svg>