<svg xmlns="http://www.w3.org/2000/svg" width="105" height="105" viewBox="0 0 105 105"><g transform="translate(-223 -2827)"><rect width="105" height="105" transform="translate(223 2827)" fill="none"/><g transform="translate(165.88 2626.74)"><path d="M73.58,212.909h53.336a3.809,3.809,0,0,1,3.81,3.81V287.2a3.809,3.809,0,0,1-3.81,3.81H73.58a3.809,3.809,0,0,1-3.81-3.81V216.719A3.809,3.809,0,0,1,73.58,212.909Z" transform="translate(0.801 0.801)" fill="#dee4f0"/><path d="M109.479,216.055h11.695v65.4H72.916v-65.4H84.611" transform="translate(4.004 4.004)" fill="#ffd494"/><path d="M82.332,224.337H99.449a3.372,3.372,0,0,0,3.374-3.372v-8.056H78.96v8.056A3.372,3.372,0,0,0,82.332,224.337Z" transform="translate(10.157 0.801)" fill="#ff6977"/><path d="M82.332,224.337H99.449a3.372,3.372,0,0,0,3.374-3.372v-8.056H78.96v8.056A3.372,3.372,0,0,0,82.332,224.337Z" transform="translate(10.157 0.801)" fill="#ffee58"/><path d="M98.106,242.622l18.6-18.6a4.2,4.2,0,0,1,5.937,5.937l-18.6,18.6-10.7,4.765Z" transform="translate(24.798 10.863)" fill="#f7b030"/><path d="M104.043,238.555l-5.937-5.937-4.765,10.7Z" transform="translate(24.798 20.866)" fill="#ff9eb1"/><path d="M109.844,232l2.042-2.042a4.2,4.2,0,0,0-5.937-5.937l-2.042,2.042Z" transform="translate(35.555 10.863)" fill="#eb423f"/><path d="M76.692,222.348H86.851v10.159H76.692Z" transform="translate(7.848 10.411)" fill="#ffee58"/><path d="M76.692,231H86.851V241.16H76.692Z" transform="translate(7.848 19.22)" fill="#4ad194"/><path d="M76.692,239.653H86.851v10.159H76.692Z" transform="translate(7.848 28.029)" fill="#eb423f"/><path d="M85.672,247.676a1.588,1.588,0,1,0,1.124.466A1.6,1.6,0,0,0,85.672,247.676Z" transform="translate(15.376 36.197)"/><path d="M148.564,233.762a5.79,5.79,0,0,0-8.181,0l-7.269,7.267V217.52a5.4,5.4,0,0,0-5.4-5.4H74.381a5.4,5.4,0,0,0-5.4,5.4V288a5.4,5.4,0,0,0,5.4,5.4h53.336a5.4,5.4,0,0,0,5.4-5.4V257.393l15.45-15.45A5.79,5.79,0,0,0,148.564,233.762ZM129.939,217.52V244.2l-3.174,3.176V220.059a1.586,1.586,0,0,0-1.586-1.586H114.569V215.3h13.148A2.225,2.225,0,0,1,129.939,217.52Zm-8.668,43.534,2.143-4.815,2.672,2.672ZM111.393,215.3v6.468a1.788,1.788,0,0,1-1.784,1.786H92.49a1.788,1.788,0,0,1-1.786-1.786V215.3Zm16.324,74.923H74.381A2.225,2.225,0,0,1,72.159,288V217.52a2.225,2.225,0,0,1,2.222-2.222H87.529v3.174H76.92a1.586,1.586,0,0,0-1.586,1.586v65.4a1.586,1.586,0,0,0,1.586,1.586H94.7a1.587,1.587,0,1,0,0-3.174H78.508V221.647h9.021v.119a4.967,4.967,0,0,0,4.96,4.96h17.119a4.967,4.967,0,0,0,4.96-4.96v-.119h9.021v28.907l-1.808,1.806a1.612,1.612,0,0,0-.327.478l-4.765,10.7a1.588,1.588,0,0,0,1.449,2.234,1.607,1.607,0,0,0,.646-.137l4.805-2.139v20.374H107.4a1.587,1.587,0,1,0,0,3.174h17.779a1.586,1.586,0,0,0,1.586-1.586V262.083l2.722-1.213a1.564,1.564,0,0,0,.452-.3V288A2.225,2.225,0,0,1,127.717,290.221ZM140.4,245.616l-11.562,11.56-3.691-3.691,14.312-14.314,3.693,3.693Zm5.917-5.917-.92.918-3.691-3.691.918-.918a2.611,2.611,0,1,1,3.693,3.691Z" transform="translate(0 0)"/><path d="M87.652,221.561H77.493a1.589,1.589,0,0,0-1.588,1.588v10.159a1.587,1.587,0,0,0,1.588,1.588H87.652a1.587,1.587,0,0,0,1.588-1.588V223.149A1.589,1.589,0,0,0,87.652,221.561Zm-1.588,10.161H79.081v-6.985h6.983Z" transform="translate(7.047 9.61)"/><path d="M87.652,230.214H77.493A1.587,1.587,0,0,0,75.9,231.8v10.159a1.587,1.587,0,0,0,1.588,1.586H87.652a1.587,1.587,0,0,0,1.588-1.586V231.8A1.587,1.587,0,0,0,87.652,230.214Zm-1.588,10.159H79.081v-6.985h6.983Z" transform="translate(7.047 18.419)"/><path d="M87.652,238.866H77.493a1.587,1.587,0,0,0-1.588,1.588v10.159a1.587,1.587,0,0,0,1.588,1.588H87.652a1.587,1.587,0,0,0,1.588-1.588V240.454A1.587,1.587,0,0,0,87.652,238.866Zm-1.588,10.161H79.081v-6.985h6.983Z" transform="translate(7.047 27.227)"/><path d="M89.372,232.18a1.591,1.591,0,0,0,2.246,0l7.166-7.166a1.588,1.588,0,0,0-2.246-2.246l-6.044,6.044-2.408-2.41a1.588,1.588,0,0,0-2.246,2.246Z" transform="translate(16.689 10.365)"/><path d="M89.372,240.831a1.586,1.586,0,0,0,2.246,0l7.166-7.166a1.588,1.588,0,0,0-2.246-2.244l-6.044,6.044-2.408-2.41A1.588,1.588,0,1,0,85.84,237.3Z" transform="translate(16.689 19.174)"/><path d="M91.422,247.025l2.462,2.46a1.587,1.587,0,1,0,2.244-2.244l-2.46-2.462,2.46-2.46a1.588,1.588,0,0,0-2.244-2.246l-2.462,2.46-2.46-2.46a1.588,1.588,0,0,0-2.246,2.246l2.462,2.46-2.462,2.462a1.588,1.588,0,0,0,2.246,2.244Z" transform="translate(17.58 27.983)"/></g></g></svg>