<svg xmlns="http://www.w3.org/2000/svg" width="549.547" height="290" viewBox="0 0 549.547 290"><g transform="translate(-1370.339 -983.114)"><g transform="translate(1395.895 983.114)"><g transform="translate(21.367)"><path d="M1526.625,1271.568s-70.641-13.972-74.242-63.334c-4.145-56.813,52.865-57.44,44.119-98.62-12.206-57.479,11.664-91.716,65.149-89.355,45.1,1.991,83.143,37.311,107.271,6.948,26.021-32.746,74.7-56.941,122.863-36.659s41.071,86.189,74.383,100.193,69.386,50.941,63.577,102.037c-5.451,47.938-49.66,79.788-90.625,79.3-20.075-.237-97.992.264-168.013,0C1598.24,1271.808,1526.625,1271.568,1526.625,1271.568Z" transform="translate(-1452.166 -983.114)" fill="#f3f9ff"/><path d="M2197.9,1110.945s-16.305-25.874,4.436-40.475,43.558,12.849,37.895,32.8S2204.621,1122.1,2197.9,1110.945Z" transform="translate(-1767.668 -1018.622)" fill="#f3f9ff"/><path d="M1470.552,1167.165s-11.054-8.292-3.086-19.3,27.122-5.383,24.062,7.885C1490.133,1161.8,1482.323,1175.061,1470.552,1167.165Z" transform="translate(-1457.462 -1050.899)" fill="#f3f9ff"/></g><g transform="translate(0 22.56)"><g transform="translate(0 156.144)"><g transform="translate(4.199)"><path d="M1437.571,1296.436h-14.5a.842.842,0,1,1,0-1.685h14.5a.842.842,0,1,1,0,1.685Z" transform="translate(-1422.229 -1294.751)" fill="#ffb74d"/></g><g transform="translate(20.874)"><path d="M1455.775,1296.436h-3.625a.842.842,0,1,1,0-1.685h3.625a.842.842,0,0,1,0,1.685Z" transform="translate(-1451.307 -1294.751)" fill="#ffb74d"/></g><path d="M1417.742,1296.436h-1.994a.842.842,0,0,1,0-1.685h1.994a.842.842,0,1,1,0,1.685Z" transform="translate(-1414.906 -1294.751)" fill="#ffb74d"/></g><g transform="translate(389.04 24.209)"><path d="M2111.164,1066.605h-16.858a.966.966,0,0,1,0-1.932h16.858a.966.966,0,0,1,0,1.932Z" transform="translate(-2093.34 -1064.673)" fill="#ffb74d"/><g transform="translate(22.339)"><path d="M2142.4,1066.605h-9.134a.966.966,0,1,1,0-1.932h9.134a.966.966,0,0,1,0,1.932Z" transform="translate(-2132.296 -1064.673)" fill="#ffb74d"/></g></g><g transform="translate(17.162 38.835)"><path d="M1454.058,1108.627a9.224,9.224,0,1,1,9.224-9.224A9.234,9.234,0,0,1,1454.058,1108.627Zm0-15.665a6.441,6.441,0,1,0,6.441,6.441A6.448,6.448,0,0,0,1454.058,1092.963Z" transform="translate(-1444.834 -1090.18)" fill="#ffb74d"/></g><g transform="translate(505.543 153.353)"><path d="M2305.731,1308.331a9.224,9.224,0,1,1,9.224-9.224A9.234,9.234,0,0,1,2305.731,1308.331Zm0-15.665a6.441,6.441,0,1,0,6.441,6.441A6.448,6.448,0,0,0,2305.731,1292.667Z" transform="translate(-2296.507 -1289.884)" fill="#ffb74d"/></g><g transform="translate(500.057 59.997)"><path d="M2292.975,1139.152a6.035,6.035,0,1,1,6.034-6.035A6.042,6.042,0,0,1,2292.975,1139.152Zm0-9.286a3.252,3.252,0,1,0,3.251,3.251A3.255,3.255,0,0,0,2292.975,1129.866Z" transform="translate(-2286.94 -1127.083)" fill="#ffb74d"/></g><g transform="translate(267.715 16.017)"><path d="M1887.253,1056.784a.908.908,0,0,1-.643-.267l-4.577-4.577a.91.91,0,1,1,1.287-1.287l4.577,4.577a.91.91,0,0,1-.643,1.553Z" transform="translate(-1881.766 -1050.387)" fill="#ffb74d"/><g transform="translate(0 0)"><path d="M1882.676,1056.784a.91.91,0,0,1-.643-1.554l4.577-4.576a.91.91,0,1,1,1.287,1.287l-4.577,4.577A.907.907,0,0,1,1882.676,1056.784Z" transform="translate(-1881.766 -1050.387)" fill="#ffb74d"/></g></g><g transform="translate(91.833 61.818)"><g transform="translate(0)"><path d="M1580.431,1136.531a.89.89,0,0,1-.631-.262l-4.488-4.488a.892.892,0,0,1,1.261-1.262l4.488,4.488a.892.892,0,0,1-.631,1.523Z" transform="translate(-1575.051 -1130.259)" fill="#ffb74d"/></g><path d="M1575.943,1136.531a.892.892,0,0,1-.631-1.523l4.488-4.488a.892.892,0,1,1,1.262,1.262l-4.488,4.488A.89.89,0,0,1,1575.943,1136.531Z" transform="translate(-1575.051 -1130.259)" fill="#ffb74d"/></g><g transform="translate(75.139 34.401)"><path d="M1551.318,1088.72a.888.888,0,0,1-.631-.261l-4.488-4.488a.892.892,0,1,1,1.262-1.261l4.488,4.488a.892.892,0,0,1-.631,1.523Z" transform="translate(-1545.938 -1082.447)" fill="#ffb74d"/><path d="M1546.83,1088.72a.892.892,0,0,1-.631-1.523l4.488-4.488a.892.892,0,0,1,1.262,1.261l-4.488,4.488A.889.889,0,0,1,1546.83,1088.72Z" transform="translate(-1545.938 -1082.447)" fill="#ffb74d"/></g><g transform="translate(243.47)"><path d="M1844.806,1033.095a.908.908,0,0,1-.643-.267l-4.41-4.41a.909.909,0,0,1,0-1.287l4.41-4.409a.91.91,0,0,1,1.287,0l4.409,4.409a.91.91,0,0,1,0,1.287l-4.409,4.41A.91.91,0,0,1,1844.806,1033.095Zm-3.123-5.32,3.123,3.123,3.122-3.123-3.122-3.122Z" transform="translate(-1839.486 -1022.456)" fill="#ffb74d"/></g></g></g><g transform="translate(1370.339 1041.64)"><g transform="translate(243.938 10.116)"><path d="M1881.273,1398.6a1.891,1.891,0,0,0,1.081,1.744.015.015,0,0,0,.01,0c1.257.692,3.464.761,5.865.656.307-.012.584-.021.83-.021.065,0,.13,0,.193,0l.148,0c2.376.059,2.125.77,6.64,1.157,5.147.439,7.044-1.135,7.347-1.853.255-.608-1.953-1.3-4.421-2.087-.119-.037-.238-.077-.36-.115-.329-.1-.659-.213-.987-.319-2.938-.977-5.831-2.135-6.552-5.109-.766-3.153,1.535-11.956,1.535-11.956l-8.156-.88s-.786,9.2-1.3,12.069a31.659,31.659,0,0,1-1.376,4.059c-.029.092-.057.184-.081.276A9.006,9.006,0,0,0,1881.273,1398.6Z" transform="translate(-1832.223 -1220.978)" fill="#e49963"/><path d="M1881.273,1410.6a1.891,1.891,0,0,0,1.081,1.744.015.015,0,0,0,.01,0c1.339.619,3.51.709,5.86.642.308-.009.584-.01.835-.006.065,0,.13,0,.193,0l.148,0c2.376.058,2.125.769,6.64,1.156,5.147.439,7.044-1.135,7.347-1.853.255-.608-1.953-1.3-4.421-2.087a15.247,15.247,0,0,1-7.9.673c-3.435-.646-6.846-2.354-9.3-2.926-.029.092-.057.184-.081.276A9,9,0,0,0,1881.273,1410.6Z" transform="translate(-1832.223 -1232.975)" fill="#c65447"/><path d="M1969.2,1382.648c.453,2.265,3.682,1.887,7.289,1.005s2.751.167,7.884-.4,6.69-2.483,6.846-3.246c.141-.677-2.4-.917-5.117-1.23-.342-.038-.686-.08-1.029-.123-3.073-.385-5.322-2.368-8.112-4-2.643-1.542-6.588-7.824-6.588-7.824l-7.041.557s3.695,5.612,5.124,8.052a8.5,8.5,0,0,1,.69,4.8A9.068,9.068,0,0,0,1969.2,1382.648Z" transform="translate(-1867.225 -1215.435)" fill="#e49963"/><path d="M1980.775,1392.538c3.608-.881,2.751.167,7.884-.4s6.69-2.483,6.846-3.246c.14-.677-2.4-.916-5.118-1.23l-.026.053a14.467,14.467,0,0,1-7.352,2.285c-3.484.085-7.172-.913-9.578-.875a9.069,9.069,0,0,0,.055,2.409C1973.939,1393.8,1977.168,1393.419,1980.775,1392.538Z" transform="translate(-1871.511 -1224.32)" fill="#c65447"/><path d="M1946.246,1210.448s1.678-4.11,3.523-4.278,7.716-1.09,8.136-.252a5.805,5.805,0,0,1-1.258,4.949c-1.259,1.09-9.058,2.852-9.058,2.852Z" transform="translate(-1859.937 -1146.648)" fill="#ffb27d"/><path d="M1908.545,1307.506l-15.174,40.837a13.886,13.886,0,0,1-4.566-.418,19.653,19.653,0,0,1-4.414-2.149s3.765-39.21,10.666-47.366S1908.545,1307.506,1908.545,1307.506Z" transform="translate(-1833.553 -1185.315)" fill="#14a884"/><path d="M1815.6,1278.133s43.6-14.744,53.326-11.606,38.921,61.225,38.921,61.225a5.632,5.632,0,0,1-2.457,1.551c-1.673.628-5.722.587-5.722.587s-26.349-22.585-29.486-29.172-4.392-12.861-7.529-12.234-40.465,15.37-48.935,6.588-6.254-20.195-6.254-20.195Z" transform="translate(-1800.628 -1172.462)" fill="#466aa5"/><path d="M1838.276,1104.527a10.576,10.576,0,0,0-5.723-1.1,2.678,2.678,0,0,1,1.207-.573,8.865,8.865,0,0,0-3.166.826c-13.626-5.251-15.769,14.813-15.483,19.475s.319,10.027-6.483,14.207c-13.385,8.226-2.091,22.586-2.091,22.586.106.062,6.227,10.445,6.227,10.445-.343-3.766,17.038-23.646,26.105-29.6,2.207-3.25,2.992-8.991,3.051-9.443-.381,4.552-1.16,7.105-1.856,8.543C1847.742,1132.834,1843.272,1107.366,1838.276,1104.527Z" transform="translate(-1798.443 -1102.816)" fill="#111e61"/><path d="M1855.745,1159.585c.045.021-4.378,2.317-7.705,1.407-3.13-.853-5.175-4.911-5.132-4.921,1.325-.263,1.708-2.084,1.68-9.912l.6.118,10.075,1.995s-.229,3.171-.236,6.158C1855.02,1156.939,1855.171,1159.317,1855.745,1159.585Z" transform="translate(-1815.857 -1121.305)" fill="#ffb27d"/><path d="M1856.958,1148.361s-.229,3.171-.236,6.158c-5.638-.159-8.618-5.3-9.839-8.153Z" transform="translate(-1817.553 -1121.393)" fill="#e8945b"/><path d="M1842.278,1129.054s-2.954-4.669-3.664-8.661c-.506-2.85.945-13.414,11.561-11.892a14.425,14.425,0,0,1,5.981,2.261c2.305,1.557,5.631,4.918,1.912,14.136l-.966,3.114Z" transform="translate(-1813.989 -1105.178)" fill="#111e61"/><path d="M1857.695,1138.034s-13.339.22-13.349-8.089-1.737-13.877,6.779-14.369,10.174,2.677,10.853,5.45S1861.164,1137.762,1857.695,1138.034Z" transform="translate(-1816.407 -1108.237)" fill="#ffb27d"/><path d="M1841.909,1115.756s9.11-6.229,11.993-1.922c.873-.75,2.43-1.292,4.489,1.2,3.092,3.748.341,10.373.341,10.373-1.27.148-1.569-4.208-2.234-6.323a10.592,10.592,0,0,0-2.969-3.931c-1.163,2.624-4.365,8.9-8.777,10.037-5.6,1.441-8.036-.06-8.036-.06A15.879,15.879,0,0,0,1841.909,1115.756Z" transform="translate(-1813.217 -1106.869)" fill="#111e61"/><path d="M1809.236,1202.841c-1.316-5.516,3.159-16.222,7.832-25.085,4.239-8.033,8.64-14.549,9.035-14.315,11.18,6.636,12.19,1.119,12.19,1.119s10.156,1.349,13.031,6.3c3.978,6.845,8.309,27.386,12.565,27.082,1.953-.14,21.612-7.528,21.612-7.528s3.275,3.067,2.647,6.832a205.51,205.51,0,0,1-17.914,10.647c-4.342,2.194-8.265,3.728-10.11,3.294-3.74-.881-9.581-9.549-12.736-14.652l-.021-.034c-4.028,22.8,1.449,27.994-1.323,30.4-2.928,2.539-7.111-1.209-16.313,2.78-6.035,2.618-14.411,6.4-20.049,7.063-2.957.347-5.164-.167-5.883-2.165C1801.707,1228.771,1811.746,1213.358,1809.236,1202.841Z" transform="translate(-1799.052 -1128.674)" fill="#ffbc60"/><path d="M1862.565,1145.492s.249,1.056,2.874.893c0,0,2.205-.137,2.138-1.3A7.1,7.1,0,0,0,1862.565,1145.492Z" transform="translate(-1824.242 -1120.732)" fill="#fff"/><path d="M1803.8,1251.929c.719,2,2.926,2.512,5.883,2.165,3.9-1.7,20.76-8.232,20.572-12.657-.28-6.552-3.241-6.761-1.15-14.849,1.679-6.494-9.737-19.844-12.222-22.47-4.671,8.863-8.962,10.56-7.646,16.076C1811.746,1230.713,1801.707,1246.126,1803.8,1251.929Z" transform="translate(-1799.052 -1146.028)" fill="#e78b0d"/><path d="M1880.028,1220.317c3.156,5.1,9,13.771,12.736,14.652,1.845.435,5.768-1.1,10.11-3.294a26.257,26.257,0,0,1-9.237.506c-3.242-.314-4.183-4.288-9.306-10.248C1881.007,1218.068,1880.191,1219.041,1880.028,1220.317Z" transform="translate(-1831.691 -1152.457)" fill="#e58638"/><path d="M1851.275,1241.725s2.824-2.2,5.49-1.673,3.974,2.353,3.87,3.19-1.516,3.189-3.555,3.4-7.843-1.255-7.843-1.255Z" transform="translate(-1818.556 -1161.322)" fill="#ffb27d"/><path d="M1822.786,1163.445s-10.872.67-14.636,5.919c-5.3,7.39-14.5,37.557-11.991,44.459l33.078-.14s.8-3.747-.314-5.559-19.241-4.741-20.077-5.577,10.456-16.312,10.456-18.822S1822.786,1163.445,1822.786,1163.445Z" transform="translate(-1795.735 -1128.678)" fill="#ffbc60"/></g><g transform="translate(132.958 0)"><path d="M1766.437,1245.644s3.02-1,4.479-.7,5.985,2.415,6.087,2.867a1.666,1.666,0,0,1,0,.779h-10.566s-2.362-.459-2.764-1.851S1766.437,1245.644,1766.437,1245.644Z" transform="translate(-1671.063 -1153.302)" fill="#ffb27d"/><path d="M1699.195,1463.247a2.025,2.025,0,0,0,1.322,1.755.016.016,0,0,0,.011,0c1.408.616,3.767.476,6.317.132.326-.042.62-.078.884-.1.069-.006.138-.013.2-.016l.159-.013c2.538-.167,2.34.615,7.192.591,5.53-.029,7.4-1.892,7.655-2.686.213-.674-2.208-1.2-4.916-1.8l-.395-.088c-.36-.08-.723-.164-1.083-.246-3.228-.757-6.424-1.713-7.481-4.815-1.121-3.288-.855-13.047-.855-13.047h-9.795s2.571,10.782,2.3,13.889c-.146,1.659-.939,2.131-1.246,3.568-.022.1-.043.2-.06.3A9.645,9.645,0,0,0,1699.195,1463.247Z" transform="translate(-1643.241 -1237.776)" fill="#ad7041"/><g transform="translate(43.431 84.756)"><path d="M1679.063,1268.214c.827,4.641,2.006,9.436,3.031,14.424,1.645,8.02,2.887,16.54,1.616,25.714a31.936,31.936,0,0,0-.27,3.885c-.247,16.215,7,45.6,7,45.6a12.8,12.8,0,0,0,5.266.686,16.709,16.709,0,0,0,4.3-1.179s.686-18.219.728-42.72c.029-17.76,3.516-41.144,4.22-54.885a175.871,175.871,0,0,0-.5-19.394s-14.442-11.613-19.629-5.671C1679.7,1240.544,1675.969,1250.854,1679.063,1268.214Z" transform="translate(-1677.937 -1232.98)" fill="#415da5"/></g><path d="M1686.8,1330.234a31.913,31.913,0,0,0-.27,3.885c10.815-15.67,13.207-49.84,13.207-49.84l-11.879,5.765s-1.3,6.408-2.674,14.478C1686.83,1312.54,1688.072,1321.06,1686.8,1330.234Z" transform="translate(-1637.598 -1170.105)" fill="#355493"/><path d="M1645.27,1462.795a2.027,2.027,0,0,0,1.321,1.755.022.022,0,0,0,.012,0c1.407.616,3.766.477,6.316.133.327-.043.62-.078.884-.1.068-.006.138-.013.205-.016l.158-.013c2.539-.167,2.34.615,7.192.591,5.531-.029,7.4-1.892,7.656-2.686.213-.674-2.209-1.2-4.916-1.8-.131-.028-.261-.059-.4-.088-.36-.08-.723-.164-1.083-.246-3.228-.757-6.423-1.713-7.481-4.815-1.121-3.288.481-12.9.481-12.9l-9.075-.758s.563,10.949.294,14.056c-.147,1.659-.989,2.572-1.295,4.009-.022.1-.042.2-.06.3A9.645,9.645,0,0,0,1645.27,1462.795Z" transform="translate(-1620.562 -1237.323)" fill="#ad7041"/><path d="M1647.06,1367.587a22.055,22.055,0,0,0,4.012,1.44,19.3,19.3,0,0,0,5.169-.321,236.648,236.648,0,0,1,4.933-30.538,285.726,285.726,0,0,1,14.763-46.784c1.434-3.387,7.346-19.422,8.349-23.468,3.034-12.226-.012-10.909-.012-10.909l-26.517-3.111s-3.267,1.679-4.772,18.943c-.45,5.17-.505,27.494-1.184,31.727a47.355,47.355,0,0,1-2.277,9.505C1644.6,1326.162,1647.06,1367.587,1647.06,1367.587Z" transform="translate(-1621.073 -1157.145)" fill="#415da5"/><path d="M1645.27,1476.232a2.026,2.026,0,0,0,1.321,1.755.022.022,0,0,0,.012,0c1.487.53,3.811.416,6.311.117.327-.038.621-.068.89-.087.068-.006.138-.013.205-.016l.158-.013c2.539-.167,2.34.615,7.192.591,5.531-.029,7.4-1.892,7.656-2.686.213-.674-2.209-1.2-4.916-1.8a16.331,16.331,0,0,1-8.356,1.482c-3.724-.357-7.526-1.849-10.2-2.221-.022.1-.042.2-.06.3A9.645,9.645,0,0,0,1645.27,1476.232Z" transform="translate(-1620.562 -1250.761)" fill="#b84c42"/><path d="M1699.759,1476.232a2.025,2.025,0,0,0,1.322,1.755.017.017,0,0,0,.011,0c1.488.53,3.811.416,6.311.117.327-.038.621-.068.89-.087.069-.006.138-.013.2-.016l.159-.013c2.538-.167,2.34.615,7.192.591,5.53-.029,7.4-1.892,7.655-2.686.213-.674-2.208-1.2-4.916-1.8a16.328,16.328,0,0,1-8.356,1.482c-3.724-.357-7.526-1.849-10.2-2.221-.022.1-.043.2-.06.3A9.65,9.65,0,0,0,1699.759,1476.232Z" transform="translate(-1643.805 -1250.761)" fill="#b84c42"/><path d="M1683.115,1102.525c.9-7.315-1.389-19.019-15.989-17.149s-19.2,16.218-16.256,22.6-4.239,7.918-6.494,14.779c-1.938,5.893-2.613,13.211-5.748,16.495-10.107,10.589,9.7,26.871,21.646,23.437,21.752-6.253,24.554-7.187,23.782-24.278-.4-8.757-7.209-12.15-2.883-14.683C1691.624,1117.6,1681.089,1119.076,1683.115,1102.525Z" transform="translate(-1616.554 -1085.176)" fill="#111e61"/><path d="M1680.864,1139.021l4.014,10.39,8.69.425,4.328-6.482c-4.91-3.722-4.7-10.845-4.461-13.333.055-.56.11-.885.11-.885l-10.863-3.307c-.131,2.872-.292,5.117-.464,6.874C1681.61,1138.874,1680.864,1139.021,1680.864,1139.021Z" transform="translate(-1635.755 -1102.517)" fill="#ffb27d"/><path d="M1691.243,1147.843c-.558,0-10.04-1.929-26.051,2.167,0,0,8.769,40.175,5.79,47.747a79.987,79.987,0,0,0-4.111,14.293l32.316.4s-.452-25.991,1.037-35.19S1691.243,1147.843,1691.243,1147.843Z" transform="translate(-1629.07 -1111.714)" fill="#ffb27d"/><path d="M1665.079,1192.995c-.473,5.318-5.441,17.47-4.366,20.058,1.126,2.719,2.691,4.1,6.115,4.881a63.215,63.215,0,0,0,10.193,1.034c9.736.484,20.169-.74,21.589-5.368.681-2.221.418-10.817.058-14.784-.746-8.212.817-19.994,1.045-27.618.189-6.359-3.648-20.831-3.648-20.831s-1.731-1.092-7.16-2.186c0,0-.571,7.517-4.495,8.164-6.783,1.12-12.249-5.094-13.845-7.595,0,0-7.791,1.965-10.077,4.572-2.165,2.468.8,20.751,1.456,22.5.569,1.5,1.106,2.973,1.574,4.449A31.031,31.031,0,0,1,1665.079,1192.995Z" transform="translate(-1626.731 -1112.052)" fill="#ffbc60"/><path d="M1612.81,1245.694s-3.02-1-4.479-.7-5.986,2.394-6.087,2.842a1.63,1.63,0,0,0,0,.772h10.566s2.362-.455,2.765-1.835S1612.81,1245.694,1612.81,1245.694Z" transform="translate(-1602.2 -1153.326)" fill="#ffb27d"/><path d="M1683.225,1133.9c3.962-2.657,8.944-2.788,11.217-2.682.055-.56.11-.885.11-.885l-10.863-3.306C1683.558,1129.9,1683.4,1132.147,1683.225,1133.9Z" transform="translate(-1636.762 -1103.029)" fill="#e8945b"/><path d="M1695.907,1116.916s-13,2.611-14.506-5.512-4.191-13.257,4.047-15.268,10.43.79,11.591,3.379S1699.251,1116.027,1695.907,1116.916Z" transform="translate(-1635.282 -1089.559)" fill="#ffb27d"/><path d="M1677.38,1093.461a9.829,9.829,0,0,1,7.689-2.917c-1.4-1.692,4.216-5.4,10.631.924,2.764,2.723,2.346,8.077.866,11.184,0,0-2.274-6.657-6.412-8.109a9.034,9.034,0,0,1-2.6-1.5,17.842,17.842,0,0,1-3.557,5.285c-4.277,4.675-3.443,14.13-3.443,14.13S1673.534,1097.786,1677.38,1093.461Z" transform="translate(-1633.778 -1086.345)" fill="#111e61"/><path d="M1700.857,1125.153s.348.964,2.8.526c0,0,2.055-.367,1.866-1.449A6.707,6.707,0,0,0,1700.857,1125.153Z" transform="translate(-1644.283 -1101.793)" fill="#fff"/><path d="M1630.662,1184.969c4.919-18.984,7.618-29.823,11.649-33.1,3.564-2.9,11.25-3.167,11.25-3.167a39.159,39.159,0,0,1-.268,6.842l9.455,18.018a79.212,79.212,0,0,1,6.566,20.07c1.3-10.411,2.591-20.07,2.591-20.07a109.018,109.018,0,0,0,1.6-11.8c-1.139-4.4-1.021-8.986-1.556-13.582l.594.034c1.868.131,7.689.724,10.657,3.16,4.031,3.309,4.934,17.841,11.648,33.4,0,0,8.135,13.679,10.725,19.105a4.621,4.621,0,0,1-1.456,1.3,7.622,7.622,0,0,1-2.127.758s-14.675-14.451-15.639-16.736c-.317-.752-2.093-3.387-4.3-7.264h0s-.585,20.648.7,29.558a4.619,4.619,0,0,1-2.292,4.686c-9.064,5.119-36.215,19.064-41.267,5.52-.567-1.518,9.355-27.314,8-32.9-.435-1.787-1.008-5.86-1.587-10.573-3.109,5.962-6.031,10.149-6.448,11.127-.964,2.264-15.64,16.589-15.64,16.589a7.694,7.694,0,0,1-2.127-.75,4.6,4.6,0,0,1-1.455-1.29C1622.527,1198.528,1630.662,1184.969,1630.662,1184.969Z" transform="translate(-1609.766 -1112.052)" fill="#9e69ce"/><path d="M1675.866,1148.991l8.676,24.915-8.675-8.2.656-2.55a6.087,6.087,0,0,1-2.8-.345c-.809-.523-2.693-13.262-2.693-13.262s1.765-.3,2.351-.363C1674,1149.113,1675.866,1148.991,1675.866,1148.991Z" transform="translate(-1631.559 -1112.397)" fill="#6b2ba7"/><path d="M1710.613,1148.181s1.826,19.7-.048,25.38c0,0,5.369-8.5,4.363-10.261l-1.946-1.283s3.757-.488,3.053-2.646-3.723-10.91-3.723-10.91Z" transform="translate(-1648.424 -1112.052)" fill="#6b2ba7"/></g><g transform="translate(87.122 108.091)"><path d="M1821.9,1437.044H1522.269v-67.938l299.629-.678Z" transform="translate(-1522.269 -1314.092)" fill="#111e61"/><rect width="299.629" height="17.767" fill="#111e61"/></g><path d="M.457,0H344.421a.458.458,0,0,1,.458.458V12.347a.458.458,0,0,1-.458.458H.457A.457.457,0,0,1,0,12.348V.457A.457.457,0,0,1,.457,0Z" transform="translate(413.303 108.091) rotate(-180)" fill="#091442"/><path d="M1973.915,1251.43c.03.018.061.036.094.053l-.029-.053Z" transform="translate(-1627.802 -1156.094)" fill="#5f9aa8"/><path d="M1902,1487.986H1370.771c-.237,0-.432-.257-.432-.571h0a.517.517,0,0,1,.432-.57H1902a.517.517,0,0,1,.432.57h0C1902.433,1487.729,1902.239,1487.986,1902,1487.986Z" transform="translate(-1370.339 -1256.513)" fill="#283250"/><g transform="translate(275.754 59.148)"><rect width="8.141" height="4.524" rx="1.391" transform="matrix(0.99, -0.141, 0.141, 0.99, 0, 1.148)" fill="#deedff"/><rect width="2.133" height="2.859" transform="translate(7.583 3.758) rotate(171.89)" fill="#ffbc60"/><path d="M1853.437,1191.816l2.628-.375a.358.358,0,0,0,.3-.4h0a.358.358,0,0,0-.4-.3l-2.627.374a.359.359,0,0,0-.3.4h0A.359.359,0,0,0,1853.437,1191.816Z" transform="translate(-1851.99 -1189.349)" fill="#ffbc60"/><path d="M1853.486,1193.855l3.065-.437a.137.137,0,0,0,.116-.154h0a.136.136,0,0,0-.154-.116l-3.065.437a.137.137,0,0,0-.116.154h0A.137.137,0,0,0,1853.486,1193.855Z" transform="translate(-1852.119 -1190.38)" fill="#ffbc60"/><path d="M1853.594,1194.619l3.066-.436a.137.137,0,0,0,.116-.154h0a.137.137,0,0,0-.154-.115l-3.065.436a.136.136,0,0,0-.116.154h0A.137.137,0,0,0,1853.594,1194.619Z" transform="translate(-1852.165 -1190.706)" fill="#ffbc60"/></g><g transform="translate(171.38 56.498)"><path d="M1.271,0H6.163A1.271,1.271,0,0,1,7.434,1.271v1.59a1.27,1.27,0,0,1-1.27,1.27H1.271A1.271,1.271,0,0,1,0,2.86V1.271A1.271,1.271,0,0,1,1.271,0Z" transform="matrix(0.998, -0.061, 0.061, 0.998, 0, 0.457)" fill="#deedff"/><rect width="1.947" height="2.61" transform="matrix(-0.998, 0.061, -0.061, -0.998, 6.712, 3.386)" fill="#ffbc60"/><path d="M1671.074,1186.179l2.419-.15a.325.325,0,0,0,.3-.345h0a.326.326,0,0,0-.345-.306l-2.419.149a.326.326,0,0,0-.3.345h0A.327.327,0,0,0,1671.074,1186.179Z" transform="translate(-1669.853 -1184.416)" fill="#ffbc60"/><path d="M1670.978,1188.051l2.822-.174a.125.125,0,0,0,.117-.131h0a.125.125,0,0,0-.132-.116l-2.822.174a.126.126,0,0,0-.117.132h0A.126.126,0,0,0,1670.978,1188.051Z" transform="translate(-1669.903 -1185.376)" fill="#ffbc60"/><path d="M1671.022,1188.754l2.822-.174a.125.125,0,0,0,.116-.132h0a.124.124,0,0,0-.131-.116l-2.822.174a.124.124,0,0,0-.116.131h0A.125.125,0,0,0,1671.022,1188.754Z" transform="translate(-1669.922 -1185.676)" fill="#ffbc60"/></g><path d="M1702.577,1228.334a.937.937,0,1,0-.937.936A.937.937,0,0,0,1702.577,1228.334Z" transform="translate(-1511.26 -1145.842)" fill="#6b2ba7"/><path d="M1702.577,1238.586a.937.937,0,1,0-.937.936A.937.937,0,0,0,1702.577,1238.586Z" transform="translate(-1511.26 -1150.215)" fill="#6b2ba7"/><g transform="translate(0 157.347)"><g transform="translate(6.079 29.008)"><path d="M1409.049,1422.451s5.083-5.93.313-9.7c0,0-3.484-2.109-6.324-1.938,0,0,4.025,6.75,2.723,7.422s-3.943-7.845-3.943-7.845-7.928-.768-10.478.458c0,0,6.777,5.546,5.35,5.876s-8.748-5.114-8.748-5.114-7.379,1.256-6.986,5.757,2.936,5.892,4.054,5.772,7.654-2.615,7.8-1.7-3.793,3.909-6.548,4.048c0,0,5.2,5.737,8.66,4.082s3.752-4.281,5.907-5.265,3.995-.982,3.105.022-4.791,1.98-6.023,4.16-2.339,3.65,1.239,3.112,9.392-3.156,9.647-6.153Z" transform="translate(-1380.94 -1410.155)" fill="#82b378"/><g transform="translate(3.641 7.302)"><path d="M1387.29,1422.924s20.042-.772,24.468,4.959a14.5,14.5,0,0,0,3.991,5.6l.47,1.279s-3.473-3.662-4.716-3.883C1411.5,1430.88,1413.445,1423.78,1387.29,1422.924Z" transform="translate(-1387.29 -1422.889)" fill="#82b378"/><path d="M1436.076,1440.991a12.585,12.585,0,0,1,4.6,8.866l-.781.07s-1.374-5.878-3.857-8.177S1436.076,1440.991,1436.076,1440.991Z" transform="translate(-1407.618 -1430.395)" fill="#82b378"/></g></g><g transform="translate(46.644 12.907)"><path d="M1457,1403.017s-8.086-4.529-4.312-10.673c0,0,3.018-3.773,6.253-4.744,0,0-1.725,9.163,0,9.38s1.186-10.35,1.186-10.35,8.517-4.1,11.859-3.774c0,0-5.283,8.948-3.558,8.733s7.654-9.272,7.654-9.272,8.733-1.617,10.134,3.558-.862,7.762-2.156,8.086-9.6.215-9.38,1.294,5.822,2.8,8.948,1.833c0,0-3.45,8.517-7.978,8.085s-5.929-3.234-8.732-3.45-4.852.539-3.45,1.294,6.145.247,8.409,2.172,4.1,3.11-.108,3.973-11.751.324-13.261-2.911Z" transform="translate(-1451.681 -1382.078)" fill="#a8d29f"/><g transform="translate(1.045 5.414)"><path d="M1484.574,1391.519s-22.641,7.331-25.228,15.525a17.2,17.2,0,0,1-2.157,7.87v1.618s2.372-5.5,3.665-6.253C1460.855,1410.278,1455.788,1403.163,1484.574,1391.519Z" transform="translate(-1455.076 -1391.519)" fill="#82b378"/><path d="M1455.617,1431.568a14.936,14.936,0,0,0-1.5,11.757l.9-.241s-.872-7.109.955-10.684S1455.617,1431.568,1455.617,1431.568Z" transform="translate(-1453.503 -1408.173)" fill="#82b378"/></g></g><path d="M1409.435,1387.171s10.659-5.969,5.685-14.07c0,0-3.98-4.973-8.243-6.253,0,0,2.274,12.08,0,12.364s-1.564-13.643-1.564-13.643-11.227-5.4-15.632-4.974c0,0,6.964,11.8,4.69,11.512s-10.09-12.222-10.09-12.222-11.511-2.131-13.358,4.69,1.137,10.233,2.842,10.659,12.648.285,12.364,1.705-7.674,3.7-11.8,2.416c0,0,4.547,11.227,10.516,10.658s7.817-4.263,11.511-4.547,6.4.71,4.548,1.705-8.1.326-11.085,2.863-5.4,4.1.142,5.237,15.491.427,17.48-3.837Z" transform="translate(-1370.339 -1359.569)" fill="#a8d29f"/><g transform="translate(5.841 7.137)"><path d="M1380.525,1372.015s29.844,9.664,33.255,20.465a22.672,22.672,0,0,0,2.842,10.374v2.132s-3.126-7.248-4.832-8.243C1411.79,1396.743,1418.47,1387.364,1380.525,1372.015Z" transform="translate(-1380.525 -1372.015)" fill="#82b378"/><path d="M1442.413,1424.807a19.683,19.683,0,0,1,1.979,15.5l-1.184-.318s1.149-9.371-1.259-14.084S1442.413,1424.807,1442.413,1424.807Z" transform="translate(-1406.316 -1393.968)" fill="#82b378"/></g><path d="M1423.613,1469.46a20.878,20.878,0,0,1-20.878-20.878h41.757A20.878,20.878,0,0,1,1423.613,1469.46Z" transform="translate(-1384.158 -1397.539)" fill="#ffb74d"/><path d="M1430.184,1469.3a20.9,20.9,0,0,0,23.472-20.719h-5.187A20.881,20.881,0,0,1,1430.184,1469.3Z" transform="translate(-1395.867 -1397.539)" fill="#ffd494"/><path d="M1402.231,1484.928h42.334a2.576,2.576,0,0,0-2.576-2.576h-37.182a2.577,2.577,0,0,0-2.577,2.576Z" transform="translate(-1383.943 -1411.944)" fill="#ffb74d"/><rect width="42.919" height="0.64" transform="translate(61.02 51.684) rotate(-180)" fill="#ff9800"/></g><path d="M1822.1,1341.226l-299.828.678v-37.247H1822.1Z" transform="translate(-1435.146 -1178.798)" fill="#afcdfb" opacity="0.9"/><g transform="translate(110.009 69.875)"><path d="M1,0H2.253a1,1,0,0,1,1,1V4.855a1,1,0,0,1-1,1H1a1,1,0,0,1-1-1V1A1,1,0,0,1,1,0Z" transform="translate(0 3.147) rotate(-75.279)" fill="#deedff"/><rect width="1.534" height="2.056" transform="translate(5.126 3.846) rotate(-165.296)" fill="#ffbc60"/><path d="M1564.51,1208.881l1.847.485a.258.258,0,0,0,.314-.183h0a.258.258,0,0,0-.183-.314l-1.847-.485a.257.257,0,0,0-.314.183h0A.257.257,0,0,0,1564.51,1208.881Z" transform="translate(-1563.092 -1207.604)" fill="#ffbc60"/><path d="M1564.016,1210.241l2.154.566a.1.1,0,0,0,.119-.07h0a.1.1,0,0,0-.07-.119l-2.154-.566a.1.1,0,0,0-.119.07h0A.1.1,0,0,0,1564.016,1210.241Z" transform="translate(-1562.932 -1208.317)" fill="#ffbc60"/><path d="M1563.875,1210.777l2.154.566a.1.1,0,0,0,.119-.07h0a.1.1,0,0,0-.07-.119l-2.155-.567a.1.1,0,0,0-.119.071h0A.1.1,0,0,0,1563.875,1210.777Z" transform="translate(-1562.871 -1208.546)" fill="#ffbc60"/></g><g transform="translate(82.517 64.482)"><path d="M1539.228,1197.624l6.63,30.8h-25.839l-5.78-30.8Z" transform="translate(-1514.238 -1197.624)" fill="#699ff0"/><path d="M1539.478,1199.334l5.989,27.823h-23.339l-5.221-27.823Z" transform="translate(-1515.376 -1198.353)" fill="#afcdfb"/></g><g transform="translate(86.512 67.697)"><path d="M1521.8,1203.23h17.765a.595.595,0,0,1,0,1.19H1521.8a.595.595,0,1,1,0-1.19Z" transform="translate(-1521.205 -1203.23)" fill="#699ff0"/><path d="M1523.381,1208.121h17.765a.595.595,0,0,1,0,1.19h-17.765a.595.595,0,1,1,0-1.19Z" transform="translate(-1521.879 -1205.316)" fill="#699ff0"/><path d="M1524.369,1212.815h17.765a.6.6,0,0,1,0,1.19h-17.765a.6.6,0,0,1,0-1.19Z" transform="translate(-1522.301 -1207.318)" fill="#699ff0"/><path d="M1525.8,1222.493h17.765a.595.595,0,1,1,0,1.19H1525.8a.595.595,0,1,1,0-1.19Z" transform="translate(-1522.912 -1211.447)" fill="#699ff0"/><path d="M1527.383,1227.385h17.764a.595.595,0,1,1,0,1.19h-17.764a.595.595,0,1,1,0-1.19Z" transform="translate(-1523.586 -1213.533)" fill="#699ff0"/><path d="M1528.371,1232.079h17.764a.595.595,0,1,1,0,1.19h-17.764a.595.595,0,1,1,0-1.19Z" transform="translate(-1524.008 -1215.536)" fill="#699ff0"/></g><rect width="0.737" height="13.317" transform="translate(117.798 81.859) rotate(-16.788)" fill="#6b2ba7"/><path d="M1580.927,1247.648a2.547,2.547,0,0,1,2.575,2.118h-5.151A2.549,2.549,0,0,1,1580.927,1247.648Z" transform="translate(-1459.069 -1154.48)" fill="#9e69ce"/><g transform="translate(116.373 81.422)"><path d="M1575.387,1240.687a13.7,13.7,0,0,0,2.043-.177l-.028-.167c-.985.167-3.607.424-3.9-.4a4.285,4.285,0,0,1,.16-1.836,18.506,18.506,0,0,0,.226-7.171c-.427-2.562-.11-3.338.232-3.537.357-.209.838.173.843.177l.107-.132c-.023-.019-.578-.459-1.036-.192-.563.33-.669,1.579-.313,3.713a18.357,18.357,0,0,1-.226,7.109,4.319,4.319,0,0,0-.153,1.926C1573.536,1240.544,1574.464,1240.687,1575.387,1240.687Z" transform="translate(-1573.277 -1227.165)" fill="#9e69ce"/></g><g transform="translate(103.831 111.95)"><path d="M1652.056,1280.4l-1.516,3.071-3.39.493,2.453,2.391-.579,3.376,3.032-1.594,3.032,1.594-.579-3.376,2.453-2.391-3.39-.493Z" transform="translate(-1592.247 -1280.403)" fill="#ffee58"/><path d="M1628.344,1280.4l-1.516,3.071-3.39.493,2.453,2.391-.579,3.376,3.032-1.594,3.032,1.594-.579-3.376,2.453-2.391-3.39-.493Z" transform="translate(-1582.133 -1280.403)" fill="#ffee58"/><path d="M1603.282,1280.4l-1.516,3.071-3.39.493,2.453,2.391-.579,3.376,3.032-1.594,3.032,1.594-.579-3.376,2.453-2.391-3.39-.493Z" transform="translate(-1571.442 -1280.403)" fill="#ffee58"/><path d="M1578.131,1280.4l-1.516,3.071-3.39.493,2.453,2.391-.579,3.376,3.032-1.594,3.032,1.594-.579-3.376,2.453-2.391-3.39-.493Z" transform="translate(-1560.713 -1280.403)" fill="#ffee58"/><path d="M1556.313,1280.4l-1.516,3.071-3.39.493,2.453,2.391-.579,3.376,3.032-1.594,3.032,1.594-.579-3.376,2.453-2.391-3.39-.493Z" transform="translate(-1551.407 -1280.403)" fill="#ffee58"/></g></g><g transform="translate(1807.627 1045.865)"><path d="M2145.752,1202.958c-.2-.511-2.755-8.062-4.694-9.083s-5.51-2.143-6.327-1.735-2.347,6.123,0,9.082,8.367,5.817,8.367,5.817Z" transform="translate(-2133.155 -1134.991)" fill="#d97e3a"/><path d="M2181.762,1233.5c-13.469.41-32.6-17.083-32.6-17.083a13.289,13.289,0,0,1,1.533-3.649,10.97,10.97,0,0,1,1.747-1.7c4.9,3.263,22.246,6.324,22.246,6.324C2180.844,1218.126,2193.019,1233.161,2181.762,1233.5Z" transform="translate(-2139.843 -1143.102)" fill="#e78b0d"/><g transform="translate(0 48.99)"><path d="M.759,0H6.436a.759.759,0,0,1,.759.759v14.9a.759.759,0,0,1-.759.759H.76a.76.76,0,0,1-.76-.76V.759A.759.759,0,0,1,.759,0Z" transform="translate(1.726 2.273) rotate(-18.416)" fill="#284856"/><path d="M1.347,0h4.5A1.346,1.346,0,0,1,7.195,1.346V15.068a1.347,1.347,0,0,1-1.347,1.347h-4.5A1.347,1.347,0,0,1,0,15.068V1.347A1.347,1.347,0,0,1,1.347,0Z" transform="translate(0 2.848) rotate(-18.419)" fill="#447993"/></g><path d="M2134.861,1192.165s.47-1.868,3.553-1.849c1.008.006,1.335,3.283.335,6.267a24.824,24.824,0,0,1-1.695,3.9Z" transform="translate(-2133.743 -1134.25)" fill="#d97e3a"/><path d="M2210.5,1469.341s.732,7.055-.868,7.814-20.505.1-20.505.1.05-2.375,3.315-2.835,9.024-2.275,10.082-6.565S2210.5,1469.341,2210.5,1469.341Z" transform="translate(-2156.893 -1251.961)" fill="#091442"/><path d="M2242.765,1469.341s.754,7.229-.837,8.006c-.671.327-21.313.117-21.313.117a4.91,4.91,0,0,1,4.091-3.046c3.266-.459,9.024-2.275,10.082-6.565S2242.765,1469.341,2242.765,1469.341Z" transform="translate(-2170.323 -1251.961)" fill="#091442"/><path d="M2220,1282.76s-.016.775-.047,2.169c-.194,8.986-.962,43.727-1.69,63.1-.031.7-.056,1.387-.082,2.05-.014.35-.027.7-.042,1.051a209.829,209.829,0,0,1-2.991,25.865c-1.636,9.352-3.3,15.72-3.3,15.72a15.463,15.463,0,0,1-10.282-1.108s-1.682-14.514-2.322-23.3c-.21-2.851-1.238-12.576-2.526-24.407-1-9.148-2.155-19.558-3.215-29.025-.055-.5-.11-1.009-.168-1.506-1.711-15.3-3.128-27.771-3.128-27.771l11.031-1.051Z" transform="translate(-2157.355 -1173.683)" fill="#111e61"/><path d="M2215.154,1378.319l-18.428-33.093c-1-9.149-2.155-19.558-3.215-29.025-.055-.5-.11-1.009-.168-1.506-1.711-15.3-3.128-27.77-3.128-27.77l11.031-1.051,18.712.382Z" transform="translate(-2157.355 -1175.011)" fill="#091442"/><path d="M2193.77,1285.57s10.31,50.969,18.712,75.568,8.507,31.433,8.507,31.433,7.709,1.672,11.106-.269c0,0,1.94-46.633-3.143-59.018-3.363-8.192-5.935-25.626-5.061-31.906s1.69-18.874,1.69-18.874Z" transform="translate(-2158.872 -1173.574)" fill="#111e61"/><path d="M2219.619,1142.108l-8.549,8.2a26.933,26.933,0,0,1-5.454-6.368,43.744,43.744,0,0,1-2.86-5.483c-.471-1.032,4.747-4.334,7.695-6.427a11.424,11.424,0,0,0,1.856-1.533s.236.591.619,1.474a32.246,32.246,0,0,0,2.683,4.924C2218.145,1140.4,2219.619,1142.108,2219.619,1142.108Z" transform="translate(-2162.692 -1108.731)" fill="#d97e3a"/><path d="M2217.152,1236.538c-2.437,1.725-6.277,2.348-10.507,2.283a57.56,57.56,0,0,1-14.778-2.407,34.726,34.726,0,0,1-5.848-2.25c-6.529-3.406-5.6-7.937-5.446-24.9.159-17.315,10.814-39.7,12.732-43.443,3.416-6.67,18.738-4.208,18.738-4.208,3.361,1.611,4.557,6.982,4.883,14,.364,7.8-.343,17.623-.343,26.585,0,7.409,1.4,13.96,2.416,19.393C2220.32,1228.643,2221,1233.811,2217.152,1236.538Z" transform="translate(-2153.186 -1121.816)" fill="#ffbc60"/><path d="M2226.1,1225.13c-2.948,6.214-8.754,13.206-12.356,17.233a57.56,57.56,0,0,1-14.778-2.407c-1.84-4.4-2.645-11.751-.945-23.884,1.3-9.249,10.739-46.456,10.739-46.456,7.625-.994,12.365,3.159,15.267,9.536.364,7.8-.343,17.623-.343,26.585C2223.688,1213.146,2225.086,1219.7,2226.1,1225.13Z" transform="translate(-2160.289 -1125.357)" fill="#e78b0d"/><path d="M2216.747,1315.16h-8.915c-4.027-3.509-8.132-5.127-12.213-4.812a15.58,15.58,0,0,0-9.684,4.812h-8.79a2.668,2.668,0,0,0-2.66,2.66v20.68a2.668,2.668,0,0,0,2.66,2.66h39.6a2.668,2.668,0,0,0,2.66-2.66v-20.68A2.667,2.667,0,0,0,2216.747,1315.16Zm-21.05-3.927c3.564-.271,7.175,1.05,10.752,3.927h-19.228A14.52,14.52,0,0,1,2195.7,1311.232Z" transform="translate(-2150.646 -1185.434)" fill="#ead647"/><path d="M2219.407,1339.822v11.266a2.667,2.667,0,0,1-2.66,2.66h-39.6a2.668,2.668,0,0,1-2.66-2.66v-11.266Z" transform="translate(-2150.646 -1198.023)" fill="#ffee58"/><path d="M2218.636,1144.962s2.613,8.26,2.1,9.737c0,0-14.173,1.908-19.924,7.514,0,0,1.869-8.051,4.169-10.063S2218.636,1144.962,2218.636,1144.962Z" transform="translate(-2161.874 -1114.904)" fill="#e78b0d"/><path d="M2208.615,1294.113s-3.988,7.69-1.994,10.682,9.115-.855,9.684-2.564,0-9.969,0-9.969Z" transform="translate(-2164.115 -1177.736)" fill="#d97e3a"/><path d="M2223.431,1181.422s-1.484,21.163-1.465,29.918-6.948,32.042-6.948,32.042a48.367,48.367,0,0,1-6.419.137,7.389,7.389,0,0,1-3.327-1.226s1.53-27.513-1.39-38.058-3.073-31.725-3.073-31.725,1.622-4.572,11.33-3.129C2223.655,1171.092,2223.431,1181.422,2223.431,1181.422Z" transform="translate(-2161.874 -1125.199)" fill="#ffbc60"/><path d="M2212.927,1133.064s-1.769,9.4-7.311,11.969a43.718,43.718,0,0,1-2.86-5.483c-.471-1.032,4.747-4.334,7.695-6.427C2211.925,1133.094,2212.927,1133.064,2212.927,1133.064Z" transform="translate(-2162.692 -1109.828)" fill="#c56825"/><path d="M2194.3,1131.349s13.285-2.338,11.7-10.589-.935-14.111-9.484-12.967-9.589,4.608-9.73,7.491S2190.8,1131.745,2194.3,1131.349Z" transform="translate(-2155.89 -1098.988)" fill="#d97e3a"/><path d="M2203.64,1116.829s-1.161-1.047,2.339-5.1c1.8-2.089,3.43-4.064,1.921-8.125s-.927-7.066-6.628-7.915-5.882-3.577-8.924-3.089-6.259,4.37-8.864,4.8-6.435,13.178-.691,13.667a8.258,8.258,0,0,0,3.51-2.324c1.212-1.579,6.65-4.777,8-3.268S2200.571,1116.433,2203.64,1116.829Z" transform="translate(-2152.912 -1092.544)" fill="#111e61"/><path d="M2211.721,1334.842a1.108,1.108,0,1,1,1.109,1.109A1.109,1.109,0,0,1,2211.721,1334.842Z" transform="translate(-2166.529 -1195.426)" fill="#fff"/></g><g transform="translate(1727.111 1051.533)"><path d="M2044.388,1115.4s11.225-13.489,17.167-4.858c0,0,4.433,1.84,6.037,9.385,1.636,7.7-3.484,13.552-6.131,12.105-1.7-.927-2.983,2.044-2.983,2.044Z" transform="translate(-2014.635 -1104.658)" fill="#091442"/><path d="M2097.108,1223.841c-.311.756-1.665,1.428-3.616,1.912-4.373,1.089-11.746,1.231-17.124-.76-5.766-2.134-9.948-32.612-11.726-48.232-.62-5.448-.949-9.091-.949-9.091s3.312-5.186,16.133-3.457,14.114,6.049,15.265,13.827S2098.115,1221.391,2097.108,1223.841Z" transform="translate(-2022.87 -1128.633)" fill="#ffbc60"/><path d="M2094.2,1228.434c-4.373,1.089-11.746,1.231-17.124-.76-5.766-2.134-9.948-32.612-11.726-48.232,1.519-5.375,2.724-8.912,2.724-8.912s16.1-1.945,19.228,2.917C2090.1,1177.794,2093.509,1219.643,2094.2,1228.434Z" transform="translate(-2023.575 -1131.314)" fill="#e78b0d"/><path d="M2027.857,1217.293c-9.506.29-23.19-10.657-23.19-10.657l1.873-2.88c3.457,2.3,15.7,4.464,15.7,4.464-.858-2.769-1.515-5.332-2-7.695-3.323-16.063,1.1-23,2.387-24.616a4.06,4.06,0,0,1,.335-.383s.039.112.11.326c.158.46.471,1.389.886,2.668C2027.048,1188.047,2035.8,1217.054,2027.857,1217.293Z" transform="translate(-1997.691 -1133.609)" fill="#d97e3a"/><path d="M2072.187,1106.943s1.51-6.036,10.376-4.15c0,0-4.245-.534-5.408,1.1,0,0,3.364-1.541,5.471-.252s2.452,5.628,2.137,6.949-2.64,5.25-4.182,5.25a7.089,7.089,0,0,1-3.364-1.352Z" transform="translate(-2026.493 -1102.428)" fill="#091442"/><path d="M2068.508,1222.012c-4.408-9.887-6.518-12.683-6.591-15.794-.058-2.46,1.154-5.115,3.51-11.623a24.245,24.245,0,0,0,1.174-4.705c1.864-12.547-5.392-26.111-9.9-27.035-1.255-.331-3.382-4.864-3.356-12.166l-.565.111-9.5,1.88s.216,2.988.222,5.8c.006,2.346-.136,4.57-.667,4.85-.684.062-1.087.1-1.087.1s-7.918,11-8.583,21.222,6.34,14.67-.053,35.106C2026.588,1240.638,2070.944,1227.476,2068.508,1222.012Z" transform="translate(-2009.546 -1123.014)" fill="#d97e3a"/><path d="M2051.335,1152.763s.216,2.988.222,5.8c5.313-.15,8.122-5,9.273-7.684Z" transform="translate(-2017.598 -1123.097)" fill="#c56825"/><path d="M2057.362,1134.566s2.785-4.4,3.453-8.162c.477-2.687-.891-12.643-10.9-11.209a13.6,13.6,0,0,0-5.637,2.131c-2.172,1.467-5.308,4.635-1.8,13.323l.911,2.935Z" transform="translate(-2013.149 -1107.814)" fill="#091442"/><path d="M2045.125,1143.03s12.572.207,12.581-7.624,1.637-13.078-6.389-13.542-9.59,2.523-10.228,5.136S2041.855,1142.774,2045.125,1143.03Z" transform="translate(-2013.163 -1110.698)" fill="#d97e3a"/><path d="M2049.051,1120.381s3.442,9.188,8.725,10.546,7.574-.057,7.574-.057a14.959,14.959,0,0,1-4.894-8.839S2051.647,1116.008,2049.051,1120.381Z" transform="translate(-2016.624 -1109.407)" fill="#091442"/><path d="M2045.8,1121.75s-2.571,2.052-3.2,4.046-.909,6.1-2.1,5.96c0,0-2.594-6.245.321-9.778C2043.913,1118.232,2045.8,1121.75,2045.8,1121.75Z" transform="translate(-2012.523 -1110.031)" fill="#091442"/><path d="M2056.945,1371.89a124.207,124.207,0,0,1-7.924,22.229l-4.146-.287a117.286,117.286,0,0,0,1.916-22.741c-.082-9.136-1.212-19.934-4.822-30.244-12.405-35.429-10.4-61.214-10.4-61.214l23.329,2.729,1.087.127c.1,10.714.374,25.26.616,36.635.213,10.23.4,17.893.4,17.893C2061.486,1346.676,2059.858,1360.31,2056.945,1371.89Z" transform="translate(-2009.115 -1178.017)" fill="#ead647"/><path d="M2078.79,1366.226c-1.342,14.316-7.248,23.572-7.248,23.572l-1.98,1.441s-1.875-10.086-3.2-22.085c-1.264-11.405-3-23.473-4.956-27.157-7.78-14.609-10.122-69.758-10.122-69.758l23.653-1.173c2.379,4,3.416,10.558,3.662,18.016.622,18.821-3.8,43.364-4.464,46.914a.015.015,0,0,1,0,.009,1.237,1.237,0,0,0,.156.793C2078.993,1346.113,2079.673,1356.771,2078.79,1366.226Z" transform="translate(-2017.575 -1174.362)" fill="#ffee58"/><path d="M2083.242,1173.6a4.411,4.411,0,0,1,2.385,1.763c2.607,5.734,5.211,20.2,7.041,30.527,1.02,5.753,1.8,10.219,2.2,11.165,1.132,2.64,4.591,17.167,7.546,24.335,0,0,4.025,3.466,3.958,5.323s-.973,6.035-1.979,5.7-.964-4.178-1.98-5.04.046,1.857-.418,1.791-2.653-2.52-2.653-3.382a19.744,19.744,0,0,0-.7-3.262s-12.45-20.658-13.582-26.033c-.37-1.75-1.275-5.252-2.332-9.176-2.186-8.125-5.007-18.068-5.007-18.068l-.929-4.025-3.17-13.725S2079.693,1172.114,2083.242,1173.6Z" transform="translate(-2027.106 -1131.889)" fill="#d97e3a"/><path d="M2049.706,1121.546s2.452,9.621,9.118,12.7c0,0-6.666-5.911-7.231-12.262S2049.706,1121.546,2049.706,1121.546Z" transform="translate(-2016.903 -1109.516)" fill="#091442"/><path d="M2068.258,1238.289a5.612,5.612,0,0,1-.147,1.891c-.5,1.584-2.232,2.305-6.41,1.873-2.554-.266-3.692-4.546-4.2-8.2q-2.3,7.836-6.458,8.771c-4.051.9-24.484,3.386-25.821-6.328-1.472-10.683,2.934-29.6,3.176-39.8a50.454,50.454,0,0,1-.741-9.452c.17-7.265,2.3-11.338,3.942-12.978.464-.357.93-.579,2.794-.9.953-.162,2.272-.349,4.143-.6a7.043,7.043,0,0,1,.747-.058c-.346.618-4.974,7.626-4.613,9.427.378,1.887,16.791.188,17.923-.849s2.923-8.983,2.923-8.983,5.812.635,8.655,2.7l-.03.036a2.4,2.4,0,0,1,.747.787c3.033,5.774,6.062,20.349,8.192,30.745a15.142,15.142,0,0,1-11.074,1.623C2063.836,1219.979,2067.986,1232.833,2068.258,1238.289Z" transform="translate(-2006.331 -1132.153)" fill="#9e69ce"/><path d="M2001.492,1219.031c-.144-.36-1.944-5.69-3.313-6.41s-3.889-1.512-4.465-1.224-1.657,4.321,0,6.41,5.9,4.1,5.9,4.1Z" transform="translate(-1992.643 -1148.884)" fill="#d97e3a"/><path d="M2040.563,1172.918s-.008.016-.025.044c-.558.881-9.277,14.818-10.113,23.881a50.452,50.452,0,0,1-.741-9.452c1.121-3.424,3.843-11.031,6.736-13.877C2036.783,1173.156,2040.563,1172.918,2040.563,1172.918Z" transform="translate(-2008.357 -1132.496)" fill="#ffbc60"/><g transform="translate(0 58.441)"><path d="M2004.719,1216.043l-5.764,1.919a.365.365,0,0,1-.462-.231l-3.66-10.991a.365.365,0,0,1,.231-.462l5.764-1.919a.365.365,0,0,1,.462.231l3.66,10.99A.364.364,0,0,1,2004.719,1216.043Z" transform="translate(-1993.489 -1204.341)" fill="#ead647"/><rect width="6.806" height="12.315" rx="1.129" transform="matrix(0.949, -0.316, 0.316, 0.949, 0, 2.463)" fill="#ffee58"/></g><path d="M2090.006,1437.013c-1.342,14.316-7.248,23.572-7.248,23.572l-2.016,1.837s-1.838-10.482-3.165-22.481C2078.975,1440.042,2085.136,1440.267,2090.006,1437.013Z" transform="translate(-2028.792 -1245.149)" fill="#d97e3a"/><path d="M2066.933,1439.922a124.226,124.226,0,0,1-7.924,22.229l-4.145-.287a117.272,117.272,0,0,0,1.916-22.741C2058.185,1439.832,2061.089,1440.551,2066.933,1439.922Z" transform="translate(-2019.103 -1246.049)" fill="#d97e3a"/><g transform="translate(23.664 209.984)"><path d="M2052.4,1478.207h-2.647c-.886-.139-1.542-.4-2.45-.515a2.455,2.455,0,0,0-2.144.515l-.025.026H2033.89c-.283-.4-.011-1.34.255-2.028a1.6,1.6,0,0,1,1.053-.962,12.121,12.121,0,0,0,5.7-2.6c1.211-1.094,5.849-4.024,5.849-4.024l.024-.006c.1,0,.587.151,2.7,1.932,1.091.919,2.948-1.3,2.948-1.3a2.64,2.64,0,0,1,.609.827,2.789,2.789,0,0,1,.241,1.726,11.184,11.184,0,0,0,.806,4.169c.263.772.483,1.318.483,1.318S2054.675,1477.922,2052.4,1478.207Z" transform="translate(-2033.77 -1468.612)" fill="#091442"/><path d="M2062.668,1470.073a8.4,8.4,0,0,1-2.851,1.437c-1.194.156-3.427-2.892-3.427-2.892l.024-.006c.1,0,.587.151,2.7,1.932,1.091.919,2.948-1.3,2.948-1.3A2.64,2.64,0,0,1,2062.668,1470.073Z" transform="translate(-2043.419 -1468.612)" fill="#091442"/><path d="M2052.4,1483.678h-2.647c-.886-.139-1.542-.4-2.45-.515a2.455,2.455,0,0,0-2.144.515l-.025.026H2033.89c-.283-.4-.011-1.34.255-2.028.342-.3.438,1.318.626,1.577s9.172.094,9.691-.283a5.427,5.427,0,0,1,4.245-.518c1.888.451,4.67-.706,5.359-1.013.263.772.483,1.318.483,1.318S2054.675,1483.393,2052.4,1483.678Z" transform="translate(-2033.77 -1474.083)" fill="#091442"/></g><g transform="translate(37.789 209.984)"><path d="M2077.03,1478.207h-2.647c-.886-.139-1.541-.4-2.45-.515a2.454,2.454,0,0,0-2.143.515c-.017.017-.025.026-.025.026h-11.243c-.283-.4-.012-1.34.254-2.028a1.6,1.6,0,0,1,1.053-.962,12.125,12.125,0,0,0,5.7-2.6c1.211-1.094,5.848-4.024,5.848-4.024l.025-.006c.1,0,.587.151,2.7,1.932,1.091.919,2.949-1.3,2.949-1.3a2.642,2.642,0,0,1,.61.827,2.789,2.789,0,0,1,.241,1.726,11.183,11.183,0,0,0,.806,4.169c.262.772.483,1.318.483,1.318S2079.307,1477.922,2077.03,1478.207Z" transform="translate(-2058.401 -1468.612)" fill="#091442"/><path d="M2087.3,1470.073a8.4,8.4,0,0,1-2.851,1.437c-1.194.156-3.427-2.892-3.427-2.892l.025-.006c.1,0,.587.151,2.7,1.932,1.091.919,2.948-1.3,2.948-1.3A2.642,2.642,0,0,1,2087.3,1470.073Z" transform="translate(-2068.05 -1468.612)" fill="#091442"/><path d="M2077.03,1483.678h-2.647c-.886-.139-1.541-.4-2.45-.515a2.454,2.454,0,0,0-2.143.515c-.017.017-.025.026-.025.026h-11.243c-.283-.4-.012-1.34.254-2.028.342-.3.438,1.318.627,1.577s9.172.094,9.691-.283a5.426,5.426,0,0,1,4.245-.518c1.888.451,4.671-.706,5.359-1.013.262.772.483,1.318.483,1.318S2079.307,1483.393,2077.03,1483.678Z" transform="translate(-2058.401 -1474.083)" fill="#091442"/></g><path d="M2088.572,1256.614c-2.806-.938-6.407-3.431-10.732-9.02-11.451-14.8-.973-32.19.432-32.514s4.048,11.251,4.048,11.251C2084.15,1238.3,2088.3,1251.159,2088.572,1256.614Z" transform="translate(-2026.646 -1150.478)" fill="#6b2ba7"/><path d="M2080.071,1170.251s-11.522,7.85-12.386,24.485,14.115,20.02,14.115,20.02l-.972-5.257s-12.135-4.392-8.966-17.644,14.416-20.91,14.416-20.91Z" transform="translate(-2024.557 -1131.359)" fill="#ffbc60"/><path d="M1993.806,1211.392a4.343,4.343,0,0,1,3.06-1.332c.927-.074.05,2.712-.565,5.389-.371,1.613-.947,1.813-.947,1.813Z" transform="translate(-1993.058 -1148.339)" fill="#d97e3a"/></g></g></svg>