<svg xmlns="http://www.w3.org/2000/svg" width="292" height="71" viewBox="0 0 292 71"><g transform="translate(-1114 -3602)"><g transform="translate(1234.669 3610.192)"><path d="M53.183,26.551V1.347A1.349,1.349,0,0,0,51.836,0H3.341A1.349,1.349,0,0,0,1.994,1.347V12.732a.808.808,0,0,0,1.616,0V1.616H5.227v24.9H3.61V16.6a.808.808,0,0,0-1.616,0v9.948A2.428,2.428,0,0,0,0,28.936V49.52a2.428,2.428,0,0,0,1.994,2.386v1.924a1.349,1.349,0,0,0,1.347,1.347H51.836a1.349,1.349,0,0,0,1.347-1.347V51.905a2.428,2.428,0,0,0,1.994-2.386V28.936A2.428,2.428,0,0,0,53.183,26.551Zm.377,14.186H44.348V38.043H53.56ZM2.425,28.128H23.268a.808.808,0,0,0,0-1.616H20.913V24.786H26.3a1.349,1.349,0,0,0,1.347-1.347v-9.16A1.349,1.349,0,0,0,26.3,12.932H10.675a1.349,1.349,0,0,0-1.347,1.347v9.16a1.349,1.349,0,0,0,1.347,1.347h5.388v1.725H6.843V1.616h41.49V6.569a.808.808,0,0,0,1.617,0V1.616h1.616v24.9H49.95V10.3a.808.808,0,0,0-1.617,0V26.512H45.959v-2.98A2.418,2.418,0,0,0,44.1,21.174l-3.683-.885V18.016a5.3,5.3,0,0,0,1.4-3.477v-.565a1.348,1.348,0,0,0,.873-1.259V9.374A1.349,1.349,0,0,0,41.34,8.026H33.9a1.349,1.349,0,0,0-1.347,1.347v3.341a1.348,1.348,0,0,0,.852,1.251v.573a5.3,5.3,0,0,0,1.4,3.477v2.273l-3.683.885a2.418,2.418,0,0,0-1.858,2.358v2.98H27.047a.808.808,0,1,0,0,1.616h25.7a.809.809,0,0,1,.808.808v1.076H1.616V28.937a.809.809,0,0,1,.808-.808Zm14.447-8.3H10.944V17.781H26.032v2.048h-9.16Zm4.041,1.616h5.119V23.17H20.913Zm5.119-5.281H10.944V14.548H26.032ZM10.944,21.445h5.119V23.17H10.944Zm6.735,0H19.3v5.066H17.68Zm16.494-9v-2.8h6.9v2.8Zm2.248,6.681a3.391,3.391,0,0,0,2.38,0v1.331a2.784,2.784,0,0,1-2.38,0ZM40.2,14.061v.477c0,1.443-1.154,3.187-2.586,3.187s-2.586-1.743-2.586-3.187v-.477Zm-4.719,7.728a4.4,4.4,0,0,0,4.265,0l3.979.957a.806.806,0,0,1,.619.786v2.98H30.881v-2.98a.806.806,0,0,1,.619-.786ZM1.616,38.062h9.212v2.674H1.616Zm49.95,15.5H3.61V51.943H51.566Zm1.185-3.232H2.425a.809.809,0,0,1-.808-.808v-.808H33.57a.808.808,0,1,0,0-1.616H1.616V42.353h9.7a1.133,1.133,0,0,0,1.132-1.132V37.577a1.133,1.133,0,0,0-1.132-1.132h-9.7V31.629H53.56v4.8h-9.7a1.133,1.133,0,0,0-1.132,1.132v3.664a1.133,1.133,0,0,0,1.132,1.132h9.7V47.1H37.367a.808.808,0,1,0,0,1.616H53.56v.808A.809.809,0,0,1,52.752,50.328Z" fill="#111e61"/><path d="M353.211,344.142c.261.029,1.021.011,1.712.012a.838.838,0,0,0,0-1.677h0l-.723,0v-3.632a.838.838,0,1,0-1.676,0v4.467A.838.838,0,0,0,353.211,344.142Z" transform="translate(-314.61 -301.747)" fill="#111e61"/><path d="M134.411,338.011a.838.838,0,0,0-.838.838v1.32h-1.417v-1.32a.838.838,0,0,0-1.676,0v4.471a.838.838,0,0,0,1.676,0v-1.474h1.417v1.474a.838.838,0,0,0,1.676,0v-4.471A.838.838,0,0,0,134.411,338.011Z" transform="translate(-116.465 -301.748)" fill="#111e61"/><path d="M308.518,339.869a.838.838,0,1,0,0-1.676h-1.867a.838.838,0,0,0-.838.838v4.43a.838.838,0,0,0,.838.838h1.867a.838.838,0,1,0,0-1.677H307.49v-.538h.891a.838.838,0,1,0,0-1.676h-.891v-.538h1.028Z" transform="translate(-272.937 -301.909)" fill="#111e61"/><path d="M257.03,338.011h-2.469a.838.838,0,0,0,0,1.677h.391v3.632a.838.838,0,0,0,1.676,0v-3.632h.4a.838.838,0,1,0,0-1.677Z" transform="translate(-226.459 -301.748)" fill="#111e61"/><path d="M191.234,338.011a3.074,3.074,0,1,0,3.074,3.074A3.077,3.077,0,0,0,191.234,338.011Zm0,4.471a1.4,1.4,0,1,1,1.4-1.4A1.4,1.4,0,0,1,191.234,342.482Z" transform="translate(-167.973 -301.748)" fill="#111e61"/></g><rect width="71" height="71" transform="translate(1227 3602)" fill="none"/><rect width="292" height="71" transform="translate(1114 3602)" fill="none"/></g></svg>