<svg xmlns="http://www.w3.org/2000/svg" xmlns:xlink="http://www.w3.org/1999/xlink" width="90" height="90.718" viewBox="0 0 90 90.718">
  <defs>
    <filter id="Elipse_1408" x="2.281" y="5.282" width="85.436" height="85.437" filterUnits="userSpaceOnUse">
      <feOffset dy="3" input="SourceAlpha"/>
      <feGaussianBlur stdDeviation="3" result="blur"/>
      <feFlood flood-color="#ffc571"/>
      <feComposite operator="in" in2="blur"/>
      <feComposite in="SourceGraphic"/>
    </filter>
  </defs>
  <g id="Grupo_56001" data-name="Grupo 56001" transform="translate(-1001 -5971)">
    <g id="Grupo_55920" data-name="Grupo 55920" transform="translate(1000.796 5970.53)">
      <circle id="Elipse_1410" data-name="Elipse 1410" cx="45" cy="45" r="45" transform="translate(0.205 0.47)" fill="#ffd291"/>
      <g transform="matrix(1, 0, 0, 1, 0.2, 0.47)" filter="url(#Elipse_1408)">
        <g id="Elipse_1408-2" data-name="Elipse 1408" transform="translate(15.28 15.28)" fill="#fff" stroke="#e6e6e6" stroke-width="4">
          <circle cx="29.718" cy="29.718" r="29.718" stroke="none"/>
          <circle cx="29.718" cy="29.718" r="31.718" fill="none"/>
        </g>
      </g>
    </g>
    <path id="cocktail" d="M60.6,7.8H56.976l1.952,5.277a6.985,6.985,0,0,1-.094,4.95,6.818,6.818,0,0,0,5.394,9.21v4.1H59.352V33.29h11.7V31.34H66.179V27.234a6.817,6.817,0,0,0,5.852-6.753,6.735,6.735,0,0,0-.566-2.716,5.549,5.549,0,0,1-.432-2.44,7.263,7.263,0,0,0,1.984.281,6.83,6.83,0,0,0,6.817-6.829A6.827,6.827,0,0,0,66.249,7.8H62.656L60.055,0H53.5V1.951h5.149Zm.65,1.951L61.9,11.7H60.5l-.722-1.951ZM64.316,25.28a4.87,4.87,0,0,1-3.664-6.545,9.065,9.065,0,0,0,.46-5.081h8.176a7.929,7.929,0,0,0,.388,4.893,4.8,4.8,0,0,1,.4,1.934A4.879,4.879,0,0,1,64.316,25.28ZM73.006,3.9a4.877,4.877,0,0,1,2.608,9,4.974,4.974,0,0,1-4.238.492c.132-.419.045-.142,2.055-5.589h-5.2A4.885,4.885,0,0,1,73.006,3.9ZM70.63,9.753,69.908,11.7H63.956l-.65-1.951Z" transform="translate(979.334 5998.71)" fill="#111e61"/>
  </g>
</svg>
