<svg xmlns="http://www.w3.org/2000/svg" xmlns:xlink="http://www.w3.org/1999/xlink" width="90" height="90.718" viewBox="0 0 90 90.718">
  <defs>
    <filter id="Elipse_1408" x="2.281" y="5.282" width="85.436" height="85.437" filterUnits="userSpaceOnUse">
      <feOffset dy="3" input="SourceAlpha"/>
      <feGaussianBlur stdDeviation="3" result="blur"/>
      <feFlood flood-color="#ffb74d"/>
      <feComposite operator="in" in2="blur"/>
      <feComposite in="SourceGraphic"/>
    </filter>
  </defs>
  <g id="Grupo_56009" data-name="Grupo 56009" transform="translate(-648 -5598)">
    <g id="Grupo_55928" data-name="Grupo 55928" transform="translate(647.796 5597.53)">
      <circle id="Elipse_1410" data-name="Elipse 1410" cx="45" cy="45" r="45" transform="translate(0.205 0.47)" fill="#ffd18f"/>
      <g transform="matrix(1, 0, 0, 1, 0.2, 0.47)" filter="url(#Elipse_1408)">
        <g id="Elipse_1408-2" data-name="Elipse 1408" transform="translate(15.28 15.28)" fill="#fff" stroke="#e6e6e6" stroke-width="4">
          <circle cx="29.718" cy="29.718" r="29.718" stroke="none"/>
          <circle cx="29.718" cy="29.718" r="31.718" fill="none"/>
        </g>
      </g>
    </g>
    <g id="reservation" transform="translate(677.667 5627.667)">
      <g id="Grupo_55975" data-name="Grupo 55975">
        <path id="Trazado_102109" data-name="Trazado 102109" d="M27.073,2.156h-.958V0h-2.4V2.156h-2.4V0h-2.4V2.156H11.74V0h-2.4V2.156h-2.4V0h-2.4V2.156H3.594A3.6,3.6,0,0,0,0,5.75V27.073a3.6,3.6,0,0,0,3.594,3.594H27.073a3.6,3.6,0,0,0,3.594-3.594V5.75A3.6,3.6,0,0,0,27.073,2.156Zm1.2,24.917a1.2,1.2,0,0,1-1.2,1.2H3.594a1.2,1.2,0,0,1-1.2-1.2V11.5H28.271Zm0-17.969H2.4V5.75a1.2,1.2,0,0,1,1.2-1.2h.958v2.4h2.4v-2.4h2.4v2.4h2.4v-2.4h7.187v2.4h2.4v-2.4h2.4v2.4h2.4v-2.4h.958a1.2,1.2,0,0,1,1.2,1.2ZM23.719,23.479h-2.4v-1.2a5.982,5.982,0,0,0-4.792-5.866V13.9h-2.4V16.41a5.807,5.807,0,0,0-3.428,2.147,6.493,6.493,0,0,0-1.364,3.98v.942h-2.4v2.4H23.719Zm-4.792,0H11.74v-.942a3.767,3.767,0,0,1,2.981-3.8,3.842,3.842,0,0,1,.59-.05h.027a3.548,3.548,0,0,1,2.321.855,3.59,3.59,0,0,1,1.267,2.739Z" fill="#111e61"/>
      </g>
    </g>
  </g>
</svg>
