<svg xmlns="http://www.w3.org/2000/svg" width="493.157" height="245.39" viewBox="0 0 493.157 245.39"><g transform="translate(-2016.378 -630.736)"><g transform="translate(2016.378 655.373)"><g transform="translate(0 84.71)"><path d="M2161.455,899.337s4.8-29.589-8.819-40.735-45.9-6.687-53.694-17.648-21.066-22.182-33.924-24.819-36.083-39.8-46.426-20.8,17.2,76.279,48.344,94.835S2154.141,905.618,2161.455,899.337Z" transform="translate(-2016.377 -789.946)" fill="#5586bb"/><path d="M2018.591,795.333c2.875-5.284,6.749-6.22,11.117-4.768a203.484,203.484,0,0,0,11.706,26.93c10.709,20.043,16.672,35.693,32.78,40.608s64.274,24.382,72.736,32.362a109.4,109.4,0,0,0,13.029,9.805c-11.476,5.608-63.472,7.507-93.024-10.1C2035.8,871.612,2008.249,814.332,2018.591,795.333Z" transform="translate(-2016.378 -789.947)" fill="#4468aa"/><path d="M2029.876,789.97a10.279,10.279,0,0,1,3.852.53c6.917,13.382,20.574,39.776,26.817,51.659,5.663,10.782,18.506,14.955,34.766,20.236,7.258,2.358,15.484,5.029,23.974,8.615,20.254,8.55,38.316,21.739,46.432,28.1-.021.138-.035.229-.035.229a9.809,9.809,0,0,1-2.888,1.522c-8.378-6.49-25.575-18.829-44.745-26.922-8.367-3.531-16.524-6.181-23.72-8.518-16.946-5.506-30.333-9.854-36.6-21.781C2051.157,831.123,2036.373,802.541,2029.876,789.97Z" transform="translate(-2020.605 -789.947)" fill="#75b2d1"/><path d="M2173.207,906.392s-8.591-29.04-10.121-30.47-6.11-1.929-6.11-1.929l7.13,20.411-11.665-21.327s-8.671-1.24-9.931-2.052,7.1,17.165,7.1,17.165-10.047-17.612-11.289-18.969-5.332-5.215-5.332-5.215l11.062,29.182Z" transform="translate(-2052.9 -813.141)" fill="#75b2d1"/><path d="M2122.272,881.3s-7.151-28.809-8.464-31.145-8.644-9.061-8.644-9.061l3.813,17.606s-5.154-19.213-6.717-20.591a66.1,66.1,0,0,0-7.293-4.475l2.69,12.428s-4.659-13.176-5.919-13.987-5.62-.5-5.62-.5,12.674,40.172,17.7,42.518S2122.272,881.3,2122.272,881.3Z" transform="translate(-2038.219 -802.964)" fill="#75b2d1"/></g><g transform="translate(340.572 26.98)"><g transform="translate(28.219 141.309)"><path d="M2598.5,918c-3.663-6.95-22.459-6.352-22.459-6.352s-18.8-.6-22.457,6.352c-.548,1.039,0,5.422,0,5.422,3.994,25.252,22.457,22.618,22.457,22.618s18.465,2.634,22.459-22.618C2598.5,923.424,2599.047,919.041,2598.5,918Z" transform="translate(-2553.34 -911.637)" fill="#5c4dce"/><ellipse cx="21.119" cy="5.486" rx="21.119" ry="5.486" transform="translate(1.583 1.596)" fill="#302367"/><path d="M2597.932,928.675c-2.557,2.44-10.376,4.648-11.837,4.648s-1.608,4.415-3.07,6.158-4.457,2.091-8.768,3.6c-2.879,1.008-10.739-3.056-14.95-4.037,6.769,12.295,18.6,10.621,18.6,10.621s18.464,2.634,22.458-22.618a32.729,32.729,0,0,0,.239-3.839C2600.09,925.143,2599.242,927.426,2597.932,928.675Z" transform="translate(-2555.208 -915.262)" fill="#302367"/></g><path d="M2604.716,781.338a.948.948,0,0,0-1.558-1.08c-.518.749-12.711,18.447-13.911,28.756-.779,6.7-3.037,28.093-4.653,45.943q-.517,1.728-1,3.44c.334-5.053.659-10.583.91-16.15,1.772-39.327-1.805-42.174-2.981-43.11a8.273,8.273,0,0,0-1.333-.865c.037-7.162.038-12.328.038-12.473a.948.948,0,0,0-1.9,0c0,.141,0,4.981-.035,11.78-4.46-.987-8.733,2.207-8.955,2.375a.948.948,0,0,0,1.15,1.508c.047-.036,4.014-3.008,7.794-1.913-.074,13.191-.268,32.185-.782,39.737-.823,12.093-.833,40.777-.833,41.065a.948.948,0,0,0,1.9,0c0-.288.009-28.907.827-40.936.5-7.418.7-25.752.782-38.916.054.041.109.077.164.12,1.2.956,3.828,6.917,2.268,41.535-.475,10.545-1.215,20.959-1.788,28.228a48.83,48.83,0,0,0-.837,10.009.948.948,0,0,0,.923.908h.025a.948.948,0,0,0,.943-.86c.007-.084.359-3.868.824-9.743.261-1.506.577-3.072.938-4.677-.538,6.735-.865,12.029-.8,14.356a.947.947,0,0,0,.947.923h.026a.948.948,0,0,0,.922-.973c-.09-3.418.671-13.353,1.71-24.844,5.88-19.583,15.345-40.561,15.486-40.872a.948.948,0,0,0-1.727-.783c-.493,1.086-7.336,16.253-12.931,32.75,1.488-15.589,3.2-31.7,3.855-37.346C2592.275,799.394,2604.592,781.517,2604.716,781.338Z" transform="translate(-2530.018 -729.053)" fill="#75b2d1"/><path d="M2556.716,766c2.227,4.419,5.667,8.167,11.73,7.062,3.517-.641,3.218-5.413,3.99-4.909,5.926,3.872,9.7,2.04,11.772-1.106,4.741-7.2,5.926-31.615-3.556-38.8s-31.6-18.137-35.4-11.4C2542.031,722.577,2549.09,750.857,2556.716,766Z" transform="translate(-2522.339 -708.661)" fill="#5586bb"/><path d="M2576.163,734.749s-.6-1.169-1.309-2.773c-1.631-3.69-5.743-9.6-18.034-8.316-3.721.388-7.6,3.957-11.471,8.431-.758.875-3.179-3.265-3.936-2.338-.494.606.676,6.269.183,6.885-1.908,2.383-3.8,4.808-5.665,7-.594.7-3.1-3.393-3.684-2.751-.407.444,1.1,5.637.7,6.048-2.805,2.86-5.511,4.813-8.048,4.855-5.061.085-10.437-9.992-12.115-20.672-.119-.757,3.583-3.378,3.5-4.138-.1-.94-3.971-.017-4.006-.949-.288-7.6,1.638-14.732,7.246-17.908C2534.223,699.8,2576.117,716.11,2576.163,734.749Z" transform="translate(-2512.253 -705.89)" fill="#75b2d1"/><path d="M2629.42,797.624s-18.963,1.655-24.651,5.153a28.671,28.671,0,0,0-6.44,6.087c-.324.4,1.733,2.259,1.423,2.671-.36.479-3.083-.487-3.416,0-2.892,4.231-4.622,8.607-2.707,10.266,3.556,3.082,14.885.944,14.885.944s13.677,6.523,19.6-.707a14.123,14.123,0,0,0,2.7-6.865c.09-.59-2.754-.154-2.7-.76s2.994-2.263,3.009-2.879A56.112,56.112,0,0,0,2629.42,797.624Z" transform="translate(-2537.486 -734.62)" fill="#5586bb"/><g transform="translate(55.335 34.797)"><path d="M2642.707,760.893a30.519,30.519,0,0,1,4.929,2.934c.449.332-1.463,1.344-1.029,1.719.383.332,3.117.023,3.467.387,2.88,2.986,4.283,6.964-1.5,10.985-4.583,3.184-41.039-18.566-31.183-18.717C2628.037,758.038,2642.707,760.893,2642.707,760.893Z" transform="translate(-2599.988 -757.068)" fill="#5586bb"/><path d="M2610.272,774.877a19.167,19.167,0,0,1-13.772,1.864c-5.1-1.327-4.193-7.983-1.522-12.935.274-.508,4.1-1.687,4.4-2.151.264-.4-2.992-.091-2.709-.449a9.157,9.157,0,0,1,2.935-2.587c11.236-5.514,35.933,1.76,35.933,1.76a3.484,3.484,0,0,0-3.068,1.657,18.88,18.88,0,0,0-1.853,4.7c-.185.64-2.315-.976-2.5-.3-.175.651,1.6,3.592,1.417,4.253-1.519,5.507-3.469,10.981-8.7,10.091C2610.48,779.019,2610.272,774.877,2610.272,774.877Z" transform="translate(-2592.821 -756.554)" fill="#75b2d1"/></g><path d="M2610.218,801.83s9.534-3.732,17.744-1.124,19.728,7.585,25.524,5.452.107-10.193-5.462-11.26-11.141,1.067-17.9,1.067S2611.995,799.517,2610.218,801.83Z" transform="translate(-2542.935 -733.673)" fill="#75b2d1"/><path d="M2554.2,806.634s4.267-6.637-11.377-5.451c-4.321.327-8.579,2.328-12.437,5.224-.491.369,2.249.622,1.771,1.018-.515.427-4.245,1-4.743,1.455a49.285,49.285,0,0,0-7.251,8.4c-.409.6,2.807.532,2.434,1.131-.4.647-4.391,1.955-4.75,2.6-2.789,5-4.18,9.755-3.468,12.647.96,3.9,14.928,1.8,25.481-1.185,2.251-.637.492-3.113,2.726-3.911,1.521-.543,2.96,1.8,4.412,1.2,7.386-3.036,13.539-6.652,15.143-9.733C2566.641,811.375,2561.189,806.16,2554.2,806.634Z" transform="translate(-2512.86 -735.69)" fill="#75b2d1"/></g><g transform="translate(45.986)"><path d="M2187.93,860.331s-28.559,8.286-37.063-2.757,3.339-12.976-5.477-21.195-22.351-1.324-26.864-20.887,7.6-27.377,2.4-37.292-21.278-24.845-30.5-44.928-11.255-55.2,4.935-65.42,32.51,45.722,39.754,50.907,9.641-7.9,23.024,7.308,9.729,55.219,27.228,62.489,16.16,36.672,11.316,51.2S2187.93,860.331,2187.93,860.331Z" transform="translate(-2083.333 -666.607)" fill="#5586bb"/><path d="M2109.5,697.473c10.952,24.027,35.127,69.864,35.844,71.461s30.07,58.323,30.07,58.323l19.267,32.759c.841-1.406,4.344-7.623,8.559-20.259,4.845-14.527,6.184-43.929-11.316-51.2s-13.845-47.284-27.227-62.489-15.78-2.123-23.025-7.308c-6.877-4.922-21.933-55.581-37.292-51.959C2103.927,676.208,2104.864,687.293,2109.5,697.473Z" transform="translate(-2089.894 -666.61)" fill="#4468aa"/><path d="M2179.2,881.81s-40.152,2.451-39.589,4.833c2.391,10.113,41.542-1.365,41.542-1.365Z" transform="translate(-2100.958 -734.007)" fill="#75b2d1"/><path d="M2161.411,904.436l20.5-2.455-14.212,6.99c2.151,2.5,2.291,4.408,1.927,6.29l25.012-8.336-7.466-13.088-37,7.106C2153.789,902.39,2157.755,902.89,2161.411,904.436Z" transform="translate(-2104.267 -737.773)" fill="#75b2d1"/><path d="M2185.225,842.845l10.269-23.507-16.748,20.457,11.11,18.528,18.775-24.57-2.608-3.577-11.07,14.793,9.515-16.68s-3.62-6.5-3.506-8.824Z" transform="translate(-2113.216 -714.441)" fill="#5586bb"/><path d="M2159.873,796.981s19.945-35.166,20.085-35.579.372-7.578.372-7.578l-6.918-8.253-9.425,31.493,5.924-31.233-16.059,28.847,10.125-33.437s-5.063,1.4-6.774.92l-3.165,14.855,0-16.014a20.7,20.7,0,0,1-7.127-9.271l-1.679,4.429a38.4,38.4,0,0,0,.263,27.913l2.706,6.746Z" transform="translate(-2101.939 -687.003)" fill="#5586bb"/><path d="M2170.766,851.4s-32.876-7.872-32.036-10.733a23.469,23.469,0,0,0,.9-4.124c.285-1.418-.234-2.762,2.367-1.712s18.729,6.929,18.729,6.929-19.893-10.2-20.469-11.459a55.889,55.889,0,0,0-3.861-6.908c-.806-.9,17.584,9.091,18.919,9.953s9.977,6.817,9.977,6.817Z" transform="translate(-2099.944 -715.694)" fill="#75b2d1"/><path d="M2101.817,667.4c-.122,2.289-.277,4.772-.476,7.48-1.272,17.319,14.785,46.309,27.687,69.6,5.253,9.485,9.791,17.676,12.049,23.174,7.5,18.241,47.8,87.227,51.2,93.029.815-.209,1.273-.342,1.273-.342s.264-.412.734-1.261c-4.205-7.2-43.631-74.818-50.853-92.392-2.315-5.635-6.885-13.886-12.177-23.44-12.066-21.786-28.592-51.623-27.375-68.186.226-3.072.4-5.864.528-8.406A7.3,7.3,0,0,0,2101.817,667.4Z" transform="translate(-2088.951 -666.625)" fill="#75b2d1"/><path d="M2141.3,799.705s-24.68-6.7-26.624-8.373a84.312,84.312,0,0,1-6.353-7.215l21.232,8-9.749-4.953,8.822.4-23.466-10.788-6.738-9.482,20.485,2.388s-22.549-5.571-23.25-6.7-3.93-9.013-3.93-9.013l27.9,4.319Z" transform="translate(-2085.962 -693.97)" fill="#75b2d1"/></g><g transform="translate(358.377 36.834)"><path d="M2626.2,755.213l-16.358,35.5s-13.778,18.469-11.016,25.106,39.681-25.124,40.485-38.518S2626.2,755.213,2626.2,755.213Z" transform="translate(-2557.057 -731.191)" fill="#622043"/><path d="M2600.7,841.2s3.475,5.132.853,6.5-7.044.361-7.044.361l1.6-4.928Z" transform="translate(-2555.819 -758.123)" fill="#df6161"/><g transform="translate(0 86.227)"><g transform="translate(0 7.052)"><g transform="translate(12.734 0.425)"><rect width="64.037" height="51.956" transform="translate(64.037 51.956) rotate(180)" fill="#df6161"/></g><g transform="translate(0 0.425)"><rect width="12.735" height="51.956" transform="translate(12.735 51.956) rotate(180)" fill="#932a3f"/></g><g transform="translate(12.734 40.053)"><path d="M2556.719,914.37c3.043,2.3,10.343,6.811,13.421,6.33,4.4-.688,21.193,2.311,32.2-4.129,4.99-2.919,5.223,1.712,13.809.138a18.407,18.407,0,0,0,4.606-1.352V926.7h-64.038Z" transform="translate(-2556.719 -914.37)" fill="#932a3f"/></g><g transform="translate(25.054)"><rect width="2.202" height="52.851" fill="#302367"/></g><g transform="translate(62.251)"><rect width="2.202" height="52.851" fill="#302367"/></g><g transform="translate(24.366 39.124)"><path d="M2576.255,915.292c-.254.272-.7.461-1.4-.049a1.234,1.234,0,0,1-.51-1v-.838l-.365.573a2.159,2.159,0,0,0-.323,1.154v.72a2.311,2.311,0,0,0,.739,1.756,1.716,1.716,0,0,0,2.7-1.713v-1.349a2.165,2.165,0,0,0-.3-1.116l-.251-.415V914.5A1.157,1.157,0,0,1,2576.255,915.292Z" transform="translate(-2573.655 -913.017)" fill="#d49435"/></g><g transform="translate(61.562 39.124)"><path d="M2630.414,915.292c-.254.272-.7.461-1.4-.049a1.232,1.232,0,0,1-.51-1v-.838l-.365.573a2.159,2.159,0,0,0-.323,1.154v.72a2.313,2.313,0,0,0,.74,1.756,1.716,1.716,0,0,0,2.7-1.713v-1.349a2.17,2.17,0,0,0-.3-1.116l-.251-.415V914.5A1.158,1.158,0,0,1,2630.414,915.292Z" transform="translate(-2627.813 -913.017)" fill="#d49435"/></g><g transform="translate(5.466 0.425)"><rect width="1.803" height="51.957" fill="#622043"/></g><g transform="translate(68.105 45.008)"><path d="M2646.006,921.629s-6.855-1.081-8.667,7.328h8.667Z" transform="translate(-2637.339 -921.584)" fill="#f2cf4f"/></g><g transform="translate(68.105 0.425)"><path d="M2646.006,864s-6.855,1.081-8.667-7.329h8.667Z" transform="translate(-2637.339 -856.671)" fill="#f2cf4f"/></g><g transform="translate(12.734 45.008)"><path d="M2556.719,921.629s6.855-1.081,8.668,7.328h-8.668Z" transform="translate(-2556.719 -921.584)" fill="#f2cf4f"/></g><g transform="translate(12.734 0.425)"><path d="M2556.719,864s6.855,1.081,8.668-7.329h-8.668Z" transform="translate(-2556.719 -856.671)" fill="#f2cf4f"/></g><g transform="translate(8.401 0.425)"><path d="M2554.743,864s-3.427,1.081-4.333-7.329h4.333Z" transform="translate(-2550.409 -856.671)" fill="#d49435"/></g><g transform="translate(8.401 45.008)"><path d="M2554.743,921.629s-3.427-1.081-4.333,7.328h4.333Z" transform="translate(-2550.409 -921.584)" fill="#d49435"/></g><g transform="translate(0 0.425)"><path d="M2538.177,864s3.427,1.081,4.334-7.329h-4.334Z" transform="translate(-2538.177 -856.671)" fill="#d49435"/></g><g transform="translate(0 45.008)"><path d="M2538.177,921.629s3.427-1.081,4.334,7.328h-4.334Z" transform="translate(-2538.177 -921.584)" fill="#d49435"/></g><g transform="translate(30.166 8.119)"><path d="M2592.538,869.388l-9.5-1.514-.943,5.953,9.2,2.028Z" transform="translate(-2582.1 -867.874)" fill="#fff"/></g><g transform="translate(16.18 10.943)"><circle cx="3.716" cy="3.716" r="3.716" transform="translate(0 1.707) rotate(-13.283)" fill="#fff"/></g></g><g transform="translate(32.072)"><path d="M2584.875,853.261h2.486V848.27h13.211v4.991h2.485v-6.234a1.243,1.243,0,0,0-1.243-1.242h-15.7a1.243,1.243,0,0,0-1.243,1.242Z" transform="translate(-2584.875 -845.785)" fill="#302367"/></g></g><path d="M2596.125,839.705s-3.9.766-4.277,1.825-1.367,3.876-2.47,4.227.311,1.532,1.44.883,3.176-2.718,4.674-3.082,4.464.321,4.257-2.218A2.2,2.2,0,0,0,2596.125,839.705Z" transform="translate(-2554.089 -757.501)" fill="#df6161"/><path d="M2590.473,849.567s2.685-2.526,3.47-2.355.614,1.178.614,1.178a6.282,6.282,0,0,1,3.2-.273c1.308.4,3.437.469,2.473,1.47s-7.638.988-8.593,1.435S2589.924,850.062,2590.473,849.567Z" transform="translate(-2554.498 -760.002)" fill="#df6161"/><path d="M2652.469,976a10.033,10.033,0,0,1-1.53-4.847h-5.4a5.081,5.081,0,0,1-.542,3.3c-.4.631-1.556,1.1-3.153,1.774-2.529,1.3-5.65,2.972-5.758,3.837-.18,1.44,14.716,1.395,17.191,0C2654.572,979.331,2653.667,977.764,2652.469,976Z" transform="translate(-2568.842 -798.821)" fill="#302367"/><path d="M2723.778,916.871a10.026,10.026,0,0,1-4.737,1.843l.353,5.389a5.079,5.079,0,0,1,3.329.325c.656.354,1.2,1.48,1.976,3.03,1.461,2.438,3.335,5.444,4.205,5.5,1.448.086.43-14.776-1.125-17.154C2726.967,914.555,2725.462,915.561,2723.778,916.871Z" transform="translate(-2594.822 -781.308)" fill="#302367"/><path d="M2626.516,820.139c2.887-6.771,13.212-3.659,18.692-6.313,2.323,4.738,3.13,7.833,7.142,16.284,7.378,15.542,5.647,42.781,8.392,45.615,4.737,4.891,25.152,3.214,31.3,11.67.8,1.1,1.3,8.6-3.186,9.879-9.666,2.762-29.863-.322-38.834-8.425C2635.352,875.6,2624.28,825.385,2626.516,820.139Z" transform="translate(-2565.754 -749.548)" fill="#211941"/><path d="M2645.7,875c3.711-33.568,8.828-44.068,13.522-52.7,2.967.584,7.756.654,13.084.472.027,5.7,6.273,7.576,2.681,23.042-1.054,4.536-13.665,28.316-14.215,31.238-1.207,6.421,5.321,25.884,1.551,47.511-1.2,6.887-14.957,2.422-15.094.628C2645.9,907.751,2644.989,881.46,2645.7,875Z" transform="translate(-2571.775 -752.201)" fill="#211941"/><path d="M2634.989,764.982s-8.975,12.244-6.213,15.281,8.7.679,8.7.679Z" transform="translate(-2566.387 -734.251)" fill="#211941"/><g transform="translate(59.892)"><path d="M2668.7,755.2c-4.245-10.8-23.941-14.939-33.184-4.409-4.083,4.652-3.591,9.544-2.446,27.216.17,2.616-10.107,19.854-7.162,24.948,2.129,3.682,7.693,5.773,14.6,6.29.987.074,3.881-7.674,4.841-7.672.9,0,1.483,7.914,2.333,7.852,3.411-.247,22-1.6,20.974-4.675C2667.216,800.418,2671.53,762.385,2668.7,755.2Z" transform="translate(-2625.381 -727.893)" fill="#932a3f"/><g transform="translate(16.274)"><path d="M2651.28,726.026l2.568-5.784s6.384-.357,7.9,5.238l-3.251,6.224Z" transform="translate(-2649.766 -720.237)" fill="#932a3f"/><path d="M2649.346,727.81c2.188-1.863,8.033,1.184,8.752,4.844.558,2.842-1.325,3.718-2.014,3.464C2653.191,735.05,2647.814,729.115,2649.346,727.81Z" transform="translate(-2649.077 -722.432)" fill="#302367"/><path d="M2657.869,735.881l2.2,7.525c-.032,1.079-4.255,3.143-5.9,1.713-.482-.419-.083-7.018-.083-7.018Z" transform="translate(-2650.595 -725.137)" fill="#df6161"/><path d="M2653.927,744.321c0-.643.021-1.325.042-1.955l3.159-.567A5.569,5.569,0,0,1,2653.927,744.321Z" transform="translate(-2650.596 -726.99)" fill="#302367"/><path d="M2654.861,730.9l1.5,4.233a2.74,2.74,0,0,1-1.86,3.339,7.559,7.559,0,0,1-3.347.218c-1.224-.117-1.879-1.272-1.92-2.871a14.934,14.934,0,0,1,.837-5.014C2650.868,728.493,2653.677,728.212,2654.861,730.9Z" transform="translate(-2649.126 -722.974)" fill="#df6161"/><path d="M2652.383,736.4a7.384,7.384,0,0,1-2.434.135s-.015.931.557,1.239S2652.074,737.515,2652.383,736.4Z" transform="translate(-2649.35 -725.298)" fill="#fff"/><path d="M2657.8,733.854a3.9,3.9,0,0,0,.227-.8c.1-.521.363-1.271,1.064-.746,1.019.763.346,3.5-.979,3.475C2657.124,735.761,2657.524,734.5,2657.8,733.854Z" transform="translate(-2651.709 -723.962)" fill="#df6161"/><path d="M2654.095,741.149a4.455,4.455,0,0,1-3.273-.4,1.606,1.606,0,0,0-1.209-.108,1.963,1.963,0,0,0,1.664,1.432,7.561,7.561,0,0,0,3.347-.218,2.726,2.726,0,0,0,1.888-2.078A4.792,4.792,0,0,1,2654.095,741.149Z" transform="translate(-2649.244 -726.357)" fill="#932a3f"/><path d="M2660.58,729.6s-.8-6.124-7.627-5.338l-.584,1.318s3.528.109,5.412,1.871a6.493,6.493,0,0,1,1.852,3.962Z" transform="translate(-2650.108 -721.477)" fill="#f2cf4f"/></g><path d="M2679.581,804.763c-1.447-4.33,2.867-42.362.041-49.551-2.411-6.133-9.8-10.113-17.434-10.483-.228,1.9-.65,5.077-1.351,9.3-1.077,6.481-.66,38.316,1.019,55.156C2668.245,808.63,2680.418,807.268,2679.581,804.763Z" transform="translate(-2636.299 -727.908)" fill="#622043"/><path d="M2659.2,743.323s-2.17,2.021-3.12,2.172l-1.06,1.352-.539-1.419-.9-.4a19.021,19.021,0,0,0-.131,2.808c.119.385,1.852,1.13,3.2.9s3.854-1.234,3.914-1.9S2659.2,743.323,2659.2,743.323Z" transform="translate(-2634.163 -727.468)" fill="#932a3f"/><g transform="translate(19.338 15.855)"><path d="M2655.012,747.4c-.792-.171-.9-1.34-.9-1.34l-.577-.109c.042-.509.084-.921.084-.921l.9.4.538,1.419,1.061-1.352c.95-.151,3.12-2.173,3.12-2.173s.146.292.341.709c-.694.57-2.582,2.091-3,2.083C2656.075,746.1,2655.8,747.569,2655.012,747.4Z" transform="translate(-2653.538 -743.322)" fill="#f2cf4f"/></g><path d="M2625.914,827.5a5.938,5.938,0,0,1-.467-3.512c3.643,3.846,14.278,7.345,14.278,7.345s2.795-7.44,5.493-8.218,4.665,8.51,4.665,8.51c4.568.191,14.84-2.894,18.506-4.049a8.382,8.382,0,0,0,.276,1.719c1.029,3.077-17.563,4.429-20.974,4.675-.85.062-1.433-7.85-2.334-7.852-.96,0-3.854,7.746-4.841,7.672C2633.608,833.276,2628.044,831.186,2625.914,827.5Z" transform="translate(-2625.383 -752.445)" fill="#f2cf4f"/><path d="M2625.654,827.327c-.043-.126-.08-.257-.112-.392-.017-.071-.033-.144-.047-.218-.025-.13-.044-.263-.061-.4-.012-.1-.021-.21-.027-.318,0-.068-.007-.138-.009-.208a9.986,9.986,0,0,1,.051-1.379c2.678,2.828,9.132,5.466,12.365,6.666a5.082,5.082,0,0,1-.151,2.816h0a30.475,30.475,0,0,1-3.805-.806l-.16-.045c-.239-.069-.473-.143-.705-.218l-.259-.085c-.213-.072-.423-.146-.629-.223-.1-.036-.194-.074-.289-.111-.2-.076-.389-.153-.576-.234-.1-.043-.2-.089-.3-.133-.178-.08-.358-.161-.531-.245-.1-.049-.193-.1-.29-.152q-.409-.212-.792-.442c-.133-.08-.267-.158-.4-.241-.11-.071-.213-.147-.319-.221-.127-.088-.254-.176-.376-.268-.1-.074-.192-.151-.287-.228-.121-.1-.239-.2-.353-.3-.085-.076-.169-.154-.251-.232-.115-.108-.224-.22-.33-.333-.072-.076-.145-.152-.212-.23-.113-.128-.218-.26-.321-.393-.052-.067-.107-.133-.157-.2a7.483,7.483,0,0,1-.411-.628,3.282,3.282,0,0,1-.209-.451C2625.688,827.425,2625.67,827.377,2625.654,827.327Z" transform="translate(-2625.384 -752.863)" fill="#d28639"/><g transform="translate(13.029 26.653)"><path d="M2646.112,760.922c.056,1.011.479,1.809.945,1.783s.8-.867.74-1.877-.48-1.81-.945-1.784S2646.055,759.911,2646.112,760.922Z" transform="translate(-2644.901 -759.044)" fill="#f2cf4f"/><path d="M2645.235,774.567c.056,1.01.479,1.809.945,1.783s.8-.867.74-1.878-.48-1.809-.945-1.783S2645.178,773.557,2645.235,774.567Z" transform="translate(-2644.626 -763.318)" fill="#f2cf4f"/><path d="M2644.358,788.212c.056,1.01.479,1.809.945,1.783s.8-.867.74-1.878-.48-1.809-.946-1.783S2644.3,787.2,2644.358,788.212Z" transform="translate(-2644.352 -767.591)" fill="#f2cf4f"/></g><g transform="translate(22.585 26.119)"><path d="M2660.026,760.144c.056,1.011.479,1.81.945,1.784s.8-.867.74-1.878-.48-1.809-.945-1.783S2659.97,759.133,2660.026,760.144Z" transform="translate(-2658.815 -758.266)" fill="#f2cf4f"/><path d="M2659.149,773.789c.056,1.011.48,1.809.945,1.784s.8-.867.74-1.878-.48-1.809-.945-1.783S2659.093,772.778,2659.149,773.789Z" transform="translate(-2658.54 -762.539)" fill="#f2cf4f"/><path d="M2658.271,787.433c.056,1.011.48,1.809.945,1.783s.8-.866.74-1.877-.48-1.81-.945-1.784S2658.215,786.422,2658.271,787.433Z" transform="translate(-2658.265 -766.813)" fill="#f2cf4f"/></g></g><path d="M2671.956,763.038s-2.623,14.913.967,16.985a7.9,7.9,0,0,0,7.077.311Z" transform="translate(-2579.786 -733.642)" fill="#302367"/><g transform="translate(50.617 43.417)"><g transform="translate(12.734 0.425)"><rect width="64.037" height="42.386" transform="translate(64.037 42.386) rotate(180)" fill="#958dfb"/></g><g transform="translate(0 0.425)"><rect width="12.735" height="42.386" transform="translate(12.735 42.386) rotate(180)" fill="#5c4dce"/></g><g transform="translate(12.734 30.482)"><path d="M2630.418,827.834c3.042,2.3,10.342,6.811,13.42,6.33,4.4-.688,21.193,2.312,32.2-4.128,4.99-2.919,5.224,1.712,13.81.137a18.4,18.4,0,0,0,4.605-1.352v11.341h-64.037Z" transform="translate(-2630.418 -827.834)" fill="#5c4dce"/></g><g transform="translate(25.054)"><rect width="2.202" height="43.28" fill="#302367"/></g><g transform="translate(62.251)"><rect width="2.202" height="43.28" fill="#302367"/></g><g transform="translate(24.366 29.553)"><path d="M2649.954,828.757c-.254.273-.7.461-1.4-.049a1.233,1.233,0,0,1-.51-1v-.839l-.365.573a2.16,2.16,0,0,0-.322,1.154v.721a2.314,2.314,0,0,0,.739,1.756,1.716,1.716,0,0,0,2.7-1.714v-1.348a2.168,2.168,0,0,0-.3-1.117l-.251-.415v1.484A1.151,1.151,0,0,1,2649.954,828.757Z" transform="translate(-2647.354 -826.482)" fill="#d49435"/></g><g transform="translate(61.562 29.553)"><path d="M2704.112,828.757c-.254.273-.7.461-1.4-.049a1.232,1.232,0,0,1-.51-1v-.839l-.365.573a2.16,2.16,0,0,0-.323,1.154v.721a2.31,2.31,0,0,0,.74,1.756,1.716,1.716,0,0,0,2.7-1.714v-1.348a2.175,2.175,0,0,0-.3-1.117l-.251-.415v1.484A1.153,1.153,0,0,1,2704.112,828.757Z" transform="translate(-2701.512 -826.482)" fill="#d49435"/></g><g transform="translate(5.466 0.425)"><rect width="1.803" height="42.386" fill="#302367"/></g><g transform="translate(30.166 8.119)"><path d="M2666.237,796.788l-9.5-1.514-.943,5.953,9.2,2.028Z" transform="translate(-2655.798 -795.274)" fill="#aca6fb"/></g><g transform="translate(16.935 11.697)"><circle cx="3.716" cy="3.716" r="3.716" fill="#aca6fb"/></g></g><path d="M2658.577,840.695l-.566.056-3.264.3s.24,1.9-.648,2.745-4.723-.343-5.225.866c-.289.694,1.446,1.332,2.061,2.19s2.841.921,3.27,1.4a6.589,6.589,0,0,0,2.577,1.308c.625.1,6.377-3.546,6.377-5.31S2658.577,840.695,2658.577,840.695Z" transform="translate(-2572.836 -757.964)" fill="#df6161"/><path d="M2660.148,840.79a11.343,11.343,0,0,0-3.131-.671c-1.4-.023-2.991.676-3.728.4s-1.622-.142-1.11.525,1.179,1.8,4.654,1.2S2660.148,840.79,2660.148,840.79Z" transform="translate(-2573.834 -757.783)" fill="#df6161"/><path d="M2671.361,753.985c-10.39,3.886,6.17,25.623,5.354,33.84-.793,7.975-17.131,25.23-17.131,25.23s6.8,7.832,10.755,7.3,21.887-20.458,22.857-29.413C2694.189,781.775,2680,750.753,2671.361,753.985Z" transform="translate(-2576.201 -730.733)" fill="#932a3f"/><path d="M2696.527,791.157c.874-8.062-9.991-33.011-18.5-36.725.97,5.415-.96,6.681,1.717,12.938,2.851,6.661,10.275,18.264,9.882,22.214-.272,2.739-4.707,2.773-5.768,7.042-2.635,10.609-9.44,18.2-13.641,22.967a5.875,5.875,0,0,0,3.451.977C2677.622,820.04,2695.557,800.112,2696.527,791.157Z" transform="translate(-2579.532 -730.947)" fill="#622043"/></g><g transform="translate(102.908 42.518)"><g transform="translate(25.763 2.195)"><path d="M2236.148,732.4a4.216,4.216,0,0,0-4.28-.219c-4.752,2.24-5.925,16.993-10.7,22.441-3.779,4.309,3.771,13.907,12.081,10.364C2241.5,761.464,2243.713,728.553,2236.148,732.4Z" transform="translate(-2208.872 -731.71)" fill="#302367"/><g transform="translate(27.69 53.469)"><g transform="translate(7.135 99.682)"><path d="M2256.979,957.641c.9.8,4.527,5.479,5.8,5.6a4.946,4.946,0,0,0,1.62-.108,12.26,12.26,0,0,1-2.534-3.744,10.227,10.227,0,0,1-.89-4.688l-3.973.21a1.805,1.805,0,0,0-1.677,1.468c-.061.317-.119.6-.159.713A2.633,2.633,0,0,1,2256.979,957.641Z" transform="translate(-2254.659 -954.699)" fill="#df6161"/><path d="M2267.458,965.971a8.059,8.059,0,0,0-2.832-1.485,1.689,1.689,0,0,1-.459-.266,4.941,4.941,0,0,1-1.619.108c-1.272-.119-4.905-4.8-5.8-5.6a2.635,2.635,0,0,0-1.812-.552,6.451,6.451,0,0,0-.441,3.062,29.787,29.787,0,0,1,.99,6.036l1.59-.01-.02-3.306a2.441,2.441,0,0,1,1.848.561,4.438,4.438,0,0,1,.669,1.168,2.583,2.583,0,0,0,2.4,1.547l5-.031A.716.716,0,0,0,2267.458,965.971Z" transform="translate(-2254.428 -955.788)" fill="#eaadad"/></g><path d="M2262.661,817.231c.286,1.02,3.622,27.939-4.859,94.83-.267,2.108-6.271-.821-8.05-4.608-4.787-10.186-8.221-31.936-3.358-51.531,2.612-10.528.841-23.055,1.554-28.036.633-4.42,2.53-13.051,4.812-17.328C2254.351,807.576,2261.118,811.718,2262.661,817.231Z" transform="translate(-2244.039 -809.561)" fill="#df6161"/><path d="M2266.788,835.8c-3.163,3.842-9.585,12.485-9.626,19.394-.054,9.17.054,25.512,0,30.1s-3.275,7.74-2.111,15.518c2.111,14.108,6,20.423,6.121,19.472C2266.8,875.872,2267.224,849.088,2266.788,835.8Z" transform="translate(-2247.408 -817.778)" fill="#932a3f"/><path d="M2258.031,897.881c.993-5.117-7.665-2.444-13.853.057-.135,2.507-.165,4.991-.105,7.427C2248.5,905.035,2256.911,903.649,2258.031,897.881Z" transform="translate(-2244.04 -836.309)" fill="#302367"/></g><g transform="translate(11.669 54.057)"><g transform="translate(4.274 99.386)"><path d="M2229.486,958.068c.9.795,4.528,5.479,5.8,5.6a4.924,4.924,0,0,0,1.619-.108,12.26,12.26,0,0,1-2.533-3.744,10.225,10.225,0,0,1-.89-4.688l-3.972.209a1.8,1.8,0,0,0-1.677,1.468,7.2,7.2,0,0,1-.159.714A2.625,2.625,0,0,1,2229.486,958.068Z" transform="translate(-2227.167 -955.125)" fill="#df6161"/><path d="M2239.965,966.4a8.065,8.065,0,0,0-2.832-1.485,1.661,1.661,0,0,1-.459-.266,4.928,4.928,0,0,1-1.619.109c-1.272-.119-4.905-4.8-5.8-5.6a2.625,2.625,0,0,0-1.812-.552,6.448,6.448,0,0,0-.441,3.061,29.824,29.824,0,0,1,.991,6.036l1.59-.01-.021-3.307a2.441,2.441,0,0,1,1.848.561,4.428,4.428,0,0,1,.669,1.168,2.584,2.584,0,0,0,2.4,1.547l5-.03A.717.717,0,0,0,2239.965,966.4Z" transform="translate(-2226.935 -956.215)" fill="#eaadad"/></g><path d="M2245.316,818.837c.187,1.043.942,28.157-13.876,93.935-.467,2.073-6.163-1.415-7.574-5.354-3.794-10.6-5.139-32.574,1.569-51.616,3.6-10.231,3.035-22.87,4.219-27.76,1.051-4.339,3.762-12.751,6.441-16.79C2237.964,808.435,2244.3,813.2,2245.316,818.837Z" transform="translate(-2220.712 -810.418)" fill="#df6161"/><path d="M2248.028,837.781c-3.516,3.523-10.732,11.514-11.431,18.389-.928,9.123-2.377,25.4-2.868,29.959s-4,7.393-3.58,15.247c.757,14.244,4.027,20.9,4.237,19.966C2244.221,877.676,2247.195,851.054,2248.028,837.781Z" transform="translate(-2223.656 -818.988)" fill="#932a3f"/><path d="M2235.68,898.689c1.476-5-7.4-3.164-13.795-1.264-.373,2.483-.64,4.953-.812,7.382C2225.509,904.9,2234.016,904.324,2235.68,898.689Z" transform="translate(-2220.825 -837.054)" fill="#302367"/></g><path d="M2251.034,753.515c6.25,4.462,14.684,16.942,17.41,15.988,3.275-1.147,10.334-16.134,14.494-13.957,3.928,2.055-4.172,23.584-13.4,25.285-12.284,2.265-23.56-21.593-24.182-24.047C2244.091,751.8,2248.662,751.822,2251.034,753.515Z" transform="translate(-2216.694 -738.218)" fill="#932a3f"/><path d="M2237.219,732.266a8.451,8.451,0,0,1-.857,7.325c-1.888,2.764-7.963,6.907-12.112,9.544a19.319,19.319,0,0,1-3.084,5.659c-3.779,4.309,3.771,13.907,12.081,10.364C2241.086,761.815,2243.474,731.981,2237.219,732.266Z" transform="translate(-2208.872 -731.883)" fill="#211941"/><g transform="translate(28.445 14.273)"><path d="M2262.683,765.3c-3.574-3.8-7.986-9.172-11.649-11.787-2.372-1.693-6.944-1.714-5.678,3.269.394,1.55,5.038,11.64,11.5,18.292C2260.833,772.591,2262.209,768.071,2262.683,765.3Z" transform="translate(-2245.139 -752.491)" fill="#dae5e9"/></g><path d="M2253.4,770.326c2.866,4.455,6.654,9.178,10.874,11.745-1.327-5.45-9.819-19.911-9.819-19.911Z" transform="translate(-2219.282 -741.247)" fill="#302367"/><path d="M2255.025,780.607a72.465,72.465,0,0,1-3.221-7.027c-1.213-5.387-2.544-8.466-2.214-9.473,1.145-3.486.944-5.9.585-6.569a8.856,8.856,0,0,0-1.251-1.472,25.232,25.232,0,0,0-5.278-4.051c-6.575-3.061-13.207.672-13.607,2.779-.411,2.155,2.626,11.308,3.075,13.744a12.547,12.547,0,0,1,.161,4.4c-.143.511-1.477,2.948-3.217,6.016C2233.594,779.89,2244.4,782.344,2255.025,780.607Z" transform="translate(-2211.952 -737.707)" fill="#f1f7f9"/><path d="M2258.507,781.109a76.265,76.265,0,0,1-3.468-7.512c-1.213-5.387-2.544-8.466-2.214-9.472,1.145-3.486.944-5.9.585-6.569a8.867,8.867,0,0,0-1.252-1.472,25.238,25.238,0,0,0-5.278-4.051,12.313,12.313,0,0,0-4.294-1.124c2.115,1.816,5.994,5.249,6.9,6.753,1.258,2.1,1.174,5.407-2.221,5.951s-7.308-.293-6.9,1.844,9.208,5.2,10.3,7.879.964,9.221,4.107,12.657c1.776,1.942,4.69,3.2,6.888,3.929A49.069,49.069,0,0,0,2258.507,781.109Z" transform="translate(-2215.188 -737.723)" fill="#dae5e9"/><path d="M2247.564,793.9c-.083-.161-.164-.323-.246-.485-10.622,1.736-21.431-.718-24.968-1.655-3.186,5.618-7.736,13.355-8.841,15.275a23.028,23.028,0,0,0-3.2,11.848c.089,4.86,4.3,33.917-4.918,48.955,13.024,2.586,22.209,4.045,31.013,2.709,10.363-1.573,14.833-5.315,15.921-5.63C2258.7,820.619,2249.554,797.794,2247.564,793.9Z" transform="translate(-2204.245 -750.519)" fill="#302367"/><path d="M2263.72,865.677c6.375-44.3-2.771-67.129-4.761-71.019-.083-.161-.164-.323-.247-.485a50.917,50.917,0,0,1-9.9.57c.47,2.959,1.115,6.33,2,10,3.185,13.2.167,21.415-4.023,35.664-2.444,8.307-4.08,21.683-5.021,31.4a45.549,45.549,0,0,0,6.026-.494C2258.161,869.735,2262.632,865.992,2263.72,865.677Z" transform="translate(-2215.639 -751.273)" fill="#211941"/><path d="M2227.328,759.893c-3.076,8.309-13.547,21.1-12.05,24.014,1.8,3.505,18.338,2.326,17.067,7.664-1.2,5.04-24.356,6.61-27.926-3.639-4.751-13.642,16.266-32.486,18.538-33.8C2227.572,751.452,2228.494,756.739,2227.328,759.893Z" transform="translate(-2203.722 -738.502)" fill="#df6161"/><path d="M2240.392,743.03l1.034,4.146c.223.909,4.13,3.334,1.677,4.788-.915.543-4.755-2.076-4.581-3.115l-.039-5.005Z" transform="translate(-2214.609 -735.255)" fill="#df6161"/><path d="M2233.679,770.856c.045.245.085.494.122.743,3.24-3.275,2.322-13.344,2.322-13.344l-4.317,5.574C2232.573,766.707,2233.453,769.631,2233.679,770.856Z" transform="translate(-2212.518 -740.024)" fill="#302367"/><path d="M2241.582,746.518l.436,1.751a.526.526,0,0,0,.031.089c-.694-.148-1.553-.457-1.666-1.091C2240.291,746.751,2240.91,746.569,2241.582,746.518Z" transform="translate(-2215.201 -736.348)" fill="#302367"/><path d="M2218.1,788.774c-1.262-2.46,5.989-11.942,10.136-19.837-4.267,3.424-13.377,10.829-14.411,12.455-1.356,2.132-1.859,5.15.865,7.279,1.164.909,3.26,1.312,5.282,1.475A3.456,3.456,0,0,1,2218.1,788.774Z" transform="translate(-2206.54 -743.369)" fill="#932a3f"/><path d="M2298.737,757.508s-.224,1.951.461,2.757,2.585.577,2.752.093a7.08,7.08,0,0,0-.447-2.3Z" transform="translate(-2233.469 -739.79)" fill="#932a3f"/><g transform="translate(22.835 3.969)"><path d="M2238.557,740.592a3.265,3.265,0,0,0,1.8,4.166,2.8,2.8,0,0,0,3.8-1.961c.543-1.716-.412-3.469-.711-4.35-.446-1.317-1.185-1.262-2.11.078A12.334,12.334,0,0,1,2238.557,740.592Z" transform="translate(-2237.405 -737.488)" fill="#df6161"/><path d="M2238.23,741.771a2.7,2.7,0,0,1-.2-.545c-.093-.357-.314-.866-.776-.468-.671.58-.072,2.454.848,2.37C2238.789,743.064,2238.449,742.207,2238.23,741.771Z" transform="translate(-2236.97 -738.466)" fill="#df6161"/><path d="M2243.749,743.522a5.459,5.459,0,0,0,1.908-.273,1.177,1.177,0,0,1-.3.836C2244.969,744.414,2244.192,744.4,2243.749,743.522Z" transform="translate(-2239.094 -739.292)" fill="#fff"/><g transform="translate(1.043 5.023)"><path d="M2240.727,746.387a4.28,4.28,0,0,0,2.374-.192,4.428,4.428,0,0,0,1.129-1.2c-.009.032-.015.064-.026.1a2.8,2.8,0,0,1-3.8,1.962,3.13,3.13,0,0,1-1.913-2.247A4.046,4.046,0,0,0,2240.727,746.387Z" transform="translate(-2238.49 -744.801)" fill="#932a3f"/></g></g><path d="M2238.337,750.369s3.284,2.736,3.831,2.452c.521-.271-.149-2.345-.149-2.345a4.661,4.661,0,0,1,1.712,1.119l1.223,2.742-1.832-.2-1.477,1.055s-3.731-2.367-3.731-3.164A4.424,4.424,0,0,1,2238.337,750.369Z" transform="translate(-2214.431 -737.554)" fill="#fff"/><g transform="translate(3.863 14.894)"><path d="M2218.466,778.883c2.782-5.284,8.487-13.217,10.624-18.99,1.167-3.154.244-8.441-4.37-5.765-1.422.824-10.177,8.506-15.372,17.483A10.878,10.878,0,0,0,2218.466,778.883Z" transform="translate(-2209.347 -753.396)" fill="#f1f7f9"/></g><path d="M2301.692,759.376c-1.117-.028-3.325,4.5-3.017,5.951s3.017,1.481,3.017,1.481,2.71-.027,3.018-1.481S2302.81,759.348,2301.692,759.376Z" transform="translate(-2233.451 -740.375)" fill="#ad7c42"/><path d="M2228.675,753.408c.144,1.161.658,6.332-1.321,8.144-2.235,2.046-2.235-.99-4.47,3.365s-3.521,7.193-5.309,8.777a42.129,42.129,0,0,0-3.253,2.834,10.2,10.2,0,0,0,5.7,2.359c2.782-5.284,8.487-13.217,10.624-18.99C2231.573,757.394,2231.182,753.553,2228.675,753.408Z" transform="translate(-2207.042 -738.506)" fill="#dae5e9"/><path d="M2305.762,762.772a1.6,1.6,0,1,0-1.929,1.908l.9,4a.456.456,0,0,0,.545.344l.118-.026a.454.454,0,0,0,.287-.205l.274-.444a.457.457,0,0,0,.056-.34l-.146-.65-.327.074-.058-.259.327-.074-.1-.436-.354.08.292-.352-.507-.344.409-.092-.356-1.58A1.6,1.6,0,0,0,2305.762,762.772Zm-1.824-.8a.373.373,0,1,1-.282.446A.374.374,0,0,1,2303.938,761.97Z" transform="translate(-2234.689 -741.047)" fill="#f1f7f9"/><path d="M2297.541,756.253s1.5-1.843,2.775-2.1a4.911,4.911,0,0,1,3.93,1.872c.307.782-.168,2.04-.754,1.956s-1.286-.922-1.286-.922.834,2.188-.223,1.9c-.692-.188-1.844-2.18-2.123-1.928S2296.674,757.455,2297.541,756.253Z" transform="translate(-2233.055 -738.731)" fill="#932a3f"/><path d="M2222.764,804.081c-5.783,1-4.107-.654-9.136-2.683s-3.185-.495-6.58-1.949c-1.552-.666-2.586-2.4-3.253-4.1a13.46,13.46,0,0,0,.625,5.721c3.57,10.249,26.726,8.678,27.926,3.639a2.091,2.091,0,0,0-.1-1.375C2230.208,802.953,2227.008,803.346,2222.764,804.081Z" transform="translate(-2203.723 -751.642)" fill="#932a3f"/><path d="M2241.364,805.2s4.239-.436,5.476-.1c1.814.5,4.223,2.425,3.719,3.365s-8.066,1.039-8.922,0S2241.364,805.2,2241.364,805.2Z" transform="translate(-2215.45 -754.656)" fill="#df6161"/></g><path d="M2275.033,799.678a1.991,1.991,0,0,0,.022-.221,1.9,1.9,0,1,0-3.807,0,1.991,1.991,0,0,0,.022.221,8.368,8.368,0,0,0-6.488,8.15h16.74A8.367,8.367,0,0,0,2275.033,799.678Z" transform="translate(-2197.083 -750.136)" fill="#f2cf4f"/><rect width="160.223" height="10.805" transform="translate(56.544 56.417)" fill="#e58d8d"/><rect width="58.641" height="10.805" transform="translate(0 56.417)" fill="#be5f74"/><rect width="45.238" height="102.375" transform="translate(7.936 67.222)" fill="#e58d8d"/><rect width="153.436" height="102.375" transform="translate(52.922 67.222)" fill="#efc5c5"/><path d="M2243.266,826.389l153.436,8.584v-8.584Z" transform="translate(-2190.344 -759.167)" fill="#302367"/><g transform="translate(89.532)"><path d="M2330.062,756.056c-9.4,4.505-18.647,33.577-18.647,33.577s-2.993-18.762-8.537-19.49-8.966,35.968,4.728,38.327c17.24,2.97,25.313-26.055,25.313-26.055S2336.039,753.19,2330.062,756.056Z" transform="translate(-2297.025 -737.077)" fill="#302367"/><g transform="translate(56.93 166.702)"><path d="M2392.866,975.021a1.579,1.579,0,0,0,.264-.3,3.937,3.937,0,0,0,.4-.861,3.79,3.79,0,0,1,3.6-2.625l2.313.008a12.139,12.139,0,0,0,.863,3.775c-1.137.758-4.008,2.593-5.264,2.645C2393.77,977.714,2394.413,975.807,2392.866,975.021Z" transform="translate(-2383.659 -971.233)" fill="#f3d4d4"/><path d="M2385.583,978.313a11.787,11.787,0,0,0,3.085-1.567c1.547.786.9,2.692,2.176,2.639,1.256-.052,4.127-1.887,5.264-2.645a8.281,8.281,0,0,0,.742,1.371c1.264,1.877,2.218,3.543.843,4.311-2.63,1.471-18.425,1.466-18.229-.061C2379.581,981.445,2382.9,979.681,2385.583,978.313Z" transform="translate(-2379.461 -972.958)" fill="#302367"/></g><g transform="translate(27.28 166.702)"><path d="M2349.7,975.021a1.553,1.553,0,0,0,.264-.3,3.938,3.938,0,0,0,.4-.861,3.79,3.79,0,0,1,3.6-2.625l2.313.008a12.146,12.146,0,0,0,.863,3.775c-1.137.758-4.008,2.593-5.263,2.645C2350.6,977.714,2351.243,975.807,2349.7,975.021Z" transform="translate(-2340.489 -971.233)" fill="#f3d4d4"/><path d="M2342.413,978.313a11.8,11.8,0,0,0,3.084-1.567c1.547.786.9,2.692,2.177,2.639,1.255-.052,4.127-1.887,5.264-2.645a8.25,8.25,0,0,0,.742,1.371c1.263,1.877,2.217,3.543.842,4.311-2.63,1.471-18.425,1.466-18.229-.061C2336.411,981.445,2339.727,979.681,2342.413,978.313Z" transform="translate(-2336.291 -972.958)" fill="#302367"/></g><path d="M2343.308,818.862c12.519,2.331,25.314,1.53,30.267,1.074.311,1.178.661,2.412,1.064,3.718,4.342,14.068-1.677,41.6-.517,55.407,1.025,12.2,18.454,47.665,5.321,47.665-25.864,0-22.928-64.073-24.645-70.554-3.187,6.764-4.721,15.98-4.553,23.773.256,11.877,6.848,47.518-.479,47.518-21.646,0-14.957-83.592-10.749-97.1C2340.2,826.561,2341.774,822.588,2343.308,818.862Z" transform="translate(-2308.492 -756.81)" fill="#302367"/><path d="M2338.792,808.429c-.582-4.034,1.706-12.738,1.615-20.518-.088-7.68-.27-20.323-.417-27.792a7.008,7.008,0,0,1,4.674-6.778c10.894-3.8,27.293-6.287,36.953,7.553,5.284,7.571-.657,23.94-1.427,27.641a108.579,108.579,0,0,0-2.426,19.345c-2.827,3.731-10.265,7.965-18.546,7.368-1.818-.131-4.112-5.582-6.007-5.874-1.174-.181-3.319,4.856-4.507,4.606C2345.854,813.382,2339.79,811.586,2338.792,808.429Z" transform="translate(-2309.765 -735.356)" fill="#5c4dce"/><path d="M2372.9,753.269l-7.715,31.216-5.016,6.88-2.809-9.257s.473-14.386.6-15.359C2358.482,762.928,2361.24,745.816,2372.9,753.269Z" transform="translate(-2315.611 -735.684)" fill="#ecb8b8"/><path d="M2365.737,736.416s-1.552-11.041,5.921-7.023c4.262,2.291,3.419,5.451,3.021,7.725s-1.42,2.279-4.582,2.224A5,5,0,0,1,2365.737,736.416Z" transform="translate(-2318.192 -728.513)" fill="#5c4dce"/><g transform="translate(47.414 0.727)"><path d="M2371.659,729.725c-.107-.058-.206-.1-.31-.153.454.648.929,1.589.442,2.231-.7.931-3.881-.382-6.019.547a16.728,16.728,0,0,0-.035,4.4,5,5,0,0,0,4.36,2.926c3.162.055,4.184.051,4.582-2.224S2375.921,732.016,2371.659,729.725Z" transform="translate(-2365.606 -729.572)" fill="#302367"/></g><path d="M2373.753,741l2.469,7.877c-.012,1.136-6.184,4.167-7.95,2.7-.516-.431-.349-1.517.169-2.686l3.063-6.366Z" transform="translate(-2318.929 -732.423)" fill="#df6161"/><path d="M2371.313,744.852c1.257-.2,2.971-.489,2.971-.489a5.408,5.408,0,0,1-1.921,3.457,5.189,5.189,0,0,1-3.049,1.188Z" transform="translate(-2319.354 -733.477)" fill="#302367"/><path d="M2305.055,777.246s1.092-2.574-.094-4.129-.987-3.761-1.732-4.046-.3,2.257-.519,2.734-2.431-.763-3.9-2.511-.925.927-.925.927-1.195-.929-1.308.386a5.5,5.5,0,0,0,.662,2.7s-.836-.161.1,1.089S2302.763,779.712,2305.055,777.246Z" transform="translate(-2296.571 -741.1)" fill="#df6161"/><path d="M2391.449,761.344a23.417,23.417,0,0,0-13.343-9.545c.692,3.266,2.49,12.53,1.98,18.437-.6,6.926-10.747,36.574-9.953,45.5,7.84.174,14.761-3.841,17.464-7.408a108.51,108.51,0,0,1,2.426-19.345C2390.792,785.284,2396.733,768.915,2391.449,761.344Z" transform="translate(-2319.596 -735.806)" fill="#302367"/><path d="M2371.293,735.823l1.671,4.425a2.884,2.884,0,0,1-1.889,3.553,7.972,7.972,0,0,1-3.52.3c-1.291-.1-2-1.3-2.079-2.983a15.726,15.726,0,0,1,.778-5.3C2367.041,733.372,2369.992,733.018,2371.293,735.823Z" transform="translate(-2318.148 -730.185)" fill="#df6161"/><path d="M2371.01,733.963a2.665,2.665,0,0,1,.988,3.611c-.613,1.14.6,1.7,1.079.518s1.183-2.966.6-3.446A7.656,7.656,0,0,0,2371.01,733.963Z" transform="translate(-2319.885 -730.22)" fill="#302367"/><path d="M2373.984,739.069a4.128,4.128,0,0,0,.041-.875c-.025-.556.068-1.389.912-1.019,1.227.538,1.194,3.511-.172,3.8C2373.751,741.185,2373.861,739.8,2373.984,739.069Z" transform="translate(-2320.792 -731.197)" fill="#df6161"/><path d="M2368.739,741.669a7.771,7.771,0,0,1-2.559.192s0,.98.611,1.293S2368.436,742.852,2368.739,741.669Z" transform="translate(-2318.372 -732.633)" fill="#fff"/><g transform="translate(47.705 9.967)"><path d="M2367.26,745.322c1.423-.352,2.612,1.775,5.073-.4a3.69,3.69,0,0,0,.772-1.9l.036.1a2.885,2.885,0,0,1-1.889,3.554,7.973,7.973,0,0,1-3.519.3,2.012,2.012,0,0,1-1.7-1.273A6.858,6.858,0,0,0,2367.26,745.322Z" transform="translate(-2366.031 -743.025)" fill="#932a3f"/></g><path d="M2370.481,756.363s-.224,1.222-.8,1.177-1.775-.856-1.324-1.586a1.441,1.441,0,0,1,1.4-.565S2370.582,755.979,2370.481,756.363Z" transform="translate(-2319.024 -736.926)" fill="#302367"/><g transform="translate(47.442 14.518)"><path d="M2370.447,753.6a15.242,15.242,0,0,0,4.141-1.352,7.973,7.973,0,0,0,1.807-2.593,8.107,8.107,0,0,1,1.562,3.895l-6.5,3.287a19.943,19.943,0,0,0-.5-2.207C2370.85,754.341,2370.447,753.6,2370.447,753.6Z" transform="translate(-2367.151 -749.652)" fill="#f3d4d4"/><path d="M2368.944,753.727s-.793-2.793-.429-3.659c0,0-.99.729-1.707,1.205a7.7,7.7,0,0,0-1.159.932l.783,3.425S2368.257,753.5,2368.944,753.727Z" transform="translate(-2365.648 -749.782)" fill="#f3d4d4"/></g><path d="M2390.789,762c-10.422,5.7,14.43,29.031,11.79,39.63s-10.95,27.468-4.691,29.894c8.608,3.339,20.336-22.917,18.761-38.52S2396.41,758.922,2390.789,762Z" transform="translate(-2325.276 -738.895)" fill="#5c4dce"/><path d="M2400.447,831.636a3.1,3.1,0,0,1-1.3-.931c1.917-3.976,8.933-9.28,12.332-12.706,4.294-4.328,4.331-10.627,1.766-15.58s2.614-9.843,2.214-13.964-2.778-9.74-7.8-11.216-6.7-6.259-10.215-13.354a18.441,18.441,0,0,0-1.048-1.865c7.467,2.133,21.461,17.676,22.813,31.1C2420.783,808.719,2409.056,834.974,2400.447,831.636Z" transform="translate(-2327.835 -739.008)" fill="#302367"/><g transform="translate(41.721 19.485)"><path d="M2360.158,793.079s3.958-4.648,5.016-6.88c.272-10.881.76-26.84,1.313-28.535,0,0-.1-1.19-.97-.63a22.369,22.369,0,0,0-4.06,7.781c-1.013,3.155-2.748,11.535-4.139,18.629A27.549,27.549,0,0,0,2360.158,793.079Z" transform="translate(-2357.318 -756.884)" fill="#302367"/></g><g transform="translate(52.572 93.891)"><g transform="translate(8.322)"><path d="M2402.248,873.127a1.328,1.328,0,0,0,1.258-.9l1.771-5.249a1.328,1.328,0,0,0-1.258-1.753h-17.457a1.329,1.329,0,0,0-1.23,1.83l2.14,5.249a1.329,1.329,0,1,0,2.461-1l-1.394-3.419h13.629l-1.179,3.5a1.329,1.329,0,0,0,1.259,1.754Z" transform="translate(-2385.234 -865.22)" fill="#211941"/></g><rect width="33.326" height="24.587" transform="translate(33.326 30.058) rotate(180)" fill="#211941"/><rect width="33.326" height="24.587" transform="translate(37.146 30.058) rotate(180)" fill="#302367"/><path d="M2412,873.186s-7.049,10.24-16.664,10.117-16.662-10.117-16.662-10.117Z" transform="translate(-2374.859 -867.715)" fill="#211941"/><path d="M2403.314,884.457h-2.306a.937.937,0,0,0-.915,1.137l.735,3.367a.936.936,0,0,0,.915.737h1a.936.936,0,0,0,.923-.78l.569-3.368A.936.936,0,0,0,2403.314,884.457Z" transform="translate(-2381.559 -871.245)" fill="#fff"/></g><path d="M2399.689,859.6s-3.128.2-3.73,1.236a18.2,18.2,0,0,0-1.153,2.62s.993.219.769.931c-.212.678-1.266,2.625-.382,2.79.382.071,1.371-.325,2.259-.3a9.03,9.03,0,0,0,2.847-.312c.711-.329,2.61-4.472,2.008-5.512S2399.689,859.6,2399.689,859.6Z" transform="translate(-2327.338 -769.57)" fill="#df6161"/></g></g><g transform="translate(11.661 52.476)"><path d="M2122.268,978.566a9.8,9.8,0,0,0,1.5-4.74h5.281a4.964,4.964,0,0,0,.53,3.227c.387.617,1.521,1.077,3.082,1.734,2.473,1.269,5.525,2.907,5.631,3.752.176,1.408-14.39,1.364-16.81,0C2120.212,981.825,2121.1,980.293,2122.268,978.566Z" transform="translate(-2060.76 -815.301)" fill="#302367"/><path d="M2037.144,945.828a9.8,9.8,0,0,0,4.812-1.247l2.8,4.477a4.968,4.968,0,0,0-2.455,2.161c-.318.656-.107,1.86.164,3.533.235,2.769.467,6.225-.194,6.763-1.1.9-8.788-11.475-8.915-14.251C2033.29,945.814,2035.059,945.751,2037.144,945.828Z" transform="translate(-2033.355 -806.142)" fill="#302367"/><path d="M2103.311,819.257c3.989,8.742,9.45,24.606,10.777,57.6.256,6.354-2.423,31.937-4.917,48.85-.257,1.741-13.979,5.156-14.68-1.644-2.2-21.352,5.494-39.891,4.756-46.236-.383-3.287-5.187-19.955-7.409-27.369a.417.417,0,0,0-.814.161c1.012,9.341,2.459,27.06-7.531,43.6-6.11,10.119-24.407,18.787-34.235,18.93-4.565.067-6.209-7.1-5.773-8.347,3.368-9.652,26.935-15.442,29.988-21.357C2075.242,880.024,2096.326,820.132,2103.311,819.257Z" transform="translate(-2036.506 -766.892)" fill="#dae5e9"/><path d="M2132.161,947.712c2.473-6.29-8.926-3.637-14.445-2.034-.265,2.578-.442,5.258-.49,8.015C2120.948,954.043,2129.639,954.124,2132.161,947.712Z" transform="translate(-2059.623 -805.876)" fill="#302367"/><path d="M2130.631,769.474c3.42-2.324,6.043,7.444,23.5,27.213,5.218,5.909,31.159,11.15,28.828,16.19-.6,1.287-4.244,5.838-7.034,6.237-8.139,1.163-21.861-5.146-32.727-11.43-10.339-5.98-14.571-17.566-15.346-21.215C2126.425,779.753,2126.819,772.065,2130.631,769.474Z" transform="translate(-2062.712 -751.195)" fill="#f1f7f9"/><path d="M2175.928,823.839c2.791-.4,6.439-4.95,7.034-6.237.542-1.172-.447-2.355-2.347-3.555-2.862-.372-4.673,3.793-10.56,3.341-7.837-.6-26.687-15.053-33.21-24.181a40.464,40.464,0,0,0-9.745-8.981,33.988,33.988,0,0,0,.754,6.969c.775,3.649,5.007,15.235,15.346,21.215C2154.067,818.693,2167.79,825,2175.928,823.839Z" transform="translate(-2062.716 -755.92)" fill="#dae5e9"/><path d="M2069.173,928.679l7.333,12.6a52.878,52.878,0,0,0,9.3-6.306C2080.728,931.846,2072.744,927.506,2069.173,928.679Z" transform="translate(-2044.573 -801.1)" fill="#302367"/><path d="M2129.631,794.451c1.857,5.043,6.2,13.23,14.343,17.946.861-10.49-12.7-28.172-12.7-28.172Z" transform="translate(-2063.508 -755.92)" fill="#302367"/><path d="M2081.46,769.943c3.351-3.552,8.744-7.7,13.272-8,5.506-.361,13.244-.146,17.573,5.07,6.762,8.148,3.606,25.521,5.667,31.543,5.807,41.353,3.729,84.633,2.992,87.151-4.045,3.043-7.589,10.939-32.522,7.643-5.249-.694-10.328-15.558-26.624-18.159.569-6.674,17.44-51.989,19.482-64.777C2082.845,800.737,2076.084,775.638,2081.46,769.943Z" transform="translate(-2042.27 -748.907)" fill="#f1f7f9"/><path d="M2131.173,767.207a14.683,14.683,0,0,0-9.11-4.765c2.242,5.463,7.47,19.523,7.254,31.325-.277,15,1.657,41.994,1.657,56.533,0,11.365-1.771,33-2.083,42.7,6.381-1.891,8.58-5.321,10.942-7.1.738-2.517,2.815-45.8-2.992-87.151C2134.78,792.727,2137.936,775.355,2131.173,767.207Z" transform="translate(-2061.138 -749.098)" fill="#dae5e9"/><g transform="translate(51.493 13.679)"><path d="M2118.183,779.448a2.153,2.153,0,0,1-.6-.095c-4.077-1.2-2.335-9.939-1.945-11.679-.331-.045-1.057-.122-2.576-.2-2.625-.144-4.6-2.951-4.679-3.07a.276.276,0,0,1,.454-.315c.019.027,1.9,2.7,4.255,2.833a18.114,18.114,0,0,1,2.966.273.275.275,0,0,1,.182.328c-.025.1-2.434,10.15,1.5,11.3a.925.925,0,0,0,1-.154c1.378-1.443-.716-8.708-1.639-11.386a.28.28,0,0,1,0-.18c.266-.775.845-2.961.328-3.745a.276.276,0,1,1,.462-.3c.708,1.076-.048,3.564-.237,4.138.466,1.365,3.3,9.959,1.485,11.859A1.264,1.264,0,0,1,2118.183,779.448Z" transform="translate(-2108.33 -762.93)" fill="#dae5e9"/></g><path d="M2117.354,745.207c2.611.946,2.9,3.7,4.2,8.657s-3.437,5.385-5.87,5.1S2111.975,743.261,2117.354,745.207Z" transform="translate(-2058.483 -743.647)" fill="#f1f7f9"/><path d="M2118.683,747.464a11.717,11.717,0,0,1,2.118,5.915c.022,3.062-.792,5.869-4.137,5.225C2115,758.283,2115.967,747.855,2118.683,747.464Z" transform="translate(-2059.189 -744.407)" fill="#dae5e9"/><path d="M2110.586,753.184l-1.451,7.992c.149,1.073,6.354,3.19,7.844,1.584.437-.47.146-1.477-.484-2.52l-3.671-5.648Z" transform="translate(-2057.089 -746.198)" fill="#df6161"/><path d="M2098.81,789.279l-10.429,9.144c.613,5.846,1.406,11.837,1.468,16.424C2099.235,809.188,2098.81,789.279,2098.81,789.279Z" transform="translate(-2050.589 -757.503)" fill="#302367"/><path d="M2114.273,756.841c-1.212-.034-2.869-.1-2.869-.1a5.157,5.157,0,0,0,2.238,3.036,4.937,4.937,0,0,0,3.028.753Z" transform="translate(-2057.8 -747.312)" fill="#302367"/><g transform="translate(52.958 2.047)"><path d="M2112.445,748.194l-1.044,4.388a2.751,2.751,0,0,0,2.219,3.131,7.591,7.591,0,0,0,3.364-.145c1.209-.249,1.738-1.473,1.605-3.073a15,15,0,0,0-1.378-4.913C2116.168,745.36,2113.334,745.384,2112.445,748.194Z" transform="translate(-2110.745 -745.993)" fill="#df6161"/><path d="M2111.4,753.173l1.044-4.388a4.031,4.031,0,0,1,.407-.906,9.311,9.311,0,0,0,.412,3c.664.75.556.02,1.987-.143a8.772,8.772,0,0,1,3.022.458,12.462,12.462,0,0,1,.315,1.889c.133,1.6-.4,2.824-1.605,3.073a7.588,7.588,0,0,1-3.364.145A2.751,2.751,0,0,1,2111.4,753.173Z" transform="translate(-2110.745 -746.584)" fill="#302367"/><path d="M2117.038,753.361a7.408,7.408,0,0,0,2.443-.129s.116.927-.421,1.3S2117.467,754.443,2117.038,753.361Z" transform="translate(-2112.521 -748.26)" fill="#fff"/><g transform="translate(0.622 6.493)"><path d="M2117.23,756.91c-1.388-.161-2.255,2-4.846.236a3.518,3.518,0,0,1-.961-1.7l-.022.1a2.751,2.751,0,0,0,2.219,3.131,7.589,7.589,0,0,0,3.364-.145,1.915,1.915,0,0,0,1.456-1.409A6.646,6.646,0,0,1,2117.23,756.91Z" transform="translate(-2111.367 -755.447)" fill="#211941"/></g><path d="M2112.3,750.657a3.964,3.964,0,0,1-.145-.822c-.045-.53-.233-1.306-.986-.854-1.095.658-.9,3.232.43,3.337C2112.585,752.4,2112.506,751.33,2112.3,750.657Z" transform="translate(-2110.462 -746.886)" fill="#df6161"/></g><path d="M2203.875,829.166s4.83.568,5.265,1.181,1.6,1.449.5,2.33-3.605,2.505-4.923,2.362-4.457-1.047-3.975-2.409S2201.75,829.5,2203.875,829.166Z" transform="translate(-2085.763 -769.995)" fill="#df6161"/><path d="M2200.812,830.214s2.291-3.312,4.782-3.227,2.26,1.722,3.577,2.07,1.093.94.432,1.22-2.7-1.641-3.365-.894-2.46,3.33-4.13,2.844A1.678,1.678,0,0,1,2200.812,830.214Z" transform="translate(-2085.79 -769.312)" fill="#df6161"/><path d="M2075.84,773.174c-10.5,7.6-21.041,35.082-25.474,45.128s-11.716,25.246-7.917,27.3,9.975,1.164,12.033-2.426,13.458-30.569,17.733-36.713,15.675-20.31,12.983-27.555S2078.063,771.565,2075.84,773.174Z" transform="translate(-2035.871 -752.195)" fill="#f1f7f9"/><path d="M2114.816,746.583s-3.61-.622-4.91.435.521,11.515-1.122,12.539c-3.176,1.979-7.013-.092-7.663-1.335s4.738-12.032,5.486-12.285-1.13-.558,1.181-2.1S2115.476,742.749,2114.816,746.583Z" transform="translate(-2054.562 -743.013)" fill="#f1f7f9"/><path d="M2085.2,779.909a13.91,13.91,0,0,0-2.473-4.395,19.425,19.425,0,0,1-5.191,11.249c-5.524,5.524-18.229,30.105-20.715,35.768s-.277,18.505-7.182,19.472c-3.167.443-5.868-.419-7.919-.672-.563,2.676-.465,4.624.729,5.271,3.8,2.058,9.975,1.164,12.033-2.426s13.458-30.569,17.734-36.712S2087.89,787.155,2085.2,779.909Z" transform="translate(-2035.871 -753.192)" fill="#dae5e9"/><g transform="translate(46.548 0.023)"><path d="M2120.9,747.275a.457.457,0,0,0-.457.457.443.443,0,0,0,.025.125c.258.033.419.06.419.06a3.632,3.632,0,0,0,.054-.635A.382.382,0,0,0,2120.9,747.275Z" transform="translate(-2107.177 -744.371)" fill="#df6161"/><path d="M2118.676,745.055a.457.457,0,1,0,.458.457A.457.457,0,0,0,2118.676,745.055Z" transform="translate(-2106.481 -743.676)" fill="#df6161"/><path d="M2112.474,743.344a5.322,5.322,0,0,0-.845.3.455.455,0,0,0,.867-.2h0a.426.426,0,0,0-.022-.108Z" transform="translate(-2104.417 -743.14)" fill="#df6161"/><path d="M2116.86,743.153a6.114,6.114,0,0,0-.734-.106.454.454,0,0,0-.126.312h0a.457.457,0,1,0,.914,0h0a.444.444,0,0,0-.054-.205Z" transform="translate(-2105.786 -743.047)" fill="#df6161"/><path d="M2112.017,751.715a.457.457,0,0,0-.458.457h0a.457.457,0,1,0,.915,0h0A.458.458,0,0,0,2112.017,751.715Z" transform="translate(-2104.396 -745.762)" fill="#df6161"/><path d="M2112.017,747.275a.457.457,0,1,0,.457.457A.457.457,0,0,0,2112.017,747.275Z" transform="translate(-2104.396 -744.371)" fill="#df6161"/><path d="M2116.457,747.275a.457.457,0,0,0-.457.457.447.447,0,0,0,.018.091,7.618,7.618,0,0,1,.894-.079l0-.012A.457.457,0,0,0,2116.457,747.275Z" transform="translate(-2105.786 -744.371)" fill="#df6161"/><path d="M2109.8,749.495a.457.457,0,1,0,.458.457A.457.457,0,0,0,2109.8,749.495Z" transform="translate(-2103.7 -745.066)" fill="#df6161"/><path d="M2114.237,745.055a.457.457,0,1,0,.458.457A.457.457,0,0,0,2114.237,745.055Z" transform="translate(-2105.091 -743.676)" fill="#df6161"/><path d="M2109.8,745.055a.441.441,0,0,0-.215.061,2.073,2.073,0,0,0-.212.247.451.451,0,0,0-.03.15.458.458,0,1,0,.457-.457Z" transform="translate(-2103.7 -743.676)" fill="#df6161"/><path d="M2112.017,760.594a.458.458,0,0,0-.458.457h0a.457.457,0,0,0,.915,0h0A.458.458,0,0,0,2112.017,760.594Z" transform="translate(-2104.396 -748.543)" fill="#df6161"/><path d="M2112.017,756.155a.457.457,0,1,0,.457.457A.457.457,0,0,0,2112.017,756.155Z" transform="translate(-2104.396 -747.152)" fill="#df6161"/><path d="M2109.8,758.375a.457.457,0,1,0,.458.457A.457.457,0,0,0,2109.8,758.375Z" transform="translate(-2103.7 -747.848)" fill="#df6161"/><path d="M2109.8,753.935a.457.457,0,1,0,.458.457A.457.457,0,0,0,2109.8,753.935Z" transform="translate(-2103.7 -746.457)" fill="#df6161"/><path d="M2112.017,765.034a.457.457,0,1,0,.457.457A.457.457,0,0,0,2112.017,765.034Z" transform="translate(-2104.396 -749.933)" fill="#df6161"/><path d="M2109.8,767.254a.458.458,0,0,0-.421.637,5.445,5.445,0,0,0,.872-.213A.455.455,0,0,0,2109.8,767.254Z" transform="translate(-2103.7 -750.628)" fill="#df6161"/><path d="M2109.8,762.814a.457.457,0,1,0,.458.457A.457.457,0,0,0,2109.8,762.814Z" transform="translate(-2103.7 -749.238)" fill="#df6161"/><path d="M2107.577,751.715a.457.457,0,0,0-.457.457h0a.457.457,0,1,0,.915,0h0A.457.457,0,0,0,2107.577,751.715Z" transform="translate(-2103.005 -745.762)" fill="#df6161"/><path d="M2108.187,748.347a.442.442,0,0,0,.159-.244C2108.3,748.179,2108.243,748.26,2108.187,748.347Z" transform="translate(-2103.34 -744.63)" fill="#df6161"/><path d="M2103.137,760.594a.458.458,0,0,0-.457.457h0a.458.458,0,0,0,.915,0h0A.458.458,0,0,0,2103.137,760.594Z" transform="translate(-2101.615 -748.543)" fill="#df6161"/><path d="M2107.577,760.594a.457.457,0,0,0-.457.457h0a.457.457,0,0,0,.915,0h0A.458.458,0,0,0,2107.577,760.594Z" transform="translate(-2103.005 -748.543)" fill="#df6161"/><path d="M2103.566,757.169a.452.452,0,0,0,.306-.427.465.465,0,0,0-.034-.172C2103.746,756.771,2103.655,756.97,2103.566,757.169Z" transform="translate(-2101.892 -747.282)" fill="#df6161"/><path d="M2107.577,756.155a.457.457,0,1,0,.458.457A.457.457,0,0,0,2107.577,756.155Z" transform="translate(-2103.005 -747.152)" fill="#df6161"/><path d="M2105.357,758.375a.457.457,0,1,0,.457.457A.457.457,0,0,0,2105.357,758.375Z" transform="translate(-2102.31 -747.848)" fill="#df6161"/><path d="M2105.357,753.935a.452.452,0,0,0-.3.115l-.157.323c0,.007,0,.012,0,.019a.457.457,0,1,0,.457-.457Z" transform="translate(-2102.31 -746.457)" fill="#df6161"/><path d="M2103.137,765.034a.457.457,0,1,0,.458.457A.457.457,0,0,0,2103.137,765.034Z" transform="translate(-2101.615 -749.933)" fill="#df6161"/><path d="M2107.577,765.034a.457.457,0,1,0,.458.457A.457.457,0,0,0,2107.577,765.034Z" transform="translate(-2103.005 -749.933)" fill="#df6161"/><path d="M2105.368,767.254a.452.452,0,0,0-.434.341,7.065,7.065,0,0,0,.867.24.441.441,0,0,0,.024-.124A.457.457,0,0,0,2105.368,767.254Z" transform="translate(-2102.32 -750.628)" fill="#df6161"/><path d="M2105.357,762.814a.457.457,0,1,0,.457.457A.457.457,0,0,0,2105.357,762.814Z" transform="translate(-2102.31 -749.238)" fill="#df6161"/><path d="M2101.336,762.9a7.227,7.227,0,0,0-.207.857.457.457,0,0,0,.455-.458A.451.451,0,0,0,2101.336,762.9Z" transform="translate(-2101.129 -749.264)" fill="#df6161"/></g><g transform="translate(51.77 2.059)"><path d="M2112.149,747.143c-1.669,0-3.046-.1-3.162-.113a.276.276,0,1,1,.043-.551c.057,0,5.756.433,8.08-.451a.276.276,0,0,1,.2.516A16.78,16.78,0,0,1,2112.149,747.143Z" transform="translate(-2108.732 -746.011)" fill="#302367"/></g><path d="M2046.987,876.676c.438.591,1.66,7.451-.556,7.058-1.264-.225-.073,3.958-2.619,1.718-.358-.315-2.595-1.417-3.04-2.385-.741-1.613-.291-2.536.744-5.429C2042.024,876.221,2044.547,873.385,2046.987,876.676Z" transform="translate(-2035.563 -784.396)" fill="#df6161"/></g><g transform="translate(272.488 43.741)"><g transform="translate(58.712 111.783)"><path d="M2531.279,920.759l-16.687-27.707-15.955,3.074c-.878,5.415,18.443,22.542,23.64,25.909.936.606,3.989,2.565,3.989,2.565Z" transform="translate(-2498.608 -893.052)" fill="#df6161"/><path d="M2529.672,918.091l-15.08-25.039-15.955,3.074c-.427,2.635,3.929,8.044,9.113,13.291a54.143,54.143,0,0,1,10.355,3.242C2521.573,914.224,2526.3,916.471,2529.672,918.091Z" transform="translate(-2498.608 -893.052)" fill="#932a3f"/><path d="M2507.889,909.435c1.877-1.346,6.9-5.356,6.512-9.506-.366-3.957-7.011,2.517-9.961,5.606C2505.467,906.792,2506.638,908.108,2507.889,909.435Z" transform="translate(-2500.435 -894.816)" fill="#302367"/><g transform="translate(26.719 27.707)"><path d="M2543.318,935.64c.068,1.376,1.654,8.01.845,9.238a5.708,5.708,0,0,1-1.264,1.375,14.11,14.11,0,0,0-1.535-4.971,14.442,14.442,0,0,0-3.854-4.885l5.953-3s.269.079.666.223A3.023,3.023,0,0,0,2543.318,935.64Z" transform="translate(-2537.511 -933.394)" fill="#df6161"/><path d="M2544.186,950.569a9.283,9.283,0,0,1,.708-3.611,1.913,1.913,0,0,0,.093-.6,5.69,5.69,0,0,0,1.264-1.375c.81-1.228-.777-7.863-.845-9.238a3.023,3.023,0,0,1,.81-2.023,7.42,7.42,0,0,1,3.065,1.81c.9,1.208,3.594,4.525,4.7,5.238l-1.155,1.42-3.635-2.955a9.4,9.4,0,0,0-.146,2.617,5.131,5.131,0,0,0,.567,1.442,2.969,2.969,0,0,1-.338,3.264l-3.628,4.464A.825.825,0,0,1,2544.186,950.569Z" transform="translate(-2539.598 -933.495)" fill="#e58d8d"/></g></g><path d="M2460.641,756.817c-9.843-4.127-9.648,23.978-18.572,28.058s-22.04,6.49-21.557,12.5c.453,5.633,23.648,3.749,33.727-6.094S2465.95,759.043,2460.641,756.817Z" transform="translate(-2415.432 -738.472)" fill="#211941"/><path d="M2482.1,732.766a19.047,19.047,0,0,0-4.172,7.391c-1.061,4.137.745,8.382.61,11.712s8.209,5.233,9.527,3.294,2.525-9.588,2.525-12.552S2485.871,731.412,2482.1,732.766Z" transform="translate(-2433.314 -731.022)" fill="#211941"/><path d="M2473.923,937.282c.3,1.387,1.215,2.1,6.2.732-.053-.833,7.254-45.846,3.427-62.037-.169-.719-.323-1.512-.458-2.36a108.2,108.2,0,0,1-17.478-2.415C2465.539,897.515,2472.18,927.54,2473.923,937.282Z" transform="translate(-2429.563 -774.425)" fill="#df6161"/><g transform="translate(49.233 9.748)"><path d="M2489.131,744.487l.171,6.547c.024,1.078-2.592,3.885-4.312,2.543-.5-.392.13-1.883.584-3.008l1.205-5.643Z" transform="translate(-2484.805 -744.487)" fill="#df6161"/><path d="M2486.638,748.832c1.4-.451,2.781-2.578,2.781-2.578l-2.237.031Z" transform="translate(-2485.379 -745.04)" fill="#302367"/></g><path d="M2488.67,737.668l.417,2.51a3.761,3.761,0,0,1-2.907,4.349,3.226,3.226,0,0,1-3.9-3.01c-.261-2.057,1.185-3.848,1.705-4.784C2485.167,734.6,2487.979,734.817,2488.67,737.668Z" transform="translate(-2434.771 -731.864)" fill="#df6161"/><path d="M2490.85,741.435a3.163,3.163,0,0,0,.335-.578c.179-.386.535-.917.977-.37.641.8-.426,2.8-1.452,2.51C2489.949,742.785,2490.511,741.885,2490.85,741.435Z" transform="translate(-2437.303 -733.413)" fill="#df6161"/><path d="M2483.054,740.771a3.131,3.131,0,0,1-.024-.668c.023-.424-.041-1.06-.687-.786-.941.4-.942,2.668.1,2.9C2483.213,742.387,2483.142,741.328,2483.054,740.771Z" transform="translate(-2434.584 -733.099)" fill="#df6161"/><g transform="translate(47.496 9.54)"><path d="M2485.959,746.493a3.53,3.53,0,0,1-2.651-.709,5.413,5.413,0,0,1-1.031-1.6c0,.038,0,.075.009.113a3.226,3.226,0,0,0,3.9,3.01,3.612,3.612,0,0,0,2.635-2.152A4.664,4.664,0,0,1,2485.959,746.493Z" transform="translate(-2482.277 -744.185)" fill="#932a3f"/></g><path d="M2484.392,743.681a9,9,0,0,0,2.849.412s.185.9-1.36,1.025A1.333,1.333,0,0,1,2484.392,743.681Z" transform="translate(-2435.443 -734.487)" fill="#fff"/><path d="M2473.505,753.4s-5.757-.723-9.177,5.948-6.165,28.362-9.921,30.941,2.8,3.923,10.818,4.148S2473.505,753.4,2473.505,753.4Z" transform="translate(-2425.712 -737.524)" fill="#211941"/><g transform="translate(36.198 161.534)"><path d="M2480.2,968.848c-1.025.921-5.172,6.336-6.636,6.483a5.7,5.7,0,0,1-1.864-.113,14.108,14.108,0,0,0,2.889-4.326,11.307,11.307,0,0,0,1.306-5.4l6.139,2.054s.108.258.247.656A3.023,3.023,0,0,0,2480.2,968.848Z" transform="translate(-2467.665 -965.49)" fill="#df6161"/><path d="M2466.082,978.491a9.284,9.284,0,0,1,3.249-1.729,1.916,1.916,0,0,0,.527-.309,5.7,5.7,0,0,0,1.864.113c1.464-.146,5.611-5.562,6.636-6.483a3.024,3.024,0,0,1,2.081-.648,7.428,7.428,0,0,1,.529,3.52c-.366,1.464-1.244,5.643-1.1,6.953h-1.83v-4.684a9.35,9.35,0,0,0-2.122,1.537,5.075,5.075,0,0,0-.762,1.35,2.971,2.971,0,0,1-2.746,1.8h-5.752A.825.825,0,0,1,2466.082,978.491Z" transform="translate(-2465.826 -966.726)" fill="#e58d8d"/></g><g transform="translate(45.523 107.05)"><path d="M2488.689,886.16c-2.4,4.328-6.112,11.36-7.142,15.29-1.562,5.953-3.123,23.766-1.367,28.667.943,2.629,2.846,7.469,4.407,11.393C2485.477,934.99,2490.18,903.374,2488.689,886.16Z" transform="translate(-2479.404 -886.16)" fill="#932a3f"/></g><path d="M2474.029,760.286a5.233,5.233,0,0,1,3.758,2.733,5.567,5.567,0,0,1,6-.747c2.685,1.277,3.14,3.991,6.008,4.9,2.239-4.56,5.335-8.323,4.815-8.975-4.479-5.61-15.322-7.655-20.678-2.045a12.938,12.938,0,0,0-2.639,4.121A4.64,4.64,0,0,1,2474.029,760.286Z" transform="translate(-2431.34 -737.354)" fill="#df6161"/><path d="M2470.813,928.692c5.023,0,11.218-3.018,11.642-4.83.439-1.88-8.849-.538-12.361.183Q2470.446,926.417,2470.813,928.692Z" transform="translate(-2430.965 -790.618)" fill="#302367"/><path d="M2488.423,784.573l-1.117-1.172a8.9,8.9,0,0,1-1.39-3.369c-.62-3.077.5-6.492,2-9.55-2.866-.913-3.323-3.628-6.007-4.9a5.567,5.567,0,0,0-6,.747,5.234,5.234,0,0,0-3.758-2.733,4.642,4.642,0,0,0-2.737-.008,20.909,20.909,0,0,0-1.345,6.888,52.537,52.537,0,0,1-2.778,14.687A31.748,31.748,0,0,0,2488.423,784.573Z" transform="translate(-2429.46 -740.658)" fill="#c6d2d6"/><path d="M2485.886,794.234a31.748,31.748,0,0,1-23.134.584q-.332.957-.7,1.9c-8.91,22.578-3.074,65.774-1.9,88.707,25.49,4.2,39.288-19.993,42.817-21.355C2499.932,810,2497.764,806.71,2485.886,794.234Z" transform="translate(-2426.923 -750.32)" fill="#e58d8d"/><path d="M2510.348,864.071c-3.03-54.075-5.2-57.361-17.076-69.837a31.282,31.282,0,0,1-12.5,2.486,46.461,46.461,0,0,0,4.03,15.647c6.51,13.981,3.15,46.637,5,58.979.529,3.534,1.106,6.716,1.659,9.462C2501.968,874.622,2508.15,864.919,2510.348,864.071Z" transform="translate(-2434.309 -750.32)" fill="#be5f74"/><path d="M2488.966,753.136s-.4,2.731-1.926,3.075c0,0-3.1,10.518-3.282,18s.43,21.44,4.076,22.029,16.427-1.261,18.276-2.523-12.6-13.15-12.7-16.311,9.467-16.981,4.652-20.431A20.451,20.451,0,0,0,2488.966,753.136Z" transform="translate(-2435.235 -737.448)" fill="#211941"/><path d="M2485.59,733.736s-2.052,3.04-3.173,3.288-3,.035-2.686-.578,1.851-6.2,5.163-6.151S2485.59,733.736,2485.59,733.736Z" transform="translate(-2433.972 -730.294)" fill="#302367"/><path d="M2491.755,796.489s-3.946,19.517-4.03,23.216l-3.279-1.009s4.686-21.966,5.37-22.207A4.871,4.871,0,0,1,2491.755,796.489Z" transform="translate(-2435.46 -750.992)" fill="#932a3f"/><path d="M2477.518,752.025a7.751,7.751,0,0,0,0,3.363s-7.314,2.193-8.828,6.172-3.971,26.127-8.8,27.69,4.2-20.515,4.2-20.515,2.389-9.417,3.185-10.762S2470.12,753.314,2477.518,752.025Z" transform="translate(-2427.323 -737.1)" fill="#211941"/><path d="M2489.646,758.222c-4.046-.6-6.239,5.343-3.405,14.374s3.938,10.566,1.881,11.849c-1.939,1.21-19.805-11.378-22.438-7.939-7.82,10.216,23.777,25.275,31.333,15.512C2500.376,787.679,2498.016,759.47,2489.646,758.222Z" transform="translate(-2429.197 -739.028)" fill="#211941"/><path d="M2487.263,733.323a8.035,8.035,0,0,0,2.351,4.123c4.005,4.059-1.337,15.126-.752,18.895s1.207,3.592,1.21,4.808a18.592,18.592,0,0,1-1.231,4.109s5.572-2.7,5.3-8.771,1.963-7.538,2.219-10.027-.866-13.559-3.525-15.211C2490.051,729.516,2488.519,731.237,2487.263,733.323Z" transform="translate(-2436.342 -730.37)" fill="#302367"/><path d="M2498.329,796.4s5.762,19.24,5.845,22.94l3.667-.558s-7.573-22.382-8.257-22.624A1.377,1.377,0,0,0,2498.329,796.4Z" transform="translate(-2439.808 -750.9)" fill="#622043"/><path d="M2482.846,828.756s-5.549,15.61-2.69,17.628,23.869,4.148,24.742-.28-1.481-17.768-3.779-17.6S2484.359,829.289,2482.846,828.756Z" transform="translate(-2433.86 -761.052)" fill="#932a3f"/><path d="M2501.2,828.5c-.595.043-2.01.117-3.8.193.581,2.971,2.371,12.3,2.512,15.109.168,3.363-4.54,3.083-9.137,3.307-3.737.183-9.253-1.266-11.184-1.814a1.848,1.848,0,0,0,.646,1.085c2.859,2.018,23.869,4.148,24.742-.28S2503.5,828.336,2501.2,828.5Z" transform="translate(-2433.938 -761.052)" fill="#622043"/><path d="M2500.79,846.061a23.631,23.631,0,0,1-8.158,2.328c-3.507.2-12.468-4.65-12.468-4.65l-.1.5s3.265,5.237,12.837,5.135C2500.113,849.3,2500.79,846.061,2500.79,846.061Z" transform="translate(-2434.087 -765.824)" fill="#622043"/><path d="M2467.376,784.244s-.31-2.556-1.185-3a14.948,14.948,0,0,0-2.2-.824s-.134.823-.727.673c-.566-.144-2.21-.918-2.3-.186-.041.317.329,1.109.353,1.838a7.427,7.427,0,0,0,.387,2.321c.3.568,3.786,1.935,4.611,1.394S2467.376,784.244,2467.376,784.244Z" transform="translate(-2428.103 -745.993)" fill="#df6161"/><path d="M2421.85,815.321a1.86,1.86,0,0,0-2.664-1.816c-2,.957-4.823,2.543-5.3,4.034-.752,2.347-1.108,3.231-.312,2.9s1.563-2.01,2.475-2.626,1.165.041.994.386-1.265,1.384-.914,1.95.35.134,1.63-.54,3.9-2.4,4.086-4.23Z" transform="translate(-2413.122 -756.297)" fill="#df6161"/></g></g><g transform="translate(2163.994 630.736)"><g transform="translate(0)"><path d="M2258,680.087l.382-49.351h-6.192c-11.541,0-20.88,10.868-20.88,24.676s9.258,24.675,20.8,24.675Z" transform="translate(-2231.309 -630.736)" fill="#c94545"/><ellipse cx="20.896" cy="24.675" rx="20.896" ry="24.675" transform="translate(5.985 0)" fill="#fff"/><path d="M2260.919,632.505c10.546,0,19.126,10.276,19.126,22.906s-8.58,22.906-19.126,22.906-19.126-10.275-19.126-22.906,8.58-22.906,19.126-22.906m0-1.769c-11.541,0-20.9,11.048-20.9,24.676s9.355,24.675,20.9,24.675,20.9-11.047,20.9-24.675-9.356-24.676-20.9-24.676Z" transform="translate(-2234.039 -630.736)" fill="#e58d8d"/><path d="M2266.6,658.591l6.495-15.731-1.333,16.966a2.687,2.687,0,0,1-5.357-.42A2.793,2.793,0,0,1,2266.6,658.591Z" transform="translate(-2242.297 -634.533)" fill="#e58d8d"/><path d="M2268.817,662.532l10.064-1.2-8.075,6.126a2.75,2.75,0,0,1-3.324-4.382A2.784,2.784,0,0,1,2268.817,662.532Z" transform="translate(-2242.297 -640.317)" fill="#e58d8d"/></g><g transform="translate(75.073)"><path d="M2367.306,680.087l.382-49.351H2361.5c-11.541,0-20.88,10.868-20.88,24.676s9.258,24.675,20.8,24.675Z" transform="translate(-2340.615 -630.736)" fill="#c94545"/><ellipse cx="20.896" cy="24.675" rx="20.896" ry="24.675" transform="translate(5.985 0)" fill="#fff"/><path d="M2370.226,632.505c10.546,0,19.126,10.276,19.126,22.906s-8.58,22.906-19.126,22.906-19.126-10.275-19.126-22.906,8.579-22.906,19.126-22.906m0-1.769c-11.541,0-20.9,11.048-20.9,24.676s9.355,24.675,20.9,24.675,20.9-11.047,20.9-24.675-9.355-24.676-20.9-24.676Z" transform="translate(-2343.345 -630.736)" fill="#e58d8d"/><path d="M2376.34,667.248l-13.229,8.576,9.633-12.48a2.693,2.693,0,0,1,4.263,3.291A2.769,2.769,0,0,1,2376.34,667.248Z" transform="translate(-2347.661 -640.62)" fill="#e58d8d"/><path d="M2376.345,658.972l2.844-13.69,2.463,13.764a2.7,2.7,0,1,1-5.321.953A2.745,2.745,0,0,1,2376.345,658.972Z" transform="translate(-2351.788 -635.292)" fill="#e58d8d"/></g><g transform="translate(150.146)"><path d="M2476.613,680.087l.381-49.351H2470.8c-11.541,0-20.88,10.868-20.88,24.676s9.258,24.675,20.8,24.675Z" transform="translate(-2449.923 -630.736)" fill="#c94545"/><ellipse cx="20.896" cy="24.675" rx="20.896" ry="24.675" transform="translate(5.985 0)" fill="#fff"/><path d="M2479.533,632.505c10.546,0,19.126,10.276,19.126,22.906s-8.58,22.906-19.126,22.906-19.127-10.275-19.127-22.906,8.581-22.906,19.127-22.906m0-1.769c-11.541,0-20.9,11.048-20.9,24.676s9.355,24.675,20.9,24.675,20.9-11.047,20.9-24.675-9.355-24.676-20.9-24.676Z" transform="translate(-2452.652 -630.736)" fill="#e58d8d"/><path d="M2490.469,665.131l-2.735,10.507-2.572-10.548a2.737,2.737,0,1,1,5.318-1.3A2.774,2.774,0,0,1,2490.469,665.131Z" transform="translate(-2460.935 -640.435)" fill="#e58d8d"/><path d="M2488.093,661.705l17.008.7-16.4,4.569a2.687,2.687,0,1,1-1.443-5.176A2.754,2.754,0,0,1,2488.093,661.705Z" transform="translate(-2461.001 -640.435)" fill="#e58d8d"/></g></g></g></svg>