<svg xmlns="http://www.w3.org/2000/svg" width="228" height="162.205" viewBox="0 0 228 162.205">
  <g id="Grupo_56138" data-name="Grupo 56138" transform="translate(-992 -501.795)">
    <rect id="Rectángulo_4912" data-name="Rectángulo 4912" width="228" height="115.217" rx="21" transform="translate(992 548.783)" fill="#fff1db"/>
    <g id="Grupo_20710" data-name="Grupo 20710" transform="translate(1002.908 615)">
      <g id="Grupo_20708" data-name="Grupo 20708" transform="translate(0.092)">
        <path id="Trazado_102415" data-name="Trazado 102415" d="M13.006,19H10.036V9.543L7.118,10.4V8.146L12.734,6.2h.272ZM25.75,13.771a6.11,6.11,0,0,1-1.165,4A4.024,4.024,0,0,1,21.3,19.176,4.046,4.046,0,0,1,18,17.761a6.1,6.1,0,0,1-1.169-3.99V11.433a6.11,6.11,0,0,1,1.165-4,4.034,4.034,0,0,1,3.292-1.406,4.036,4.036,0,0,1,3.3,1.415,6.116,6.116,0,0,1,1.169,4Zm-2.962-2.716a4.564,4.564,0,0,0-.36-2.061,1.2,1.2,0,0,0-1.143-.681,1.176,1.176,0,0,0-1.112.633,4.3,4.3,0,0,0-.374,1.916v3.27a4.6,4.6,0,0,0,.36,2.1,1.209,1.209,0,0,0,1.143.664,1.193,1.193,0,0,0,1.116-.646,4.39,4.39,0,0,0,.369-2.026Zm6.39,5.071a1.686,1.686,0,0,1,1.169.417,1.457,1.457,0,0,1,0,2.136,1.844,1.844,0,0,1-2.342,0,1.456,1.456,0,0,1,0-2.127A1.672,1.672,0,0,1,29.178,16.126Zm0-7.014a1.686,1.686,0,0,1,1.169.417,1.457,1.457,0,0,1,0,2.136,1.844,1.844,0,0,1-2.342,0,1.456,1.456,0,0,1,0-2.127A1.672,1.672,0,0,1,29.178,9.112Zm12.4,4.658a6.11,6.11,0,0,1-1.165,4,4.024,4.024,0,0,1-3.283,1.406,4.046,4.046,0,0,1-3.3-1.415,6.1,6.1,0,0,1-1.169-3.99V11.433a6.11,6.11,0,0,1,1.165-4,4.034,4.034,0,0,1,3.292-1.406,4.036,4.036,0,0,1,3.3,1.415,6.116,6.116,0,0,1,1.169,4Zm-2.962-2.716a4.564,4.564,0,0,0-.36-2.061,1.2,1.2,0,0,0-1.143-.681A1.176,1.176,0,0,0,36,8.945a4.3,4.3,0,0,0-.374,1.916v3.27a4.6,4.6,0,0,0,.36,2.1,1.209,1.209,0,0,0,1.143.664,1.193,1.193,0,0,0,1.116-.646,4.39,4.39,0,0,0,.369-2.026ZM52,13.771a6.11,6.11,0,0,1-1.165,4,4.551,4.551,0,0,1-6.587-.009,6.1,6.1,0,0,1-1.169-3.99V11.433a6.11,6.11,0,0,1,1.165-4,4.551,4.551,0,0,1,6.587.009,6.116,6.116,0,0,1,1.169,4Zm-2.962-2.716a4.564,4.564,0,0,0-.36-2.061,1.2,1.2,0,0,0-1.143-.681,1.176,1.176,0,0,0-1.112.633,4.3,4.3,0,0,0-.374,1.916v3.27a4.6,4.6,0,0,0,.36,2.1,1.209,1.209,0,0,0,1.143.664,1.193,1.193,0,0,0,1.116-.646,4.39,4.39,0,0,0,.369-2.026ZM66.9,14.315a5.735,5.735,0,0,1-1,3.538,3.2,3.2,0,0,1-2.694,1.323,2.742,2.742,0,0,1-2.153-.958v4.438H58.094V9.49h2.769l.088.879a2.742,2.742,0,0,1,2.241-1.055,3.224,3.224,0,0,1,2.733,1.3,5.805,5.805,0,0,1,.976,3.564Zm-2.962-.185q0-2.531-1.477-2.531a1.394,1.394,0,0,0-1.406.756V16.1a1.439,1.439,0,0,0,1.424.791q1.415,0,1.459-2.443Zm6.1,2a1.686,1.686,0,0,1,1.169.417,1.457,1.457,0,0,1,0,2.136,1.844,1.844,0,0,1-2.342,0,1.456,1.456,0,0,1,0-2.127A1.672,1.672,0,0,1,70.039,16.126ZM80.928,9.49l.1,1.116a3.27,3.27,0,0,1,2.716-1.292,2.407,2.407,0,0,1,2.435,1.433A3.165,3.165,0,0,1,88.97,9.314q2.892,0,2.971,3.5V19H88.97V13a1.813,1.813,0,0,0-.246-1.063,1.048,1.048,0,0,0-.9-.334,1.4,1.4,0,0,0-1.31.782l.009.123V19H83.556V13.015a1.906,1.906,0,0,0-.237-1.081,1.045,1.045,0,0,0-.905-.334,1.42,1.42,0,0,0-1.3.782V19H78.151V9.49Zm14.537,6.636a1.686,1.686,0,0,1,1.169.417,1.457,1.457,0,0,1,0,2.136,1.844,1.844,0,0,1-2.342,0,1.456,1.456,0,0,1,0-2.127A1.672,1.672,0,0,1,95.465,16.126ZM108.913,19a3.344,3.344,0,0,1-.281-.853,2.754,2.754,0,0,1-2.285,1.028,3.374,3.374,0,0,1-2.285-.813,2.588,2.588,0,0,1-.94-2.043,2.66,2.66,0,0,1,1.143-2.338,5.821,5.821,0,0,1,3.322-.791h.914v-.5q0-1.316-1.134-1.316a.927.927,0,0,0-1.055,1.042h-2.962a2.655,2.655,0,0,1,1.173-2.239,4.931,4.931,0,0,1,2.993-.86,4.323,4.323,0,0,1,2.874.888,3.086,3.086,0,0,1,1.081,2.435v4.21a4.311,4.311,0,0,0,.4,2V19Zm-1.854-1.934a1.652,1.652,0,0,0,.918-.237,1.487,1.487,0,0,0,.523-.536V14.772h-.861q-1.547,0-1.547,1.389a.848.848,0,0,0,.272.655A.986.986,0,0,0,107.058,17.066ZM124.7,6.019V8.348h-.132a4.447,4.447,0,0,0-2.729.8,3.358,3.358,0,0,0-1.314,2.21,3.464,3.464,0,0,1,2.531-.984,3.231,3.231,0,0,1,2.646,1.213,4.892,4.892,0,0,1,.984,3.182A4.48,4.48,0,0,1,126.108,17a4.108,4.108,0,0,1-1.608,1.6,4.622,4.622,0,0,1-2.29.576,4.777,4.777,0,0,1-2.435-.62,4.26,4.26,0,0,1-1.67-1.771,5.832,5.832,0,0,1-.615-2.654V12.944a7.387,7.387,0,0,1,.848-3.555,6.149,6.149,0,0,1,2.421-2.474,6.923,6.923,0,0,1,3.489-.9Zm-2.672,6.618a1.7,1.7,0,0,0-.984.272,1.73,1.73,0,0,0-.589.668v.888q0,2.426,1.679,2.426a1.362,1.362,0,0,0,1.129-.606,2.472,2.472,0,0,0,.453-1.521,2.426,2.426,0,0,0-.461-1.534A1.476,1.476,0,0,0,122.026,12.637Zm7.831,3.489a1.686,1.686,0,0,1,1.169.417,1.457,1.457,0,0,1,0,2.136,1.844,1.844,0,0,1-2.342,0,1.456,1.456,0,0,1,0-2.127A1.672,1.672,0,0,1,129.857,16.126Zm0-7.014a1.686,1.686,0,0,1,1.169.417,1.457,1.457,0,0,1,0,2.136,1.844,1.844,0,0,1-2.342,0,1.456,1.456,0,0,1,0-2.127A1.672,1.672,0,0,1,129.857,9.112Zm12.4,4.658a6.11,6.11,0,0,1-1.165,4,4.551,4.551,0,0,1-6.587-.009,6.1,6.1,0,0,1-1.169-3.99V11.433a6.11,6.11,0,0,1,1.165-4,4.551,4.551,0,0,1,6.587.009,6.116,6.116,0,0,1,1.169,4ZM139.3,11.055a4.564,4.564,0,0,0-.36-2.061,1.2,1.2,0,0,0-1.143-.681,1.176,1.176,0,0,0-1.112.633,4.3,4.3,0,0,0-.374,1.916v3.27a4.6,4.6,0,0,0,.36,2.1,1.209,1.209,0,0,0,1.143.664,1.193,1.193,0,0,0,1.116-.646,4.39,4.39,0,0,0,.369-2.026Zm13.386,2.716a6.11,6.11,0,0,1-1.165,4,4.551,4.551,0,0,1-6.587-.009,6.1,6.1,0,0,1-1.169-3.99V11.433a6.11,6.11,0,0,1,1.165-4,4.551,4.551,0,0,1,6.587.009,6.116,6.116,0,0,1,1.169,4Zm-2.962-2.716a4.564,4.564,0,0,0-.36-2.061,1.2,1.2,0,0,0-1.143-.681,1.176,1.176,0,0,0-1.112.633,4.3,4.3,0,0,0-.374,1.916v3.27a4.6,4.6,0,0,0,.36,2.1,1.209,1.209,0,0,0,1.143.664,1.193,1.193,0,0,0,1.116-.646,4.39,4.39,0,0,0,.369-2.026ZM164.108,19a3.344,3.344,0,0,1-.281-.853,2.754,2.754,0,0,1-2.285,1.028,3.374,3.374,0,0,1-2.285-.813,2.588,2.588,0,0,1-.94-2.043,2.66,2.66,0,0,1,1.143-2.338,5.821,5.821,0,0,1,3.322-.791h.914v-.5q0-1.316-1.134-1.316a.927.927,0,0,0-1.055,1.042h-2.962a2.655,2.655,0,0,1,1.173-2.239,4.931,4.931,0,0,1,2.993-.86,4.323,4.323,0,0,1,2.874.888,3.086,3.086,0,0,1,1.081,2.435v4.21a4.311,4.311,0,0,0,.4,2V19Zm-1.854-1.934a1.652,1.652,0,0,0,.918-.237,1.487,1.487,0,0,0,.523-.536V14.772h-.861q-1.547,0-1.547,1.389a.848.848,0,0,0,.272.655A.986.986,0,0,0,162.253,17.066Zm7.884-.94a1.686,1.686,0,0,1,1.169.417,1.457,1.457,0,0,1,0,2.136,1.844,1.844,0,0,1-2.342,0,1.456,1.456,0,0,1,0-2.127A1.672,1.672,0,0,1,170.137,16.126Zm10.89-6.636.1,1.116a3.27,3.27,0,0,1,2.716-1.292,2.407,2.407,0,0,1,2.435,1.433,3.165,3.165,0,0,1,2.795-1.433q2.892,0,2.971,3.5V19h-2.971V13a1.813,1.813,0,0,0-.246-1.063,1.048,1.048,0,0,0-.9-.334,1.4,1.4,0,0,0-1.31.782l.009.123V19h-2.971V13.015a1.906,1.906,0,0,0-.237-1.081,1.045,1.045,0,0,0-.905-.334,1.42,1.42,0,0,0-1.3.782V19H178.25V9.49Zm14.537,6.636a1.686,1.686,0,0,1,1.169.417,1.457,1.457,0,0,1,0,2.136,1.844,1.844,0,0,1-2.342,0,1.456,1.456,0,0,1,0-2.127A1.672,1.672,0,0,1,195.564,16.126Z" transform="translate(0)" fill="#12263f"/>
      </g>
    </g>
    <g id="Grupo_56037" data-name="Grupo 56037" transform="translate(221.182 76)">
      <g id="Grupo_56031" data-name="Grupo 56031" transform="translate(837.818 425.795)">
        <circle id="Elipse_1418" data-name="Elipse 1418" cx="45.52" cy="45.52" r="45.52" transform="translate(1.468 1.468)" fill="#ffb74d"/>
        <path id="Trazado_102131" data-name="Trazado 102131" d="M2577.917,641.482a45.519,45.519,0,0,1-45.488-43.868c-.019.548-.033,1.1-.033,1.652a45.52,45.52,0,0,0,91.041,0c0-.553-.014-1.1-.033-1.652A45.519,45.519,0,0,1,2577.917,641.482Z" transform="translate(-2530.929 -552.277)" fill="#ff9800"/>
        <circle id="Elipse_1419" data-name="Elipse 1419" cx="37.984" cy="37.984" r="37.984" transform="translate(9.005 9.005)" fill="#f3f9ff"/>
        <path id="Trazado_102132" data-name="Trazado 102132" d="M2595.656,633.946a37.983,37.983,0,0,1-37.946-36.332c-.024.548-.038,1.1-.038,1.652a37.984,37.984,0,1,0,75.968,0c0-.554-.015-1.1-.038-1.652A37.983,37.983,0,0,1,2595.656,633.946Z" transform="translate(-2548.668 -552.277)" fill="#d5e0f2"/>
        <path id="Trazado_102133" data-name="Trazado 102133" d="M2607.687,459.322a46.989,46.989,0,0,0-67.383,65.495,1.379,1.379,0,1,0,2-1.895,44.2,44.2,0,1,1,3.915,3.672,1.379,1.379,0,0,0-1.762,2.122,46.989,46.989,0,0,0,63.225-69.394Z" transform="translate(-2527.472 -445.559)"/>
        <path id="Trazado_102134" data-name="Trazado 102134" d="M2619.212,483.441a1.379,1.379,0,0,0-.066-1.949,39.412,39.412,0,1,0,3.9,4.206,1.379,1.379,0,1,0-2.154,1.724,36.28,36.28,0,0,1,8.025,22.9,36.678,36.678,0,1,1-11.651-26.814,1.379,1.379,0,0,0,1.949-.067Z" transform="translate(-2545.246 -463.333)"/>
        <path id="Trazado_102135" data-name="Trazado 102135" d="M2635.5,514.425a28.874,28.874,0,1,0-18.4,51.122h0V537.219a1.4,1.4,0,0,1,.368-.947l18.183-19.812A1.406,1.406,0,0,0,2635.5,514.425Z" transform="translate(2276.547 -1423.132) rotate(135)" fill="#ffc571"/>
        <path id="Trazado_102136" data-name="Trazado 102136" d="M2683.2,492.984v-4.272a1.379,1.379,0,1,0-2.759,0v4.272a1.379,1.379,0,1,0,2.759,0Z" transform="translate(-2634.832 -474.877)"/>
        <path id="Trazado_102137" data-name="Trazado 102137" d="M2680.441,696.773v4.272a1.379,1.379,0,1,0,2.759,0v-4.272a1.379,1.379,0,1,0-2.759,0Z" transform="translate(-2634.832 -620.903)"/>
        <path id="Trazado_102138" data-name="Trazado 102138" d="M2782.959,601.287a1.379,1.379,0,0,0,0-2.759h-4.272a1.379,1.379,0,1,0,0,2.759Z" transform="translate(-2702.816 -552.919)"/>
        <path id="Trazado_102139" data-name="Trazado 102139" d="M2570.626,598.528a1.379,1.379,0,1,0,0,2.759h4.272a1.379,1.379,0,0,0,0-2.759Z" transform="translate(-2556.791 -552.919)"/>
      </g>
      <path id="Trazado_102140" data-name="Trazado 102140" d="M2685.067,688.52" transform="translate(-1800.26 -190.283)" fill="#c43030"/>
      <g id="Grupo_56033" data-name="Grupo 56033" transform="translate(860.693 452.874)">
        <g id="Grupo_56032" data-name="Grupo 56032" transform="translate(1.423 1.412)">
          <path id="Trazado_102141" data-name="Trazado 102141" d="M2703.309,562.479a2.754,2.754,0,0,0-3.894.027l-8.647,8.767a4.706,4.706,0,0,1,3.443,4.35l9.124-9.25A2.753,2.753,0,0,0,2703.309,562.479Z" transform="translate(-2666.377 -555.552)" fill="#eb423f"/>
          <path id="Trazado_102142" data-name="Trazado 102142" d="M2627.391,561.367a4.707,4.707,0,0,1,3.127-4.433l-16.971-15.124a2.753,2.753,0,1,0-3.663,4.111l17.512,15.605C2627.394,561.473,2627.391,561.42,2627.391,561.367Z" transform="translate(-2608.962 -541.112)" fill="#eb423f"/>
          <circle id="Elipse_1420" data-name="Elipse 1420" cx="4.705" cy="4.705" r="4.705" transform="translate(18.429 15.55)" fill="#9e69ce"/>
          <path id="Trazado_102143" data-name="Trazado 102143" d="M2662.162,591.612l2.571,2.291c0-.053,0-.106,0-.16a4.707,4.707,0,0,1,3.127-4.433l-2.319-2.067a7.594,7.594,0,0,0-3.375,4.368Z" transform="translate(-2646.3 -573.489)" fill="#c43030"/>
          <path id="Trazado_102144" data-name="Trazado 102144" d="M2692.954,586.4l-2.186,2.217a4.706,4.706,0,0,1,3.443,4.35l2.41-2.443A7.6,7.6,0,0,0,2692.954,586.4Z" transform="translate(-2666.377 -572.9)" fill="#c43030"/>
          <path id="Trazado_102145" data-name="Trazado 102145" d="M2675.477,606.556a4.706,4.706,0,0,1-4.406-3.053,4.7,4.7,0,1,0,8.812,0A4.706,4.706,0,0,1,2675.477,606.556Z" transform="translate(-2652.343 -584.9)" fill="#6b2ba7"/>
        </g>
        <path id="Trazado_102146" data-name="Trazado 102146" d="M2647.393,575.508a1.379,1.379,0,1,0,1.774-2.112L2634.177,560.8a6.043,6.043,0,0,0,.649-2.368l8.753-8.875a4.138,4.138,0,1,0-5.892-5.812L2629.545,552a6.081,6.081,0,0,0-2.021.069l-16.445-14.655a4.138,4.138,0,1,0-5.506,6.179l7.958,7.091a1.379,1.379,0,1,0,1.835-2.059l-7.958-7.091a1.379,1.379,0,0,1,1.835-2.059l15.594,13.9a6.128,6.128,0,0,0-1.664,2.212l-3.688-3.287a1.38,1.38,0,0,0-1.836,2.06l5.062,4.51a6.089,6.089,0,0,0,9.691,4.046Zm-7.741-29.822a1.379,1.379,0,1,1,1.964,1.937l-7.479,7.583a6.133,6.133,0,0,0-1.812-2.091Zm-10.905,15.693a3.335,3.335,0,1,1,3.335-3.335A3.339,3.339,0,0,1,2628.747,561.379Z" transform="translate(-2604.189 -536.377)"/>
      </g>
    </g>
  </g>
</svg>
