<svg xmlns="http://www.w3.org/2000/svg" width="292" height="71" viewBox="0 0 292 71"><g transform="translate(-804 -3602)"><rect width="72" height="71" transform="translate(914 3602)" fill="none"/><g transform="translate(922.954 3613.614)"><path d="M40.484,30.178a15.05,15.05,0,0,0-18.9-1.99,2.714,2.714,0,0,0-2.584-1.938H2.714A2.714,2.714,0,0,0,0,28.963V43.436a2.714,2.714,0,0,0,2.714,2.714H5.427V68.762a.9.9,0,0,0,.265.639l2.714,2.714,1.809,1.809a.9.9,0,0,0,1.279,0L16.016,69.4a.9.9,0,0,0,.265-.639v-.9a.9.9,0,0,0-.265-.639l-2.074-2.074,2.074-2.074a.9.9,0,0,0,.265-.64V59.717a.9.9,0,0,0-.265-.639l-2.449-2.449V54.665l2.449-2.449a.9.9,0,0,0,.265-.639V49.237L28.706,61.663A14.976,14.976,0,0,0,54.271,51.074v-.9A14.876,14.876,0,0,0,49.884,39.58ZM14.472,51.2l-2.449,2.449a.9.9,0,0,0-.265.639V57a.9.9,0,0,0,.265.639l2.449,2.449v1.965L12.024,64.5a.9.9,0,0,0,0,1.279l2.449,2.449v.156l-3.618,3.618-.9-.9V47.958a.9.9,0,1,0-1.809,0V69.292l-.9-.9V46.149h7.236Zm.9-6.862H2.714a.9.9,0,0,1-.9-.9V28.963a.9.9,0,0,1,.9-.9H18.995a.9.9,0,0,1,.9.9v4.6l-1.843-.41a3.61,3.61,0,0,0-3.585-3.287H7.236a3.618,3.618,0,0,0,0,7.236h7.236a3.618,3.618,0,0,0,3.305-2.158l2.122.471v8.019a.9.9,0,0,1-.9.9Zm-.2-9.971.758.168a1.809,1.809,0,0,1-1.466.758H7.236a1.809,1.809,0,0,1,0-3.618h7.236a1.809,1.809,0,0,1,1.634,1.045l-.533-.118a.9.9,0,1,0-.425,1.758l.032.007Zm37.282,16.7a13.167,13.167,0,0,1-22.477,9.31l-13.7-13.7v-.53h2.714a2.714,2.714,0,0,0,2.714-2.714h0V38.41a3.581,3.581,0,0,0,1.809.5,3.618,3.618,0,0,0,0-7.236,3.581,3.581,0,0,0-1.809.5V30.32a13.249,13.249,0,0,1,17.5,1.136l9.4,9.4a13.078,13.078,0,0,1,3.857,9.31ZM23.714,34.412l-1.522-.338a1.809,1.809,0,1,1-.393,1.764l1.52.337a.921.921,0,0,0,.2.024.9.9,0,0,0,.2-1.787Z" transform="translate(0 -25.738)" fill="#111e61"/><path d="M234.677,126.617A.9.9,0,0,0,233.4,127.9l4.335,4.335L229.967,140l-4.335-4.335a.9.9,0,0,0-1.279,1.279l9.95,9.95a.9.9,0,0,0,1.279-1.279l-4.335-4.335,7.766-7.766,4.335,4.335a.9.9,0,0,0,1.279-1.279Z" transform="translate(-198.761 -114.986)" fill="#111e61"/></g><rect width="292" height="71" transform="translate(804 3602)" fill="none"/></g></svg>