<svg xmlns="http://www.w3.org/2000/svg" width="408.19" height="226" viewBox="0 0 408.19 226"><g transform="translate(-1428.896 -968.062)"><path d="M1831.639,1193.024c35.829-16.162,38.17-94.529-31.121-112.872s-56.455-64.629-114.749-99.227c-53.138-31.538-141.045-4.8-170.325,77.214-20.878,58.484,3.484,131.849,20.108,134.885Z" transform="translate(-42.627 0)" fill="#f3f9ff"/><g transform="translate(1645.034 1105.222)"><rect width="5.842" height="5.538" transform="translate(4.769 81.729)" fill="#091442"/><rect width="5.841" height="5.538" transform="translate(28.166 81.729)" fill="#091442"/><rect width="4.689" height="3.537" transform="translate(2.853 79.349)" fill="#263a5a"/><g transform="translate(9.927 0.464)"><path d="M1925.81,1272.354a.729.729,0,0,1,.694-.759h11.916a.729.729,0,0,1,.694.759v21.037h2.111v-21.037a2.947,2.947,0,0,0-2.805-3.066H1926.5a2.947,2.947,0,0,0-2.805,3.066v21.037h2.111Z" transform="translate(-1923.699 -1269.288)" fill="#6b2ba7"/></g><path d="M1935.97,1379.5l-28.517-1.6a2.831,2.831,0,0,1-2.76-2.9l-2.7-50.73c-.085-3.548,3.939-4.108,5.463-4.108h31.031a2.831,2.831,0,0,1,2.76,2.9v51.941C1941.256,1377.7,1938.607,1379.458,1935.97,1379.5Z" transform="translate(-1901.98 -1296.458)" fill="#e5d145"/><path d="M4.679,0H31.873a4.678,4.678,0,0,1,4.678,4.678V53.059a4.678,4.678,0,0,1-4.678,4.678H4.678A4.678,4.678,0,0,1,0,53.059V4.679A4.679,4.679,0,0,1,4.679,0Z" transform="translate(0 25.304)" fill="#ffee58"/><path d="M1940.179,1402.4h-22.672v-28.731a11.336,11.336,0,0,1,11.335-11.336h0a11.336,11.336,0,0,1,11.336,11.336Z" transform="translate(-1910.409 -1319.359)" fill="#e5d145"/><path d="M1934.831,1313.333c2.872,0,5.3,1.274,5.4,2.8h2.3c-.086-2.518-3.5-4.542-7.708-4.542s-7.622,2.025-7.708,4.542h2.3C1929.527,1314.606,1931.96,1313.333,1934.831,1313.333Z" transform="translate(-1915.632 -1291.801)" fill="#9e69ce"/><path d="M1940.411,1271.216h-9.261a1.471,1.471,0,0,1-1.471-1.472h0a1.471,1.471,0,0,1,1.471-1.471h9.261a1.472,1.472,0,0,1,1.472,1.471h0A1.472,1.472,0,0,1,1940.411,1271.216Z" transform="translate(-1917.019 -1268.273)" fill="#9e69ce"/></g><g transform="translate(1429.715 1192.073)"><path d="M1430.689,1459.365h0a1,1,0,0,0,.995.995h405.382a1,1,0,0,0,.994-.995h0a1,1,0,0,0-.994-.995H1431.684A1,1,0,0,0,1430.689,1459.365Z" transform="translate(-1430.689 -1458.37)" fill="#283250"/></g><g transform="translate(1471.894 1016.72)"><path d="M1678.975,1213.536c-.01-.454-3.856-26.979-4.332-27.75l-2.947-15.049-9.348-.979s3.757,19.487,4.131,20.47c.23.6,8.624,30.674,8.624,30.674s-.107,3.911,1.274,3.911a43.69,43.69,0,0,0,6.257-1.427l.6-2.484Z" transform="translate(-1598.687 -1126.265)" fill="#db8a7f"/><path d="M10.056,0H40.635A10.056,10.056,0,0,1,50.691,10.056V26.35A10.055,10.055,0,0,1,40.636,36.405H10.055A10.055,10.055,0,0,1,0,26.35V10.056A10.056,10.056,0,0,1,10.056,0Z" transform="translate(59.485 100.826)" fill="#eb423f"/><g transform="translate(71.572 94.636)"><path d="M1682.147,1289.107v-1.795a3.132,3.132,0,0,1,3.129-3.129h7.362a3.132,3.132,0,0,1,3.129,3.129v1.795h2.484v-1.795a5.62,5.62,0,0,0-5.613-5.613h-7.362a5.62,5.62,0,0,0-5.613,5.613v1.795Z" transform="translate(-1679.662 -1281.699)" fill="#091442"/></g><path d="M14.527,0H36.164A14.527,14.527,0,0,1,50.692,14.527v7.351A14.527,14.527,0,0,1,36.164,36.405H14.526A14.526,14.526,0,0,1,0,21.879V14.527A14.527,14.527,0,0,1,14.527,0Z" transform="translate(50.412 100.826)" fill="#c43030"/><path d="M1624.386,1137.1c-.885-10.961-2.065-20.751-2.458-21.993-2.393-7.546-35.281-8.048-38.722,4.467-.5,1.827-1.764,7.876.644,16.529l19.292-7.731Z" transform="translate(-1555.278 -1093.668)" fill="#e78b0d"/><path d="M1592.282,1127.592c-1.343,4.884,3.612,54.13,5.751,56.27s28.71.414,32.575-3.451-1.339-58.805-3.45-60.917S1595.724,1115.078,1592.282,1127.592Z" transform="translate(-1560.509 -1098.06)" fill="#ffbc60"/><g transform="translate(37.511 17.268)"><path d="M1620.793,1153.3l-1.5.257c-.879-5.147-1.6-9.463-2.183-13.083-2.917-18.034-2.549-18.8-2.58-19.007a6.924,6.924,0,0,0-4.333-6.36l-5.089-2.071c.765-.253,1.556-.476,2.367-.675l3.295,1.34a8.462,8.462,0,0,1,5.28,7.879c0,2.109,1.339,10.934,2.593,18.741C1619.74,1147.129,1620.77,1153.166,1620.793,1153.3Z" transform="translate(-1605.11 -1112.358)" fill="#e78b0d"/></g><g transform="translate(50.876 14.585)"><path d="M1650.339,1149.141c-5.263-30.787-4.726-31.839-4.763-32.091a6.923,6.923,0,0,0-4.334-6.358l-6.879-2.8.572-1.406,6.88,2.8a8.459,8.459,0,0,1,5.28,7.879c0,3.948,4.693,31.443,4.741,31.72Z" transform="translate(-1634.363 -1106.486)" fill="#e78b0d"/></g><path d="M1599.011,1228.174q.1.786.2,1.547c7.459.763,27.062,2.142,32.174-1.611l-.9-1.224C1625.774,1230.347,1605.688,1228.875,1599.011,1228.174Z" transform="translate(-1564.287 -1157.293)" fill="#e78b0d"/><path d="M1568.844,1423.088s-1.978,1.939-2.023,2.65-.175,8.334.632,9.046,3.18,1.216,2.417,2.017c-.576.6-5.011.476-7.95.313-.858-.047-1.934-6.922-2.274-7.933-.493-1.468-2.271-4.662-1.822-5.685.219-.5,1.842-1.634,3.316-2.59a13.506,13.506,0,0,0,3.033-3.244Z" transform="translate(-1541.879 -1260.907)" fill="#e2a290"/><path d="M1637.074,1439.835s-1.534,4.351-1.748,4.964a30.235,30.235,0,0,0-.675,3.557c0,2.718,12.2-2.307,9.468-3.512a2.9,2.9,0,0,1-1.106-1.9,6.382,6.382,0,0,1,1.028-3.213Z" transform="translate(-1583.644 -1272.892)" fill="#e2a290"/><g transform="translate(20.406 71.571)"><path d="M1655.624,1231.216l4.418,11.339s2.882,27.059,1.2,43.257c-.7,6.774-15.9,43.038-15.9,43.038l-7.548-1.069,10.11-42.943-3.72-16.422-5.265-32.461Z" transform="translate(-1605.759 -1231.216)" fill="#091442"/><path d="M1596.723,1232.51l-3.791,12.625-5.764,38.106-19.5,35.646s2.932,4.46,6.08,5.162l27.671-36.027,15-45.1-.526-10.02Z" transform="translate(-1567.671 -1231.919)" fill="#111e61"/></g><path d="M1672.674,1155.876l-10.759,1.1s-.493-8.859-.493-13.085c0-5.127.944-11.541,1.548-11.355a8.609,8.609,0,0,1,4.95,3.039C1672.72,1142.2,1672.674,1155.876,1672.674,1155.876Z" transform="translate(-1598.184 -1106.049)" fill="#6b2ba7"/><path d="M1570.242,1439.748c-.713-.834-3.1-1.679-3.569-1.845-1.785-.623-5.95-13.283-5.95-13.283s-3.618,1.063-3.9,1.618,2.236,6.654,2.236,6.654c.475,2.5,1.677,8.177,1.677,8.177h8.466C1569.865,1441.069,1571.018,1440.656,1570.242,1439.748Z" transform="translate(-1541.363 -1264.687)" fill="#111e61"/><path d="M1633.131,1455.285l1.369-4.453s2.964,1.266,4.431,1.058a44.336,44.336,0,0,0,4.333-1.04c5.857,1.937,10.656,2.877,9.783,4.434h-19.915Z" transform="translate(-1582.818 -1278.923)" fill="#111e61"/><path d="M1617.481,1130.864s-5.694.785-7.193,1.875c-1.688,1.229-6.916,6.959-6.916,6.959s10.881,30.885,10.459,36.38-1.615,13.634-1.615,13.634,21.129,1.321,29.131-1.808c0,0-2.527-12.452-2.527-15.721s-1.419-35.949-2.429-37.66-3.046-2.685-6.907-3.52S1617.481,1130.864,1617.481,1130.864Z" transform="translate(-1566.655 -1104.994)" fill="#9e69ce"/><path d="M1635.988,1111.243l-1.4,8.817s5.143,11.218,8.217,10.274c2.579-.793.992-10.428.992-10.428s-1.405-5.175-.984-7.764S1635.988,1111.243,1635.988,1111.243Z" transform="translate(-1583.607 -1094.191)" fill="#e2a290"/><path d="M1644.339,1112.142c.421-2.589-6.82-.9-6.82-.9l-.117.758a4.2,4.2,0,0,0,.785,1.275,9.6,9.6,0,0,0,6.332,2.821A13.891,13.891,0,0,1,1644.339,1112.142Z" transform="translate(-1585.138 -1094.191)" fill="#d7735a"/><g transform="translate(45.453 0)"><path d="M1634.391,1080.171c-.2-.073-1.64,10.416,1.085,13.3s8.033,3.831,9.938,1.558c2.106-2.515,2-13.788-2.236-16.757S1634.391,1080.171,1634.391,1080.171Z" transform="translate(-1628.652 -1076.057)" fill="#e2a290"/><path d="M1623.639,1079.018a8.543,8.543,0,0,0,2.316,11.088c2.986,2.273,2.933,4.877,2.933,4.877l.484-1.336a7.488,7.488,0,0,0,.374-3.2,6.179,6.179,0,0,0-.483-1.923c-.718-1.518,1.543-2.527,2.177-3.789.489-.973.512-3.2,1.281-4.805l.919-1.227s2.119-1.623,4.193-1.165S1628.967,1069.68,1623.639,1079.018Z" transform="translate(-1622.494 -1074.563)" fill="#091442"/><path d="M1638.538,1098.185c.022,1.28-.569,2.327-1.32,2.34s-1.377-1.015-1.4-2.294.569-2.327,1.32-2.34S1638.516,1096.905,1638.538,1098.185Z" transform="translate(-1629.731 -1086.147)" fill="#e2a290"/></g><g transform="translate(0 95.197)"><g transform="translate(22.265)"><path d="M1585.945,1292.008h-1.817v-6.72a.343.343,0,0,0-.326-.359h-9.919a.344.344,0,0,0-.326.359v6.72h-1.817v-6.72a2.261,2.261,0,0,1,2.142-2.359h9.919a2.261,2.261,0,0,1,2.142,2.359Z" transform="translate(-1571.741 -1282.928)" fill="#111e61"/></g><path d="M8.225,0H52.089a8.225,8.225,0,0,1,8.225,8.225V26.3a8.224,8.224,0,0,1-8.224,8.224H8.225A8.225,8.225,0,0,1,0,26.3V8.225A8.225,8.225,0,0,1,8.225,0Z" transform="translate(0 5.234)" fill="#ffee58"/><path d="M1641.542,1294.384h-5.359a3.077,3.077,0,0,1,3.248,2.871v28.78a3.077,3.077,0,0,1-3.248,2.871h5.359a3.077,3.077,0,0,0,3.248-2.871v-28.78A3.077,3.077,0,0,0,1641.542,1294.384Z" transform="translate(-1584.476 -1289.15)" fill="#fff292"/></g><path d="M1585.387,1210.906c-.4-.26.026-6.759.026-6.759s.658-18.713.728-19.723l8.4-17.277-7.265-6.782s-8.651,19.049-8.931,20.128,1.72,26.511,1.825,28.755a51.375,51.375,0,0,0-1.994,5.114c-.474,1.722.358,3.459.3,3.966-.009.075,1.88,1.169,2.381,1.026a7.331,7.331,0,0,1,2.684-.471c2.081.471,1.392-2.535,1.734-2.522s1.509,0,1.713,0C1587.3,1216.362,1587.52,1212.3,1585.387,1210.906Z" transform="translate(-1552.894 -1121.165)" fill="#e2a290"/><path d="M1587.9,1153.132l9.524,7.363a34.015,34.015,0,0,0,6.318-8.417c2.138-4.475.643-17.721-1.632-17.115C1597.022,1136.32,1587.9,1153.132,1587.9,1153.132Z" transform="translate(-1558.254 -1107.357)" fill="#6b2ba7"/><path d="M1660.569,1122.627v2.971l-.22-.589c.025.049,5.733,6.374,8.588,20.234l.264,1.35c.724,4.3.9,6.826.894,6.812a73.938,73.938,0,0,1-.152,13.692.846.846,0,0,1-1.619.261,35.168,35.168,0,0,1-2.11-8.411c-.362-2.382-.654-6.482-.652-6.468a97.634,97.634,0,0,0-1.729-11.481,66.49,66.49,0,0,0-4.839-14.811l-.22-.263v-3.3a.9.9,0,0,1,1.794,0Z" transform="translate(-1596.745 -1100.181)" fill="#e78b0d"/><path d="M1625.731,1124.076l.083,2.442v.492c3.532,6.2,8.578,20.3,5.848,34.495-1.018,4.643-3.3,10.719-7.61,12.73-.422.259-1.228-.108-1.488-.53s.8-1.668.8-1.654c2.233-4.148,3.238-17.614,3.08-21.451-.1-8.737-1.687-17.34-2.453-23.021l-.05-3.413a.9.9,0,1,1,1.792-.089Z" transform="translate(-1577.057 -1100.992)" fill="#e78b0d"/><path d="M1691.169,1285.4s-1.829-2.277-.725-3.071,5.677.224,6,.552,1.621,1.484,1.621,1.484Z" transform="translate(-1613.754 -1187.245)" fill="#db8a7f"/></g><g transform="translate(1578.033 1004.64)"><path d="M1866.355,1090.078c.748-3.4,1.48-6.817-.491-10.55a9.582,9.582,0,0,0-7.542-5.138c-9.04-1.072-9.836,7.006-18.423,10.542-3.668,1.51-7.431,1.078-10.709,3.031-5.919,3.526-3.739,7.793.187,17.007,9.611,22.561,26.147,9.5,29.062,5.054C1860.607,1106.719,1865.874,1092.265,1866.355,1090.078Z" transform="translate(-1793.46 -1062.336)" fill="#091442"/><g transform="translate(23.431 30.414)"><path d="M1861.713,1133.5c-4.849,1.515-15.125,9.08-15.783,8.921l-11.968-9.524-7.363,6.462s16.427,12.164,17.36,12.609c.69.329,13.713-10.736,20.532-14.07C1864.395,1135.68,1862.8,1135.443,1861.713,1133.5Z" transform="translate(-1817.466 -1124.579)" fill="#db8a7f"/><path d="M1831.815,1128.344l-7.5,9.709s-7.9-6.075-10.819-9.344c-3.536-3.966-7.4-12.48-6.833-12.791a12.768,12.768,0,0,1,7.441-1.042C1822.353,1116.719,1831.815,1128.344,1831.815,1128.344Z" transform="translate(-1806.608 -1114.691)" fill="#e5d145"/></g><g transform="translate(31.39 14.411)"><path d="M1901.676,1139.344l-.924-4.827a8.078,8.078,0,0,1,4.469,3.352c1.738,2.7,4.647,11.826,5.144,12.1s5.994-8.2,6.955-9.535c1.189-1.651,1.633-3.546,2.378-4.986s3.366-1.93,4.359-1.75-1.363,4.392-1.363,4.392-5.958,10.35-7.943,16.02-8.191,8.37-9.184,7.56S1901.676,1139.344,1901.676,1139.344Z" transform="translate(-1865.698 -1108.989)" fill="#db8a7f"/><path d="M1902.753,1154.857l7.587-4.329s-3.444-14.523-9.589-14.989Z" transform="translate(-1865.698 -1110.011)" fill="#6b2ba7"/><path d="M1942.259,1136.945s.247-1.09.916-1.313a4.679,4.679,0,0,1,1.907,0,14.009,14.009,0,0,0,1.363-.668l-1.065,1.982s-2.08,2.452-2.774,1.536S1942.259,1136.945,1942.259,1136.945Z" transform="translate(-1888.195 -1109.698)" fill="#e2a290"/><path d="M1951.355,1135.161a25.009,25.009,0,0,1,.561,4.624c-.19.8-.669.373-.759.2a15.146,15.146,0,0,1-.628-3.17Z" transform="translate(-1892.734 -1109.806)" fill="#db8a7f"/><path d="M1948.8,1140.745s.358,2.371.726,2.65c.24.181.545.074.644-.4a23.584,23.584,0,0,0-.478-3.4Z" transform="translate(-1891.792 -1112.211)" fill="#db8a7f"/><path d="M1942.52,1143.2l-1.247-.608,5.3-10.865h0a1.387,1.387,0,0,1,.639,1.854Z" transform="translate(-1887.706 -1107.944)" fill="#363271"/><path d="M1829.381,1420.768s-.643,6.536-2.3,7.736-3.861,5.64-2.758,8.04a2.777,2.777,0,0,0,1.819,1.425,4.826,4.826,0,0,0,5.788-2.712,13.767,13.767,0,0,0,1.136-4.984c.248-5.31,1.9-8.01,1.9-8.01Z" transform="translate(-1824.028 -1264.926)" fill="#e2a290"/><path d="M1890.258,1426.623s.522,6.595.1,8.738c-.227,1.148-1.49,3.51-.91,4.59a2.9,2.9,0,0,0,1.241,1.35l15.01.241c.818.013.277-.512-.382-1a30.282,30.282,0,0,0-5.4-2.98c-.225-.108-1.043-.628-1.339-.808a10.4,10.4,0,0,1-2.147-1.893c-1.078-1.2-1.172-7.005-1.172-7.005Z" transform="translate(-1859.476 -1268.105)" fill="#e2a290"/><path d="M1900.037,1232.788s1.89,10.707.649,17.727-7.2,72.088-7.2,72.088l-6.62.373s-1.387-27.18-1.139-30.96a58.522,58.522,0,0,1,2.213-10.105l-.659-21.946,8.354-28.829Z" transform="translate(-1857.523 -1161.931)" fill="#e78b0d"/><path d="M1852.468,1226.934s-5.212,7.83-6.453,14.309.91,26.394-1.476,34.885c-1.292,4.6-6.191,11.7-6.935,17.635s-3.666,21.5-3.666,21.5l6.617,1.309,15.377-38.858,12.062-35.121,3.09-18.089Z" transform="translate(-1829.41 -1158.33)" fill="#ffbc60"/><path d="M1874.084,1132.316a12.943,12.943,0,0,0-6.236,3.195c-5.709,5.588,3.354,27.136,3.851,30.916s-4.068,12.6-4.068,12.6,17.056,3.153,21.69.092c0,0,.545-30.329.048-33.029s-6.051-11.033-7.044-12.113S1874.084,1132.316,1874.084,1132.316Z" transform="translate(-1846.806 -1108.261)" fill="#9e69ce"/><path d="M1869.121,1142.935a2.4,2.4,0,0,1,3.234-1.414,10.424,10.424,0,0,1,5.384,4.686c1.986,4.14,8.936,18.36,11.087,18.9s10.922-14.76,10.922-14.76a10.03,10.03,0,0,1,.5-4.23c.745-1.53,2.979-3.15,3.31-2.61s-1.241,1.89-1.241,2.16.662.45,1.572-.09a4.093,4.093,0,0,0,1.4-1.632,5.376,5.376,0,0,1-.08,5.142c-1.572,2.43-2.234,3.42-2.234,3.42s-10.177,22.591-13.9,22.861C1885.608,1175.618,1865.636,1153.469,1869.121,1142.935Z" transform="translate(-1848.298 -1113.151)" fill="#e2a290"/><path d="M1885.752,1111.99s-.036.2-.1.548c-.308,1.656-1.492,7.149-2.293,8.659-.967,1.825,3.312,7.646,7.431,6.935,1.226-.211-1.036-5.348-.927-5.892.208-1.041.49-2.462.779-3.919.163-.822.328-1.655.483-2.438.44-2.226.8-4.046.8-4.046Z" transform="translate(-1856.177 -1097.138)" fill="#e2a290"/><path d="M1888.321,1112.537c.064-.345.1-.548.1-.548l6.172-.153s-.36,1.82-.8,4.046c-.154.779-.318,1.607-.48,2.425a5.788,5.788,0,0,1-2.947-1.474,7.767,7.767,0,0,1-2.232-3.313C1888.21,1113.13,1888.273,1112.795,1888.321,1112.537Z" transform="translate(-1858.845 -1097.138)" fill="#d7735a"/><path d="M1889.31,1080.062a7.283,7.283,0,0,0-4.34,2.7c-1.823,2.354-3.789,9.632.741,13.589s9.005-.522,9.669-5.271S1895.909,1079.891,1889.31,1080.062Z" transform="translate(-1856.022 -1079.879)" fill="#e2a290"/><path d="M1910.394,1097.551c-.541,1.048-1.448,1.63-2.027,1.3s-.61-1.452-.07-2.5,1.448-1.63,2.027-1.3S1910.934,1096.5,1910.394,1097.551Z" transform="translate(-1869.587 -1087.97)" fill="#e2a290"/><path d="M1886.9,1079.738s-3.886,6.922-6.666,7.242-3.145,4-3.145,4,.994-8.475,3.746-10.109A10.244,10.244,0,0,1,1886.9,1079.738Z" transform="translate(-1852.847 -1079.664)" fill="#091442"/><path d="M1882.506,1096.963c.227,1.229-.229,2.356-1.015,2.517s-1.609-.7-1.835-1.934.229-2.356,1.016-2.518S1882.28,1095.733,1882.506,1096.963Z" transform="translate(-1854.209 -1087.999)" fill="#e2a290"/><path d="M1832.383,1446.328a7.4,7.4,0,0,1-7.254-3.026c-.917,1.786-1.478,4.014-.8,5.481.594,1.292,2.149,1.4,3.515,1.447a3.777,3.777,0,0,0,3.573-1.708A11.979,11.979,0,0,0,1832.383,1446.328Z" transform="translate(-1824.028 -1277.164)" fill="#091442"/><path d="M1898.539,1448.408a13.61,13.61,0,0,1-8.545-.335c-.424,1.2-.985,2.7-.687,3.566.365,1.061.884,1.3,1.342,1.313,3.626.095,13.282.224,16.047.26a.451.451,0,0,0,.351-.741C1906.36,1451.654,1898.835,1448.589,1898.539,1448.408Z" transform="translate(-1859.436 -1279.755)" fill="#091442"/></g><path d="M1873.09,1161.155l8.938-5.865s-3.724-10.521-7.82-14.245-6.033-2.82-6.889-2.048c-2.375,2.141-1.955,7.355.745,13.779S1873.09,1161.155,1873.09,1161.155Z" transform="translate(-1815.305 -1097.104)" fill="#9e69ce"/><path d="M1849.906,1429.152s-.349,6.157-.351,6.17c-.128.782-.632,2.713-.632,3.423,0,2.669,11.878-2.266,9.216-3.449-.241-.107-1.5-.917-1.582-1.826-.122-1.4-.432-4.232-.432-4.232Z" transform="translate(-1806.159 -1255.068)" fill="#e2a290"/><path d="M1857.749,1442.544a42.832,42.832,0,0,1-4.217,1.021c-1.428.2-3.457-.772-4.467-.308-1.113.511-.75,6.565-.75,6.565s15.082.387,20.084.127C1870.147,1449.857,1863.45,1444.447,1857.749,1442.544Z" transform="translate(-1805.798 -1262.341)" fill="#091442"/><path d="M1792.626,1430.445s-.348,6.157-.35,6.17c-.128.782-.633,2.713-.633,3.423,0,2.67,11.879-2.266,9.216-3.449-.241-.107-1.877-1.522-1.957-2.431-.122-1.4-.058-3.628-.058-3.628Z" transform="translate(-1775.049 -1255.77)" fill="#e2a290"/><path d="M1799.939,1443.708a42.891,42.891,0,0,1-4.218,1.021c-1.428.2-3.312-1.515-4.322-1.05-1.112.511-1.4,6.669-1.4,6.669s16.409.73,20.249.183C1811.984,1450.283,1805.64,1445.61,1799.939,1443.708Z" transform="translate(-1774.158 -1262.914)" fill="#091442"/><path d="M1816.578,1235.9l5.021,2.167,10.564,50.448-.428,37.819-8.468.2s-3.939-33.082-3.939-35.646-18.244-44.865-18.244-44.865Z" transform="translate(-1780.177 -1150.11)" fill="#091442"/><path d="M1803.064,1239.971s-1.4,38.269-1.4,44.821-2,43.387-2,43.387l-11.785.385s-.612-11.178-1.522-27.621c-.143-2.575.184-7.772,0-10.438-1.32-19.176-3.932-37.227-2.685-44.382.2-1.152.578-4.163,1.313-4.923C1790.541,1235.448,1803.064,1239.971,1803.064,1239.971Z" transform="translate(-1770.54 -1151.401)" fill="#111e61"/><path d="M1782.761,1114.417s-5.858.815-7.4,1.947a20.7,20.7,0,0,0-3.663,4.128s7.191,33.994,7.2,39.714c.01,4.426-1.558,15.292-1.558,15.292s21.732,1.372,29.963-1.877c0,0-2.6-12.923-2.6-16.317s-3.109-34.251-3.816-36.406c-.642-1.955-1.815-5.469-5.786-6.336S1782.761,1114.417,1782.761,1114.417Z" transform="translate(-1764.217 -1083.975)" fill="#ffee58"/><path d="M1797.746,1094.052l-1.4,9.17s4.4,7.862,7.564,6.882c2.652-.822,1.863-7.06,1.863-7.06s-1.446-5.371-1.012-8.058S1797.746,1094.052,1797.746,1094.052Z" transform="translate(-1777.603 -1072.762)" fill="#e2a290"/><path d="M1806.282,1094.985c.434-2.687-7.014-.933-7.014-.933l-.12.787a4.367,4.367,0,0,0,.808,1.323,9.835,9.835,0,0,0,6.512,2.928A14.577,14.577,0,0,1,1806.282,1094.985Z" transform="translate(-1779.125 -1072.762)" fill="#d7735a"/><g transform="translate(12.956)"><path d="M1796.051,1061.8c-.21-.076-1.687,10.812,1.115,13.807s8.263,3.976,10.221,1.616c2.166-2.61,2.057-14.311-2.3-17.392S1796.051,1061.8,1796.051,1061.8Z" transform="translate(-1790.087 -1053.941)" fill="#e2a290"/><path d="M1797.024,1048.189a12.112,12.112,0,0,0-6.351,3.6c-1.529.179-3.607,1.019-5.754,4.549a8.791,8.791,0,0,0,2.382,11.509,7.754,7.754,0,0,1,2.745,3.675.407.407,0,0,0,.771,0h0a7.828,7.828,0,0,0,.385-3.321,6.461,6.461,0,0,0-.5-2c-.739-1.576,1.587-2.622,2.239-3.934.5-1.009.526-3.319,1.318-4.987l.945-1.274s2.18-1.685,4.313-1.209S1801.345,1047.314,1797.024,1048.189Z" transform="translate(-1783.681 -1048.122)" fill="#111e61"/><path d="M1800.316,1080.5c.022,1.329-.586,2.416-1.358,2.429s-1.416-1.053-1.437-2.381.585-2.416,1.357-2.429S1800.294,1079.17,1800.316,1080.5Z" transform="translate(-1791.197 -1064.413)" fill="#e2a290"/></g><path d="M1828.591,1185.912l.14.81a.767.767,0,0,0,.886.624l16.8-2.909a.766.766,0,0,0,.624-.885l-.14-.811a.767.767,0,0,0-.886-.624l-16.8,2.909A.766.766,0,0,0,1828.591,1185.912Z" transform="translate(-1795.11 -1120.891)" fill="#2f2c60"/><path d="M1767.905,1124.334c1.971-.057,3.714,12.942,2.464,14.225s-1.487,17.293-1.487,17.293l18.592-.462,0,.006c.363-.243,4.258-2.859,4.814-3.431.584-.6,3.423-.3,4.174.525s-1.446.539-2.1.848c-.728.344.262,1.327.262,1.327s4.712.683,5.63-.291,3.372-2.624,3.706-1.65c.172.5-1.093,2.027-1.806,2.666.889-.666,1.955-1.373,2.32-1.25.667.225.389,1.075.027,1.324s-4.1,3.105-4.686,3.306-9.271.41-10.774.743c0,0-24.517,5.583-25.911,5.234-1.223-.306-2.446-8.153-2.446-14.164S1761.747,1124.512,1767.905,1124.334Z" transform="translate(-1758.237 -1089.514)" fill="#e2a290"/><path d="M1767.547,1117.843a13.114,13.114,0,0,0-6.973,4.771c-2.814,3.946-5.251,23.9-5.251,23.9l11.125,1.8.888-9.807,2.973-4.486Z" transform="translate(-1755.323 -1085.989)" fill="#ffee58"/><path d="M1899.089,1133.763a2.807,2.807,0,0,1,2.218-.751,5.93,5.93,0,0,1,3.612,2.593,11.131,11.131,0,0,1-1.169,3.6c-.234.348-.772.52-.96.337-.124-.12.006-.727.041-.858.067-.254.549-1.906.549-1.906s-.936,1.664-1.372,1.765a.5.5,0,0,1-.651-.391,10.489,10.489,0,0,1,.861-2.059s-1.1,1.61-1.636,1.441-.315-.742-.234-.936.831-1.3.831-1.3-1.189,1.646-1.422,1.056c-.141-.359.635-1.919.635-1.919Z" transform="translate(-1833.406 -1094.223)" fill="#e2a290"/></g><g transform="translate(1653.941 1032.474)"><g transform="translate(153.236 56.691)"><path d="M2267.71,1243.422a5.489,5.489,0,0,1-2.089-2.364c-.638-1.182-2.536-2.7-1.747-2.944s2,1.754,2.227,1.182-2.034-4.9-1.317-5.123,2.589,3.988,2.792,3.476-1.913-4.191-.9-4.505,2.1,4.528,2.648,4.36-.248-3.863.567-4.116.7,4.569.993,4.43c.158-.075.881-2.411,1.323-2.235.5.2-.85,4.992-.25,6.048s5.4,14.193,3.758,15.833c-1.788,1.788-13.165,5.888-15.545,5.183s-3.745-3.058-3.172-4.5,11.819-4.7,12-5.151S2267.71,1243.422,2267.71,1243.422Z" transform="translate(-2256.866 -1233.128)" fill="#e2a290"/><path d="M2278.567,1247.214a2.6,2.6,0,0,1,1.008.182,2.724,2.724,0,0,1,1.59,1.54A4.642,4.642,0,0,0,2278.567,1247.214Z" transform="translate(-2268.652 -1240.777)" fill="#db8a7f"/></g><g transform="translate(0 0)"><path d="M2164.267,1427.46s.562,6.144.192,8.148a7.735,7.735,0,0,1-.285.983c-.381,1.123.663,4.553.663,4.553l14,.052c.762,0,.252-.481-.368-.924a28.233,28.233,0,0,0-5.067-2.716c-.211-.1-.98-.573-1.257-.738a9.662,9.662,0,0,1-2.024-1.741c-1.019-1.1-1.174-6.519-1.174-6.519Z" transform="translate(-2053.242 -1281.983)" fill="#e2a290"/><path d="M2171.322,1447.683a12.693,12.693,0,0,1-7.974-.214c-.381,1.122-1.061,4.98-.634,4.98,3.511,0,6.468.042,16.45.085.36,0,.372-.889.137-1.162C2178.653,1450.619,2171.6,1447.848,2171.322,1447.683Z" transform="translate(-2052.421 -1292.85)" fill="#111e61"/><path d="M2126.043,1253.792s.2,8.77,2.712,14.387c2.448,5.47,14.164,18.961,17.278,26.835-.963,4.441-3.609,10.684-3.417,15.606.217,5.579-.108,20.339-.108,20.339l6.287.2,8.248-38.091-12.429-41.1-5.64-9.98Z" transform="translate(-2032.577 -1181.249)" fill="#c43030"/><path d="M2056.3,1408.34s-3.863,5.3-5.564,6.642c-.912.717-3.386,1.681-3.647,2.868s11.208,11.685,11.208,11.685c.607.538.539-.206.355-1a30.085,30.085,0,0,0-2.141-5.726c-.1-.226-.38-1.146-.486-1.472a10.3,10.3,0,0,1-.4-2.81c-.038-1.6,3.638-6.03,3.638-6.03Z" transform="translate(-1989.69 -1271.598)" fill="#e2a290"/><path d="M2054.756,1429.938a13.5,13.5,0,0,1-6.217-5.767c-1.091.628-4.027,1.968-3.768,2.342,2.028,2.943,4.133,6.6,12.278,13.538.292.248,1.487-1.183,1.491-1.566C2058.551,1437.427,2054.863,1430.265,2054.756,1429.938Z" transform="translate(-1988.428 -1280.196)" fill="#111e61"/><path d="M2116.514,1118.866c-1.085-7.072-7.483-12.156-14.174-8.725a15.894,15.894,0,0,0-4.582,3.672c-2.858,3.668-3.551,8.215-6.581,11.743-2.613,3.041-9.585,2.468-12.841,4.807a14.085,14.085,0,0,0-5.539,11.55c0,5.611,1.267,11.567,5.615,15.114s10.526,4.431,15.931,2.928a25.639,25.639,0,0,0,13.382-9.7,48.908,48.908,0,0,0,7.362-14.812A38.289,38.289,0,0,0,2116.514,1118.866Z" transform="translate(-2003.659 -1109.044)" fill="#091442"/><g transform="translate(101.685 27.395)"><path d="M2160.216,1203.2s6.791,15.372,8.082,18.842,8.069,15.069,8.347,15.511,6.437,1.228,6.092,2.021-2.968-.2-2.968.234c0,.98,3.832,8.168,3.21,8.341-1.163.324-2.377-4.441-2.895-4.191s2.441,4.405,1.724,5.121-2.417-4.2-2.89-4.2,2.528,4.85,1.507,4.767c-.554-.045-2.716-4.516-3.181-4.051-.2.2,2.11,3.8,1.478,3.685s-2.454-2.956-3.182-4.557-.4-3.149-2.328-5.342-9.665-9.118-11.959-14.658-7.4-17.768-7.4-17.768Z" transform="translate(-2149.369 -1187.579)" fill="#db8a7f"/><path d="M2149.155,1169s5.645,2.7,8.427,19.478l-9.567,2.668-3.981-10.817Z" transform="translate(-2144.033 -1169.004)" fill="#e5d145"/></g><path d="M2090.5,1255.532s-4.861,7.3-6.019,13.345c-1.127,5.885.747,23.655-1.212,31.893-3.333,3.089-9.079,6.69-11.742,10.834-3.018,4.7-11.74,16.609-11.74,16.609l5.039,3.766,28.583-26.5,11.571-35.348,3.97-10.337Z" transform="translate(-1996.594 -1188.605)" fill="#eb423f"/><path d="M2124.367,1164.57s-6.436-.409-8.982,2.361,5.648,24.681,6.112,28.206-4.608,15.62-4.608,15.62,18.523,3.217,22.844.363c0,0-.693-28.252-1.156-30.77s-4.321-12.759-5.247-13.766S2124.367,1164.57,2124.367,1164.57Z" transform="translate(-2026.523 -1139.19)" fill="#ffee58"/><path d="M2137.511,1145.639s-.033.189-.093.511c-.287,1.544-1.392,6.667-2.139,8.076-.9,1.7,3.089,7.13,6.929,6.468,1.144-.2-.966-4.988-.865-5.5.194-.971.457-2.3.727-3.655.152-.766.305-1.543.45-2.274.411-2.076.746-3.773.746-3.773Z" transform="translate(-2037.523 -1128.841)" fill="#e2a290"/><path d="M2139.906,1146.149c.06-.322.093-.511.093-.511l5.756-.144s-.335,1.7-.746,3.773c-.144.726-.3,1.5-.448,2.262a5.4,5.4,0,0,1-2.748-1.375,7.246,7.246,0,0,1-2.082-3.09C2139.8,1146.7,2139.861,1146.389,2139.906,1146.149Z" transform="translate(-2040.012 -1128.841)" fill="#d7735a"/><path d="M2141.3,1117.212a5.193,5.193,0,0,0-4.413,1.882c-1.7,2.195-3.533,8.983.691,12.673s8.4-.487,9.017-4.916S2147.45,1117.052,2141.3,1117.212Z" transform="translate(-2037.434 -1113.472)" fill="#e2a290"/><path d="M2160.369,1135.309c-.5.978-1.351,1.52-1.891,1.21s-.569-1.354-.064-2.333,1.351-1.52,1.89-1.21S2160.873,1134.331,2160.369,1135.309Z" transform="translate(-2049.963 -1121.995)" fill="#e2a290"/><path d="M2138.583,1115.56s-3.625,6.455-6.217,6.754-2.933,3.729-2.933,3.729.927-7.9,3.494-9.428A9.552,9.552,0,0,1,2138.583,1115.56Z" transform="translate(-2034.418 -1112.546)" fill="#091442"/><path d="M2134.116,1131.808c.211,1.146-.213,2.2-.947,2.349s-1.5-.657-1.711-1.8.214-2.2.948-2.348S2133.906,1130.662,2134.116,1131.808Z" transform="translate(-2035.489 -1120.418)" fill="#e2a290"/><g transform="translate(0 82.695)"><path d="M1961.522,1356.211l3.424,1.357,50.046-67.3h0c-1.887-.748-2.838.531-3.857,1.9Z" transform="translate(-1943.222 -1290.044)" fill="#363271"/><path d="M1973.129,1360.993l3.424,1.357,50.065-69.065c.712-.956-1.2-1.565-1.2-1.565Z" transform="translate(-1949.526 -1290.954)" fill="#7170ae"/><path d="M1949.611,1343.721l-5.095-2.025,6.257-8.338c5.192-6.92,17.089-9.474,26.572-5.7l8.565,3.405-37.415,49.862-20.64-8.2-6.386-4.506Z" transform="translate(-1921.468 -1309.525)" fill="#ffbc60"/><path d="M1993.5,1336.3l-37.415,49.862-20.64-8.2.487-.649h0c14.369.978,47.539-33.089,55.719-41.743Z" transform="translate(-1929.06 -1314.769)" fill="#e78b0d"/><path d="M1987,1358.28c3.086-3.427,7.856-8.438,11.293-11.469a167.959,167.959,0,0,1-10.8,12.886c-4.1-1.649-9.446-3.7-15.581-6.651C1977.077,1354.609,1982.065,1356.406,1987,1358.28Z" transform="translate(-1948.867 -1320.875)" fill="#e78b0d"/><path d="M1978.192,1442.531a4.693,4.693,0,1,1-4.694-4.693A4.693,4.693,0,0,1,1978.192,1442.531Z" transform="translate(-1947.178 -1370.314)" fill="#363271"/><circle cx="1.932" cy="1.932" r="1.932" transform="translate(24.388 70.284)" fill="#7170ae"/></g><path d="M2090.729,1201.775s-4.482,16.2-5.255,19.817-5.79,16.082-6,16.56-4.64,5-4.047,5.919a2.56,2.56,0,0,0,1.778,1.034c.467-.073.74.307,1.363.518s1.784.062,2.272-1.628.708-2.087,2.3-4.538,8.236-10.426,9.7-16.242,4.732-18.655,4.732-18.655Z" transform="translate(-2005.056 -1159.408)" fill="#e09a8b"/><path d="M2082.935,1294.534c.645.088,1.585-.213,2.011-1.688.118-.408.22-.742.33-1.047-.129-.052-.215-.08-.215-.08Z" transform="translate(-2009.165 -1208.259)" fill="#7170ae"/><path d="M2105.2,1187.364s.407-13.322,2.212-17.064,6.306-5.883,8.005-2.6c1.753,3.381-1.295,19.822-1.295,19.822Z" transform="translate(-2021.259 -1140.022)" fill="#ffee58"/></g><g transform="translate(126.744 75.974)"><path d="M2265.167,1278.616l-7.337.537,2.251,8.705,7.523-1.355Z" transform="translate(-2230.897 -1277.117)" fill="#111e61"/><path d="M2216.919,1288.719s-1.638,20.2-1.638,21.958,6.971,2.251,6.971,2.251l2.131-20.732Z" transform="translate(-2207.789 -1282.604)" fill="#e5d145"/><path d="M2226.175,1276.6s-4.523-2.422-8.252-.2-4.744,15.258-4.744,15.258l11.944,1.431Z" transform="translate(-2206.647 -1275.404)" fill="#ffee58"/><path d="M2202.877,1436.642a12.932,12.932,0,0,1-1.385,3.357c-.613.613-2.645,2.991-2.145,4.169s12.879,2.868,13.348,2.4-2.138-2.458-3.616-3.677-2.538-2.718-1.919-4.536a11.321,11.321,0,0,0,.62-1.818A44.683,44.683,0,0,0,2202.877,1436.642Z" transform="translate(-2199.092 -1362.854)" fill="#e2a290"/><path d="M2212.485,1450.569c.561-.42-1.179-2.3-3.7-3.746a16.009,16.009,0,0,1-3.654-.37,7.762,7.762,0,0,1-3.721-2.607c-.038.054-3.04,2.944-2.454,4.326C2199.457,1449.35,2211.366,1451.408,2212.485,1450.569Z" transform="translate(-2198.881 -1366.856)" fill="#111e61"/><path d="M2250.118,1438.308s.229,2.819-.236,3.551-2.089,3.632-1.184,4.537c.817.816,12.156.291,12.512-.269s-1.584-2.235-3.294-3.1-3.069-2.1-2.861-4.009a11.371,11.371,0,0,0,.208-1.91A51.812,51.812,0,0,0,2250.118,1438.308Z" transform="translate(-2225.792 -1363.188)" fill="#e2a290"/><path d="M2262.377,1452.031c.591-.375-2.022-2.74-4.8-3.6a16.052,16.052,0,0,1-3.647.435,7.761,7.761,0,0,1-4.2-1.733c-.025.061-2.609,3.8-1.451,4.757C2249.185,1452.633,2261.478,1452.6,2262.377,1452.031Z" transform="translate(-2225.549 -1368.64)" fill="#111e61"/><path d="M2226.889,1351.671l-7.322,21.215-8.4,19.639-7.034-1.767s2.539-13.614,4.923-17.891c1.8-3.235,3.064-21.805,3.064-21.805Z" transform="translate(-2201.735 -1316.464)" fill="#ffbc60"/><path d="M2245.344,1350.16l2.537,37.284h5.994s2.619-39.062,1.66-42.778-10.947-2.877-10.947-2.877Z" transform="translate(-2223.706 -1311.382)" fill="#ffbc60"/><path d="M2237.173,1277.506s-7.726-2.315-8.916-2.166a21.8,21.8,0,0,0-4.468,1.841s.195,13.412-.365,17.2-4.476,15.942-4.476,15.942,5.515,3.2,14.787,2.158,8.633-3.277,8.633-3.277-.88-13.429-1.759-19.343A65.612,65.612,0,0,0,2237.173,1277.506Z" transform="translate(-2209.78 -1275.334)" fill="#9e69ce"/><path d="M2227.925,1276.748s1.738-.263,3.229,5.378c1.69,6.393-.13,13.014-2.925,14.691s-3.947,1.354-3.947,1.354l.439,3.942s8.258-1.848,9.383-8.907c1.844-11.569-3.594-17.528-3.594-17.528a10.377,10.377,0,0,0-1.34.293A11.073,11.073,0,0,0,2227.925,1276.748Z" transform="translate(-2212.677 -1275.52)" fill="#ffee58"/><path d="M2222.913,1307.258v8.26c0,1.439,1.652,11.179,3.677,14.515s4.77,7.057,5.338,7.27,1.8.995,2.442.355,1.146-.347,1.945-.693-.107-1.492-1.226-2.611-1.358-1.386-1.172-1.572,1.092.853,1.572.693-.293-1.838-1.545-2.425-3.251-1.732-3.437-2.345-.187-.453-.187-.613-1.412-9.831-1.412-11.723-.56-8.047-.56-8.047Z" transform="translate(-2211.934 -1292.673)" fill="#e2a290"/><path d="M2224.493,1278.636a4.367,4.367,0,0,0-3.391,3.154c-.692,2.345-2.518,9.006-2.2,12.256,0,0,7.78,1.012,7.78.693s1.7-8.66.853-12.31C2226.8,1279.246,2225.756,1278.479,2224.493,1278.636Z" transform="translate(-2209.736 -1277.117)" fill="#111e61"/><path d="M2256.189,1279.313l5.409,19.438h0c-.239-2.539-.5-4.964-.762-6.724a67.578,67.578,0,0,0-3.484-12.526A10.3,10.3,0,0,0,2256.189,1279.313Z" transform="translate(-2230.006 -1277.495)" fill="#ffee58"/></g><path d="M2233.822,1235.319a4.138,4.138,0,0,1,4.829,1.909c1.9,2.973.871,2.691,1.793,4.177s3.331,1.179,3.331,3.484-1.076,2.665-1.076,2.665a3.925,3.925,0,0,1-.1,3.638,6.851,6.851,0,0,1-6.005,3.178,10.4,10.4,0,0,1-6.755.975c-3.382-.873-2.2-.873-3.587-.873s-5.125-1.9-4.51-4.663c0,0-2.279-2.708-.068-4.92s2.63-4.459,3.912-7.431S2232.284,1234.6,2233.822,1235.319Z" transform="translate(-2083.991 -1177.396)" fill="#111e61"/><path d="M2247.358,1268.385s-.123,4.081.26,4.464a1.489,1.489,0,0,1,.355,1.992c-.564.974-3.011.352-4.151-.205a5.387,5.387,0,0,1-1.8-1.53l.571-6.464Z" transform="translate(-2095.568 -1194.639)" fill="#e2a290"/><path d="M2246.314,1270.076a5.721,5.721,0,0,1-3.219-2.528l.08-.905,4.766,1.742s-.03,1-.014,2.049A5.459,5.459,0,0,1,2246.314,1270.076Z" transform="translate(-2096.151 -1194.639)" fill="#a05845"/><path d="M2238.71,1254.171s-.116-2.4-1.59-1.933-.351,4.087.871,3.969S2238.71,1254.171,2238.71,1254.171Z" transform="translate(-2092.525 -1186.783)" fill="#e2a290"/><path d="M2244.531,1239.333a4.354,4.354,0,0,1,3.484,1.742c1.179,1.794,2.46,6.918.513,10.454s-4.433,2.665-5.458,2.306a6.1,6.1,0,0,1-4.074-4.458C2237.972,1246.072,2238.715,1238.641,2244.531,1239.333Z" transform="translate(-2093.715 -1179.782)" fill="#e2a290"/></g><path d="M2052.421,1082.253s-12.991-20.615,3.534-32.248,34.7,10.237,30.192,26.133S2057.778,1091.138,2052.421,1082.253Z" transform="translate(-336.014 -42.726)" fill="#f3f9ff"/><path d="M1442.909,1211.826s-8.807-6.607-2.459-15.375,21.609-4.289,19.171,6.282C1458.51,1207.55,1452.287,1218.118,1442.909,1211.826Z" transform="translate(-5.027 -121.515)" fill="#f3f9ff"/><g transform="translate(1428.896 973.073)"><g transform="translate(0 181.85)"><g transform="translate(4.309)"><path d="M1454.072,1379.283h-14.88a1.149,1.149,0,0,1,0-2.226h14.88a1.149,1.149,0,0,1,0,2.226Z" transform="translate(-1438.328 -1377.057)" fill="#111e61"/></g><g transform="translate(21.422)"><path d="M1480.367,1379.283h-3.72a1.149,1.149,0,0,1,0-2.226h3.72a1.149,1.149,0,0,1,0,2.226Z" transform="translate(-1475.783 -1377.057)" fill="#111e61"/></g><path d="M1431.806,1379.283h-2.046a1.149,1.149,0,0,1,0-2.226h2.046a1.149,1.149,0,0,1,0,2.226Z" transform="translate(-1428.896 -1377.057)" fill="#111e61"/></g><g transform="translate(337.226 38.417)"><path d="M2180.117,1064.538h-12.4a.711.711,0,1,1,0-1.421h12.4a.711.711,0,1,1,0,1.421Z" transform="translate(-2167.006 -1063.117)" fill="#111e61"/><g transform="translate(16.431)"><path d="M2210.4,1064.538h-6.719a.711.711,0,0,1,0-1.421h6.719a.711.711,0,1,1,0,1.421Z" transform="translate(-2202.97 -1063.117)" fill="#111e61"/></g></g><g transform="translate(19.479 61.141)"><path d="M1478.013,1125.814a1.108,1.108,0,0,1-.784-.324l-5.372-5.372a1.109,1.109,0,0,1,0-1.568l5.372-5.372a1.108,1.108,0,0,1,.784-.324h0a1.109,1.109,0,0,1,.784.324l5.372,5.372a1.109,1.109,0,0,1,0,1.568l-5.372,5.372A1.109,1.109,0,0,1,1478.013,1125.814Zm-3.8-6.481,3.8,3.8,3.8-3.8-3.8-3.8Z" transform="translate(-1471.532 -1112.853)" fill="#111e61"/></g><g transform="translate(259.326 74.381)"><path d="M2003.85,1156.529a7.349,7.349,0,1,1,7.349-7.349A7.357,7.357,0,0,1,2003.85,1156.529Zm0-12.48a5.131,5.131,0,1,0,5.132,5.131A5.137,5.137,0,0,0,2003.85,1144.049Z" transform="translate(-1996.501 -1141.832)" fill="#111e61"/></g><g transform="translate(254.955)"><path d="M1991.742,988.646a4.808,4.808,0,1,1,4.808-4.808A4.814,4.814,0,0,1,1991.742,988.646Zm0-7.4a2.591,2.591,0,1,0,2.591,2.591A2.594,2.594,0,0,0,1991.742,981.247Z" transform="translate(-1986.934 -979.03)" fill="#111e61"/></g><g transform="translate(34.741 48.814)"><path d="M1509.791,1091.532a.8.8,0,0,1-.569-.236l-4.049-4.049a.805.805,0,0,1,1.139-1.139l4.049,4.049a.8.8,0,0,1-.569,1.374Z" transform="translate(-1504.937 -1085.873)" fill="#111e61"/><path d="M1505.742,1091.532a.8.8,0,0,1-.569-1.374l4.049-4.049a.805.805,0,1,1,1.139,1.139l-4.049,4.049A.8.8,0,0,1,1505.742,1091.532Z" transform="translate(-1504.937 -1085.873)" fill="#111e61"/></g><g transform="translate(94.805 7.163)"><path d="M1640.611,999.615a.694.694,0,0,1-.494-.2l-3.51-3.51a.7.7,0,0,1,.987-.987l3.51,3.51a.7.7,0,0,1-.493,1.191Z" transform="translate(-1636.402 -994.708)" fill="#111e61"/><g transform="translate(0 0)"><path d="M1637.1,999.615a.7.7,0,0,1-.493-1.192l3.51-3.51a.7.7,0,0,1,.987.987l-3.51,3.51A.7.7,0,0,1,1637.1,999.615Z" transform="translate(-1636.402 -994.709)" fill="#111e61"/></g></g><g transform="translate(112.232 9.201)"><path d="M1681.026,1012.132a1.108,1.108,0,0,1-.783-.325l-5.373-5.372a1.109,1.109,0,0,1,0-1.568l5.373-5.372a1.108,1.108,0,0,1,1.568,0l5.372,5.372a1.108,1.108,0,0,1,0,1.568l-5.372,5.372A1.109,1.109,0,0,1,1681.026,1012.132Zm-3.8-6.481,3.8,3.8,3.8-3.8-3.8-3.8Z" transform="translate(-1674.545 -999.17)" fill="#111e61"/></g></g></g></svg>