<svg xmlns="http://www.w3.org/2000/svg" width="476.944" height="206" viewBox="0 0 476.944 206"><g transform="translate(-109.745 -177.073)"><g transform="translate(109.745 177.073)"><g transform="translate(80.54 3.189)"><path d="M377.211,387.377s-49.414-9.774-51.933-44.3c-2.9-39.741,36.979-40.179,30.862-68.986-8.538-40.207,8.159-64.156,45.572-62.5,31.547,1.393,58.159,26.1,75.037,4.86,18.2-22.906,52.25-39.831,85.943-25.643s28.73,60.29,52.032,70.086,48.536,35.634,44.472,71.376c-3.813,33.533-34.737,55.811-63.392,55.474-14.042-.166-68.546.186-117.526,0C427.307,387.544,377.211,387.377,377.211,387.377Z" transform="translate(-325.127 -185.601)" fill="#f3f9ff"/><path d="M1122.8,306.086s-11.406-18.1,3.1-28.313,30.468,8.988,26.507,22.944S1127.5,313.886,1122.8,306.086Z" transform="translate(-821.851 -241.506)" fill="#f3f9ff"/><path d="M342.621,373.65s-7.732-5.8-2.159-13.5,18.972-3.765,16.832,5.516C356.319,369.9,350.855,379.174,342.621,373.65Z" transform="translate(-333.464 -292.322)" fill="#f3f9ff"/></g><g transform="translate(0 98.295)"><g transform="translate(4.524)"><path d="M138.37,441.751H122.749a.907.907,0,0,1,0-1.815H138.37a.907.907,0,0,1,0,1.815Z" transform="translate(-121.842 -439.936)" fill="#111e61"/></g><g transform="translate(22.487)"><path d="M174.693,441.751h-3.905a.907.907,0,1,1,0-1.815h3.905a.907.907,0,0,1,0,1.815Z" transform="translate(-169.88 -439.936)" fill="#111e61"/></g><path d="M112.8,441.751h-2.148a.907.907,0,0,1,0-1.815H112.8a.907.907,0,1,1,0,1.815Z" transform="translate(-109.745 -439.936)" fill="#111e61"/></g><g transform="translate(429.792 92.292)"><path d="M1275.849,425.7H1260.02a.907.907,0,1,1,0-1.815h15.829a.907.907,0,1,1,0,1.815Z" transform="translate(-1259.112 -423.885)" fill="#111e61"/><g transform="translate(20.976)"><path d="M1324.691,425.7h-8.577a.907.907,0,0,1,0-1.815h8.577a.907.907,0,0,1,0,1.815Z" transform="translate(-1315.207 -423.885)" fill="#111e61"/></g></g><g transform="translate(261.464 61.644)"><path d="M814.266,352.534a.907.907,0,0,1-.641-.266l-4.4-4.4a.907.907,0,0,1,0-1.283l4.4-4.4a.907.907,0,0,1,.641-.266h0a.907.907,0,0,1,.642.266l4.4,4.4a.908.908,0,0,1,0,1.283l-4.4,4.4A.907.907,0,0,1,814.266,352.534Zm-3.114-5.3,3.114,3.113,3.114-3.113-3.114-3.114Z" transform="translate(-808.962 -341.925)" fill="#111e61"/></g><g transform="translate(83.389 32.782)"><path d="M338.761,276.771a6.015,6.015,0,1,1,6.015-6.015A6.022,6.022,0,0,1,338.761,276.771Zm0-10.215a4.2,4.2,0,1,0,4.2,4.2A4.2,4.2,0,0,0,338.761,266.556Z" transform="translate(-332.746 -264.741)" fill="#111e61"/></g><g transform="translate(410.249 130.283)"><path d="M1212.865,537.511a6.015,6.015,0,1,1,6.015-6.015A6.021,6.021,0,0,1,1212.865,537.511Zm0-10.214a4.2,4.2,0,1,0,4.2,4.2A4.2,4.2,0,0,0,1212.865,527.3Z" transform="translate(-1206.85 -525.482)" fill="#111e61"/></g><g transform="translate(406.672 69.406)"><path d="M1201.218,370.55a3.935,3.935,0,1,1,3.935-3.935A3.94,3.94,0,0,1,1201.218,370.55Zm0-6.056a2.12,2.12,0,1,0,2.12,2.121A2.123,2.123,0,0,0,1201.218,364.495Z" transform="translate(-1197.283 -362.68)" fill="#111e61"/></g><g transform="translate(280.858 39.808)"><path d="M866.3,289.908a.9.9,0,0,1-.642-.266l-4.563-4.564a.907.907,0,0,1,1.283-1.283l4.564,4.564a.908.908,0,0,1-.642,1.549Z" transform="translate(-860.827 -283.529)" fill="#111e61"/><g transform="translate(0 0)"><path d="M861.734,289.908a.908.908,0,0,1-.642-1.549l4.563-4.564a.907.907,0,1,1,1.283,1.283l-4.564,4.564A.9.9,0,0,1,861.734,289.908Z" transform="translate(-860.827 -283.53)" fill="#111e61"/></g></g><g transform="translate(318.828)"><path d="M967.839,183.451a.9.9,0,0,1-.642-.266l-4.563-4.564a.907.907,0,1,1,1.283-1.283l4.563,4.563a.908.908,0,0,1-.641,1.549Z" transform="translate(-962.368 -177.073)" fill="#111e61"/><g transform="translate(0 0)"><path d="M963.275,183.451a.908.908,0,0,1-.641-1.549l4.563-4.563a.907.907,0,0,1,1.283,1.283l-4.563,4.563A.9.9,0,0,1,963.275,183.451Z" transform="translate(-962.368 -177.073)" fill="#111e61"/></g></g><g transform="translate(58.811 25.499)"><path d="M272.49,251.64a.9.9,0,0,1-.641-.266l-4.564-4.564a.907.907,0,1,1,1.283-1.283l4.564,4.563a.907.907,0,0,1-.642,1.549Z" transform="translate(-267.019 -245.262)" fill="#111e61"/><g transform="translate(0 0)"><path d="M267.927,251.64a.907.907,0,0,1-.642-1.549l4.564-4.563a.907.907,0,1,1,1.283,1.283l-4.564,4.563A.9.9,0,0,1,267.927,251.64Z" transform="translate(-267.019 -245.262)" fill="#111e61"/></g></g><g transform="translate(117.324 46.754)"><g transform="translate(0)"><path d="M428.968,308.483a.9.9,0,0,1-.642-.266l-4.563-4.564a.907.907,0,1,1,1.283-1.283l4.564,4.564a.907.907,0,0,1-.642,1.549Z" transform="translate(-423.497 -302.105)" fill="#111e61"/></g><g transform="translate(0)"><path d="M424.4,308.483a.907.907,0,0,1-.642-1.549l4.563-4.564a.907.907,0,1,1,1.283,1.283l-4.564,4.564A.9.9,0,0,1,424.4,308.483Z" transform="translate(-423.497 -302.105)" fill="#111e61"/></g></g><g transform="translate(340.967 11.632)"><path d="M1026.877,218.79a.908.908,0,0,1-.641-.266l-4.4-4.4a.907.907,0,0,1,0-1.283l4.4-4.4a.907.907,0,0,1,1.283,0l4.4,4.4a.907.907,0,0,1,0,1.283l-4.4,4.4A.907.907,0,0,1,1026.877,218.79Zm-3.113-5.3,3.113,3.114,3.114-3.114-3.114-3.113Z" transform="translate(-1021.573 -208.181)" fill="#111e61"/></g></g><g transform="translate(123.848 219.428)"><g transform="translate(78.916 19.298)"><path d="M465.038,631.2a1.234,1.234,0,0,1-.7,1.138.012.012,0,0,1-.007,0,8.2,8.2,0,0,1-3.824.428c-.2-.008-.381-.013-.541-.013h-.126l-.1,0c-1.549.038-1.385.5-4.33.754-3.356.286-4.593-.741-4.791-1.208-.167-.4,1.274-.847,2.883-1.361l.234-.075c.214-.068.43-.139.644-.209,1.916-.637,3.8-1.392,4.273-3.332.5-2.056-1-7.8-1-7.8l5.319-.574s.513,6,.847,7.87a20.675,20.675,0,0,0,.9,2.647c.019.06.037.12.053.18A5.858,5.858,0,0,1,465.038,631.2Z" transform="translate(-416.164 -515.374)" fill="#e49963"/><path d="M465.038,648.81a1.234,1.234,0,0,1-.7,1.138.012.012,0,0,1-.007,0,9.5,9.5,0,0,1-3.821.419c-.2-.006-.381-.007-.544,0h-.222c-1.549.038-1.385.5-4.33.754-3.356.286-4.593-.741-4.791-1.209-.167-.4,1.274-.847,2.883-1.361a9.943,9.943,0,0,0,5.149.439c2.24-.421,4.464-1.536,6.063-1.908.019.06.037.12.053.18A5.859,5.859,0,0,1,465.038,648.81Z" transform="translate(-416.164 -532.982)" fill="#c65447"/><path d="M372.864,616.278c-.3,1.477-2.4,1.231-4.753.656s-1.794.109-5.141-.262-4.362-1.619-4.464-2.117c-.092-.442,1.563-.6,3.337-.8.223-.025.447-.052.671-.08,2-.251,3.47-1.544,5.29-2.606,1.723-1.005,4.3-5.1,4.3-5.1l4.592.364s-2.41,3.659-3.341,5.25a5.546,5.546,0,0,0-.451,3.129A5.9,5.9,0,0,1,372.864,616.278Z" transform="translate(-358.502 -507.239)" fill="#e49963"/><path d="M368.111,629.974c-2.352-.575-1.794.109-5.141-.262s-4.362-1.619-4.464-2.117c-.092-.442,1.563-.6,3.337-.8l.016.034a9.437,9.437,0,0,0,4.795,1.49c2.271.055,4.677-.6,6.245-.57a5.9,5.9,0,0,1-.035,1.571C372.569,630.795,370.463,630.549,368.111,629.974Z" transform="translate(-358.502 -520.279)" fill="#c65447"/><path d="M411.329,447.884s-1.094-2.68-2.3-2.79-5.032-.711-5.305-.164a3.785,3.785,0,0,0,.82,3.227c.821.711,5.907,1.86,5.907,1.86Z" transform="translate(-386.751 -406.28)" fill="#ffb27d"/><path d="M443.963,542.713l9.9,26.63a9.051,9.051,0,0,0,2.977-.273,12.809,12.809,0,0,0,2.878-1.4s-2.454-25.569-6.955-30.887S443.963,542.713,443.963,542.713Z" transform="translate(-412.006 -463.031)" fill="#14a884"/><path d="M447.914,513.075s-28.433-9.614-34.774-7.569-25.38,39.925-25.38,39.925a3.674,3.674,0,0,0,1.6,1.012,15.125,15.125,0,0,0,3.732.383S410.276,532.1,412.322,527.8s2.864-8.387,4.909-7.978,26.387,10.023,31.911,4.3a15.942,15.942,0,0,0,4.078-13.169Z" transform="translate(-376.819 -444.167)" fill="#466aa5"/><path d="M497.651,366.131a16.163,16.163,0,0,1-1.21-5.571c.038.295.55,4.038,1.989,6.157,5.913,3.882,17.247,16.846,17.023,19.3,0,0,3.992-6.771,4.061-6.812,0,0,7.364-9.364-1.364-14.728-4.436-2.726-4.413-6.225-4.228-9.265s-1.21-16.123-10.1-12.7a5.792,5.792,0,0,0-2.065-.539,1.745,1.745,0,0,1,.787.374,6.9,6.9,0,0,0-3.732.714C495.559,344.916,492.644,361.523,497.651,366.131Z" transform="translate(-443.932 -341.949)" fill="#111e61"/><path d="M505.181,394.048c-.03.013,2.855,1.511,5.025.918,2.041-.556,3.375-3.2,3.346-3.209-.864-.172-1.114-1.359-1.1-6.464l-.391.077-6.57,1.3s.15,2.068.154,4.015C505.654,392.322,505.555,393.873,505.181,394.048Z" transform="translate(-450.332 -369.085)" fill="#ffb27d"/><path d="M506.023,386.8s.15,2.068.154,4.015c3.677-.1,5.62-3.457,6.416-5.316Z" transform="translate(-450.859 -369.214)" fill="#e8945b"/><path d="M506.345,360.985a19.324,19.324,0,0,0,2.389-5.647c.33-1.858-.616-8.747-7.539-7.755a9.406,9.406,0,0,0-3.9,1.474c-1.5,1.015-3.672,3.207-1.247,9.218l.63,2.03Z" transform="translate(-443.932 -345.415)" fill="#111e61"/><path d="M497.889,369.336s8.7.144,8.7-5.275,1.133-9.049-4.421-9.37-6.635,1.746-7.077,3.554S495.627,369.159,497.889,369.336Z" transform="translate(-443.953 -349.906)" fill="#ffb27d"/><path d="M505.107,353.692s-5.941-4.062-7.821-1.253c-.569-.489-1.585-.842-2.927.784-2.016,2.444-.222,6.765-.222,6.765.828.1,1.023-2.744,1.456-4.124a6.905,6.905,0,0,1,1.936-2.563c.759,1.711,2.846,5.8,5.723,6.545,3.655.94,5.241-.039,5.241-.039A10.353,10.353,0,0,1,505.107,353.692Z" transform="translate(-442.957 -347.896)" fill="#111e61"/><path d="M470.739,428.264c.858-3.6-2.06-10.579-5.107-16.358-2.765-5.238-5.634-9.488-5.891-9.335-7.291,4.327-7.949.73-7.949.73s-6.622.88-8.5,4.108c-2.594,4.463-5.418,17.858-8.193,17.66-1.274-.092-14.093-4.909-14.093-4.909s-2.136,2-1.726,4.455a133.99,133.99,0,0,0,11.682,6.943c2.832,1.43,5.39,2.431,6.593,2.148,2.438-.574,6.247-6.227,8.305-9.555l.014-.022c2.627,14.869-.945,18.255.863,19.823,1.909,1.655,4.637-.789,10.637,1.812,3.936,1.707,9.4,4.176,13.074,4.605,1.928.226,3.367-.109,3.836-1.412C475.649,445.173,469.1,435.123,470.739,428.264Z" transform="translate(-396.521 -379.9)" fill="#ffbc60"/><path d="M502.438,384.39s-.162.688-1.874.583c0,0-1.438-.089-1.394-.845A4.625,4.625,0,0,1,502.438,384.39Z" transform="translate(-446.568 -368.244)" fill="#fff"/><path d="M537.577,474.429c-.469,1.3-1.908,1.638-3.836,1.412-2.545-1.109-13.538-5.368-13.415-8.253.183-4.273,2.114-4.409.75-9.683-1.095-4.234,6.349-12.941,7.97-14.652,3.046,5.78,5.844,6.886,4.986,10.483C532.395,460.594,538.941,470.644,537.577,474.429Z" transform="translate(-459.813 -405.371)" fill="#e78b0d"/><path d="M465.506,459.057c-2.058,3.328-5.867,8.98-8.305,9.555-1.2.284-3.761-.717-6.593-2.148a17.112,17.112,0,0,0,6.024.33c2.113-.2,2.727-2.8,6.069-6.682C464.867,457.591,465.4,458.225,465.506,459.057Z" transform="translate(-416.166 -414.806)" fill="#e58638"/><path d="M507.459,480.248a5.242,5.242,0,0,0-3.58-1.091c-1.739.341-2.591,1.534-2.523,2.079a3.1,3.1,0,0,0,2.318,2.216,25.113,25.113,0,0,0,5.114-.819Z" transform="translate(-447.936 -427.817)" fill="#ffb27d"/><path d="M520.219,402.578s7.09.436,9.544,3.86c3.455,4.819,9.455,24.491,7.819,28.991l-21.57-.091s-.523-2.443.2-3.625,12.546-3.091,13.092-3.637-6.818-10.637-6.818-12.274S520.219,402.578,520.219,402.578Z" transform="translate(-456.999 -379.906)" fill="#ffbc60"/></g><g transform="translate(163.034 12.702)"><path d="M590.372,484.513a8.136,8.136,0,0,0-2.92-.458,13.62,13.62,0,0,0-3.969,1.87,1.081,1.081,0,0,0,0,.508h6.89s1.54-.3,1.8-1.207S590.372,484.513,590.372,484.513Z" transform="translate(-583.453 -424.296)" fill="#ffb27d"/><path d="M644.762,695.308a1.321,1.321,0,0,1-.862,1.145.01.01,0,0,1-.008,0,8.788,8.788,0,0,1-4.119.087c-.213-.028-.4-.051-.576-.067l-.133-.011-.1-.008c-1.656-.109-1.526.4-4.69.385-3.606-.019-4.826-1.234-4.992-1.752-.139-.439,1.44-.78,3.206-1.173l.257-.057.706-.16c2.1-.494,4.189-1.117,4.878-3.14.731-2.145.558-8.508.558-8.508h6.387s-1.677,7.031-1.5,9.056c.1,1.082.612,1.39.812,2.327.015.066.028.132.039.2A6.27,6.27,0,0,1,644.762,695.308Z" transform="translate(-612.138 -548.278)" fill="#ad7041"/><g transform="translate(23.1 55.27)"><path d="M662.186,495.089c-.539,3.026-1.308,6.153-1.976,9.406-1.073,5.23-1.883,10.786-1.054,16.768a20.788,20.788,0,0,1,.176,2.533c.161,10.573-4.563,29.735-4.563,29.735a8.34,8.34,0,0,1-3.434.447,10.9,10.9,0,0,1-2.806-.769s-.447-11.88-.474-27.857c-.019-11.581-2.293-26.83-2.753-35.79a114.771,114.771,0,0,1,.326-12.647s9.418-7.573,12.8-3.7C661.77,477.045,664.2,483.768,662.186,495.089Z" transform="translate(-645.229 -472.113)" fill="#415da5"/></g><path d="M668.348,553.378a20.8,20.8,0,0,1,.176,2.533c-7.053-10.218-8.613-32.5-8.613-32.5l7.747,3.76s.85,4.179,1.744,9.44C668.329,541.84,667.519,547.4,668.348,553.378Z" transform="translate(-631.321 -448.958)" fill="#355493"/><path d="M699.251,694.644a1.321,1.321,0,0,1-.862,1.145.009.009,0,0,1-.007,0,8.787,8.787,0,0,1-4.119.087c-.213-.028-.4-.051-.576-.067l-.134-.011-.1-.008c-1.656-.109-1.526.4-4.69.385-3.606-.019-4.826-1.234-4.992-1.752-.139-.439,1.44-.78,3.206-1.173.085-.019.171-.039.258-.057l.706-.16c2.1-.494,4.189-1.117,4.878-3.14.731-2.144-.314-8.41-.314-8.41l5.918-.494s-.367,7.139-.192,9.166a17.57,17.57,0,0,0,.844,2.614q.022.1.039.2A6.287,6.287,0,0,1,699.251,694.644Z" transform="translate(-646.251 -547.614)" fill="#ad7041"/><path d="M680.848,567.165a14.375,14.375,0,0,1-2.617.939,12.571,12.571,0,0,1-3.37-.209,154.292,154.292,0,0,0-3.217-19.914,186.314,186.314,0,0,0-9.627-30.508c-.934-2.209-4.79-12.665-5.444-15.3-1.979-7.973.008-7.114.008-7.114l17.292-2.029s2.131,1.1,3.112,12.353c.294,3.372.329,17.929.772,20.689a30.849,30.849,0,0,0,1.485,6.2C682.454,540.153,680.848,567.165,680.848,567.165Z" transform="translate(-628.682 -429.937)" fill="#415da5"/><path d="M699.251,714.366a1.321,1.321,0,0,1-.862,1.145.009.009,0,0,1-.007,0,10.175,10.175,0,0,1-4.115.077c-.213-.025-.4-.044-.58-.057l-.134-.011-.1-.008c-1.656-.109-1.526.4-4.69.386-3.606-.019-4.826-1.234-4.992-1.752-.139-.439,1.44-.78,3.206-1.173a10.649,10.649,0,0,0,5.449.966c2.429-.233,4.908-1.206,6.65-1.448q.022.1.039.2A6.287,6.287,0,0,1,699.251,714.366Z" transform="translate(-646.251 -567.336)" fill="#b84c42"/><path d="M644.762,714.366a1.321,1.321,0,0,1-.862,1.145.01.01,0,0,1-.008,0,10.174,10.174,0,0,1-4.115.077c-.214-.025-.405-.044-.58-.057l-.133-.011-.1-.008c-1.656-.109-1.526.4-4.69.386-3.606-.019-4.826-1.234-4.992-1.752-.139-.439,1.44-.78,3.206-1.173a10.647,10.647,0,0,0,5.449.966c2.428-.233,4.908-1.206,6.65-1.448q.022.1.039.2A6.269,6.269,0,0,1,644.762,714.366Z" transform="translate(-612.138 -567.336)" fill="#b84c42"/><path d="M649.189,335.622c-.584-4.77.906-12.4,10.426-11.183s12.521,10.576,10.6,14.736,2.764,5.164,4.235,9.638c1.263,3.843,1.7,8.615,3.748,10.756,6.59,6.9-6.328,17.522-14.115,15.283-14.185-4.078-16.012-4.687-15.508-15.832.258-5.71,4.7-7.923,1.88-9.575C643.64,345.453,650.51,346.415,649.189,335.622Z" transform="translate(-623.481 -324.308)" fill="#111e61"/><path d="M671.017,373.564,668.4,380.34l-5.667.277-2.822-4.227c3.2-2.427,3.066-7.072,2.909-8.694-.036-.366-.071-.577-.071-.577l7.083-2.157c.086,1.873.19,3.337.3,4.482C670.531,373.469,671.017,373.564,671.017,373.564Z" transform="translate(-631.32 -349.76)" fill="#ffb27d"/><path d="M649.89,386.818c.364,0,6.547-1.258,16.988,1.413,0,0-5.718,26.2-3.776,31.136a52.161,52.161,0,0,1,2.681,9.32l-21.073.261S645,412,644.033,406,649.89,386.818,649.89,386.818Z" transform="translate(-621.32 -363.258)" fill="#ffb27d"/><path d="M663.583,416.536c.308,3.468,3.548,11.392,2.847,13.08a4.868,4.868,0,0,1-3.988,3.183,41.264,41.264,0,0,1-6.646.675c-6.349.315-13.152-.482-14.078-3.5-.444-1.449-.273-7.054-.038-9.641.487-5.355-.533-13.038-.682-18.01-.123-4.147,2.379-13.584,2.379-13.584a15.825,15.825,0,0,1,4.669-1.425s.372,4.9,2.931,5.324c4.423.73,7.987-3.322,9.028-4.953,0,0,5.08,1.282,6.571,2.981,1.412,1.609-.52,13.532-.949,14.675-.371.981-.721,1.939-1.026,2.9A20.235,20.235,0,0,0,663.583,416.536Z" transform="translate(-619.478 -363.754)" fill="#ffbc60"/><path d="M746.716,484.565a8.205,8.205,0,0,1,2.92-.454,13.661,13.661,0,0,1,3.969,1.853,1.064,1.064,0,0,1,0,.5h-6.89s-1.54-.3-1.8-1.2S746.716,484.565,746.716,484.565Z" transform="translate(-684.523 -424.332)" fill="#ffb27d"/><path d="M674.885,370.645a12.622,12.622,0,0,0-7.315-1.749c-.036-.365-.071-.577-.071-.577l7.083-2.156C674.668,368.036,674.773,369.5,674.885,370.645Z" transform="translate(-636.071 -350.512)" fill="#e8945b"/><path d="M660.09,348.581s8.48,1.7,9.459-3.594,2.733-8.645-2.64-9.956-6.8.515-7.558,2.2S657.91,348,660.09,348.581Z" transform="translate(-630.512 -330.741)" fill="#ffb27d"/><path d="M670.024,330.665a6.411,6.411,0,0,0-5.014-1.9c.91-1.1-2.749-3.52-6.932.6-1.8,1.776-1.53,5.268-.565,7.293,0,0,1.483-4.341,4.181-5.288a5.909,5.909,0,0,0,1.695-.98,11.639,11.639,0,0,0,2.319,3.446c2.789,3.049,2.246,9.214,2.246,9.214S672.531,333.485,670.024,330.665Z" transform="translate(-629.344 -326.024)" fill="#111e61"/><path d="M664.515,363.931s-.227.629-1.823.343c0,0-1.34-.239-1.217-.945A4.372,4.372,0,0,1,664.515,363.931Z" transform="translate(-632.294 -348.698)" fill="#fff"/><path d="M650.044,411.3c-3.208-12.38-4.968-19.448-7.6-21.587-2.324-1.891-7.337-2.064-7.337-2.064a25.585,25.585,0,0,0,.175,4.462l-6.166,11.75a51.658,51.658,0,0,0-4.282,13.088c-.848-6.79-1.69-13.088-1.69-13.088a71.112,71.112,0,0,1-1.046-7.693c.743-2.867.666-5.86,1.015-8.857l-.388.022c-1.218.085-5.014.472-6.949,2.061-2.628,2.158-3.218,11.634-7.6,21.777,0,0-5.305,8.92-6.994,12.458a3.017,3.017,0,0,0,.949.848,4.973,4.973,0,0,0,1.387.494s9.57-9.424,10.2-10.914c.207-.49,1.365-2.208,2.8-4.737h0s.381,13.465-.455,19.275a3.013,3.013,0,0,0,1.495,3.056c5.91,3.338,23.616,12.432,26.91,3.6.37-.99-6.1-17.811-5.215-21.452.283-1.165.657-3.821,1.035-6.894,2.027,3.887,3.933,6.618,4.2,7.256.629,1.477,10.2,10.818,10.2,10.818a5.008,5.008,0,0,0,1.387-.489,3,3,0,0,0,.949-.841C655.348,420.145,650.044,411.3,650.044,411.3Z" transform="translate(-594.558 -363.754)" fill="#9e69ce"/><path d="M681.538,388.123l-5.658,16.248,5.657-5.348-.428-1.663a3.965,3.965,0,0,0,1.828-.225c.527-.341,1.756-8.648,1.756-8.648s-1.151-.193-1.533-.237C682.753,388.2,681.538,388.123,681.538,388.123Z" transform="translate(-641.318 -364.26)" fill="#6b2ba7"/><path d="M653.812,387.314s-1.191,12.844.031,16.55c0,0-3.5-5.544-2.845-6.692l1.269-.836s-2.45-.318-1.99-1.725S652.7,387.5,652.7,387.5Z" transform="translate(-625.253 -363.754)" fill="#6b2ba7"/></g><g transform="translate(66.648 83.188)"><path d="M325.694,652.305H521.081V608l-195.388-.442Z" transform="translate(-325.694 -572.128)" fill="#111e61"/><rect width="195.388" height="11.586" fill="#111e61"/></g><path d="M.457,0h223.98a.458.458,0,0,1,.458.458V7.892a.458.458,0,0,1-.458.458H.457A.457.457,0,0,1,0,7.893V.457A.457.457,0,0,1,.457,0Z" transform="translate(49.334 74.838)" fill="#091442"/><path d="M396.459,490.563l-.061.034.019-.034Z" transform="translate(-303.311 -415.692)" fill="#5f9aa8"/><g transform="translate(12.725 12.553)"><path d="M231.712,714.094H217.652a3.766,3.766,0,0,1-.358-1.462,21.729,21.729,0,0,1,.062-3.519s4.669-3.9,5.384-1,4.6,4.121,6.8,4.432A2.351,2.351,0,0,1,231.712,714.094Z" transform="translate(-203.874 -563.773)" fill="#091442"/><path d="M198.054,714.094H183.569c-.6-1.32-.214-4.981-.214-4.981s4.67-3.9,5.384-1,4.6,4.121,6.8,4.432a4.069,4.069,0,0,1,.46.092A3.334,3.334,0,0,1,198.054,714.094Z" transform="translate(-182.583 -563.773)" fill="#091442"/><path d="M201.23,517.111s.011.523.031,1.464c.131,6.065.65,29.512,1.141,42.584.021.476.038.936.055,1.384.01.236.019.474.028.709a141.679,141.679,0,0,0,2.018,17.457c1.1,6.312,2.227,10.61,2.227,10.61a10.434,10.434,0,0,0,6.939-.748s1.135-9.8,1.567-15.724c.141-1.924.835-8.488,1.7-16.473.674-6.174,1.454-13.2,2.169-19.589.038-.341.074-.681.113-1.016,1.155-10.33,2.112-18.743,2.112-18.743l-7.445-.709Z" transform="translate(-193.849 -444.866)" fill="#111e61"/><path d="M204.556,582.726l12.438-22.335c.674-6.174,1.454-13.2,2.169-19.589.038-.341.074-.681.113-1.016,1.155-10.33,2.112-18.743,2.112-18.743l-7.445-.709-12.63.258Z" transform="translate(-193.902 -446.884)" fill="#091442"/><path d="M207.6,518.915s-6.959,34.4-12.629,51-5.741,21.215-5.741,21.215-5.2,1.128-7.5-.182c0,0-1.31-31.473,2.121-39.833,2.269-5.528,4.006-17.295,3.416-21.533s-1.141-12.738-1.141-12.738Z" transform="translate(-181.491 -444.7)" fill="#111e61"/><path d="M217.868,374.379,211,372.442a27.422,27.422,0,0,0,1.571-5.83,8.709,8.709,0,0,0-.359-4.6c-.035-.079-.074-.156-.113-.231-.262-.489-.1-.714.246-.767a3.932,3.932,0,0,1,2.37.77,50.866,50.866,0,0,0,4.783,2.686l.008,0s.007.028.014.082v0c.021.133.064.414.1.805C219.815,367.2,219.98,371.459,217.868,374.379Z" transform="translate(-199.964 -347.131)" fill="#ffb27d"/><path d="M195.591,442.132c1.645,1.165,4.237,1.585,7.092,1.541a38.832,38.832,0,0,0,9.974-1.624,23.381,23.381,0,0,0,3.947-1.519c4.407-2.3,3.781-5.357,3.676-16.806-.107-11.686-7.3-26.792-8.594-29.32-2.3-4.5-12.646-2.84-12.646-2.84-2.269,1.087-3.076,4.713-3.3,9.449-.246,5.261.232,11.894.232,17.942a68.277,68.277,0,0,1-1.631,13.088C193.453,436.8,192.994,440.292,195.591,442.132Z" transform="translate(-189.099 -366.077)" fill="#ffbc60"/><path d="M195.516,437.421c1.99,4.194,5.909,8.913,8.34,11.631a38.833,38.833,0,0,0,9.974-1.624c1.241-2.971,1.785-7.931.638-16.119-.874-6.243-7.248-31.354-7.248-31.354-5.146-.671-8.346,2.132-10.3,6.437-.246,5.261.232,11.894.232,17.942A68.277,68.277,0,0,1,195.516,437.421Z" transform="translate(-190.272 -371.457)" fill="#e78b0d"/><path d="M218.741,543.934h-4.672v-1.452a4.376,4.376,0,0,0-4.371-4.371h-3.867a4.376,4.376,0,0,0-4.371,4.371v1.452h-4.672a2.557,2.557,0,0,0-2.549,2.549v11.9a2.557,2.557,0,0,0,2.549,2.549h21.953a2.557,2.557,0,0,0,2.549-2.549v-11.9A2.557,2.557,0,0,0,218.741,543.934Zm-15.548-1.452a2.641,2.641,0,0,1,2.638-2.638H209.7a2.641,2.641,0,0,1,2.638,2.638v1.452h-9.143Z" transform="translate(-189.472 -458.013)" fill="#ffee58"/><path d="M225.013,528.195s2.691,5.19,1.345,7.208-6.152-.577-6.536-1.73,0-6.728,0-6.728Z" transform="translate(-205.382 -451.023)" fill="#ffb27d"/><path d="M203.2,407.789s1,14.283.989,20.192,4.69,21.626,4.69,21.626a32.632,32.632,0,0,0,4.333.092,4.988,4.988,0,0,0,2.245-.827s-1.033-18.569.938-25.686,2.074-21.412,2.074-21.412-1.095-3.086-7.647-2.112C203.05,400.817,203.2,407.789,203.2,407.789Z" transform="translate(-195.083 -371.216)" fill="#ffbc60"/><path d="M208.957,376.9c-.5,1.727-1.191,4.394-.961,5.053,0,0,9.709,1.021,13.59,4.805,0,0-1.4-5.167-2.957-6.525-1.129-.988-5.494-3.107-7.789-4.188A1.357,1.357,0,0,0,208.957,376.9Z" transform="translate(-198.057 -356.471)" fill="#e78b0d"/><path d="M221.653,365.366c-.77-.005-5.569.01-6.917,1.151a.825.825,0,0,1-.137.1,8.709,8.709,0,0,0-.359-4.6c.049-.386.1-.731.133-1a3.932,3.932,0,0,1,2.37.77,50.866,50.866,0,0,0,4.783,2.686l.022.086v0C221.57,364.694,221.613,364.975,221.653,365.366Z" transform="translate(-201.994 -347.131)" fill="#e8945b"/><path d="M225.991,349.913s-7.938,1.519-8.808-3.438-2.481-8.1,2.551-9.28,6.35.539,7.043,2.123S228.033,349.39,225.991,349.913Z" transform="translate(-203.241 -331.982)" fill="#ffb27d"/><path d="M208.684,340.557s.413-.315-1.194-2.75-2.369-1.767-2.389-4.363-.985-4.154,2.027-5.843,2.532-3.255,4.339-3.629,4.435,1.115,5.986.8,6.409,6.009,3.3,7.506a4.945,4.945,0,0,1-2.461-.554c-1.015-.626-4.74-1.259-5.176-.126S210.318,339.681,208.684,340.557Z" transform="translate(-196.17 -323.91)" fill="#111e61"/></g><path d="M605.551,726.721H147.833a.373.373,0,0,1-.372-.372h0a.373.373,0,0,1,.372-.372H605.551a.373.373,0,0,1,.372.372h0A.373.373,0,0,1,605.551,726.721Z" transform="translate(-147.461 -563.076)" fill="#283250"/><g transform="translate(133.357 51.272)"><path d="M1.391,0h.168A1.391,1.391,0,0,1,2.95,1.391V3.917A1.392,1.392,0,0,1,1.558,5.309H1.391A1.391,1.391,0,0,1,0,3.917V1.391A1.391,1.391,0,0,1,1.391,0Z" transform="matrix(0.141, -0.99, 0.99, 0.141, 0, 2.92)" fill="#deedff"/><rect width="1.391" height="1.864" transform="translate(0.99 0.605) rotate(8.11)" fill="#ffbc60"/><path d="M513.532,430.571l-1.714-.244a.233.233,0,0,1-.2-.264h0a.233.233,0,0,1,.264-.2l1.713.244a.234.234,0,0,1,.2.264h0A.234.234,0,0,1,513.532,430.571Z" transform="translate(-508.803 -428.962)" fill="#ffbc60"/><path d="M513.4,432.741l-2-.285a.089.089,0,0,1-.075-.1h0a.089.089,0,0,1,.1-.075l2,.285a.089.089,0,0,1,.076.1h0A.089.089,0,0,1,513.4,432.741Z" transform="translate(-508.619 -430.475)" fill="#ffbc60"/><path d="M513.291,433.505l-2-.285a.089.089,0,0,1-.075-.1h0a.089.089,0,0,1,.1-.075l2,.285a.089.089,0,0,1,.076.1h0A.089.089,0,0,1,513.291,433.505Z" transform="translate(-508.551 -430.954)" fill="#ffbc60"/></g><g transform="translate(202.087 49.544)"><path d="M1.271,0h.152A1.271,1.271,0,0,1,2.694,1.271V3.577a1.27,1.27,0,0,1-1.27,1.27H1.27A1.27,1.27,0,0,1,0,3.577V1.271A1.271,1.271,0,0,1,1.271,0Z" transform="matrix(0.061, -0.998, 0.998, 0.061, 0, 2.689)" fill="#deedff"/><rect width="1.27" height="1.702" transform="matrix(0.998, 0.061, -0.061, 0.998, 0.732, 0.509)" fill="#ffbc60"/><path d="M696.169,425.033l-1.578-.1a.213.213,0,0,1-.2-.225h0a.213.213,0,0,1,.225-.2l1.577.1a.213.213,0,0,1,.2.225h0A.213.213,0,0,1,696.169,425.033Z" transform="translate(-691.961 -423.884)" fill="#ffbc60"/><path d="M696.19,427.036l-1.841-.113a.082.082,0,0,1-.076-.086h0a.082.082,0,0,1,.086-.076l1.84.113a.082.082,0,0,1,.076.086h0A.081.081,0,0,1,696.19,427.036Z" transform="translate(-691.887 -425.292)" fill="#ffbc60"/><path d="M696.148,427.74l-1.84-.114a.081.081,0,0,1-.076-.086h0a.081.081,0,0,1,.086-.076l1.84.113a.081.081,0,0,1,.076.086h0A.082.082,0,0,1,696.148,427.74Z" transform="translate(-691.861 -425.733)" fill="#ffbc60"/></g><path d="M666.505,467.14a.611.611,0,1,1,.611.611A.611.611,0,0,1,666.505,467.14Z" transform="translate(-472.415 -400.645)" fill="#6b2ba7"/><path d="M666.505,477.393a.611.611,0,1,1,.611.611A.611.611,0,0,1,666.505,477.393Z" transform="translate(-472.415 -407.064)" fill="#6b2ba7"/><g transform="translate(394.549 101.835)"><g transform="translate(32.497 24.271)"><path d="M1305.41,637.866s-4.253-4.962-.262-8.113c0,0,2.915-1.765,5.292-1.621,0,0-3.368,5.648-2.279,6.209s3.3-6.564,3.3-6.564,6.633-.643,8.767.383c0,0-5.671,4.641-4.477,4.917s7.32-4.279,7.32-4.279,6.174,1.051,5.845,4.817-2.457,4.93-3.392,4.829-6.4-2.188-6.524-1.422,3.173,3.27,5.479,3.387c0,0-4.353,4.8-7.246,3.415s-3.14-3.582-4.943-4.4-3.343-.822-2.6.018,4.008,1.656,5.039,3.481,1.957,3.054-1.036,2.6-7.858-2.64-8.072-5.148Z" transform="translate(-1298.221 -627.578)" fill="#82b378"/><g transform="translate(0 6.11)"><path d="M1322.933,643.945s-16.769-.646-20.472,4.15a12.132,12.132,0,0,1-3.339,4.687l-.393,1.07s2.906-3.064,3.946-3.25C1302.675,650.6,1301.048,644.661,1322.933,643.945Z" transform="translate(-1295.272 -643.916)" fill="#82b378"/><path d="M1293.334,666.917a10.53,10.53,0,0,0-3.849,7.418l.653.058s1.149-4.918,3.227-6.841S1293.334,666.917,1293.334,666.917Z" transform="translate(-1289.485 -658.052)" fill="#82b378"/></g></g><g transform="translate(0 10.8)"><path d="M1227.4,609.071s6.766-3.789,3.608-8.931c0,0-2.526-3.157-5.232-3.969,0,0,1.443,7.667,0,7.848s-.992-8.66-.992-8.66-7.126-3.427-9.923-3.157c0,0,4.42,7.487,2.977,7.307s-6.4-7.758-6.4-7.758-7.307-1.353-8.48,2.977.722,6.495,1.8,6.765,8.029.181,7.848,1.083-4.871,2.345-7.487,1.534c0,0,2.887,7.126,6.675,6.766s4.962-2.706,7.307-2.887,4.06.451,2.887,1.083-5.142.207-7.036,1.817-3.428,2.6.09,3.324,9.833.27,11.1-2.435Z" transform="translate(-1202.579 -591.552)" fill="#a8d29f"/><g transform="translate(3.708 4.53)"><path d="M1212.494,603.666s18.943,6.134,21.108,12.99a14.392,14.392,0,0,0,1.8,6.585v1.353s-1.985-4.6-3.067-5.232C1232.34,619.362,1236.579,613.408,1212.494,603.666Z" transform="translate(-1212.494 -603.666)" fill="#82b378"/><path d="M1272.252,654.6a12.5,12.5,0,0,1,1.256,9.836l-.752-.2s.73-5.948-.8-8.939S1272.252,654.6,1272.252,654.6Z" transform="translate(-1249.34 -635.029)" fill="#82b378"/></g></g><g transform="translate(29.716)"><path d="M1287.91,585.765s-8.918-4.994-4.756-11.772c0,0,3.33-4.162,6.9-5.232,0,0-1.9,10.107,0,10.345s1.308-11.415,1.308-11.415,9.394-4.519,13.08-4.162c0,0-5.826,9.87-3.924,9.632s8.442-10.226,8.442-10.226,9.631-1.784,11.177,3.924-.951,8.562-2.378,8.918-10.583.238-10.345,1.427,6.421,3.092,9.869,2.021c0,0-3.8,9.394-8.8,8.918s-6.54-3.567-9.632-3.8-5.351.595-3.805,1.427,6.778.273,9.275,2.4,4.519,3.431-.119,4.382-12.961.357-14.626-3.211Z" transform="translate(-1282.047 -562.671)" fill="#a8d29f"/><g transform="translate(1.153 5.971)"><path d="M1321.57,578.64s-24.971,8.086-27.825,17.123a18.967,18.967,0,0,1-2.378,8.681v1.784s2.616-6.064,4.043-6.9C1295.41,599.33,1289.821,591.482,1321.57,578.64Z" transform="translate(-1289.035 -578.64)" fill="#82b378"/><path d="M1287.462,645.785a16.468,16.468,0,0,0-1.656,12.966l.991-.266s-.962-7.84,1.053-11.784S1287.462,645.785,1287.462,645.785Z" transform="translate(-1285.13 -619.982)" fill="#82b378"/></g></g><path d="M1267.675,694.352a17.469,17.469,0,0,0,17.469-17.469h-34.938A17.469,17.469,0,0,0,1267.675,694.352Z" transform="translate(-1232.396 -634.175)" fill="#ffb74d"/><path d="M1275.539,694.218a17.48,17.48,0,0,1-19.639-17.335h4.34A17.472,17.472,0,0,0,1275.539,694.218Z" transform="translate(-1235.961 -634.175)" fill="#ffd494"/><path d="M1284.982,722.368h-35.421a2.155,2.155,0,0,1,2.155-2.155h31.111a2.155,2.155,0,0,1,2.155,2.155Z" transform="translate(-1231.993 -661.302)" fill="#ffb74d"/><rect width="35.91" height="0.536" transform="translate(17.235 42.708)" fill="#ff9800"/></g><g transform="translate(343.046 28.885)"><path d="M1198.245,696.408s-4.667-5.335-5.987-7.763l-3.631-6.706-4.754,1.175,6.033,8.55,6.3,5.332Z" transform="translate(-1139.365 -564.391)" fill="#ffb27d"/><path d="M1093.672,368.581a6.15,6.15,0,0,0-3.329-.637,1.556,1.556,0,0,1,.7-.333,5.166,5.166,0,0,0-1.842.48c-7.927-3.054-9.173,8.617-9.006,11.329s-2.664,3.6-6.788,5.734c-7.869,4.077-8.56,9.535-8.56,9.535.061.036.125.077.193.124.39-.661,1.194-1.9,1.872-2.091a27.937,27.937,0,0,0-1.09,2.655c2.321,1.766,6.664,5.679,9.691,8.454a4.443,4.443,0,0,1,.207-1.719l.374,2.252c1.62,1.489,2.737,2.536,2.737,2.536-.2-2.192,9.91-13.756,15.185-17.219a15.25,15.25,0,0,0,1.775-5.493,14.418,14.418,0,0,1-1.08,4.969C1099.178,385.048,1096.577,370.232,1093.672,368.581Z" transform="translate(-1064.848 -367.586)" fill="#091442"/><path d="M1129.511,414.063c.027.012-2.547,1.348-4.482.819-1.821-.5-3.01-2.857-2.985-2.862.771-.153.993-1.213.978-5.766l.348.068,5.861,1.161s-.133,1.844-.137,3.582C1129.089,412.523,1129.177,413.907,1129.511,414.063Z" transform="translate(-1100.656 -391.794)" fill="#ffb27d"/><path d="M1124.29,372.988a4.685,4.685,0,0,1,6.521-.157A25.412,25.412,0,0,0,1124.29,372.988Z" transform="translate(-1102.062 -370.081)" fill="#ffee58"/><path d="M1131.451,407.6s-.133,1.844-.137,3.582c-3.28-.092-5.014-3.084-5.724-4.743Z" transform="translate(-1102.876 -391.909)" fill="#d68d5d"/><path d="M1120.319,384.568a17.243,17.243,0,0,1-2.131-5.038c-.295-1.658.55-7.8,6.725-6.918a8.393,8.393,0,0,1,3.479,1.315c1.341.906,3.276,2.861,1.112,8.223l-.562,1.811Z" transform="translate(-1098.21 -370.678)" fill="#091442"/><path d="M1148.035,581.056l-3.107.095-3.362.1a66.381,66.381,0,0,1-12.125-22.512q-.153-.483-.322-.978c-2.384-6.953-7.328-15.68-9.932-23.58-.415-1.258-.787-2.443-1.121-3.564-.107-.359-.211-.712-.31-1.059a83.827,83.827,0,0,1-2.988-15.729l18.811.15A350.655,350.655,0,0,0,1148.035,581.056Z" transform="translate(-1096.1 -459.145)" fill="#ffb74d"/><path d="M1132.011,457.306a25.276,25.276,0,0,1-17.626,1.08c-.113-.036.632-37,3.347-38.019a5.9,5.9,0,0,0,4.13,1.519c1.907-.042,2.525-.859,2.426-1.749,2.032,1.13,3.653,2.2,3.653,2.2C1129.668,425.335,1132.011,457.306,1132.011,457.306Z" transform="translate(-1095.854 -400.486)" fill="#ffee58"/><path d="M1104.183,461.952c-.822,1.164-2.4,8.237-6.321,9.127,2.021-5.041,3.556-7.252,3.8-8.8a38.242,38.242,0,0,0,.233-8.711c1.313-2.3,2.293-3.879,2.293-3.879.1-.372,2.087-6.505,2.722-1.023A25.331,25.331,0,0,1,1104.183,461.952Z" transform="translate(-1085.517 -416.926)" fill="#5f9aa8"/><path d="M1131.046,392.018s-7.76.128-7.765-4.706-1.011-8.073,3.943-8.359,5.919,1.557,6.313,3.17S1133.064,391.86,1131.046,392.018Z" transform="translate(-1101.376 -374.684)" fill="#ffb27d"/><path d="M1126.581,377.041s-2.125,5.671-5.386,6.51-4.675-.035-4.675-.035a9.232,9.232,0,0,0,3.02-5.455S1124.979,374.342,1126.581,377.041Z" transform="translate(-1097.198 -372.891)" fill="#091442"/><path d="M1142.017,378.369a6.856,6.856,0,0,1,1.973,2.5c.387,1.231.561,3.765,1.3,3.679,0,0,1.6-3.855-.2-6.035C1143.184,376.2,1142.017,378.369,1142.017,378.369Z" transform="translate(-1113.161 -373.758)" fill="#091442"/><path d="M1227.7,429.635a4.843,4.843,0,0,1,5.428-3.386c.5.156,1.951.735,1.022,2.291-.685,1.147-.981.555-2.059,2.1a3.431,3.431,0,0,1-3.582,1.7Z" transform="translate(-1166.801 -404.279)" fill="#ffb27d"/><path d="M1118.495,696.94c-.264-1.452-.767-3.964-.767-3.964l.117-8.912h-5.413l2.025,8.53a8.68,8.68,0,0,1-.416,3.562s-.52,2.368,1.812,2.412S1118.759,698.393,1118.495,696.94Z" transform="translate(-1094.639 -565.721)" fill="#ffb27d"/><path d="M1120.986,719.87h-4.851a13.039,13.039,0,0,1,.177-3.567c2.64,2.559,4.294-.064,4.294-.064A13.194,13.194,0,0,1,1120.986,719.87Z" transform="translate(-1096.91 -585.864)" fill="#091442"/><path d="M1207.786,712.4h-5.98a9.98,9.98,0,0,1-1.621-2.675,2.892,2.892,0,0,0-1.947-1.333V712.4H1197l-1.137-4.264c-.762-1.434-.179-2.724.357-3.857.624,0,2.417.426,5.595,4.094a4.121,4.121,0,0,0,3.341,1.6.333.333,0,0,0,.047.026A4.459,4.459,0,0,1,1207.786,712.4Z" transform="translate(-1146.642 -578.376)" fill="#091442"/><path d="M1173.347,425.841s-5.094,2.848-6.913,3.669c-1.037.468-3.424,1.586-5.106,2.376a2.625,2.625,0,0,1-3.111-.67c-2.761-3.226-9.949-10.222-17.332-11.08,0,0,4.49,11.091,4.622,13.335s.528,36.706.528,36.706-.264,1.584,2.773.924,3.829-1.32,3.829-1.32-2.9-21.257-2.113-28.651a16.471,16.471,0,0,0-.313-4.788,37.808,37.808,0,0,0,9.82,3.952,55.125,55.125,0,0,0,9.418-5.721c1.708-1.251,4.708-6.023,4.708-6.023Z" transform="translate(-1112.452 -400.486)" fill="#9e69ce"/><path d="M1149.931,603.967l-3.362.1a66.377,66.377,0,0,1-12.125-22.512q-.153-.483-.322-.978c-2.384-6.953-7.328-15.68-9.932-23.58-.415-1.258-.787-2.443-1.121-3.564-.107-.359-.211-.712-.31-1.059l2.77-2.1s8.317,13.467,10.891,26.141C1138.655,587.425,1147.612,600.672,1149.931,603.967Z" transform="translate(-1101.103 -481.961)" fill="#ff9800"/><path d="M1106.818,571.612c.047,6.164-.264,20.334-1.067,26.2h-2.979c-1.646,0-2.468-.023-2.468-.023-2.013-10.2-3.446-18.639-4.489-25.912-.856-5.968-1.616-11.084-2.2-15.489-.589-4.433-1-8.144-1.145-11.28-.022-.494-.04-.974-.049-1.44s-.012-.924-.008-1.367l16.253-1.584C1108.462,551.515,1106.792,568.03,1106.818,571.612Z" transform="translate(-1082.104 -475.976)" fill="#ffb74d"/><path d="M1102.87,605.164c-1.646,0-2.468-.024-2.468-.024-2.013-10.2-3.446-18.639-4.489-25.912-.856-5.968-1.616-11.084-2.2-15.489-.589-4.433-1-8.144-1.145-11.28l5.964,3.508s-3.807,1.343-2.354,11.509S1100.849,603.725,1102.87,605.164Z" transform="translate(-1082.203 -483.329)" fill="#ff9800"/><path d="M1097.561,469.9s-1.144,4.136-5.1,3.608a47.658,47.658,0,0,1-9.594-2.9s1.693-5.348,3.8-12.375c.023-.074.044-.149.067-.224,2.484-8.3,5.519-18.86,7.028-25.732.032-.147.063-.292.094-.434a42.536,42.536,0,0,0,.808-4.716l3.347-6.372s4.839,10.992,5.1,13.765S1097.561,469.9,1097.561,469.9Z" transform="translate(-1076.126 -400.871)" fill="#9e69ce"/><path d="M1100,434.1l4.4-13.352a66.28,66.28,0,0,0-8.287,3.011s-1.719,2.216-2.782,7.328c0,0-1.124,12.273,1.385,16.762,0,0,7.922,1.584,20.6-2.773v-2.9s-13.864.726-16.7,1.056Z" transform="translate(-1082.523 -400.872)" fill="#ffb27d"/><path d="M1103.474,459.616c-.175,4.429-1.205,12.971-10.278,17.68,2.484-8.3,5.519-18.86,7.028-25.732C1101.87,454.09,1103.565,457.28,1103.474,459.616Z" transform="translate(-1082.596 -420.161)" fill="#6b2ba7"/><path d="M1103.7,420.753s-8.1.562-10.036,4.875-2.553,18.661-.088,22.886c0,0,3.393.967,9.4-.156l.222-.042s1.914-4.687.2-5.612c0,0-5.061.264-4.533-1.408S1103.7,420.753,1103.7,420.753Z" transform="translate(-1081.818 -400.872)" fill="#9e69ce"/><path d="M1148.736,470.888a6.929,6.929,0,0,0,1.34-2.705,2.941,2.941,0,0,1,2.873-2.631c1.906-.25,2.726-.277,2.721.26a14.222,14.222,0,0,1-4.293,6.529C1148.642,474.582,1148.736,470.888,1148.736,470.888Z" transform="translate(-1117.367 -428.811)" fill="#ffb27d"/></g><path d="M329.767,567.636l193.865.442V543.789H329.767Z" transform="translate(-261.596 -449.015)" fill="#afcdfb" opacity="0.9"/><g transform="translate(58.902 18.217)"><path d="M429.205,486.1h-8.3l-.061.034.019-.034.9-1.718s.272-.136.681-.306c.873-.363,2.364-.875,3.124-.518C426.605,484.053,428.9,485.192,429.205,486.1Z" transform="translate(-377.515 -429.45)" fill="#ffb27d"/><path d="M389.655,434.755a3.635,3.635,0,0,1-1.557,2l-.061.034.019-.034H373.6a10.148,10.148,0,0,1-1.919-2.367,13.271,13.271,0,0,1-.679-1.28,17.478,17.478,0,0,1-1.494-6.2c-.346-5.083-.708-13.463-.905-18.37-.1-2.361-.154-3.918-.154-3.918h0c.088.057,5.72,3.782,6.892,15.276,0,0,.3,9.243,1.327,9.971s11.981,3.689,12.973,4.863A.164.164,0,0,1,389.655,434.755Z" transform="translate(-344.713 -380.105)" fill="#9e69ce"/><path d="M335.974,346.567s-.745-10.625-14.542-6.6c-3.131.913-2.723,10.365,4.858,13.964Z" transform="translate(-314.129 -339.056)" fill="#091442"/><path d="M347.923,396.652s5.4.978,7.4,2.981,6.729,7.911,3.755,27.611c0,0-.239,5.937-6.915,6.51S347.923,396.652,347.923,396.652Z" transform="translate(-331.594 -375.115)" fill="#9e69ce"/><path d="M315.374,505.046c.928,6.465,7.159,23.268,6.978,29.075-.144,4.577-.068,15.149.536,22.173a43.24,43.24,0,0,0,.612,4.742c.536,2.591,1.224,5.574,1.593,7.454.823,4.221.393,6.683,1.065,8.949.74,2.477,9.236,2.024,6.676.521a7.514,7.514,0,0,1-2.9-3.149c-2.386-5.347.959-28.4,1.956-37.292.128-1.11.219-1.994.257-2.6.332-5.49,4.1-42.066,4.1-42.066C327.1,487.765,314.453,498.581,315.374,505.046Z" transform="translate(-311.457 -434.517)" fill="#d9935c"/><path d="M315.375,505.024c.929,6.465,7.159,23.268,6.978,29.075-.144,4.577-.068,15.149.536,22.173l9-18.774c.128-1.11.219-1.993.257-2.6.332-5.49,4.2-42.08,4.2-42.08C327.19,487.73,314.453,498.56,315.375,505.024Z" transform="translate(-311.458 -434.495)" fill="#cb8757"/><path d="M333.036,493.758s-7.861,36.134-8.754,41.559-8.052,30.97-6.492,37.371c.921,3.776,2.525,4.893,2.525,4.893.378.692-5.84,2.067-6.342-.582-.637-3.364-.771-8.086-1.706-16.091-1.608-13.783,1.582-21.626,2.355-27.386s-2.6-24.07-.726-30.327C317.169,492.244,324.457,487.754,333.036,493.758Z" transform="translate(-309.262 -434.231)" fill="#d9935c"/><path d="M334.459,525.873a23.407,23.407,0,0,1-4.52,1.3.031.031,0,0,1-.013,0,39.677,39.677,0,0,1-4.8.6,60.639,60.639,0,0,1-6.487.066l-.574-6.691-.6,2.423-1.035,4.147c-.957-.067-1.816-.144-2.544-.22-1.563-.16-2.516-.308-2.516-.308-1.76-14.517.349-23.668,2.735-29.073h0a24.694,24.694,0,0,1,2.237-4.062c.375-.544.724-1,1.03-1.359.25-.3.472-.537.654-.724a6.518,6.518,0,0,1,.565-.527c.815.313,1.617.577,2.4.8q.839.238,1.645.411l.027.006q.553.121,1.089.214.2.035.4.067.631.1,1.231.168a26.882,26.882,0,0,0,5.694.057,18.4,18.4,0,0,0,2.292-.358l.1-.024.011.37.192,6.311Z" transform="translate(-308.569 -434.463)" fill="#9e69ce"/><path d="M319.129,708H311.7c-.574-1.041-1.338-4.158-1.921-4.811-.042-.045-.088-.1-.135-.16l-.059,4.97h-.668a55.7,55.7,0,0,0-.463-6.847,3.148,3.148,0,0,1-.558-1.8c.258-.645,2.637-2.08,2.637-2.08s1.76,8.8,2.592,9.015a13.387,13.387,0,0,0,4.547.246,2.669,2.669,0,0,1,1.333.918A.713.713,0,0,1,319.129,708Z" transform="translate(-306.788 -563.32)" fill="#9e69ce"/><path d="M345.72,708.022h-7.429c-.568-1.028-1.32-4.081-1.9-4.782l-.058,4.782h-.668c0-.141-.005-.328-.009-.552a56.619,56.619,0,0,0-.386-5.885c-.508-.89-.927-1.847-.781-2.213.257-.645,2.584-2.068,2.584-2.068s.009.078.035.2c0,.019.007.038.01.058s.01.051.015.079l.012.061c.339,1.7,1.716,8.384,2.574,8.6a13.394,13.394,0,0,0,4.7.226h.008S345.9,707.248,345.72,708.022Z" transform="translate(-323.435 -563.341)" fill="#9e69ce"/><path d="M345.7,428.641c-.248,1.361-.5,2.535-.715,3.454l-.045.193c-.3,1.27-.516,2-.516,2l-.112.037-.052.018-.1.031q-.766.246-1.5.429a20.131,20.131,0,0,1-7.188.51,18.161,18.161,0,0,1-2.937-.583c-.2-.056-.385-.113-.566-.173l-.026-.008c-.468-.152-.887-.312-1.254-.466a11.192,11.192,0,0,1-1.825-.937l0,0a4.785,4.785,0,0,0,.244-.855,16.755,16.755,0,0,0,.262-2.4c.085-1.646.059-3.7-.031-5.968,0-.066,0-.132-.007-.2-.115-2.838-.327-5.985-.546-9.041-.168-2.346-.34-4.639-.478-6.7-.042-.631-.082-1.239-.115-1.82-.192-3.245-.244-5.636.044-6.263.438-.952,1.8-1.531,3.24-1.882.207-.05.416-.1.624-.138.028-.006-.062-.233-.033-.239.2-.039.517.149.713.119l.249-.039a24.022,24.022,0,0,1,2.694-.24l.067,0A17.871,17.871,0,0,1,338,398.848c.1.07,1.371-.758,1.473-.682a11.419,11.419,0,0,1,4.059,5.705c1.109,3.6,2.739,5.385,3.08,8.941A59.734,59.734,0,0,1,345.7,428.641Z" transform="translate(-319.411 -375.634)" fill="#ffbc60"/><path d="M317.2,435.212a25.094,25.094,0,0,0,10.444-.657,11.34,11.34,0,0,0,2.772-1.141c2.923-1.8,4.343-15.1,3.836-20.141s-8.971-15.358-8.971-15.358c-2.077,1.541-2.992,5.126-4.237,9.83C318.049,419.066,317.2,435.212,317.2,435.212Z" transform="translate(-312.633 -375.905)" fill="#9e69ce"/><path d="M317.2,451.671a25.1,25.1,0,0,0,10.444-.657,16.561,16.561,0,0,0,2.673-6.336c1.488-7.341-4.38-15.308-9.274-20.473C318.049,435.525,317.2,451.671,317.2,451.671Z" transform="translate(-312.633 -392.364)" fill="#6b2ba7"/><path d="M336.415,459.319l-6.512-4.7a1.811,1.811,0,0,0-2.522.408l-7.263,10.062a1.812,1.812,0,0,0,.408,2.523l6.512,4.7a1.812,1.812,0,0,0,2.523-.408l7.263-10.062A1.813,1.813,0,0,0,336.415,459.319Z" transform="translate(-314.244 -411.193)" fill="#ffee58"/><path d="M345.483,481.076s3.183-.322,3.577.215a2.154,2.154,0,0,1-1.753,2.826,6.623,6.623,0,0,1-3.827-1.252Z" transform="translate(-329.084 -427.909)" fill="#da935b"/><path d="M317.631,397.915s-5.658.666-8.113,5.764-5.1,18.219-4.437,19.447,8.59,7.835,15.1,8.685a6.171,6.171,0,0,0,1.321-3.4s-8.779-5.475-9.534-6.986,6.7-14.066,6.608-16.237S317.631,397.915,317.631,397.915Z" transform="translate(-304.979 -375.905)" fill="#9e69ce"/><path d="M351.594,350.637a4.214,4.214,0,0,1,3.508,4.238s1.452-6.072-3.8-5.949S351.594,350.637,351.594,350.637Z" transform="translate(-332.561 -345.234)" fill="#091442"/><path d="M346.226,388.01s-.3-3.2-.229-4.028h0c.038-.424.08-.673.08-.673l-.08-.024-6.645-2.024c0,.052,0,.106-.007.159-.085,1.8-.188,3.188-.3,4.27-.013.141-.028.277-.043.408-.06.55-.124,1.009-.185,1.393a26.988,26.988,0,0,0,3.23,1.2c2.384.694,3.417.417,3.859,0C346.276,388.342,346.234,388.064,346.226,388.01Z" transform="translate(-326.163 -365.478)" fill="#ffb27d"/><path d="M345.855,383.547v.7a14.175,14.175,0,0,0-6.426,1.705c.111-1.081.214-2.474.3-4.27Z" transform="translate(-326.547 -365.742)" fill="#e8945b"/><path d="M344.775,365.7s-8.052,1.617-8.982-3.413-2.6-8.209,2.506-9.454,6.459.489,7.177,2.093S346.846,365.153,344.775,365.7Z" transform="translate(-323.632 -347.417)" fill="#ffb27d"/><path d="M337.372,349.079s2.276,2.852-1.878,5.46-3.835,7.824-2.731,9.29c0,0-8.268-8.068-4.438-12.876S337.372,349.079,337.372,349.079Z" transform="translate(-318.961 -344.776)" fill="#091442"/></g><g transform="translate(225.089 73.912)"><g transform="translate(2.833 73.424)"><path d="M763.63,687.677a3.326,3.326,0,1,1-3.325-3.325A3.325,3.325,0,0,1,763.63,687.677Z" transform="translate(-756.979 -684.352)" fill="#d86713"/><circle cx="3.325" cy="3.325" r="3.325" transform="translate(1.309 0)" fill="#f1a34f"/></g><g transform="translate(24.989 82.286)"><path d="M822.882,711.374a3.326,3.326,0,1,1-3.325-3.325A3.326,3.326,0,0,1,822.882,711.374Z" transform="translate(-816.231 -708.049)" fill="#d86713"/><path d="M826.383,711.374a3.326,3.326,0,1,1-3.325-3.325A3.326,3.326,0,0,1,826.383,711.374Z" transform="translate(-818.423 -708.049)" fill="#f1a34f"/></g><path d="M758.887,683.6l3.68,3.422a4.294,4.294,0,0,0,1.272.818l24.778,10.3,4.6-3.313Z" transform="translate(-755.341 -610.459)" fill="#ff9800"/><g transform="translate(37.828)"><path d="M868.452,523.992l-1.179-.815c5.431-7.862,15.932-23.351,16.8-25.7a4.315,4.315,0,0,0,.011-3.671,4.7,4.7,0,0,0-2.894-1.949l-.076-.019-5.5-1.7c-6.3-2.511-9,2.436-9.108,2.648l-.037.063-14.7,22.216-1.2-.791,14.686-22.189a8.5,8.5,0,0,1,2.59-2.764c1.623-1.093,4.374-2.069,8.272-.525l5.387,1.662a6.06,6.06,0,0,1,3.824,2.633,5.65,5.65,0,0,1,.092,4.881C884.272,501.076,869.1,523.057,868.452,523.992Z" transform="translate(-850.564 -487.998)" fill="#ff9800"/></g><path d="M849.5,569.312l12.174,8.358s3.206,3.241-.474,9.713c-3.239,5.7-20.582,38.012-20.582,38.012s-3.611,6.724-17.672-1.691Z" transform="translate(-795.446 -538.905)" fill="#ff9800"/><path d="M806.885,569.357l-19.676,36.082a9.243,9.243,0,0,1-11.7,4.1l-12.38-5.207-.306-.128-7.753-3.261a9.262,9.262,0,0,1-2.12-1.242q-.222-.172-.43-.357a9.236,9.236,0,0,1-1.706-11.825l21.007-33.591a9.248,9.248,0,0,1,10.651-3.9l2.27.725.541.174h0l.455.146,7.588,2.422.931.3,7.323,2.339a9.245,9.245,0,0,1,3.042,1.646c.057.047.114.094.17.143l.347.313A9.248,9.248,0,0,1,806.885,569.357Z" transform="translate(-749.404 -526.553)" fill="#ffb74d"/><path d="M783.979,675.363a9.239,9.239,0,0,1-8.435.651l-12.38-5.207-.306-.128-7.753-3.261a9.262,9.262,0,0,1-2.12-1.242q-.222-.172-.43-.357c-2.3-2.033-4-6.595-2.569-10.051,0,0,26.266,10.835,31.364,14.014C783.979,671.422,783.979,673.752,783.979,675.363Z" transform="translate(-749.44 -593.032)" fill="#ff9800"/><g transform="translate(2.444 24.192)"><path d="M789.83,553.012c-.069.01-7.288,1.049-9.354,3.793-2.122,2.82-23.008,37.334-23.218,37.682a9.26,9.26,0,0,0,.134,7.42l-.352-.262q-.222-.172-.43-.357a8.31,8.31,0,0,1,.214-7.062c.862-1.426,21.112-34.885,23.247-37.726,1.872-2.488,7.1-3.532,8.762-3.808l.541.174h0Z" transform="translate(-755.939 -552.693)" fill="#ffee58"/><g transform="translate(10.823 2.741)"><path d="M816.47,560.322a12.129,12.129,0,0,0-7.789,5.374c-3,4.838-22.159,41.11-22.352,41.475l-.014.026-.019.022a4.549,4.549,0,0,0-.645,3.777l-.311-.13-.306-.128a4.377,4.377,0,0,1,.86-3.827c.593-1.121,19.379-36.682,22.357-41.481a12.611,12.611,0,0,1,7.288-5.406Z" transform="translate(-784.882 -560.024)" fill="#ffee58"/></g><g transform="translate(22.395 7.023)"><path d="M846.725,571.932a10.515,10.515,0,0,0-3.03.891,11.546,11.546,0,0,0-4.869,4.4c-3,4.836-21.467,41.255-21.654,41.621l-.014.029-.02.023a6.194,6.194,0,0,0-.427,4.181l-.78-.328a6.593,6.593,0,0,1,.8-4.161c.591-1.164,18.684-36.835,21.661-41.634a11.559,11.559,0,0,1,7.813-5.483c.057.047.114.094.17.143Z" transform="translate(-815.829 -571.475)" fill="#ffee58"/></g></g></g><g transform="translate(285.041)"><g transform="translate(0 73.204)"><path d="M911.922,690.732s-2.642,2.448-2.126,4.188,2.9,2.9,3.221,5.025,1.611,3.285,2.77,3.285h5.529s.854-1.5-1.208-1.947-2.839-2.949-2.71-5.268a41.567,41.567,0,0,0-.193-5.412l-4.381-1.031Z" transform="translate(-909.729 -613.488)" fill="#ffb74d"/><path d="M1017.435,712.732h-14.681a1.29,1.29,0,0,1-.286-.086c-.979-.489-.673-4.233-.555-5.393.023-.215.039-.341.039-.341s5.155-4.123,5.863-.965c.021.1.048.195.077.29.891,2.953,4.893,4.3,7.2,4.67A2.517,2.517,0,0,1,1017.435,712.732Z" transform="translate(-967.355 -622.994)" fill="#ffb74d"/><path d="M999.142,497.795s-.783,9.766-1.7,21.505c-1.25,15.947-2.754,35.535-2.9,39.245-.257,6.444-1.289,16.751-1.289,16.751s-2.447,2.448-7.344,1.417a168.617,168.617,0,0,1-5.611-30.282c-.019-.255-.039-.512-.058-.769-1.16-15.848-2.963-49.22-2.963-49.22Z" transform="translate(-952.015 -492.577)" fill="#111e61"/><path d="M999.142,497.795s-.783,9.766-1.7,21.505l-17.147,27.131c-.019-.255-.039-.512-.058-.769-1.16-15.848-2.963-49.22-2.963-49.22Z" transform="translate(-952.015 -492.577)" fill="#091442"/><path d="M956.953,492.483s-14.109,35.369-23.386,51.99-12.176,21.26-12.176,21.26-5.315-2.126-5.8-3.576c0,0,3.548-32.088,9.76-39.91,3.511-4.42,7.634-17.684,7.827-22.323s1.256-13.819,1.256-13.819Z" transform="translate(-913.4 -486.105)" fill="#111e61"/></g><path d="M1059.984,477.05l.806,1.607a3.611,3.611,0,0,1,2.972,4.848s-.608,1.759-1.739,1.2-.573-.51-2.194-1.259-2.559-2.188-2.2-3.508l-.26-1.4Z" transform="translate(-1002.164 -407.232)" fill="#ab7041"/><path d="M987.881,337.627a41.4,41.4,0,0,0,.647-5.9l-7.158-5.769c.266,7.933-4.817,11.747-4.817,11.747s9.539,4.7,15.053,2.956A13.2,13.2,0,0,0,987.881,337.627Z" transform="translate(-951.565 -312.64)" fill="#9c5f33"/><path d="M994.849,315.813s-9.106,1.513-9.962-4.173-2.606-9.32,3.172-10.526,7.237.793,7.984,2.621S997.2,315.273,994.849,315.813Z" transform="translate(-956.2 -296.855)" fill="#ab7041"/><path d="M980.766,305.517a9.426,9.426,0,0,1,8.482-8.838c5.684-.837,2.241-5.586,1.591-6.339,0,0-4.345.829-8.791,1.8C972.714,294.193,979.779,304.384,980.766,305.517Z" transform="translate(-952.018 -290.34)" fill="#091442"/><path d="M1008.085,411.035a15.591,15.591,0,0,0,2.121-2.875S999.86,395.3,999.018,393.971s-7.125-22.716-7.125-22.716L976,368.036s13.264,27.365,15.461,30.7c3.631,5.513,14.494,13.718,14.494,13.718A6.546,6.546,0,0,0,1008.085,411.035Z" transform="translate(-951.221 -338.983)" fill="#ffb74d"/><path d="M990.883,407.779a.893.893,0,0,1-.58.221c-2.07-.028-8.108,1.122-13.216.6a38.055,38.055,0,0,1-12.212-3.524c-.544-.243-1.795-.911-1.767-1.519.019-.665.085-1.63.168-2.845a152.164,152.164,0,0,0,.3-19.877c-.088-1.561-.135-3.11-.14-4.634-.042-11.363,2.172-21.414,6.7-24.8.387-.277,2.8.939,4.981,2.016a7.3,7.3,0,0,0,5.329.586l2.511,1.816a19.03,19.03,0,0,1,5.963,9.525c.94,3.782,1.491,10.6,1.8,17.67.138,3.2.249,6.433.277,9.5v.11c.027.3.027.636.027.939C991.133,401.428,991.021,407.668,990.883,407.779Z" transform="translate(-943.148 -328.543)" fill="#ffd494"/><path d="M963.558,429.075a152.154,152.154,0,0,0,.3-19.877c-.088-1.561-.135-3.11-.14-4.634,1.886-4.575,3.427-7.893,3.427-7.893H971.9S975.386,420.477,963.558,429.075Z" transform="translate(-943.429 -356.91)" fill="#ffb74d"/><g transform="translate(5.387 23.67)"><path d="M929.629,485l-.9,1.555A3.611,3.611,0,0,1,926.3,491.7s-1.8.455-1.959-.8.112-.76-.15-2.525.428-3.339,1.731-3.76l1.028-.984Z" transform="translate(-924.136 -435.023)" fill="#ffd494"/><path d="M928.486,404.04a15.589,15.589,0,0,0,3.568.2s5.082-15.7,5.736-17.134,15.1-18.409,15.1-18.409l-6.016-15.056s-15.62,26.092-17.206,29.758c-2.621,6.059-3.53,19.642-3.53,19.642A6.535,6.535,0,0,0,928.486,404.04Z" transform="translate(-925.386 -353.639)" fill="#ffd494"/></g></g><g transform="translate(363.212 58.268)"><path d="M1,0H2.818a1,1,0,0,1,1,1v.121a1,1,0,0,1-1,1H1a1,1,0,0,1-1-1V1A1,1,0,0,1,1,0Z" transform="translate(0 0.97) rotate(-14.721)" fill="#deedff"/><rect width="1" height="1.341" transform="translate(0.549 1.211) rotate(-14.704)" fill="#ffbc60"/><path d="M1125.255,447.839l-1.2.316a.168.168,0,0,1-.2-.12h0a.168.168,0,0,1,.12-.2l1.2-.316a.167.167,0,0,1,.2.119h0A.168.168,0,0,1,1125.255,447.839Z" transform="translate(-1121.947 -447.005)" fill="#ffbc60"/><path d="M1125.719,449.307l-1.4.369a.064.064,0,0,1-.078-.046h0a.064.064,0,0,1,.046-.078l1.4-.369a.064.064,0,0,1,.078.045h0A.064.064,0,0,1,1125.719,449.307Z" transform="translate(-1122.194 -448.052)" fill="#ffbc60"/><path d="M1125.86,449.843l-1.4.369a.064.064,0,0,1-.078-.045h0a.065.065,0,0,1,.046-.078l1.4-.369a.064.064,0,0,1,.078.046h0A.064.064,0,0,1,1125.86,449.843Z" transform="translate(-1122.282 -448.388)" fill="#ffbc60"/></g><g transform="translate(244.419 54.751)"><path d="M805.42,436.756,801.1,456.844h16.85l3.769-20.087Z" transform="translate(-801.097 -436.756)" fill="#699ff0"/><path d="M807.67,438.466l-3.905,18.144h15.219l3.4-18.144Z" transform="translate(-802.767 -437.827)" fill="#afcdfb"/></g><g transform="translate(247.616 56.847)"><path d="M828.188,442.363H816.6a.388.388,0,1,0,0,.776h11.584a.388.388,0,1,0,0-.776Z" transform="translate(-813.759 -442.363)" fill="#699ff0"/><path d="M826.607,447.254H815.023a.388.388,0,1,0,0,.776h11.584a.388.388,0,1,0,0-.776Z" transform="translate(-812.769 -445.425)" fill="#699ff0"/><path d="M825.619,451.948H814.035a.388.388,0,0,0,0,.776h11.585a.388.388,0,1,0,0-.776Z" transform="translate(-812.15 -448.364)" fill="#699ff0"/><path d="M824.186,461.626H812.6a.388.388,0,0,0,0,.776h11.585a.388.388,0,1,0,0-.776Z" transform="translate(-811.253 -454.423)" fill="#699ff0"/><path d="M822.605,466.517H811.021a.388.388,0,0,0,0,.776h11.584a.388.388,0,0,0,0-.776Z" transform="translate(-810.264 -457.485)" fill="#699ff0"/><path d="M821.617,471.212H810.033a.388.388,0,1,0,0,.776h11.584a.388.388,0,1,0,0-.776Z" transform="translate(-809.645 -460.424)" fill="#699ff0"/></g><rect width="8.684" height="0.48" transform="translate(239.064 74.257) rotate(-73.212)" fill="#6b2ba7"/><path d="M784.821,486.781a1.662,1.662,0,0,0-1.68,1.381H786.5A1.661,1.661,0,0,0,784.821,486.781Z" transform="translate(-545.436 -413.324)" fill="#9e69ce"/><g transform="translate(240.253 65.797)"><path d="M791.288,475.116a8.849,8.849,0,0,1-1.332-.116l.018-.109c.643.11,2.352.276,2.544-.262a2.789,2.789,0,0,0-.1-1.2,12.076,12.076,0,0,1-.147-4.676c.278-1.671.071-2.177-.151-2.307s-.547.113-.55.115l-.07-.086c.015-.012.377-.3.675-.125.368.215.436,1.029.2,2.421a11.983,11.983,0,0,0,.147,4.636,2.812,2.812,0,0,1,.1,1.256C792.5,475.022,791.891,475.116,791.288,475.116Z" transform="translate(-789.956 -466.298)" fill="#9e69ce"/></g><g transform="translate(208.94 85.705)"><path d="M709.414,519.536l.989,2,2.211.321-1.6,1.559.378,2.2-1.977-1.04-1.977,1.04.378-2.2-1.6-1.559,2.21-.321Z" transform="translate(-706.215 -519.536)" fill="#ffee58"/><path d="M733.125,519.536l.988,2,2.211.321-1.6,1.559.378,2.2-1.977-1.04-1.977,1.04.378-2.2-1.6-1.559,2.211-.321Z" transform="translate(-721.06 -519.536)" fill="#ffee58"/><path d="M758.188,519.536l.988,2,2.211.321-1.6,1.559.378,2.2-1.977-1.04-1.977,1.04.378-2.2-1.6-1.559,2.211-.321Z" transform="translate(-736.75 -519.536)" fill="#ffee58"/><path d="M783.339,519.536l.989,2,2.211.321-1.6,1.559.378,2.2-1.977-1.04-1.977,1.04.378-2.2-1.6-1.559,2.21-.321Z" transform="translate(-752.497 -519.536)" fill="#ffee58"/><path d="M805.157,519.536l.989,2,2.211.321-1.6,1.559.378,2.2-1.977-1.04-1.977,1.04.378-2.2-1.6-1.559,2.21-.321Z" transform="translate(-766.156 -519.536)" fill="#ffee58"/></g></g></g></svg>