<svg xmlns="http://www.w3.org/2000/svg" width="292" height="71" viewBox="0 0 292 71"><g transform="translate(-180 -3602)"><rect width="71" height="71" transform="translate(291 3602)" fill="none"/><path d="M240.247,235.685v2.191a.769.769,0,1,0,1.539,0v-2.191a1.8,1.8,0,1,0-1.539,0Z" transform="translate(85.854 3403.077)" fill="#111e61"/><path d="M78.912,79.464h0l.1.051a2.43,2.43,0,0,0,2.261,0l.1-.051A37.7,37.7,0,0,0,95.717,66.428,32.759,32.759,0,0,0,100.9,48.867V44.178a2.411,2.411,0,0,0-1.529-2.256,13.681,13.681,0,0,1-7.4-6.8,2.432,2.432,0,0,0-2.189-1.375H70.5a2.431,2.431,0,0,0-2.189,1.375,13.681,13.681,0,0,1-7.4,6.8,2.411,2.411,0,0,0-1.529,2.256v4.689a32.758,32.758,0,0,0,5.184,17.561A37.7,37.7,0,0,0,78.912,79.464Zm-17.994-30.6V44.178a.881.881,0,0,1,.557-.825A15.214,15.214,0,0,0,69.7,35.786a.885.885,0,0,1,.8-.5H89.78a.886.886,0,0,1,.8.5,15.215,15.215,0,0,0,8.226,7.567.881.881,0,0,1,.557.825v4.689A31.223,31.223,0,0,1,94.418,65.6,36.158,36.158,0,0,1,80.652,78.1l-.1.051a.891.891,0,0,1-.829,0l-.1-.051A36.157,36.157,0,0,1,65.862,65.6,31.223,31.223,0,0,1,60.918,48.867Z" transform="translate(246.7 3580.624)" fill="#111e61"/><path d="M78.345,245.55a.769.769,0,0,0-.92.581c-2.343,10.366-9.48,19.356-19.58,24.665L55.5,272.029a.521.521,0,0,1-.484,0L52.667,270.8c-10.116-5.317-17.256-14.323-19.589-24.708a.769.769,0,0,0-1.5.337c2.432,10.826,9.859,20.205,20.375,25.732l2.347,1.234a2.059,2.059,0,0,0,1.916,0l2.347-1.234c10.5-5.519,17.922-14.881,20.365-25.688A.769.769,0,0,0,78.345,245.55Z" transform="translate(271.584 3391.242)" fill="#111e61"/><path d="M70.839,8.8a8.558,8.558,0,0,1-7.856-7.013A2.078,2.078,0,0,0,60.942,0H35.307a2.078,2.078,0,0,0-2.041,1.791A8.558,8.558,0,0,1,25.41,8.8a2.045,2.045,0,0,0-1.826,2.046v8.262a35.416,35.416,0,0,0,.185,3.608.77.77,0,0,0,.764.691.779.779,0,0,0,.08,0,.769.769,0,0,0,.687-.844,33.88,33.88,0,0,1-.177-3.45V10.849a.516.516,0,0,1,.449-.515A10.09,10.09,0,0,0,34.79,2a.526.526,0,0,1,.517-.466H60.942A.526.526,0,0,1,61.459,2a10.09,10.09,0,0,0,9.218,8.33.516.516,0,0,1,.449.515v8.262a33.9,33.9,0,0,1-.173,3.415.769.769,0,0,0,1.531.156,35.425,35.425,0,0,0,.181-3.57V10.849A2.045,2.045,0,0,0,70.839,8.8Z" transform="translate(278.716 3610.809)" fill="#111e61"/><path d="M169.939,102.985a2.45,2.45,0,0,0,2.447-2.447V89.522a2.45,2.45,0,0,0-2.447-2.447h-1.265V83.4a7.518,7.518,0,0,0-15.035,0v3.673h-1.265a2.45,2.45,0,0,0-2.447,2.447v11.016a2.45,2.45,0,0,0,2.447,2.447ZM155.178,83.4a5.979,5.979,0,0,1,11.958,0v3.673H155.178Zm-3.712,17.135V89.522a.909.909,0,0,1,.908-.908h17.565a.909.909,0,0,1,.908.908v11.016a.909.909,0,0,1-.908.908H152.374A.909.909,0,0,1,151.466,100.538Z" transform="translate(165.713 3542.937)" fill="#111e61"/><rect width="292" height="71" transform="translate(180 3602)" fill="none"/></g></svg>