<svg xmlns="http://www.w3.org/2000/svg" width="292" height="71" viewBox="0 0 292 71"><g transform="translate(-492 -3602)"><g transform="translate(11)"><g transform="translate(590.328 3602)"><rect width="71" height="71" transform="translate(-0.328)" fill="none"/></g><g transform="translate(598.071 3613.605)"><g transform="translate(0 0)"><path d="M3.648,220.967H24.694a1.069,1.069,0,1,0,0-2.137H3.648L7.4,215.074a1.068,1.068,0,0,0-1.511-1.511l-5.58,5.58a1.068,1.068,0,0,0,0,1.511l5.58,5.58A1.068,1.068,0,1,0,7.4,224.723Zm0,0" transform="translate(0 -187.962)" fill="#111e61"/><path d="M132.56,3.337h-5.283V1.319a1.069,1.069,0,1,0-2.137,0V3.337H107.094V1.319a1.069,1.069,0,1,0-2.137,0V3.337H99.317A5.824,5.824,0,0,0,93.5,9.154V26.963a1.069,1.069,0,1,0,2.137,0v-7h40.6V43.584a3.685,3.685,0,0,1-3.68,3.68H99.317a3.685,3.685,0,0,1-3.68-3.68V37.41a1.069,1.069,0,1,0-2.137,0v6.174A5.824,5.824,0,0,0,99.317,49.4H132.56a5.824,5.824,0,0,0,5.817-5.817V9.154A5.824,5.824,0,0,0,132.56,3.337ZM95.637,17.821V9.154a3.685,3.685,0,0,1,3.68-3.68h5.639v2.9a3.439,3.439,0,1,0,2.137,0v-2.9H125.14v2.9a3.438,3.438,0,1,0,2.137,0v-2.9h5.283a3.685,3.685,0,0,1,3.68,3.68v8.667Zm9.466-7.1a1.306,1.306,0,1,1-.284,1.423A1.306,1.306,0,0,1,105.1,10.723Zm20.183,0A1.306,1.306,0,1,1,125,12.146,1.306,1.306,0,0,1,125.286,10.723Zm0,0" transform="translate(-82.399 -0.25)" fill="#111e61"/></g></g></g><rect width="292" height="71" transform="translate(492 3602)" fill="none"/></g></svg>