<svg xmlns="http://www.w3.org/2000/svg" width="105" height="105" viewBox="0 0 105 105"><g transform="translate(-448 -1931)"><g transform="translate(225 -896)"><rect width="105" height="105" transform="translate(223 2827)" fill="none"/></g><g transform="translate(438 1928)"><path d="M103.933,239.967a5.311,5.311,0,0,0-5.311-5.311H94.639L93.311,232H88l1.445,4.335a5.311,5.311,0,0,0,5.039,3.632h1.483l7.967,21.245H111.9Z" transform="translate(-53.378 -180.15)" fill="#f7cca9"/><path d="M261.178,53.211V39.933a15.933,15.933,0,1,0-31.867,0V53.211A5.311,5.311,0,0,0,224,58.522v2.656a5.311,5.311,0,0,0,5.311,5.311h31.867a5.311,5.311,0,0,0,5.311-5.311V58.522A5.311,5.311,0,0,0,261.178,53.211Z" transform="translate(-166.806 -6.672)" fill="#ad6643"/><path d="M239.834,264H212.677a5.311,5.311,0,0,0-4.813,3.065L200,282.589l6.639,5.311,6.639-7.967v21.245h31.867V269.311A5.311,5.311,0,0,0,239.834,264Z" transform="translate(-146.789 -206.839)" fill="#f7b030"/><path d="M424,392h7.967v15.933H424Z" transform="translate(-333.611 -313.594)" fill="#f7cca9"/><g transform="translate(62.506 33.261)"><path d="M261.311,130.622a5.311,5.311,0,1,1,0-10.622h1.328v10.622Z" transform="translate(-256 -120)" fill="#edc4a2"/><path d="M409.328,120a5.311,5.311,0,1,1,0,10.622H408V120Z" transform="translate(-382.772 -120)" fill="#edc4a2"/><path d="M328,216h7.967v7.967a2.656,2.656,0,0,1-2.656,2.656h-2.656A2.656,2.656,0,0,1,328,223.967Z" transform="translate(-316.05 -200.067)" fill="#edc4a2"/></g><path d="M303.933,88,288,93.311v7.967a10.622,10.622,0,1,0,21.244,0V93.311Z" transform="translate(-220.183 -60.05)" fill="#f7cca9"/><path d="M98.556,328h-23.9L72,354.556h29.211Z" transform="translate(-40.033 -260.216)" fill="#c7312e"/><path d="M58.556,328h-23.9L32,354.556H61.211Z" transform="translate(-6.672 -260.216)" fill="#eb423f"/><path d="M95.7,45.344V33.261a17.261,17.261,0,1,0-34.522,0V45.344a6.651,6.651,0,0,0-5.311,6.506v2.656a6.688,6.688,0,0,0,3.623,5.912l-3.059,6.038H54.463l-2.585-6.892a6.647,6.647,0,0,0-6.634-6.385H42.082l-.961-1.922a1.328,1.328,0,0,0-1.188-.734H34.622a1.328,1.328,0,0,0-1.26,1.748l.855,2.565c-.105.092-.208.188-.307.287a6.6,6.6,0,0,0-1.944,4.695v6.639H27.983a1.328,1.328,0,0,0-1.321,1.2L24.007,94.206a1.328,1.328,0,0,0,1.321,1.461h35.85A1.328,1.328,0,0,0,62.5,94.206L61.227,81.483l3.935-4.72V94.339a1.328,1.328,0,0,0,1.328,1.328H98.356a1.328,1.328,0,0,0,1.328-1.328V62.472a6.6,6.6,0,0,0-.78-3.12,6.68,6.68,0,0,0,2.108-4.846V51.85A6.651,6.651,0,0,0,95.7,45.344Zm2.656,6.506v2.656a3.95,3.95,0,0,1-1.149,2.8,6.607,6.607,0,0,0-4.163-1.472H83.75V51.928a12.011,12.011,0,0,0,5.965-6.75,6.6,6.6,0,0,0,3.33-1.3v2.659a1.328,1.328,0,0,0,1.328,1.328A3.988,3.988,0,0,1,98.356,51.85ZM78.439,50.522a9.3,9.3,0,0,1-9.294-9.294v-7.01l14.247-4.749,4.342,4.342v7.417A9.3,9.3,0,0,1,78.439,50.522Zm-2.656,2.354a11.862,11.862,0,0,0,5.311,0v4.284a1.329,1.329,0,0,1-1.328,1.328H77.111a1.329,1.329,0,0,1-1.328-1.328ZM90.389,41.228V34.817a3.982,3.982,0,0,1-.054,7.528C90.369,41.977,90.389,41.6,90.389,41.228ZM78.439,18.656A14.622,14.622,0,0,1,93.045,33.261v0a6.6,6.6,0,0,0-3.407-1.3l-4.949-4.949a1.328,1.328,0,0,0-1.359-.321L67.584,31.939a6.6,6.6,0,0,0-3.751,1.325v0A14.622,14.622,0,0,1,78.439,18.656Zm-11.9,23.69a3.982,3.982,0,0,1-.054-7.528v6.411C66.489,41.6,66.509,41.977,66.543,42.346Zm-8.021,9.5a3.988,3.988,0,0,1,3.983-3.983,1.328,1.328,0,0,0,1.328-1.328V43.88a6.6,6.6,0,0,0,3.33,1.3,12.011,12.011,0,0,0,5.965,6.75v3.905h-7.24a6.664,6.664,0,0,0-5.02,2.3,4.01,4.01,0,0,1-2.346-3.628Zm-9.294,7.967a1.328,1.328,0,0,0,.085.466l2.315,6.173H47.9V59.817a6.593,6.593,0,0,0-1.1-3.668,3.989,3.989,0,0,1,2.431,3.668ZM39.113,53.178l.961,1.922a1.328,1.328,0,0,0,1.188.734,3.982,3.982,0,0,1,3.983,3.983v3.3l-1.412-3.766a1.328,1.328,0,0,0-1.243-.862H41.106a3.978,3.978,0,0,1-3.778-2.724l-.863-2.587Zm-4.491,6.639a3.957,3.957,0,0,1,.638-2.164,6.629,6.629,0,0,0,5.845,3.492h.563l1.992,5.311H34.622ZM26.795,93.011l2.39-23.9h21.5l2.39,23.9Zm28.946,0-2.39-23.9h3.97l2.39,23.9ZM67.817,67.784a1.328,1.328,0,0,0-2.656,0v4.83l-4.3,5.166L59.844,67.651a1.325,1.325,0,0,0-.558-.953l2.975-5.872.019-.039a4,4,0,0,1,3.609-2.3h7.469a3.99,3.99,0,0,0,3.754,2.656h2.656a3.99,3.99,0,0,0,3.755-2.656h9.523a3.988,3.988,0,0,1,3.983,3.983V77.078H91.717V67.784a1.328,1.328,0,0,0-2.656,0V93.011H67.817Zm23.9,25.228V79.734h5.311V93.011Z" transform="translate(0)"/><circle cx="1.421" cy="1.421" r="1.421" transform="translate(72.3 37.423)"/><circle cx="1.421" cy="1.421" r="1.421" transform="translate(82.244 37.423)"/></g></g></svg>