<svg xmlns="http://www.w3.org/2000/svg" width="228" height="162.205" viewBox="0 0 228 162.205">
  <g id="Grupo_56137" data-name="Grupo 56137" transform="translate(-680 -501.795)">
    <rect id="Rectángulo_4912" data-name="Rectángulo 4912" width="228" height="115.216" rx="21" transform="translate(680 548.783)" fill="#fff1db"/>
    <g id="Grupo_20710" data-name="Grupo 20710" transform="translate(689.5 615)">
      <g id="Grupo_20708" data-name="Grupo 20708" transform="translate(0.5)">
        <path id="Trazado_102414" data-name="Trazado 102414" d="M13.581,19H4.651V17.066l4.113-4.324a4.909,4.909,0,0,0,1.521-2.751,1.913,1.913,0,0,0-.36-1.257A1.287,1.287,0,0,0,8.878,8.3a1.3,1.3,0,0,0-1.1.576,2.366,2.366,0,0,0-.422,1.437H4.387a4.2,4.2,0,0,1,.589-2.175,4.129,4.129,0,0,1,1.635-1.56,4.856,4.856,0,0,1,2.338-.562,4.777,4.777,0,0,1,3.195.958,3.42,3.42,0,0,1,1.121,2.751,4,4,0,0,1-.281,1.472,6.456,6.456,0,0,1-.875,1.5,22.029,22.029,0,0,1-1.912,2.1L8.544,16.715h5.036Zm3.384-2.874a1.686,1.686,0,0,1,1.169.417,1.457,1.457,0,0,1,0,2.136,1.844,1.844,0,0,1-2.342,0,1.456,1.456,0,0,1,0-2.127A1.672,1.672,0,0,1,16.964,16.126Zm0-7.014a1.686,1.686,0,0,1,1.169.417,1.457,1.457,0,0,1,0,2.136,1.844,1.844,0,0,1-2.342,0,1.456,1.456,0,0,1,0-2.127A1.672,1.672,0,0,1,16.964,9.112Zm12.4,4.658a6.11,6.11,0,0,1-1.165,4,4.024,4.024,0,0,1-3.283,1.406,4.046,4.046,0,0,1-3.3-1.415,6.1,6.1,0,0,1-1.169-3.99V11.433a6.11,6.11,0,0,1,1.165-4A4.034,4.034,0,0,1,24.9,6.027a4.036,4.036,0,0,1,3.3,1.415,6.116,6.116,0,0,1,1.169,4ZM26.4,11.055a4.564,4.564,0,0,0-.36-2.061A1.2,1.2,0,0,0,24.9,8.313a1.176,1.176,0,0,0-1.112.633,4.3,4.3,0,0,0-.374,1.916v3.27a4.6,4.6,0,0,0,.36,2.1,1.209,1.209,0,0,0,1.143.664,1.193,1.193,0,0,0,1.116-.646,4.39,4.39,0,0,0,.369-2.026ZM39.79,13.771a6.11,6.11,0,0,1-1.165,4,4.024,4.024,0,0,1-3.283,1.406,4.046,4.046,0,0,1-3.3-1.415,6.1,6.1,0,0,1-1.169-3.99V11.433a6.11,6.11,0,0,1,1.165-4,4.034,4.034,0,0,1,3.292-1.406,4.036,4.036,0,0,1,3.3,1.415,6.116,6.116,0,0,1,1.169,4Zm-2.962-2.716a4.564,4.564,0,0,0-.36-2.061,1.2,1.2,0,0,0-1.143-.681,1.176,1.176,0,0,0-1.112.633,4.3,4.3,0,0,0-.374,1.916v3.27a4.6,4.6,0,0,0,.36,2.1,1.209,1.209,0,0,0,1.143.664,1.193,1.193,0,0,0,1.116-.646,4.39,4.39,0,0,0,.369-2.026Zm17.859,3.261a5.735,5.735,0,0,1-1,3.538A3.2,3.2,0,0,1,51,19.176a2.742,2.742,0,0,1-2.153-.958v4.438H45.88V9.49h2.769l.088.879a2.742,2.742,0,0,1,2.241-1.055,3.224,3.224,0,0,1,2.733,1.3,5.805,5.805,0,0,1,.976,3.564Zm-2.962-.185q0-2.531-1.477-2.531a1.394,1.394,0,0,0-1.406.756V16.1a1.439,1.439,0,0,0,1.424.791q1.415,0,1.459-2.443Zm6.1,2a1.686,1.686,0,0,1,1.169.417,1.457,1.457,0,0,1,0,2.136,1.844,1.844,0,0,1-2.342,0,1.456,1.456,0,0,1,0-2.127A1.672,1.672,0,0,1,57.825,16.126ZM68.714,9.49l.1,1.116a3.27,3.27,0,0,1,2.716-1.292,2.407,2.407,0,0,1,2.435,1.433,3.165,3.165,0,0,1,2.795-1.433q2.892,0,2.971,3.5V19H76.756V13a1.813,1.813,0,0,0-.246-1.063,1.048,1.048,0,0,0-.9-.334,1.4,1.4,0,0,0-1.31.782l.009.123V19H71.342V13.015a1.906,1.906,0,0,0-.237-1.081A1.045,1.045,0,0,0,70.2,11.6a1.42,1.42,0,0,0-1.3.782V19H65.937V9.49Zm14.537,6.636a1.686,1.686,0,0,1,1.169.417,1.457,1.457,0,0,1,0,2.136,1.844,1.844,0,0,1-2.342,0,1.456,1.456,0,0,1,0-2.127A1.672,1.672,0,0,1,83.251,16.126ZM96.7,19a3.344,3.344,0,0,1-.281-.853,2.754,2.754,0,0,1-2.285,1.028,3.374,3.374,0,0,1-2.285-.813,2.588,2.588,0,0,1-.94-2.043,2.66,2.66,0,0,1,1.143-2.338,5.821,5.821,0,0,1,3.322-.791h.914v-.5q0-1.316-1.134-1.316A.927.927,0,0,0,94.1,12.413H91.135a2.655,2.655,0,0,1,1.173-2.239,4.931,4.931,0,0,1,2.993-.86,4.323,4.323,0,0,1,2.874.888,3.086,3.086,0,0,1,1.081,2.435v4.21a4.311,4.311,0,0,0,.4,2V19Zm-1.854-1.934a1.652,1.652,0,0,0,.918-.237,1.487,1.487,0,0,0,.523-.536V14.772h-.861q-1.547,0-1.547,1.389a.848.848,0,0,0,.272.655A.986.986,0,0,0,94.844,17.066ZM111.9,19h-2.971V9.543l-2.918.853V8.146L111.623,6.2h.272Zm12.744-5.229a6.11,6.11,0,0,1-1.165,4,4.551,4.551,0,0,1-6.587-.009,6.1,6.1,0,0,1-1.169-3.99V11.433a6.11,6.11,0,0,1,1.165-4,4.551,4.551,0,0,1,6.587.009,6.116,6.116,0,0,1,1.169,4Zm-2.962-2.716a4.564,4.564,0,0,0-.36-2.061,1.2,1.2,0,0,0-1.143-.681,1.176,1.176,0,0,0-1.112.633,4.3,4.3,0,0,0-.374,1.916v3.27a4.6,4.6,0,0,0,.36,2.1,1.209,1.209,0,0,0,1.143.664,1.193,1.193,0,0,0,1.116-.646,4.39,4.39,0,0,0,.369-2.026Zm6.39,5.071a1.686,1.686,0,0,1,1.169.417,1.457,1.457,0,0,1,0,2.136,1.844,1.844,0,0,1-2.342,0,1.456,1.456,0,0,1,0-2.127A1.672,1.672,0,0,1,128.067,16.126Zm0-7.014a1.686,1.686,0,0,1,1.169.417,1.457,1.457,0,0,1,0,2.136,1.844,1.844,0,0,1-2.342,0,1.456,1.456,0,0,1,0-2.127A1.672,1.672,0,0,1,128.067,9.112Zm12.4,4.658a6.11,6.11,0,0,1-1.165,4,4.551,4.551,0,0,1-6.587-.009,6.1,6.1,0,0,1-1.169-3.99V11.433a6.11,6.11,0,0,1,1.165-4,4.551,4.551,0,0,1,6.587.009,6.116,6.116,0,0,1,1.169,4Zm-2.962-2.716a4.564,4.564,0,0,0-.36-2.061A1.2,1.2,0,0,0,136,8.313a1.176,1.176,0,0,0-1.112.633,4.3,4.3,0,0,0-.374,1.916v3.27a4.6,4.6,0,0,0,.36,2.1,1.209,1.209,0,0,0,1.143.664,1.193,1.193,0,0,0,1.116-.646,4.39,4.39,0,0,0,.369-2.026Zm13.386,2.716a6.11,6.11,0,0,1-1.165,4,4.551,4.551,0,0,1-6.587-.009,6.1,6.1,0,0,1-1.169-3.99V11.433a6.11,6.11,0,0,1,1.165-4,4.551,4.551,0,0,1,6.587.009,6.116,6.116,0,0,1,1.169,4Zm-2.962-2.716a4.564,4.564,0,0,0-.36-2.061,1.2,1.2,0,0,0-1.143-.681,1.176,1.176,0,0,0-1.112.633,4.3,4.3,0,0,0-.374,1.916v3.27a4.6,4.6,0,0,0,.36,2.1,1.209,1.209,0,0,0,1.143.664,1.193,1.193,0,0,0,1.116-.646,4.39,4.39,0,0,0,.369-2.026Zm17.859,3.261a5.735,5.735,0,0,1-1,3.538,3.2,3.2,0,0,1-2.694,1.323,2.742,2.742,0,0,1-2.153-.958v4.438h-2.962V9.49h2.769l.088.879a2.742,2.742,0,0,1,2.241-1.055,3.224,3.224,0,0,1,2.733,1.3,5.805,5.805,0,0,1,.976,3.564Zm-2.962-.185q0-2.531-1.477-2.531a1.394,1.394,0,0,0-1.406.756V16.1a1.439,1.439,0,0,0,1.424.791q1.415,0,1.459-2.443Zm6.1,2a1.686,1.686,0,0,1,1.169.417,1.457,1.457,0,0,1,0,2.136,1.844,1.844,0,0,1-2.342,0,1.456,1.456,0,0,1,0-2.127A1.672,1.672,0,0,1,168.927,16.126Zm10.89-6.636.1,1.116a3.27,3.27,0,0,1,2.716-1.292,2.407,2.407,0,0,1,2.435,1.433,3.165,3.165,0,0,1,2.795-1.433q2.892,0,2.971,3.5V19h-2.971V13a1.813,1.813,0,0,0-.246-1.063,1.048,1.048,0,0,0-.9-.334,1.4,1.4,0,0,0-1.31.782l.009.123V19h-2.971V13.015a1.906,1.906,0,0,0-.237-1.081,1.045,1.045,0,0,0-.905-.334,1.42,1.42,0,0,0-1.3.782V19H177.04V9.49Zm14.537,6.636a1.686,1.686,0,0,1,1.169.417,1.457,1.457,0,0,1,0,2.136,1.844,1.844,0,0,1-2.342,0,1.456,1.456,0,0,1,0-2.127A1.672,1.672,0,0,1,194.354,16.126Z" fill="#12263f"/>
      </g>
    </g>
    <g id="Grupo_56038" data-name="Grupo 56038" transform="translate(23.786 76)">
      <g id="Grupo_56034" data-name="Grupo 56034" transform="translate(723.214 425.795)">
        <circle id="Elipse_1421" data-name="Elipse 1421" cx="45.52" cy="45.52" r="45.52" transform="translate(1.468 1.468)" fill="#ffb74d"/>
        <path id="Trazado_102147" data-name="Trazado 102147" d="M2193.543,641.482a45.518,45.518,0,0,1-45.487-43.868c-.02.548-.033,1.1-.033,1.652a45.52,45.52,0,1,0,91.04,0c0-.553-.013-1.1-.033-1.652A45.518,45.518,0,0,1,2193.543,641.482Z" transform="translate(-2146.555 -552.277)" fill="#ff9800"/>
        <circle id="Elipse_1422" data-name="Elipse 1422" cx="37.984" cy="37.984" r="37.984" transform="translate(9.005 9.005)" fill="#f3f9ff"/>
        <path id="Trazado_102148" data-name="Trazado 102148" d="M2211.282,633.946a37.983,37.983,0,0,1-37.946-36.332c-.024.548-.038,1.1-.038,1.652a37.984,37.984,0,1,0,75.968,0c0-.554-.015-1.1-.038-1.652A37.984,37.984,0,0,1,2211.282,633.946Z" transform="translate(-2164.294 -552.277)" fill="#d5e0f2"/>
        <path id="Trazado_102149" data-name="Trazado 102149" d="M2223.313,459.322a46.989,46.989,0,0,0-67.383,65.495,1.38,1.38,0,0,0,2.005-1.895,44.2,44.2,0,1,1,3.915,3.672,1.379,1.379,0,0,0-1.762,2.122,46.989,46.989,0,0,0,63.225-69.394Z" transform="translate(-2143.098 -445.559)"/>
        <path id="Trazado_102150" data-name="Trazado 102150" d="M2234.838,483.441a1.379,1.379,0,0,0-.067-1.949,39.412,39.412,0,1,0,3.9,4.206,1.379,1.379,0,1,0-2.154,1.724,36.282,36.282,0,0,1,8.025,22.9,36.679,36.679,0,1,1-11.651-26.814,1.379,1.379,0,0,0,1.95-.067Z" transform="translate(-2160.872 -463.333)"/>
        <path id="Trazado_102151" data-name="Trazado 102151" d="M2205.9,542.26c-2.054,3.9-10.452,22.44,5.7,36.489,11.738,10.208,29.1,10.849,40.253,0a28.874,28.874,0,0,0,.292-41.121h0l-20.032,20.032a1.4,1.4,0,0,1-.93.409l-23.952-17.354C2206.425,540.752,2206.273,541.547,2205.9,542.26Z" transform="translate(-2184.356 -510.178)" fill="#afcdfb" opacity="0.9"/>
        <path id="Trazado_102152" data-name="Trazado 102152" d="M2298.826,492.984v-4.272a1.379,1.379,0,1,0-2.759,0v4.272a1.379,1.379,0,1,0,2.759,0Z" transform="translate(-2250.458 -474.877)"/>
        <path id="Trazado_102153" data-name="Trazado 102153" d="M2296.067,696.773v4.272a1.379,1.379,0,1,0,2.759,0v-4.272a1.379,1.379,0,1,0-2.759,0Z" transform="translate(-2250.458 -620.903)"/>
        <path id="Trazado_102154" data-name="Trazado 102154" d="M2398.585,601.287a1.379,1.379,0,1,0,0-2.759h-4.272a1.379,1.379,0,1,0,0,2.759Z" transform="translate(-2318.442 -552.919)"/>
        <path id="Trazado_102155" data-name="Trazado 102155" d="M2186.252,598.528a1.379,1.379,0,1,0,0,2.759h4.272a1.379,1.379,0,0,0,0-2.759Z" transform="translate(-2172.417 -552.919)"/>
      </g>
      <path id="Trazado_102156" data-name="Trazado 102156" d="M2300.693,688.52" transform="translate(-1530.491 -190.283)" fill="#c43030"/>
      <g id="Grupo_56036" data-name="Grupo 56036" transform="translate(746.088 452.874)">
        <g id="Grupo_56035" data-name="Grupo 56035" transform="translate(1.423 1.412)">
          <path id="Trazado_102157" data-name="Trazado 102157" d="M2318.934,562.479a2.754,2.754,0,0,0-3.894.027l-8.646,8.767a4.706,4.706,0,0,1,3.443,4.35l9.124-9.25A2.754,2.754,0,0,0,2318.934,562.479Z" transform="translate(-2282.003 -555.552)" fill="#eb423f"/>
          <path id="Trazado_102158" data-name="Trazado 102158" d="M2243.018,561.367a4.707,4.707,0,0,1,3.127-4.433l-16.971-15.124a2.753,2.753,0,1,0-3.663,4.111l17.512,15.605C2243.02,561.473,2243.018,561.42,2243.018,561.367Z" transform="translate(-2224.588 -541.112)" fill="#eb423f"/>
          <circle id="Elipse_1423" data-name="Elipse 1423" cx="4.705" cy="4.705" r="4.705" transform="translate(18.429 15.55)" fill="#9e69ce"/>
          <path id="Trazado_102159" data-name="Trazado 102159" d="M2277.789,591.612l2.571,2.291c0-.053,0-.106,0-.16a4.707,4.707,0,0,1,3.127-4.433l-2.319-2.067a7.592,7.592,0,0,0-3.375,4.368Z" transform="translate(-2261.927 -573.489)" fill="#c43030"/>
          <path id="Trazado_102160" data-name="Trazado 102160" d="M2308.58,586.4l-2.186,2.217a4.706,4.706,0,0,1,3.443,4.35l2.41-2.443A7.6,7.6,0,0,0,2308.58,586.4Z" transform="translate(-2282.003 -572.9)" fill="#c43030"/>
          <path id="Trazado_102161" data-name="Trazado 102161" d="M2291.1,606.556a4.706,4.706,0,0,1-4.406-3.053,4.7,4.7,0,1,0,8.812,0A4.706,4.706,0,0,1,2291.1,606.556Z" transform="translate(-2267.969 -584.9)" fill="#6b2ba7"/>
        </g>
        <path id="Trazado_102162" data-name="Trazado 102162" d="M2263.019,575.508a1.379,1.379,0,1,0,1.774-2.112L2249.8,560.8a6.043,6.043,0,0,0,.649-2.368l8.754-8.875a4.138,4.138,0,0,0-5.892-5.812L2245.171,552a6.081,6.081,0,0,0-2.021.069L2226.7,537.418a4.138,4.138,0,1,0-5.506,6.179l7.958,7.091a1.379,1.379,0,1,0,1.835-2.059l-7.958-7.091a1.379,1.379,0,0,1,1.835-2.059l15.593,13.9a6.124,6.124,0,0,0-1.664,2.212l-3.688-3.287a1.38,1.38,0,0,0-1.836,2.06l5.062,4.51a6.089,6.089,0,0,0,9.692,4.046Zm-7.741-29.822a1.379,1.379,0,1,1,1.964,1.937l-7.479,7.583a6.135,6.135,0,0,0-1.813-2.091Zm-10.905,15.693a3.335,3.335,0,1,1,3.335-3.335A3.339,3.339,0,0,1,2244.373,561.379Z" transform="translate(-2219.815 -536.377)"/>
      </g>
    </g>
  </g>
</svg>
