<svg xmlns="http://www.w3.org/2000/svg" xmlns:xlink="http://www.w3.org/1999/xlink" width="1226" height="736" viewBox="0 0 1226 736">
  <defs>
    <filter id="Trazado_102025" x="520.827" y="281.827" width="198.347" height="198.347" filterUnits="userSpaceOnUse">
      <feOffset dy="3" input="SourceAlpha"/>
      <feGaussianBlur stdDeviation="3" result="blur"/>
      <feFlood flood-color="#ffca1a"/>
      <feComposite operator="in" in2="blur"/>
      <feComposite in="SourceGraphic"/>
    </filter>
    <filter id="Elipse_1408" x="596.282" y="78.282" width="85.436" height="85.437" filterUnits="userSpaceOnUse">
      <feOffset dy="3" input="SourceAlpha"/>
      <feGaussianBlur stdDeviation="3" result="blur-2"/>
      <feFlood flood-color="#fb0"/>
      <feComposite operator="in" in2="blur-2"/>
      <feComposite in="SourceGraphic"/>
    </filter>
    <filter id="Elipse_1408-2" x="363.282" y="178.282" width="85.436" height="85.437" filterUnits="userSpaceOnUse">
      <feOffset dy="3" input="SourceAlpha"/>
      <feGaussianBlur stdDeviation="3" result="blur-3"/>
      <feFlood flood-color="#ffb74d"/>
      <feComposite operator="in" in2="blur-3"/>
      <feComposite in="SourceGraphic"/>
    </filter>
    <filter id="Elipse_1408-3" x="805.282" y="448.282" width="85.436" height="85.437" filterUnits="userSpaceOnUse">
      <feOffset dy="3" input="SourceAlpha"/>
      <feGaussianBlur stdDeviation="3" result="blur-4"/>
      <feFlood flood-color="#ffc571"/>
      <feComposite operator="in" in2="blur-4"/>
      <feComposite in="SourceGraphic"/>
    </filter>
    <filter id="Elipse_1408-4" x="715.282" y="549.282" width="85.436" height="85.437" filterUnits="userSpaceOnUse">
      <feOffset dy="3" input="SourceAlpha"/>
      <feGaussianBlur stdDeviation="3" result="blur-5"/>
      <feFlood flood-color="#ffb74d"/>
      <feComposite operator="in" in2="blur-5"/>
      <feComposite in="SourceGraphic"/>
    </filter>
    <filter id="Elipse_1408-5" x="709.282" y="117.282" width="85.436" height="85.437" filterUnits="userSpaceOnUse">
      <feOffset dy="3" input="SourceAlpha"/>
      <feGaussianBlur stdDeviation="3" result="blur-6"/>
      <feFlood flood-color="#ffc571"/>
      <feComposite operator="in" in2="blur-6"/>
      <feComposite in="SourceGraphic"/>
    </filter>
    <filter id="Elipse_1408-6" x="607.282" y="594.282" width="85.436" height="85.437" filterUnits="userSpaceOnUse">
      <feOffset dy="3" input="SourceAlpha"/>
      <feGaussianBlur stdDeviation="3" result="blur-7"/>
      <feFlood flood-color="#fb0"/>
      <feComposite operator="in" in2="blur-7"/>
      <feComposite in="SourceGraphic"/>
    </filter>
    <filter id="Elipse_1408-7" x="488.282" y="585.282" width="85.436" height="85.437" filterUnits="userSpaceOnUse">
      <feOffset dy="3" input="SourceAlpha"/>
      <feGaussianBlur stdDeviation="3" result="blur-8"/>
      <feFlood flood-color="#ffc571"/>
      <feComposite operator="in" in2="blur-8"/>
      <feComposite in="SourceGraphic"/>
    </filter>
    <filter id="Elipse_1408-8" x="379.282" y="517.282" width="85.436" height="85.437" filterUnits="userSpaceOnUse">
      <feOffset dy="3" input="SourceAlpha"/>
      <feGaussianBlur stdDeviation="3" result="blur-9"/>
      <feFlood flood-color="#ffb74d"/>
      <feComposite operator="in" in2="blur-9"/>
      <feComposite in="SourceGraphic"/>
    </filter>
    <filter id="Elipse_1408-9" x="379.282" y="517.282" width="85.436" height="85.437" filterUnits="userSpaceOnUse">
      <feOffset dy="3" input="SourceAlpha"/>
      <feGaussianBlur stdDeviation="3" result="blur-10"/>
      <feFlood flood-color="#ffb74d"/>
      <feComposite operator="in" in2="blur-10"/>
      <feComposite in="SourceGraphic"/>
    </filter>
    <filter id="Elipse_1408-10" x="318.282" y="414.282" width="85.436" height="85.437" filterUnits="userSpaceOnUse">
      <feOffset dy="3" input="SourceAlpha"/>
      <feGaussianBlur stdDeviation="3" result="blur-11"/>
      <feFlood flood-color="#fb0"/>
      <feComposite operator="in" in2="blur-11"/>
      <feComposite in="SourceGraphic"/>
    </filter>
    <filter id="Elipse_1408-11" x="313.282" y="291.282" width="85.436" height="85.437" filterUnits="userSpaceOnUse">
      <feOffset dy="3" input="SourceAlpha"/>
      <feGaussianBlur stdDeviation="3" result="blur-12"/>
      <feFlood flood-color="#ffc571"/>
      <feComposite operator="in" in2="blur-12"/>
      <feComposite in="SourceGraphic"/>
    </filter>
    <filter id="Elipse_1408-12" x="471.282" y="95.282" width="85.436" height="85.437" filterUnits="userSpaceOnUse">
      <feOffset dy="3" input="SourceAlpha"/>
      <feGaussianBlur stdDeviation="3" result="blur-13"/>
      <feFlood flood-color="#ffb74d"/>
      <feComposite operator="in" in2="blur-13"/>
      <feComposite in="SourceGraphic"/>
    </filter>
    <filter id="Elipse_1408-13" x="797.282" y="216.282" width="85.436" height="85.437" filterUnits="userSpaceOnUse">
      <feOffset dy="3" input="SourceAlpha"/>
      <feGaussianBlur stdDeviation="3" result="blur-14"/>
      <feFlood flood-color="#ffb74d"/>
      <feComposite operator="in" in2="blur-14"/>
      <feComposite in="SourceGraphic"/>
    </filter>
    <filter id="Elipse_1408-14" x="836.282" y="326.282" width="85.436" height="85.437" filterUnits="userSpaceOnUse">
      <feOffset dy="3" input="SourceAlpha"/>
      <feGaussianBlur stdDeviation="3" result="blur-15"/>
      <feFlood flood-color="#fb0"/>
      <feComposite operator="in" in2="blur-15"/>
      <feComposite in="SourceGraphic"/>
    </filter>
  </defs>
  <g id="Grupo_56137" data-name="Grupo 56137" transform="translate(-180 -5567)">
    <g id="Grupo_56136" data-name="Grupo 56136">
      <g id="Grupo_55929" data-name="Grupo 55929" transform="translate(46.667 96.5)">
        <path id="Trazado_102054" data-name="Trazado 102054" d="M-8596.3-6088.5l-14.912,230.237-94.119-203.561" transform="translate(9368.091 11700)" fill="none" stroke="#e5e5e5" stroke-width="3"/>
        <path id="Trazado_102055" data-name="Trazado 102055" d="M-8825.079-5973l183.862,132.15-225.45-27.36" transform="translate(9397 11679.304)" fill="none" stroke="#e5e5e5" stroke-width="3"/>
        <path id="Trazado_102056" data-name="Trazado 102056" d="M-8865-5737.067l224.082-73.6-169.635,161.973" transform="translate(9396.701 11650.215)" fill="none" stroke="#e5e5e5" stroke-width="3"/>
        <path id="Trazado_102057" data-name="Trazado 102057" d="M-8692-5597.769-8608.824-5812l27.36,229.827" transform="translate(9365.701 11650.454)" fill="none" stroke="#e5e5e5" stroke-width="3"/>
        <path id="Trazado_102058" data-name="Trazado 102058" d="M-8473.8-5618.631l-118.2-190.7,194.806,101.78" transform="translate(9347.782 11649.976)" fill="none" stroke="#e5e5e5" stroke-width="3"/>
        <path id="Trazado_102059" data-name="Trazado 102059" d="M-8371.44-5833.742h-221.893l190.429-99.592" transform="translate(9348.021 11672.196)" fill="none" stroke="#e5e5e5" stroke-width="3"/>
        <path id="Trazado_102060" data-name="Trazado 102060" d="M-8475.684-6037l-117.649,186.872" transform="translate(9348.021 11690.771)" fill="none" stroke="#e5e5e5" stroke-width="3"/>
      </g>
      <circle id="Elipse_1410" data-name="Elipse 1410" cx="109" cy="109" r="109" transform="translate(691 5836)" fill="#ffee58"/>
      <g transform="matrix(1, 0, 0, 1, 180, 5567)" filter="url(#Trazado_102025)">
        <g id="Trazado_102025-2" data-name="Trazado 102025" transform="translate(539.83 297.83)" fill="#fff">
          <path d="M 80.17339324951172 165.3467864990234 C 74.39776611328125 165.3467864990234 68.624267578125 164.7646179199219 63.0132942199707 163.6164398193359 C 57.54234313964844 162.4969482421875 52.16094207763672 160.8264465332031 47.0185432434082 158.6513977050781 C 41.9705924987793 156.5162963867188 37.10221862792969 153.8738708496094 32.54866790771484 150.7975463867188 C 28.03964233398438 147.7513122558594 23.79974365234375 144.2531127929688 19.94671821594238 140.4001007080078 C 16.09369277954102 136.5470428466797 12.59546852111816 132.3071441650391 9.549242973327637 127.7981414794922 C 6.472918033599854 123.2445678710938 3.830493211746216 118.376220703125 1.695393204689026 113.3282699584961 C -0.4796567559242249 108.1858444213867 -2.150156736373901 102.804443359375 -3.269656658172607 97.33351898193359 C -4.417831897735596 91.72251892089844 -5.000006675720215 85.94904327392578 -5.000006675720215 80.17339324951172 C -5.000006675720215 74.39776611328125 -4.417831897735596 68.624267578125 -3.269656658172607 63.0132942199707 C -2.150156736373901 57.54234313964844 -0.4796567559242249 52.16094207763672 1.695393204689026 47.0185432434082 C 3.830493211746216 41.9705924987793 6.472918033599854 37.10221862792969 9.549242973327637 32.54866790771484 C 12.59546852111816 28.03964233398438 16.09369277954102 23.79974365234375 19.94671821594238 19.94671821594238 C 23.79974365234375 16.09369277954102 28.03964233398438 12.59546852111816 32.54866790771484 9.549242973327637 C 37.10221862792969 6.472918033599854 41.9705924987793 3.830493211746216 47.0185432434082 1.695393204689026 C 52.16094207763672 -0.4796567559242249 57.54234313964844 -2.150156736373901 63.0132942199707 -3.269656658172607 C 68.624267578125 -4.417831897735596 74.39776611328125 -5.000006675720215 80.17339324951172 -5.000006675720215 C 85.94904327392578 -5.000006675720215 91.72251892089844 -4.417831897735596 97.33351898193359 -3.269656658172607 C 102.804443359375 -2.150156736373901 108.1858444213867 -0.4796567559242249 113.3282699584961 1.695393204689026 C 118.376220703125 3.830493211746216 123.2445678710938 6.472918033599854 127.7981414794922 9.549242973327637 C 132.3071441650391 12.59546852111816 136.5470428466797 16.09369277954102 140.4001007080078 19.94671821594238 C 144.2531127929688 23.79974365234375 147.7513122558594 28.03964233398438 150.7975463867188 32.54866790771484 C 153.8738708496094 37.10221862792969 156.5162963867188 41.9705924987793 158.6513977050781 47.0185432434082 C 160.8264465332031 52.16094207763672 162.4969482421875 57.54234313964844 163.6164398193359 63.0132942199707 C 164.7646179199219 68.624267578125 165.3467864990234 74.39776611328125 165.3467864990234 80.17339324951172 C 165.3467864990234 85.94904327392578 164.7646179199219 91.72251892089844 163.6164398193359 97.33351898193359 C 162.4969482421875 102.804443359375 160.8264465332031 108.1858444213867 158.6513977050781 113.3282699584961 C 156.5162963867188 118.376220703125 153.8738708496094 123.2445678710938 150.7975463867188 127.7981414794922 C 147.7513122558594 132.3071441650391 144.2531127929688 136.5470428466797 140.4001007080078 140.4001007080078 C 136.5470428466797 144.2531127929688 132.3071441650391 147.7513122558594 127.7981414794922 150.7975463867188 C 123.2445678710938 153.8738708496094 118.376220703125 156.5162963867188 113.3282699584961 158.6513977050781 C 108.1858444213867 160.8264465332031 102.804443359375 162.4969482421875 97.33351898193359 163.6164398193359 C 91.72251892089844 164.7646179199219 85.94904327392578 165.3467864990234 80.17339324951172 165.3467864990234 Z" stroke="none"/>
          <path d="M 80.17339324951172 -1.52587890625e-05 C 35.89485931396484 -1.52587890625e-05 -1.52587890625e-05 35.89485931396484 -1.52587890625e-05 80.17339324951172 C -1.52587890625e-05 124.4519500732422 35.89485931396484 160.3467712402344 80.17339324951172 160.3467712402344 C 124.4519500732422 160.3467712402344 160.3467712402344 124.4519500732422 160.3467712402344 80.17339324951172 C 160.3467712402344 35.89485931396484 124.4519500732422 -1.52587890625e-05 80.17339324951172 -1.52587890625e-05 M 80.17339324951172 -10.00001525878906 C 129.8951721191406 -10.00001525878906 170.3467712402344 30.45161437988281 170.3467712402344 80.17339324951172 C 170.3467712402344 129.8951721191406 129.8951721191406 170.3467712402344 80.17339324951172 170.3467712402344 C 30.45161437988281 170.3467712402344 -10.00001525878906 129.8951721191406 -10.00001525878906 80.17339324951172 C -10.00001525878906 30.45161437988281 30.45161437988281 -10.00001525878906 80.17339324951172 -10.00001525878906 Z" stroke="none" fill="#e6e6e6"/>
        </g>
      </g>
      <path id="Trazado_102413" data-name="Trazado 102413" d="M9.733,14.474H8.063V19H4.978V6.2h5.036a5.621,5.621,0,0,1,3.56,1.01,3.421,3.421,0,0,1,1.283,2.853,4.155,4.155,0,0,1-.541,2.213A3.837,3.837,0,0,1,12.625,13.7L15.3,18.868V19h-3.3ZM8.063,12.1h1.951a1.751,1.751,0,0,0,1.323-.463,1.788,1.788,0,0,0,.444-1.291,1.809,1.809,0,0,0-.448-1.3,1.735,1.735,0,0,0-1.318-.471H8.063Zm16.594,1.468H19.805v3.059h5.73V19H16.72V6.2h8.833V8.585H19.805v2.7h4.852Zm12.489,1.1a4.673,4.673,0,0,1-.721,2.36,4.35,4.35,0,0,1-1.85,1.586,6.3,6.3,0,0,1-2.72.563,5.025,5.025,0,0,1-3.973-1.644,6.786,6.786,0,0,1-1.45-4.641v-.633a7.746,7.746,0,0,1,.655-3.292,4.961,4.961,0,0,1,1.885-2.18,5.26,5.26,0,0,1,2.848-.769,5.516,5.516,0,0,1,3.744,1.226,4.844,4.844,0,0,1,1.608,3.379H34.1a2.292,2.292,0,0,0-.589-1.679,2.422,2.422,0,0,0-1.687-.51,1.843,1.843,0,0,0-1.687.861,5.536,5.536,0,0,0-.562,2.751v.905a6.126,6.126,0,0,0,.514,2.927,1.882,1.882,0,0,0,1.771.879,2.369,2.369,0,0,0,1.626-.5,2.126,2.126,0,0,0,.6-1.591Zm9.4-1.1H41.69v3.059h5.73V19H38.6V6.2h8.833V8.585H41.69v2.7h4.852Zm5.221,1.09V19H48.677V6.2h5.106a5.948,5.948,0,0,1,2.6.541A4.074,4.074,0,0,1,58.13,8.282a4.2,4.2,0,0,1,.62,2.263,3.7,3.7,0,0,1-1.34,2.993,5.561,5.561,0,0,1-3.678,1.121Zm0-2.382h2.021a1.906,1.906,0,0,0,1.367-.448,1.665,1.665,0,0,0,.47-1.266,2.059,2.059,0,0,0-.483-1.433,1.712,1.712,0,0,0-1.318-.545H51.762Zm18.984,2.391a4.673,4.673,0,0,1-.721,2.36,4.35,4.35,0,0,1-1.85,1.586,6.3,6.3,0,0,1-2.72.563,5.025,5.025,0,0,1-3.973-1.644,6.786,6.786,0,0,1-1.45-4.641v-.633a7.746,7.746,0,0,1,.655-3.292,4.961,4.961,0,0,1,1.885-2.18,5.26,5.26,0,0,1,2.848-.769,5.516,5.516,0,0,1,3.744,1.226,4.844,4.844,0,0,1,1.608,3.379H67.7a2.292,2.292,0,0,0-.589-1.679,2.422,2.422,0,0,0-1.687-.51,1.843,1.843,0,0,0-1.687.861,5.536,5.536,0,0,0-.562,2.751v.905a6.126,6.126,0,0,0,.514,2.927,1.882,1.882,0,0,0,1.771.879,2.369,2.369,0,0,0,1.626-.5,2.126,2.126,0,0,0,.6-1.591ZM75.493,19H72.417V6.2h3.076Zm12.981-6.135a7.546,7.546,0,0,1-.694,3.313A5.132,5.132,0,0,1,85.807,18.4a5.494,5.494,0,0,1-2.914.778,5.572,5.572,0,0,1-2.9-.751,5.123,5.123,0,0,1-1.973-2.149,7.329,7.329,0,0,1-.743-3.208v-.721a7.58,7.58,0,0,1,.69-3.318A5.119,5.119,0,0,1,79.944,6.81,5.854,5.854,0,0,1,85.776,6.8,5.211,5.211,0,0,1,87.758,9a7.362,7.362,0,0,1,.716,3.274Zm-3.138-.536a5.381,5.381,0,0,0-.637-2.9,2.044,2.044,0,0,0-1.824-.989q-2.32,0-2.452,3.48l-.009.94a5.535,5.535,0,0,0,.624,2.892,2.041,2.041,0,0,0,1.854,1.011,2.016,2.016,0,0,0,1.8-.993,5.383,5.383,0,0,0,.642-2.856ZM100.752,19H97.685L93.15,11.037V19H90.065V6.2H93.15l4.526,7.963V6.2h3.076Zm5.238,0h-3.076V6.2h3.076Zm8.745-3.4a1.268,1.268,0,0,0-.479-1.055,5.954,5.954,0,0,0-1.683-.782,16.147,16.147,0,0,1-1.969-.782q-2.487-1.222-2.487-3.357a3.011,3.011,0,0,1,.62-1.876,4.008,4.008,0,0,1,1.753-1.266,6.823,6.823,0,0,1,2.549-.453,5.969,5.969,0,0,1,2.474.492,3.917,3.917,0,0,1,1.7,1.4A3.661,3.661,0,0,1,117.821,10h-3.076a1.547,1.547,0,0,0-.479-1.213,1.867,1.867,0,0,0-1.3-.431,2.106,2.106,0,0,0-1.305.365,1.074,1.074,0,0,0,.048,1.819,6.65,6.65,0,0,0,1.854.826,11.36,11.36,0,0,1,2.18.918,3.663,3.663,0,0,1,2.074,3.3,3.125,3.125,0,0,1-1.266,2.637,5.629,5.629,0,0,1-3.472.958,6.888,6.888,0,0,1-2.817-.558,4.247,4.247,0,0,1-1.9-1.529,3.985,3.985,0,0,1-.637-2.237h3.094a1.963,1.963,0,0,0,.532,1.516,2.513,2.513,0,0,0,1.727.488,1.985,1.985,0,0,0,1.208-.33A1.088,1.088,0,0,0,114.736,15.6Zm14.713-7.014h-3.841V19h-3.085V8.585h-3.771V6.2h10.7Zm7.515,8.024h-4.228L132,19h-3.3L133.4,6.2h2.9L141.024,19H137.71Zm-3.489-2.382h2.751l-1.38-4.438ZM29.085,35.479h-1.3L27.171,39H24.833l1.723-9.953,3.514.007a3.861,3.861,0,0,1,2.6.789A2.454,2.454,0,0,1,33.487,32a3.211,3.211,0,0,1-.622,1.786A3.662,3.662,0,0,1,31.334,34.9l1.34,3.984V39h-2.5ZM28.1,33.634l1.367.014a1.722,1.722,0,0,0,.974-.274,1.509,1.509,0,0,0,.591-.75,1.764,1.764,0,0,0,.1-.922.918.918,0,0,0-.971-.8l-1.586-.007Zm12.394,1.142H36.837l-.417,2.379h4.327L40.426,39H33.761l1.723-9.953h6.679L41.841,30.9H37.507L37.138,33H40.8Zm9.276.834a3.589,3.589,0,0,1-.687,1.859,3.886,3.886,0,0,1-1.572,1.251,4.868,4.868,0,0,1-2.109.417,3.278,3.278,0,0,1-2.454-1,4.039,4.039,0,0,1-.978-2.632,8.571,8.571,0,0,1,.243-2.413,6.378,6.378,0,0,1,.991-2.273,4.554,4.554,0,0,1,1.62-1.449,4.206,4.206,0,0,1,2.041-.461,3.56,3.56,0,0,1,2.574.978A3.827,3.827,0,0,1,50.468,32.5l-2.331-.007a1.917,1.917,0,0,0-.328-1.3,1.44,1.44,0,0,0-1.08-.417q-1.846-.062-2.249,2.871a15.776,15.776,0,0,0-.185,1.894q-.034,1.682,1.244,1.729a1.826,1.826,0,0,0,1.319-.407,2.034,2.034,0,0,0,.629-1.227Zm7.376-.834H53.489l-.417,2.379H57.4L57.078,39H50.413l1.723-9.953h6.679L58.493,30.9H54.159L53.79,33h3.664Zm3.862.841L60.421,39H58.083l1.723-9.953,3.575.007A3.6,3.6,0,0,1,66,29.976a2.841,2.841,0,0,1,.837,2.39,3.25,3.25,0,0,1-.643,1.741,3.559,3.559,0,0,1-1.48,1.127,5.239,5.239,0,0,1-2.061.389Zm.321-1.846,1.408.014a1.666,1.666,0,0,0,1.736-1.953,1.052,1.052,0,0,0-.318-.661,1.089,1.089,0,0,0-.694-.271l-1.634-.007ZM75.986,30.9h-2.9l-1.4,8.1H69.342l1.408-8.1H67.9l.328-1.853h8.08ZM78.112,39H75.774L77.5,29.047h2.331Zm5.776.137A3.371,3.371,0,0,1,81.4,38.111a4.176,4.176,0,0,1-1.06-2.652,7.582,7.582,0,0,1,.13-1.931,6.785,6.785,0,0,1,.7-2.047,5.153,5.153,0,0,1,1.265-1.559,4.325,4.325,0,0,1,2.926-1.012,3.6,3.6,0,0,1,1.781.468,3.266,3.266,0,0,1,1.22,1.289,4.628,4.628,0,0,1,.533,1.914,7.845,7.845,0,0,1-.092,1.726,7.113,7.113,0,0,1-.54,1.846A5.642,5.642,0,0,1,87.252,37.7a4.67,4.67,0,0,1-1.466,1.063A4.241,4.241,0,0,1,83.889,39.137Zm2.666-6.576q-.068-1.709-1.326-1.777a1.83,1.83,0,0,0-1.606.769,4.937,4.937,0,0,0-.841,2.41,8.412,8.412,0,0,0-.1,1.524q.068,1.736,1.34,1.784a1.775,1.775,0,0,0,1.436-.6,3.869,3.869,0,0,0,.868-1.859A8.932,8.932,0,0,0,86.555,32.561ZM97.3,39H95.038l-2.379-6.282L91.565,39H89.228l1.723-9.953h2.283l2.372,6.282,1.087-6.282H99.03Zm4.026,0H98.989l1.729-9.953h2.331Zm7.137-2.693q.15-.772-.834-1.2l-1.121-.465q-2.358-1.06-2.242-2.885a2.546,2.546,0,0,1,.574-1.487,3.411,3.411,0,0,1,1.456-1.015,5.358,5.358,0,0,1,2.03-.349,3.453,3.453,0,0,1,2.375.861,2.862,2.862,0,0,1,.885,2.235h-2.324a1.393,1.393,0,0,0-.243-.919,1.051,1.051,0,0,0-.865-.359,1.812,1.812,0,0,0-1.039.273,1.109,1.109,0,0,0-.533.772q-.13.684,1.015,1.121a11.163,11.163,0,0,1,1.665.752,2.749,2.749,0,0,1,1.531,2.639,2.7,2.7,0,0,1-.554,1.511,3.2,3.2,0,0,1-1.384,1,5.115,5.115,0,0,1-1.986.342,4.794,4.794,0,0,1-1.5-.253,3.294,3.294,0,0,1-1.183-.7,3.029,3.029,0,0,1-.957-2.427l2.345.007a1.605,1.605,0,0,0,.294,1.159,1.412,1.412,0,0,0,1.128.393,1.693,1.693,0,0,0,.981-.27A1.121,1.121,0,0,0,108.464,36.307Zm12.1-5.407h-2.9l-1.4,8.1h-2.345l1.408-8.1h-2.851l.328-1.853h8.08Z" transform="translate(727.5 5953)" fill="#12263f"/>
      <g id="Filled_outline" data-name="Filled outline" transform="translate(750 5865)">
        <path id="Trazado_102026" data-name="Trazado 102026" d="M291.912,135.767h-1.091A10.821,10.821,0,0,1,280,124.945V112h22.733v12.945a10.821,10.821,0,0,1-10.821,10.821Z" transform="translate(-229.9 -83.6)" fill="#ffee58"/>
        <path id="Trazado_102027" data-name="Trazado 102027" d="M24,456H59.133v4.133H24Z" transform="translate(-6.967 -383.167)" fill="#95573a"/>
        <path id="Trazado_102028" data-name="Trazado 102028" d="M76.133,344H72v2.067h1.033V350.2H75.1v-4.133h1.033Z" transform="translate(-48.767 -285.633)" fill="#f7a116"/>
        <rect id="Rectángulo_5567" data-name="Rectángulo 5567" width="16" height="3" rx="1.5" transform="translate(18 69)" fill="#ffb74d"/>
        <path id="Trazado_102029" data-name="Trazado 102029" d="M52.4,382.2H40a6.2,6.2,0,1,1,12.4,0Z" transform="translate(-20.9 -313.5)" fill="#ffb74d"/>
        <path id="Trazado_102030" data-name="Trazado 102030" d="M80.066,391.161h-8.3A17.4,17.4,0,0,0,77.7,386.29a6.207,6.207,0,0,1,2.364,4.871Z" transform="translate(-48.566 -322.461)" fill="#ff9800"/>
        <path id="Trazado_102031" data-name="Trazado 102031" d="M68.309,424H65.363a24.37,24.37,0,0,1-7.094,4.133h10.04a2.067,2.067,0,1,0,0-4.133Z" transform="translate(-36.809 -355.3)" fill="#ff9800"/>
        <path id="Trazado_102032" data-name="Trazado 102032" d="M232.037,224.267h-6.2V216h-8.267v8.267h-6.627a6.2,6.2,0,0,0-5.983,4.574L200.1,246.729a3.6,3.6,0,0,0,6.962,1.8l3.433-9.444a8.313,8.313,0,0,0,1.912,6.885v5.167h24.8v-21.7A5.167,5.167,0,0,0,232.037,224.267Z" transform="translate(-160.237 -174.167)" fill="#fec9a3"/>
        <path id="Trazado_102033" data-name="Trazado 102033" d="M340.756,221.167a5.67,5.67,0,0,0,3.51-1.267V216H336v3.9a5.67,5.67,0,0,0,3.51,1.267Z" transform="translate(-278.667 -174.167)" fill="#feb784"/>
        <path id="Trazado_102034" data-name="Trazado 102034" d="M314.6,56.267V63.5a9.3,9.3,0,0,1-9.3,9.3,9.192,9.192,0,0,1-1.273-.088h0A9.3,9.3,0,0,1,296,63.5V56.267A8.267,8.267,0,0,1,304.267,48h2.067c.2,0,.394.006.589.022A8.263,8.263,0,0,1,314.6,56.267Z" transform="translate(-243.833 -27.867)" fill="#fec9a3"/>
        <path id="Trazado_102035" data-name="Trazado 102035" d="M368.722,56.415v7.233a9.3,9.3,0,0,1-9.3,9.3,9.191,9.191,0,0,1-1.273-.088,11.367,11.367,0,0,0,6.439-10.246v-6.2a11.326,11.326,0,0,0-3.33-8.037c-.071-.071-.142-.139-.214-.208A8.264,8.264,0,0,1,368.722,56.415Z" transform="translate(-297.956 -28.015)" fill="#fec093"/>
        <path id="Trazado_102036" data-name="Trazado 102036" d="M440,112h1.033a3.1,3.1,0,1,1,0,6.2H440Z" transform="translate(-369.233 -83.6)" fill="#feb784"/>
        <path id="Trazado_102037" data-name="Trazado 102037" d="M0,0H1.033a3.1,3.1,0,0,1,0,6.2H0Z" transform="translate(52.167 34.6) rotate(180)" fill="#feb784"/>
        <path id="Trazado_102038" data-name="Trazado 102038" d="M301.883,307.9v-6.2a8.019,8.019,0,0,0,0-10.333V280h-3.1v8.267h-12.4V280h-3.1v11.367a8.019,8.019,0,0,0,0,10.333v6.2" transform="translate(-231.117 -229.9)" fill="#5f9548"/>
        <path id="Trazado_102039" data-name="Trazado 102039" d="M237.207,285.167V307.9h-24.8v-6.2a8.314,8.314,0,0,1-1.912-6.886l-3.433,9.445a3.6,3.6,0,0,1-6.961-1.8l4.862-17.888A6.2,6.2,0,0,1,210.946,280h4.561l6.2,17.567,6.2-17.567h4.133A5.167,5.167,0,0,1,237.207,285.167Z" transform="translate(-160.24 -229.9)" fill="#111e61"/>
        <path id="Trazado_102040" data-name="Trazado 102040" d="M320.8,328.62v21.62H296v-1.05C306.021,345.147,314.191,340.625,320.8,328.62Z" transform="translate(-243.833 -272.24)" fill="#182c94"/>
        <path id="Trazado_102041" data-name="Trazado 102041" d="M292.133,280,288,283.1l5.167,3.1-2.067,2.067,7.233,9.3Z" transform="translate(-236.867 -229.9)" fill="#4c5d72"/>
        <path id="Trazado_102042" data-name="Trazado 102042" d="M374.2,280l4.133,4.133-5.167,2.067,2.067,2.067-7.233,9.3Z" transform="translate(-306.533 -229.9)" fill="#4c5d72"/>
        <path id="Trazado_102043" data-name="Trazado 102043" d="M392,392h8.267v4.133H392Z" transform="translate(-327.433 -327.433)" fill="#ff9800"/>
        <path id="Trazado_102044" data-name="Trazado 102044" d="M392,408h8.267v2.067H392Z" transform="translate(-327.433 -341.367)" fill="#ffc571"/>
        <path id="Trazado_102045" data-name="Trazado 102045" d="M200,393.956V384h6.2l.745,9.689a3.478,3.478,0,1,1-6.945.267Z" transform="translate(-160.233 -320.467)" fill="#182c94"/>
        <path id="Trazado_102046" data-name="Trazado 102046" d="M153.664,266.893a2.01,2.01,0,0,0-1.31,2.849l.946,1.891h-3.7a6.2,6.2,0,0,1-2.773-.655l-1.03-.515A1.24,1.24,0,0,0,144,271.573v2.916a2.067,2.067,0,0,0,1.142,1.848l1.682.841a6.2,6.2,0,0,0,2.773.654h7.836v-6.2l-1.415-3.537A2.01,2.01,0,0,0,153.664,266.893Z" transform="translate(-111.467 -218.433)" fill="#fec9a3"/>
        <path id="Trazado_102047" data-name="Trazado 102047" d="M200,352h6.2v4.133H200Z" transform="translate(-160.233 -292.6)" fill="#5f9548"/>
        <path id="Trazado_102048" data-name="Trazado 102048" d="M310.924,49.391c-3.876,5.1-10.145,7.346-14.924,8.339V56.267A8.267,8.267,0,0,1,304.267,48h2.067c.2,0,.394.006.589.022A8.226,8.226,0,0,1,310.924,49.391Z" transform="translate(-243.833 -27.867)" fill="#fec093"/>
        <path id="Trazado_102049" data-name="Trazado 102049" d="M302.733,34.333v1.033h-2.067l-4.133-5.787L295.5,28.133l-1.389,1.389a20.09,20.09,0,0,1-12.045,5.845,6.738,6.738,0,0,1-.686.031c-.457,0-.918-.031-1.381-.031V34.333A10.333,10.333,0,0,1,290.333,24H292.4a10.28,10.28,0,0,1,2.067.208,10.081,10.081,0,0,1,2.067.654A10.334,10.334,0,0,1,302.733,34.333Z" transform="translate(-229.9 -6.967)" fill="#ffee58"/>
        <path id="Trazado_102050" data-name="Trazado 102050" d="M394.067,26.264v4.718l-1.033-1.447L392,30.569V25.61a10.082,10.082,0,0,1,2.067.654Z" transform="translate(-327.433 -8.369)" fill="#ffee58"/>
        <ellipse id="Elipse_1411" data-name="Elipse 1411" cx="2" cy="1.5" rx="2" ry="1.5" transform="translate(55 31)"/>
        <circle id="Elipse_1412" data-name="Elipse 1412" cx="1.5" cy="1.5" r="1.5" transform="translate(65 31)"/>
        <path id="Trazado_102051" data-name="Trazado 102051" d="M347.1,177.033A1.034,1.034,0,0,1,346.067,176H344a3.1,3.1,0,1,0,6.2,0h-2.067a1.034,1.034,0,0,1-1.033,1.033Z" transform="translate(-285.633 -139.333)"/>
        <path id="Trazado_102052" data-name="Trazado 102052" d="M328,432h2.067v2.067H328Z" transform="translate(-271.7 -362.267)"/>
        <path id="Trazado_102053" data-name="Trazado 102053" d="M71.8,49.067H71a12.059,12.059,0,0,0,1.61-2.418,11.845,11.845,0,0,0,1.257-5.3v-6.27a4.129,4.129,0,0,0,0-7.155v-.557A11.38,11.38,0,0,0,62.5,16H60.433A11.38,11.38,0,0,0,49.067,27.367v.556a4.129,4.129,0,0,0,0,7.155v6.27a11.845,11.845,0,0,0,1.257,5.3,12.06,12.06,0,0,0,1.61,2.419H50.706a7.253,7.253,0,0,0-4.613,1.666l-.581-1.455a3.044,3.044,0,1,0-5.548,2.492l.2.4H38.13a5.193,5.193,0,0,1-2.311-.545l-1.03-.515A2.273,2.273,0,0,0,31.5,53.14v2.916a3.083,3.083,0,0,0,1.714,2.773l1.682.841a7.27,7.27,0,0,0,3.235.764h.6V71.8H34.422a3.1,3.1,0,0,0-1.944-3.974,7.246,7.246,0,0,0-6.145-6.284V60.433h1.033V58.367H23.233v2.067h1.033v1.108a7.246,7.246,0,0,0-6.145,6.284A3.1,3.1,0,0,0,16.3,72.1a1.03,1.03,0,0,0-.3.731v4.133A1.033,1.033,0,0,0,17.033,78H53.2V71.8a1.033,1.033,0,0,0-.242-.665,8.1,8.1,0,0,1-1.844-6.369,1.033,1.033,0,0,0-1.982-.562l-1.724,4.6L47,63.493V53.2a1.033,1.033,0,0,0-.074-.384l-.011-.027a5.185,5.185,0,0,1,3.791-1.656h1.46l-1.653,1.24a1.033,1.033,0,0,0,.088,1.713l4.032,2.419L53.5,57.636A1.033,1.033,0,0,0,53.418,59l7.015,9.02V78H62.5V68.021l1.033-1.329V68.7a1.033,1.033,0,0,0,1.033,1.033H70.9a7.3,7.3,0,0,1-.927,1.4,1.033,1.033,0,0,0-.244.667V78H71.8V72.166a9.374,9.374,0,0,0,1.384-2.495,1.033,1.033,0,0,0,.682-.971V64.567a1.033,1.033,0,0,0-.542-.91A8.651,8.651,0,0,0,71.733,60.8l-1.58,1.332a6.568,6.568,0,0,1,.9,1.4H65.991L69.516,59a1.033,1.033,0,0,0-.085-1.365l-.959-.959,3.712-1.485a1.033,1.033,0,0,0,.347-1.69l-2.369-2.369H71.8a4.138,4.138,0,0,1,4.133,4.133V78H78V55.267a6.207,6.207,0,0,0-6.2-6.2Zm-33.67,9.3a5.193,5.193,0,0,1-2.311-.545l-1.682-.841a1.028,1.028,0,0,1-.571-.924V53.14a.207.207,0,0,1,.3-.185l1.03.515a7.27,7.27,0,0,0,3.235.764h3.7a1.033,1.033,0,0,0,.924-1.5l-.946-1.892a.977.977,0,1,1,1.78-.8L44.933,53.4v4.968Zm6.8,2.067V62.5H40.8V60.433ZM25.3,63.533a5.176,5.176,0,0,1,5.063,4.133H20.237A5.176,5.176,0,0,1,25.3,63.533Zm-6.2,6.2H31.5a1.033,1.033,0,0,1,0,2.067H19.1a1.033,1.033,0,1,1,0-2.067Zm-1.033,6.2V73.867H38.75a4.479,4.479,0,0,0,.706,2.067Zm26.971-.784a2.419,2.419,0,0,1-1.794.784A2.447,2.447,0,0,1,40.8,73.489V64.567h4.21l.672,8.735A2.419,2.419,0,0,1,45.038,75.15ZM49.5,69.1a10.773,10.773,0,0,0,1.362,2.7H48.491Zm-1.765,4.766h3.392l-.005,2.067H47.034A4.533,4.533,0,0,0,47.739,73.867ZM73.867,31.5A2.069,2.069,0,0,1,71.8,33.567V29.433A2.069,2.069,0,0,1,73.867,31.5ZM60.433,18.067H62.5a9.31,9.31,0,0,1,9.3,9.3h-.5l-4.858-6.8a1.033,1.033,0,0,0-1.572-.13l-1.388,1.388a18.786,18.786,0,0,1-12.348,5.515,9.31,9.31,0,0,1,9.3-9.273Zm9.3,10.665v6.9a8.267,8.267,0,1,1-16.533,0V29.207a20.834,20.834,0,0,0,11.743-5.922l.525-.525ZM49.067,31.5a2.069,2.069,0,0,1,2.067-2.067v4.133A2.069,2.069,0,0,1,49.067,31.5Zm2.067,9.848V35.633A10.266,10.266,0,0,0,56.3,44.579v4.488H54.909a9.879,9.879,0,0,1-2.739-3.348A9.769,9.769,0,0,1,51.133,41.348ZM52.983,53.1l1.778-1.334,1.075,3.045Zm2.626,5.347,1.116-1.116,1.648,4.67Zm5.858,6.11L59.645,59.4h3.644Zm-2.551-7.228-2.188-6.2h.606A1.033,1.033,0,0,0,58.367,50.1V45.489a10.3,10.3,0,0,0,6.2,0V50.1A1.033,1.033,0,0,0,65.6,51.133h.606l-2.188,6.2ZM71.8,65.6v2.067H65.6V65.6Zm-7.24-3.594,1.648-4.669,1.116,1.116Zm2.462-6.974L68.1,51.99l1.866,1.866Zm1-5.965H66.633V44.579A10.266,10.266,0,0,0,71.8,35.633v5.714a9.768,9.768,0,0,1-1.037,4.371A9.878,9.878,0,0,1,68.024,49.067Z" transform="translate(0)"/>
      </g>
      <g id="Grupo_55997" data-name="Grupo 55997" transform="translate(-1 67)">
        <g id="Grupo_55913" data-name="Grupo 55913" transform="translate(774.796 5572.53)">
          <circle id="Elipse_1410-2" data-name="Elipse 1410" cx="45" cy="45" r="45" transform="translate(0.205 0.47)" fill="#ffee58"/>
          <g transform="matrix(1, 0, 0, 1, -593.8, -72.53)" filter="url(#Elipse_1408)">
            <g id="Elipse_1408-15" data-name="Elipse 1408" transform="translate(609.28 88.28)" fill="#fff" stroke="#e6e6e6" stroke-width="4">
              <circle cx="29.718" cy="29.718" r="29.718" stroke="none"/>
              <circle cx="29.718" cy="29.718" r="31.718" fill="none"/>
            </g>
          </g>
        </g>
        <g id="cashier" transform="translate(805.5 5601.5)">
          <path id="Trazado_102061" data-name="Trazado 102061" d="M211.864,422.729h3.457a.864.864,0,0,0,0-1.729h-3.457a.864.864,0,0,0,0,1.729Z" transform="translate(-198.593 -396.243)" fill="#111e61"/>
          <path id="Trazado_102062" data-name="Trazado 102062" d="M29.121,0H15a.879.879,0,0,0-.879.879V7.91A.879.879,0,0,0,15,8.789h6.152v1.758H12.363V7.91a.879.879,0,0,0-.879-.879H6.211a.879.879,0,0,0-.879.879v2.637h-2.7a.879.879,0,0,0-.867.735L.012,21.888A1.338,1.338,0,0,0,0,22.031v7.09A.879.879,0,0,0,.879,30H29.121A.879.879,0,0,0,30,29.121v-7.09a1.4,1.4,0,0,0-.012-.144L28.23,11.282a.879.879,0,0,0-.867-.735H22.91V8.789h6.211A.879.879,0,0,0,30,7.91V.879A.879.879,0,0,0,29.121,0ZM7.09,8.789h3.516v8.848H7.09ZM28.242,28.242H1.758V22.91H28.242Zm-.158-7.09H1.915L3.382,12.3h1.95v5.332H4.453a.879.879,0,1,0,0,1.758h8.789a.879.879,0,0,0,0-1.758h-.879V12.3H26.618Zm.158-14.121H15.879V1.758H28.242Z" transform="translate(0)" fill="#111e61"/>
          <path id="Trazado_102063" data-name="Trazado 102063" d="M273.593,241h-1.729a.864.864,0,0,0,0,1.729h1.729a.864.864,0,0,0,0-1.729Z" transform="translate(-255.086 -226.864)" fill="#111e61"/>
          <path id="Trazado_102064" data-name="Trazado 102064" d="M273.593,301h-1.729a.864.864,0,0,0,0,1.729h1.729a.864.864,0,0,0,0-1.729Z" transform="translate(-255.086 -283.345)" fill="#111e61"/>
          <path id="Trazado_102065" data-name="Trazado 102065" d="M361,241.864a.864.864,0,0,0,.864.864h1.729a.864.864,0,0,0,0-1.729h-1.729A.864.864,0,0,0,361,241.864Z" transform="translate(-339.801 -226.864)" fill="#111e61"/>
          <path id="Trazado_102066" data-name="Trazado 102066" d="M363.593,301h-1.729a.864.864,0,0,0,0,1.729h1.729a.864.864,0,0,0,0-1.729Z" transform="translate(-339.801 -283.345)" fill="#111e61"/>
          <circle id="Elipse_1413" data-name="Elipse 1413" cx="1" cy="1" r="1" transform="translate(24.5 3)" fill="#111e61"/>
          <ellipse id="Elipse_1414" data-name="Elipse 1414" cx="0.5" cy="1" rx="0.5" ry="1" transform="translate(21.368 3)" fill="#111e61"/>
        </g>
      </g>
      <g id="Grupo_56008" data-name="Grupo 56008" transform="translate(5 58)">
        <g id="Grupo_55927" data-name="Grupo 55927" transform="translate(535.796 5681.53)">
          <circle id="Elipse_1410-3" data-name="Elipse 1410" cx="45" cy="45" r="45" transform="translate(0.205 0.47)" fill="#ffc571"/>
          <g transform="matrix(1, 0, 0, 1, -360.8, -172.53)" filter="url(#Elipse_1408-2)">
            <g id="Elipse_1408-16" data-name="Elipse 1408" transform="translate(376.28 188.28)" fill="#fff" stroke="#e6e6e6" stroke-width="4">
              <circle cx="29.718" cy="29.718" r="29.718" stroke="none"/>
              <circle cx="29.718" cy="29.718" r="31.718" fill="none"/>
            </g>
          </g>
        </g>
        <g id="concierge" transform="translate(512.564 5711.219)">
          <g id="Grupo_55932" data-name="Grupo 55932" transform="translate(65.008 9.389)">
            <g id="Grupo_55931" data-name="Grupo 55931">
              <path id="Trazado_102067" data-name="Trazado 102067" d="M200.864,152.307a.462.462,0,0,0-.462.462v.494a.462.462,0,0,0,.925,0v-.494A.462.462,0,0,0,200.864,152.307Z" transform="translate(-200.402 -152.307)" fill="#111e61"/>
            </g>
          </g>
          <g id="Grupo_55934" data-name="Grupo 55934" transform="translate(70.937 9.389)">
            <g id="Grupo_55933" data-name="Grupo 55933">
              <path id="Trazado_102068" data-name="Trazado 102068" d="M297.058,152.307a.462.462,0,0,0-.462.462v.494a.462.462,0,0,0,.925,0v-.494A.462.462,0,0,0,297.058,152.307Z" transform="translate(-296.596 -152.307)" fill="#111e61"/>
            </g>
          </g>
          <g id="Grupo_55936" data-name="Grupo 55936" transform="translate(66.49 12.848)">
            <g id="Grupo_55935" data-name="Grupo 55935">
              <path id="Trazado_102069" data-name="Trazado 102069" d="M228.207,208.557a.462.462,0,0,0-.654,0,2.037,2.037,0,0,1-2.315,0,.462.462,0,0,0-.649.658,2.916,2.916,0,0,0,3.614,0A.462.462,0,0,0,228.207,208.557Z" transform="translate(-224.451 -208.42)" fill="#111e61"/>
            </g>
          </g>
          <g id="Grupo_55938" data-name="Grupo 55938" transform="translate(56.113)">
            <g id="Grupo_55937" data-name="Grupo 55937">
              <path id="Trazado_102070" data-name="Trazado 102070" d="M78.3,21.63l-3.747-1.1-1.333-1.778a1.125,1.125,0,0,0-.84-.45h-.02V16.991a6.9,6.9,0,0,0,2.9-4.7h.275a1.752,1.752,0,0,0,1.76-1.524,1.695,1.695,0,0,0-.98-1.715V6.392h0A.463.463,0,0,0,76.3,6.28l-1.2-4.807A1.942,1.942,0,0,0,73.207,0H63.663a1.942,1.942,0,0,0-1.887,1.473l-1.2,4.807a.463.463,0,0,0-.013.112h0V9.071a1.686,1.686,0,0,0,.709,3.219h.345a6.894,6.894,0,0,0,2.9,4.7V18.3h-.02a1.125,1.125,0,0,0-.84.45l-1.333,1.778-3.747,1.1a3.446,3.446,0,0,0-2.46,3.288V31.1a.462.462,0,1,0,.925,0V24.918a2.516,2.516,0,0,1,1.8-2.4L62.6,21.41a6.894,6.894,0,0,0,1.823,1.321H62.505a2.442,2.442,0,0,0-2.439,2.439.462.462,0,1,0,.925,0,1.516,1.516,0,0,1,1.514-1.514h5.93a8.179,8.179,0,0,0,5.837-2.246l3.764,1.107a2.517,2.517,0,0,1,1.8,2.4V31.1a.462.462,0,1,0,.925,0V24.918A3.446,3.446,0,0,0,78.3,21.63ZM61.878,4.878H71.4a.462.462,0,1,0,0-.925H62.109L62.673,1.7a1.019,1.019,0,0,1,.99-.773h9.545a1.019,1.019,0,0,1,.99.773l.564,2.256H73.376a.462.462,0,1,0,0,.925h1.616l.263,1.052H61.615ZM75.385,6.854v2.04h-.526a.527.527,0,0,1-.526-.526V6.854h1.052Zm-13.9,0h1.052V8.369a.527.527,0,0,1-.526.526h-.526Zm.988,4.479a.462.462,0,0,0-.925,0v.032H61.27a.773.773,0,0,1-.769-.854.82.82,0,0,1,.839-.692h.671a1.452,1.452,0,0,0,1.451-1.451V6.854h9.947V8.369a1.452,1.452,0,0,0,1.451,1.451H75.6a.773.773,0,0,1,.769.854.82.82,0,0,1-.839.692h-.209v-.027a.462.462,0,0,0-.462-.462h0a.462.462,0,0,0-.462.462,5.961,5.961,0,0,1-11.923,0Zm.809,9.453L64.394,19.3a.2.2,0,0,1,.151-.081.172.172,0,0,1,.138.054,4.663,4.663,0,0,0,2.289,1.239.034.034,0,0,1,.012.027v2.065A6.806,6.806,0,0,1,63.282,20.786Zm5.679-.243v2.172a8.756,8.756,0,0,1-1.052,0V20.543a.945.945,0,0,0-.717-.925,3.906,3.906,0,0,1-1.753-.892V17.533a6.876,6.876,0,0,0,5.993,0v1.194a3.907,3.907,0,0,1-1.754.892A.945.945,0,0,0,68.961,20.543Zm.925,2.065V20.543a.034.034,0,0,1,.012-.027,4.662,4.662,0,0,0,2.289-1.239.17.17,0,0,1,.127-.054h.011a.2.2,0,0,1,.151.081l1.112,1.482A6.8,6.8,0,0,1,69.886,22.608Z" transform="translate(-56.113)" fill="#111e61"/>
            </g>
          </g>
          <g id="Grupo_55940" data-name="Grupo 55940" transform="translate(64.513 7.906)">
            <g id="Grupo_55939" data-name="Grupo 55939">
              <path id="Trazado_102071" data-name="Trazado 102071" d="M193.837,128.258h-.988a.462.462,0,0,0,0,.925h.988a.462.462,0,0,0,0-.925Z" transform="translate(-192.386 -128.258)" fill="#111e61"/>
            </g>
          </g>
          <g id="Grupo_55942" data-name="Grupo 55942" transform="translate(70.443 7.906)">
            <g id="Grupo_55941" data-name="Grupo 55941">
              <path id="Trazado_102072" data-name="Trazado 102072" d="M290.031,128.258h-.988a.462.462,0,1,0,0,.925h.988a.462.462,0,1,0,0-.925Z" transform="translate(-288.58 -128.258)" fill="#111e61"/>
            </g>
          </g>
          <g id="Grupo_55944" data-name="Grupo 55944" transform="translate(60.066 26.684)">
            <g id="Grupo_55943" data-name="Grupo 55943">
              <path id="Trazado_102073" data-name="Trazado 102073" d="M120.7,432.871a.462.462,0,0,0-.462.462v3.953a.462.462,0,1,0,.925,0v-3.953A.462.462,0,0,0,120.7,432.871Z" transform="translate(-120.241 -432.871)" fill="#111e61"/>
            </g>
          </g>
          <g id="Grupo_55946" data-name="Grupo 55946" transform="translate(62.045 25.202)">
            <g id="Grupo_55945" data-name="Grupo 55945">
              <path id="Trazado_102074" data-name="Trazado 102074" d="M152.811,408.822h0a.462.462,0,1,0,.467.462A.46.46,0,0,0,152.806,408.822Z" transform="translate(-152.346 -408.822)" fill="#111e61"/>
            </g>
          </g>
          <g id="Grupo_55948" data-name="Grupo 55948" transform="translate(73.905 25.202)">
            <g id="Grupo_55947" data-name="Grupo 55947">
              <path id="Trazado_102075" data-name="Trazado 102075" d="M345.2,408.822h0a.462.462,0,1,0,.467.462A.46.46,0,0,0,345.192,408.822Z" transform="translate(-344.732 -408.822)" fill="#111e61"/>
            </g>
          </g>
          <g id="Grupo_55950" data-name="Grupo 55950" transform="translate(73.905 27.672)">
            <g id="Grupo_55949" data-name="Grupo 55949">
              <path id="Trazado_102076" data-name="Trazado 102076" d="M345.2,448.9h0a.462.462,0,1,0,.467.462A.46.46,0,0,0,345.192,448.9Z" transform="translate(-344.732 -448.903)" fill="#111e61"/>
            </g>
          </g>
          <g id="Grupo_55952" data-name="Grupo 55952" transform="translate(62.045 27.672)">
            <g id="Grupo_55951" data-name="Grupo 55951">
              <path id="Trazado_102077" data-name="Trazado 102077" d="M152.811,448.9h0a.462.462,0,1,0,.467.462A.46.46,0,0,0,152.806,448.9Z" transform="translate(-152.346 -448.903)" fill="#111e61"/>
            </g>
          </g>
          <g id="Grupo_55954" data-name="Grupo 55954" transform="translate(73.905 30.143)">
            <g id="Grupo_55953" data-name="Grupo 55953">
              <path id="Trazado_102078" data-name="Trazado 102078" d="M345.2,488.983h0a.462.462,0,1,0,.467.462A.46.46,0,0,0,345.192,488.983Z" transform="translate(-344.732 -488.983)" fill="#111e61"/>
            </g>
          </g>
          <g id="Grupo_55956" data-name="Grupo 55956" transform="translate(62.045 30.143)">
            <g id="Grupo_55955" data-name="Grupo 55955">
              <path id="Trazado_102079" data-name="Trazado 102079" d="M152.811,488.983h0a.462.462,0,1,0,.467.462A.46.46,0,0,0,152.806,488.983Z" transform="translate(-152.346 -488.983)" fill="#111e61"/>
            </g>
          </g>
        </g>
      </g>
      <g id="Grupo_56001" data-name="Grupo 56001" transform="translate(-18 39)">
        <g id="Grupo_55920" data-name="Grupo 55920" transform="translate(1000.796 5970.53)">
          <circle id="Elipse_1410-4" data-name="Elipse 1410" cx="45" cy="45" r="45" transform="translate(0.205 0.47)" fill="#ffd291"/>
          <g transform="matrix(1, 0, 0, 1, -802.8, -442.53)" filter="url(#Elipse_1408-3)">
            <g id="Elipse_1408-17" data-name="Elipse 1408" transform="translate(818.28 458.28)" fill="#fff" stroke="#e6e6e6" stroke-width="4">
              <circle cx="29.718" cy="29.718" r="29.718" stroke="none"/>
              <circle cx="29.718" cy="29.718" r="31.718" fill="none"/>
            </g>
          </g>
        </g>
        <path id="cocktail" d="M60.6,7.8H56.976l1.952,5.277a6.985,6.985,0,0,1-.094,4.95,6.818,6.818,0,0,0,5.394,9.21v4.1H59.352V33.29h11.7V31.34H66.179V27.234a6.817,6.817,0,0,0,5.852-6.753,6.735,6.735,0,0,0-.566-2.716,5.549,5.549,0,0,1-.432-2.44,7.263,7.263,0,0,0,1.984.281,6.83,6.83,0,0,0,6.817-6.829A6.827,6.827,0,0,0,66.249,7.8H62.656L60.055,0H53.5V1.951h5.149Zm.65,1.951L61.9,11.7H60.5l-.722-1.951ZM64.316,25.28a4.87,4.87,0,0,1-3.664-6.545,9.065,9.065,0,0,0,.46-5.081h8.176a7.929,7.929,0,0,0,.388,4.893,4.8,4.8,0,0,1,.4,1.934A4.879,4.879,0,0,1,64.316,25.28ZM73.006,3.9a4.877,4.877,0,0,1,2.608,9,4.974,4.974,0,0,1-4.238.492c.132-.419.045-.142,2.055-5.589h-5.2A4.885,4.885,0,0,1,73.006,3.9ZM70.63,9.753,69.908,11.7H63.956l-.65-1.951Z" transform="translate(979.334 5998.71)" fill="#111e61"/>
      </g>
      <g id="Grupo_56002" data-name="Grupo 56002" transform="translate(-11 33)">
        <g id="Grupo_55921" data-name="Grupo 55921" transform="translate(903.796 6077.53)">
          <circle id="Elipse_1410-5" data-name="Elipse 1410" cx="45" cy="45" r="45" transform="translate(0.205 0.47)" fill="#ffc571"/>
          <g transform="matrix(1, 0, 0, 1, -712.8, -543.53)" filter="url(#Elipse_1408-4)">
            <g id="Elipse_1408-18" data-name="Elipse 1408" transform="translate(728.28 559.28)" fill="#fff" stroke="#e6e6e6" stroke-width="4">
              <circle cx="29.718" cy="29.718" r="29.718" stroke="none"/>
              <circle cx="29.718" cy="29.718" r="31.718" fill="none"/>
            </g>
          </g>
        </g>
        <g id="laundry" transform="translate(934.084 6082.666)">
          <path id="Trazado_102087" data-name="Trazado 102087" d="M120.1,87.415a.874.874,0,1,0-.24-1.039A.883.883,0,0,0,120.1,87.415Z" transform="translate(-112.803 -56.063)" fill="#111e61"/>
          <path id="Trazado_102088" data-name="Trazado 102088" d="M60.1,87.415a.874.874,0,1,0-.24-1.039A.883.883,0,0,0,60.1,87.415Z" transform="translate(-56.299 -56.063)" fill="#111e61"/>
          <path id="Trazado_102089" data-name="Trazado 102089" d="M99.359,213.584a5.941,5.941,0,1,0,5.941,5.941A5.948,5.948,0,0,0,99.359,213.584Zm0,10.134a4.193,4.193,0,1,1,4.193-4.193A4.2,4.2,0,0,1,99.359,223.718Z" transform="translate(-87.975 -176.339)" fill="#111e61"/>
          <path id="Trazado_102090" data-name="Trazado 102090" d="M252.628,87.611h2.913a.874.874,0,1,0,0-1.748h-2.913a.874.874,0,0,0,0,1.748Z" transform="translate(-237.085 -56.06)" fill="#111e61"/>
          <path id="Trazado_102091" data-name="Trazado 102091" d="M29.626,44a.874.874,0,0,0-.658-.309,2.6,2.6,0,0,0-.517-2.6A2.61,2.61,0,0,0,26.5,36.74H22.843V27.208a.874.874,0,0,0-.874-.874H.874A.874.874,0,0,0,0,27.208V52.224a.874.874,0,0,0,.874.874H26.036A2.8,2.8,0,0,0,28.81,50.75l1.011-6.042a.874.874,0,0,0-.2-.709Zm-7.658-.309a.864.864,0,0,1,0-1.727H26.5a.864.864,0,1,1,0,1.727Zm5.4-4.339a.864.864,0,0,1-.864.864H21.968a.864.864,0,0,1,0-1.727H26.5A.865.865,0,0,1,27.367,39.351ZM21.095,28.082v5.244H1.748V28.082ZM1.748,35.074H21.095V36.89a2.609,2.609,0,0,0-1.074,4.2,2.6,2.6,0,0,0-.516,2.6.872.872,0,0,0-.809,1.015l1.011,6.042a2.84,2.84,0,0,0,.17.6H1.748ZM27.086,50.461a1.061,1.061,0,0,1-1.05.889H22.48a1.061,1.061,0,0,1-1.05-.889l-.841-5.024h7.336Z" fill="#111e61"/>
        </g>
      </g>
      <g id="Grupo_55998" data-name="Grupo 55998" transform="translate(-15 61)">
        <g id="Grupo_55916" data-name="Grupo 55916" transform="translate(901.796 5617.53)">
          <circle id="Elipse_1410-6" data-name="Elipse 1410" cx="45" cy="45" r="45" transform="translate(0.205 0.47)" fill="#ffd291"/>
          <g transform="matrix(1, 0, 0, 1, -706.8, -111.53)" filter="url(#Elipse_1408-5)">
            <g id="Elipse_1408-19" data-name="Elipse 1408" transform="translate(722.28 127.28)" fill="#fff" stroke="#e6e6e6" stroke-width="4">
              <circle cx="29.718" cy="29.718" r="29.718" stroke="none"/>
              <circle cx="29.718" cy="29.718" r="31.718" fill="none"/>
            </g>
          </g>
        </g>
        <g id="housekeeping" transform="translate(904.5 5645.671)">
          <g id="Grupo_55957" data-name="Grupo 55957" transform="translate(27 0.002)">
            <path id="Trazado_102092" data-name="Trazado 102092" d="M57.763,32.206c-2.94-2.519-2.656-5.74-2.281-8.425a1.78,1.78,0,0,0,1.112-1.743l-.037-.71a1.785,1.785,0,0,0-1.871-1.683l-1.628.086-.047-.906a2.011,2.011,0,0,0-1.879-1.9L50.356,2.09a2.2,2.2,0,0,0-4.4.23l.28,5.341H44.371a3.059,3.059,0,0,0-.876-2.316,2.317,2.317,0,0,0-2.315-.664,3.2,3.2,0,0,0-2.65-1.428,3.146,3.146,0,0,0-1.382.316,3.484,3.484,0,0,0-5.621.6A2.474,2.474,0,0,0,29.8,5.519a3.452,3.452,0,0,0-.34,2.143h-.209a2.254,2.254,0,0,0-.619,4.421l1.26,12.094-.92.92a.677.677,0,0,0,.957.957l.143-.143.67,6.433a.677.677,0,0,0,.673.607H44.836a7.02,7.02,0,0,0,1.6.951,10.6,10.6,0,0,0,4.153.756,22.138,22.138,0,0,0,6.964-1.3.677.677,0,0,0,.213-1.152ZM54.757,21h.022a.428.428,0,0,1,.427.4l.037.71a.425.425,0,0,1-.4.447h-.007l-11.2.589a.427.427,0,0,1-.447-.4l-.038-.706a.426.426,0,0,1,.11-.308.419.419,0,0,1,.292-.14h0ZM47.525,1.638A.848.848,0,0,1,49,2.161l.776,14.826-1.7.089L47.307,2.249a.842.842,0,0,1,.218-.611ZM50.974,18.28a.657.657,0,0,1,.685.616l.047.906-5.246.277-.047-.906a.656.656,0,0,1,.618-.685ZM31,6.147a1.1,1.1,0,0,1,.965-.666.677.677,0,0,0,.622-.414,2.131,2.131,0,0,1,3.8-.252A.677.677,0,0,0,37.4,5a1.807,1.807,0,0,1,1.134-.4,1.834,1.834,0,0,1,1.7,1.174.677.677,0,0,0,.965.348,1.011,1.011,0,0,1,1.334.168,1.709,1.709,0,0,1,.478,1.365H30.852A2.08,2.08,0,0,1,31,6.147Zm.305,18.531L37.387,18.6a2.4,2.4,0,1,0-.958-.957l-5.3,5.3L30.005,12.17h5.138a.677.677,0,0,0,0-1.354H29.254A1.181,1.181,0,0,1,29,10.779a.9.9,0,0,1,.255-1.763H46.305l.094,1.8H41.223a.677.677,0,0,0,0,1.354h5.248l.261,4.991a2.009,2.009,0,0,0-1.669,2.082l.047.907-1.626.086A1.782,1.782,0,0,0,41.8,22.108l.038.706a1.763,1.763,0,0,0,.586,1.228,1.8,1.8,0,0,0,.346.243,11.921,11.921,0,0,0-.456,1.586,7.423,7.423,0,0,0-.116,2.345H31.677Zm6.181-8.186a1.049,1.049,0,1,1,.307.742A1.042,1.042,0,0,1,37.49,16.491ZM32.029,31.6l-.211-2.027H42.486A6.956,6.956,0,0,0,43.525,31.6Zm14.936,1.06a5.712,5.712,0,0,1-3.327-6.51,11.059,11.059,0,0,1,.5-1.672l2.313-.122c-.651,2.995-.329,5.088.962,6.229a.677.677,0,0,0,.9-1.015c-.932-.823-1.086-2.647-.453-5.288l2.856-.15a9.509,9.509,0,0,0,.9,6.884.677.677,0,1,0,1.195-.636,8.391,8.391,0,0,1-.687-6.321l1.969-.1c-.341,2.572-.518,5.765,1.954,8.475-2.113.634-6.1,1.5-9.081.23Z" transform="translate(-27 -0.002)" fill="#111e61"/>
            <path id="Trazado_102093" data-name="Trazado 102093" d="M182.9,159.773a.677.677,0,0,0,0,1.354h0a.677.677,0,0,0,0-1.354Z" transform="translate(-171.718 -148.959)" fill="#111e61"/>
          </g>
        </g>
      </g>
      <g id="Grupo_56003" data-name="Grupo 56003" transform="translate(-5 33)">
        <g id="Grupo_55922" data-name="Grupo 55922" transform="translate(789.796 6122.53)">
          <circle id="Elipse_1410-7" data-name="Elipse 1410" cx="45" cy="45" r="45" transform="translate(0.205 0.47)" fill="#ffee58"/>
          <g transform="matrix(1, 0, 0, 1, -604.8, -588.53)" filter="url(#Elipse_1408-6)">
            <g id="Elipse_1408-20" data-name="Elipse 1408" transform="translate(620.28 604.28)" fill="#fff" stroke="#e6e6e6" stroke-width="4">
              <circle cx="29.718" cy="29.718" r="29.718" stroke="none"/>
              <circle cx="29.718" cy="29.718" r="31.718" fill="none"/>
            </g>
          </g>
        </g>
        <g id="watering-can" transform="translate(818.834 6150.999)">
          <g id="Grupo_55959" data-name="Grupo 55959" transform="translate(0 0.001)">
            <g id="Grupo_55958" data-name="Grupo 55958" transform="translate(0 0)">
              <path id="Trazado_102094" data-name="Trazado 102094" d="M31.7,334.948H29.127c1.735-1.736,1.184-4.951,1.16-5.087a.631.631,0,0,0-.511-.511c-.136-.024-3.351-.575-5.087,1.161a3.658,3.658,0,0,0-.631.856,3.659,3.659,0,0,0-.631-.856c-1.736-1.736-4.951-1.185-5.087-1.161a.631.631,0,0,0-.511.511c-.024.136-.575,3.35,1.16,5.087H13.343c1.735-1.736,1.184-4.951,1.16-5.087a.631.631,0,0,0-.511-.511c-.136-.024-3.351-.575-5.087,1.161a3.658,3.658,0,0,0-.631.856,3.659,3.659,0,0,0-.631-.856c-1.736-1.736-4.951-1.185-5.087-1.161a.631.631,0,0,0-.511.511c-.024.136-.575,3.35,1.16,5.087H.631A.632.632,0,0,0,0,335.58v4.579a.632.632,0,0,0,.632.632h12.68a.632.632,0,0,0,0-1.263H1.263v-3.316H31.07v3.316H19.021a.632.632,0,0,0,0,1.263H31.7a.632.632,0,0,0,.632-.632V335.58a.632.632,0,0,0-.632-.631Zm-2.6-4.408c.07.825.085,2.566-.864,3.515a3.915,3.915,0,0,1-2.64.89l1.619-1.62a.632.632,0,0,0-.893-.893l-1.628,1.628a3.927,3.927,0,0,1,.89-2.656C26.532,330.455,28.273,330.471,29.1,330.54Zm-9.214,3.515c-.951-.951-.934-2.7-.864-3.519a4.733,4.733,0,0,1,3.515.868,4.051,4.051,0,0,1,.893,2.8q0,.054,0,.106c0,.231-.014.439-.028.608-.17.014-.379.026-.611.028h-.121a4.036,4.036,0,0,1-2.783-.893ZM9.8,331.4c.951-.951,2.7-.934,3.519-.864a4.734,4.734,0,0,1-.868,3.515,4.047,4.047,0,0,1-2.795.893h-.1c-.236,0-.449-.014-.621-.028-.014-.17-.026-.379-.028-.612q0-.048,0-.1a4.054,4.054,0,0,1,.893-2.8Zm-6.563-.864c.825-.07,2.565-.085,3.515.864a3.893,3.893,0,0,1,.889,2.615l-1.667-1.667a.632.632,0,0,0-.893.893l1.7,1.7a4.012,4.012,0,0,1-2.682-.892c-.95-.95-.934-2.69-.864-3.515Z" transform="translate(0 -308.457)" fill="#111e61"/>
              <path id="Trazado_102095" data-name="Trazado 102095" d="M247.409,492.395a.631.631,0,1,0-.224.76A.637.637,0,0,0,247.409,492.395Z" transform="translate(-230.647 -460.934)" fill="#111e61"/>
              <path id="Trazado_102096" data-name="Trazado 102096" d="M146.741,238.305a1.989,1.989,0,0,0,1.983-1.991c0-.964-1.2-2.08-1.569-2.4a.632.632,0,0,0-.828,0c-.368.319-1.569,1.436-1.569,2.4A1.989,1.989,0,0,0,146.741,238.305Zm0-3.039a2.636,2.636,0,0,1,.719,1.049.72.72,0,1,1-1.439,0A2.651,2.651,0,0,1,146.742,235.266Z" transform="translate(-135.617 -218.999)" fill="#111e61"/>
              <path id="Trazado_102097" data-name="Trazado 102097" d="M171.182,13.61a.631.631,0,0,0,.481.431l6.473,1.274.556.576a2.32,2.32,0,0,0,1.661.713h.021a2.32,2.32,0,0,0,1.652-.685l4.322-4.322a2.337,2.337,0,0,0-.029-3.334l-2.466-2.381L185.141,4.6a.632.632,0,0,0,0-.893L181.624.186a.632.632,0,0,0-.893,0L179.367,1.55l-.5-.48a.632.632,0,0,0-.885.008l-6.48,6.479a.632.632,0,0,0-.008.885l1.58,1.635-2.136.286a.632.632,0,0,0-.519.814Zm10-12.085L183.8,4.149l-.856.857-2.669-2.578Zm-2.739.885,7,6.763a1.074,1.074,0,0,1,.013,1.532l-4.322,4.322a1.066,1.066,0,0,1-.759.315h-.01a1.066,1.066,0,0,1-.763-.328l-6.764-7Zm-4.272,8.8,2.434,2.52-4.325-.851-.425-1.358Z" transform="translate(-159.633 -0.001)" fill="#111e61"/>
            </g>
          </g>
        </g>
      </g>
      <g id="Grupo_56004" data-name="Grupo 56004" transform="translate(6 43)">
        <g id="Grupo_55923" data-name="Grupo 55923" transform="translate(659.796 6103.53)">
          <circle id="Elipse_1410-8" data-name="Elipse 1410" cx="45" cy="45" r="45" transform="translate(0.205 0.47)" fill="#ffd291"/>
          <g transform="matrix(1, 0, 0, 1, -485.8, -579.53)" filter="url(#Elipse_1408-7)">
            <g id="Elipse_1408-21" data-name="Elipse 1408" transform="translate(501.28 595.28)" fill="#fff" stroke="#e6e6e6" stroke-width="4">
              <circle cx="29.718" cy="29.718" r="29.718" stroke="none"/>
              <circle cx="29.718" cy="29.718" r="31.718" fill="none"/>
            </g>
          </g>
        </g>
        <g id="libro-de-contabilidad" transform="translate(689.75 6073.726)">
          <g id="Grupo_55961" data-name="Grupo 55961" transform="translate(0 65.953)">
            <g id="Grupo_55960" data-name="Grupo 55960">
              <path id="Trazado_102098" data-name="Trazado 102098" d="M29.494,65.953H1.006A1.006,1.006,0,0,0,0,66.959V85.14a1.006,1.006,0,0,0,1.006,1.006H11.791a3.455,3.455,0,0,0,6.61,0H29.494A1.006,1.006,0,0,0,30.5,85.14V66.959A1.006,1.006,0,0,0,29.494,65.953ZM2.013,84.134V67.966H14.244V84.134ZM15.1,86.583a1.439,1.439,0,0,1-1.032-.436h2.065A1.438,1.438,0,0,1,15.1,86.583Zm13.392-2.449H16.256V67.966H28.487Z" transform="translate(0 -65.953)" fill="#111e61"/>
            </g>
          </g>
          <g id="Grupo_55963" data-name="Grupo 55963" transform="translate(4.761 70.18)">
            <g id="Grupo_55962" data-name="Grupo 55962" transform="translate(0 0)">
              <path id="Trazado_102099" data-name="Trazado 102099" d="M83.729,136.9h-2.8a1.006,1.006,0,1,0,0,2.013h2.8a1.006,1.006,0,1,0,0-2.013Z" transform="translate(-79.926 -136.903)" fill="#111e61"/>
            </g>
          </g>
          <g id="Grupo_55965" data-name="Grupo 55965" transform="translate(4.761 74.272)">
            <g id="Grupo_55964" data-name="Grupo 55964">
              <path id="Trazado_102100" data-name="Trazado 102100" d="M86.524,205.6H80.932a1.006,1.006,0,1,0,0,2.013h5.591a1.006,1.006,0,0,0,0-2.013Z" transform="translate(-79.926 -205.602)" fill="#111e61"/>
            </g>
          </g>
          <g id="Grupo_55967" data-name="Grupo 55967" transform="translate(4.761 78.364)">
            <g id="Grupo_55966" data-name="Grupo 55966" transform="translate(0 0)">
              <path id="Trazado_102101" data-name="Trazado 102101" d="M86.524,274.3H80.932a1.006,1.006,0,1,0,0,2.013h5.591a1.006,1.006,0,1,0,0-2.013Z" transform="translate(-79.926 -274.3)" fill="#111e61"/>
            </g>
          </g>
          <g id="Grupo_55969" data-name="Grupo 55969" transform="translate(18.045 70.18)">
            <g id="Grupo_55968" data-name="Grupo 55968" transform="translate(0 0)">
              <path id="Trazado_102102" data-name="Trazado 102102" d="M309.512,136.9H303.92a1.006,1.006,0,1,0,0,2.013h5.591a1.006,1.006,0,1,0,0-2.013Z" transform="translate(-302.914 -136.903)" fill="#111e61"/>
            </g>
          </g>
          <g id="Grupo_55971" data-name="Grupo 55971" transform="translate(18.045 74.272)">
            <g id="Grupo_55970" data-name="Grupo 55970">
              <path id="Trazado_102103" data-name="Trazado 102103" d="M309.512,205.6H303.92a1.006,1.006,0,1,0,0,2.013h5.591a1.006,1.006,0,1,0,0-2.013Z" transform="translate(-302.914 -205.602)" fill="#111e61"/>
            </g>
          </g>
          <g id="Grupo_55973" data-name="Grupo 55973" transform="translate(18.045 78.364)">
            <g id="Grupo_55972" data-name="Grupo 55972" transform="translate(0 0)">
              <path id="Trazado_102104" data-name="Trazado 102104" d="M309.512,274.3H303.92a1.006,1.006,0,1,0,0,2.013h5.591a1.006,1.006,0,1,0,0-2.013Z" transform="translate(-302.914 -274.3)" fill="#111e61"/>
            </g>
          </g>
        </g>
      </g>
      <g id="Grupo_56005" data-name="Grupo 56005" transform="translate(3 42)">
        <g id="Grupo_55924" data-name="Grupo 55924" transform="translate(553.796 6036.53)">
          <circle id="Elipse_1410-9" data-name="Elipse 1410" cx="45" cy="45" r="45" transform="translate(0.205 0.47)" fill="#ffc571"/>
          <g transform="matrix(1, 0, 0, 1, -376.8, -511.53)" filter="url(#Elipse_1408-8)">
            <g id="Elipse_1408-22" data-name="Elipse 1408" transform="translate(392.28 527.28)" fill="#fff" stroke="#e6e6e6" stroke-width="4">
              <circle cx="29.718" cy="29.718" r="29.718" stroke="none"/>
              <circle cx="29.718" cy="29.718" r="31.718" fill="none"/>
            </g>
          </g>
        </g>
        <g id="Grupo_55930" data-name="Grupo 55930" transform="translate(553.796 6036.53)">
          <circle id="Elipse_1410-10" data-name="Elipse 1410" cx="45" cy="45" r="45" transform="translate(0.205 0.47)" fill="#ffc571"/>
          <g transform="matrix(1, 0, 0, 1, -376.8, -511.53)" filter="url(#Elipse_1408-9)">
            <g id="Elipse_1408-23" data-name="Elipse 1408" transform="translate(392.28 527.28)" fill="#fff" stroke="#e6e6e6" stroke-width="4">
              <circle cx="29.718" cy="29.718" r="29.718" stroke="none"/>
              <circle cx="29.718" cy="29.718" r="31.718" fill="none"/>
            </g>
          </g>
        </g>
        <g id="proteccion" transform="translate(577 6064)">
          <path id="Trazado_102105" data-name="Trazado 102105" d="M341.414,6.526a3.866,3.866,0,1,0-6.671-2.659,4,4,0,0,0,.9,2.688l.039.044a5.751,5.751,0,0,0-2.842,4.954v3.6h11.548v-3.6A5.753,5.753,0,0,0,341.414,6.526Zm-4.738-2.659A1.934,1.934,0,1,1,338.61,5.8c-1.337,0-1.934-.6-1.934-1.934Zm5.774,9.351H334.77V11.553a3.829,3.829,0,0,1,2.874-3.7v3.437h1.934V7.857a3.83,3.83,0,0,1,2.873,3.7Z" transform="translate(-310.536)" fill="#111e61"/>
          <path id="Trazado_102106" data-name="Trazado 102106" d="M28.143,245.648H21.775l-1.4-1.288a4.861,4.861,0,0,0-.63-6.087l-4.749-4.749H0V243.3H8.587l8.785,8.167H33V250.5A4.863,4.863,0,0,0,28.143,245.648ZM1.934,235.457H3.883v5.914H1.934Zm16.2,14.082-8.785-8.167H5.816v-5.914h8.375l4.183,4.183a2.924,2.924,0,0,1,.54,3.382l-4.288-3.937-1.308,1.424,7.7,7.072h7.121a2.929,2.929,0,0,1,2.759,1.957Z" transform="translate(3 -218.472)" fill="#111e61"/>
        </g>
      </g>
      <g id="Grupo_56006" data-name="Grupo 56006" transform="translate(9 42)">
        <g id="Grupo_55925" data-name="Grupo 55925" transform="translate(486.796 5933.53)">
          <circle id="Elipse_1410-11" data-name="Elipse 1410" cx="45" cy="45" r="45" transform="translate(0.205 0.47)" fill="#ffee58"/>
          <g transform="matrix(1, 0, 0, 1, -315.8, -408.53)" filter="url(#Elipse_1408-10)">
            <g id="Elipse_1408-24" data-name="Elipse 1408" transform="translate(331.28 424.28)" fill="#fff" stroke="#e6e6e6" stroke-width="4">
              <circle cx="29.718" cy="29.718" r="29.718" stroke="none"/>
              <circle cx="29.718" cy="29.718" r="31.718" fill="none"/>
            </g>
          </g>
        </g>
        <g id="room-service" transform="translate(516.166 5963.167)">
          <g id="Grupo_55974" data-name="Grupo 55974">
            <path id="Trazado_102107" data-name="Trazado 102107" d="M30.739,11.195H21.4a4.614,4.614,0,0,0,.93-2.783.928.928,0,0,0-.928-.928h-.994a6.508,6.508,0,0,0-5.5-5.5V.928a.928.928,0,0,0-1.855,0V1.984a6.508,6.508,0,0,0-5.5,5.5H6.556a.928.928,0,0,0-.928.928,4.614,4.614,0,0,0,.93,2.783H2.783A2.786,2.786,0,0,0,0,13.978v13.05a.928.928,0,0,0,.928.928h3a2.783,2.783,0,1,0,5.407.928,2.843,2.843,0,0,0-.16-.94h9.6a2.843,2.843,0,0,0-.16.94,2.783,2.783,0,1,0,5.407-.928h2.943a.928.928,0,0,0,.928-.928V13.05h1.917v2.783a.928.928,0,0,0,1.855,0V12.123A.928.928,0,0,0,30.739,11.195ZM13.978,3.773a4.647,4.647,0,0,1,4.546,3.711H9.432A4.647,4.647,0,0,1,13.978,3.773Zm6.335,5.566a2.788,2.788,0,0,1-2.624,1.855H10.267A2.788,2.788,0,0,1,7.643,9.339Zm-4.48,9.277a.928.928,0,0,0-.928.928v2.783H13.05V19.544a.928.928,0,0,0-1.855,0v2.783H9.339V13.05h9.277v9.277H16.761V19.544A.928.928,0,0,0,15.833,18.617ZM6.556,29.812a.928.928,0,1,1,.928-.928A.929.929,0,0,1,6.556,29.812Zm14.844,0a.928.928,0,1,1,.928-.928A.929.929,0,0,1,21.4,29.812ZM26.039,26.1H1.855V13.978a.929.929,0,0,1,.928-.928h4.7V23.255a.928.928,0,0,0,.928.928H19.544a.928.928,0,0,0,.928-.928V13.05h5.566Z" fill="#111e61"/>
          </g>
        </g>
      </g>
      <g id="Grupo_56007" data-name="Grupo 56007" transform="translate(8 45)">
        <g id="Grupo_55926" data-name="Grupo 55926" transform="translate(482.796 5807.53)">
          <circle id="Elipse_1410-12" data-name="Elipse 1410" cx="45" cy="45" r="45" transform="translate(0.205 0.47)" fill="#ffd291"/>
          <g transform="matrix(1, 0, 0, 1, -310.8, -285.53)" filter="url(#Elipse_1408-11)">
            <g id="Elipse_1408-25" data-name="Elipse 1408" transform="translate(326.28 301.28)" fill="#fff" stroke="#e6e6e6" stroke-width="4">
              <circle cx="29.718" cy="29.718" r="29.718" stroke="none"/>
              <circle cx="29.718" cy="29.718" r="31.718" fill="none"/>
            </g>
          </g>
        </g>
        <g id="llaves" transform="translate(512.166 5835.958)">
          <path id="Trazado_102108" data-name="Trazado 102108" d="M34.022,21.425l-1.795-4.88a1,1,0,0,0-1-.652l-1.731.112-.769-1.555a1,1,0,0,0-.959-.554l-2.094.135-4.589-2.65A7.657,7.657,0,0,0,12.263,2.9a7.609,7.609,0,0,0-2.908.091q-.345-.078-.7-.125V1a1,1,0,0,0-2,0V2.861a7.657,7.657,0,0,0-2,14.637V31.754a1,1,0,0,0,.445.831l2,1.331a1,1,0,0,0,1.321-.192l3.329-3.994a1,1,0,0,0,.064-1.193l-.962-1.443.962-1.443a1,1,0,0,0,0-1.108L10.651,22.8V18.1a7.546,7.546,0,0,0,1.328-.045L19.107,30.4a1,1,0,0,0,.8.5l2.4.155.065,0a1,1,0,0,0,.983-.829l.885-5.123a1,1,0,0,0-.541-1.065l-1.555-.769.112-1.731a1,1,0,0,0-.554-.959l-1.881-.93-1.763-3.053.033-.024L30.435,23.7a1,1,0,0,0,.942.03l2.152-1.064a1,1,0,0,0,.494-1.24Zm-25.2,6.223.918,1.377L7.463,31.757l-.806-.537V16.8a1,1,0,0,0-.7-.953,5.658,5.658,0,0,1,.7-10.967V6.79H6.324a1,1,0,0,0,0,2H8.987a1,1,0,0,0,0-2H8.654V4.883a5.658,5.658,0,0,1,.7,10.967,1,1,0,0,0-.7.953v6.3a1,1,0,0,0,.168.554L9.784,25.1,8.822,26.54a1,1,0,0,0,0,1.108Zm9.418-6.741a1,1,0,0,0,.422.4l1.555.769L20.1,23.8a1,1,0,0,0,.554.959l1.483.733L21.536,29l-.967-.062L13.361,16.452a1,1,0,0,0-.468-.417,7.755,7.755,0,0,0,.9-1.012,7.647,7.647,0,0,0-.53-9.775,5.655,5.655,0,0,1,1.954,9.03,1,1,0,0,0-.129,1.175ZM30.97,21.7,18.485,14.493a1,1,0,0,0-.9-.05,7.661,7.661,0,0,0,.132-7.749,5.631,5.631,0,0,1,1.289,4.987,1,1,0,0,0,.475,1.082l5.453,3.149a1,1,0,0,0,.564.132l1.731-.112L28,17.487a1,1,0,0,0,.959.554l1.651-.107,1.228,3.338Z" transform="translate(0 0)" fill="#111e61"/>
        </g>
      </g>
      <g id="Grupo_56009" data-name="Grupo 56009" transform="translate(1 59)">
        <g id="Grupo_55928" data-name="Grupo 55928" transform="translate(647.796 5597.53)">
          <circle id="Elipse_1410-13" data-name="Elipse 1410" cx="45" cy="45" r="45" transform="translate(0.205 0.47)" fill="#ffd18f"/>
          <g transform="matrix(1, 0, 0, 1, -468.8, -89.53)" filter="url(#Elipse_1408-12)">
            <g id="Elipse_1408-26" data-name="Elipse 1408" transform="translate(484.28 105.28)" fill="#fff" stroke="#e6e6e6" stroke-width="4">
              <circle cx="29.718" cy="29.718" r="29.718" stroke="none"/>
              <circle cx="29.718" cy="29.718" r="31.718" fill="none"/>
            </g>
          </g>
        </g>
        <g id="reservation" transform="translate(677.667 5627.667)">
          <g id="Grupo_55975" data-name="Grupo 55975">
            <path id="Trazado_102109" data-name="Trazado 102109" d="M27.073,2.156h-.958V0h-2.4V2.156h-2.4V0h-2.4V2.156H11.74V0h-2.4V2.156h-2.4V0h-2.4V2.156H3.594A3.6,3.6,0,0,0,0,5.75V27.073a3.6,3.6,0,0,0,3.594,3.594H27.073a3.6,3.6,0,0,0,3.594-3.594V5.75A3.6,3.6,0,0,0,27.073,2.156Zm1.2,24.917a1.2,1.2,0,0,1-1.2,1.2H3.594a1.2,1.2,0,0,1-1.2-1.2V11.5H28.271Zm0-17.969H2.4V5.75a1.2,1.2,0,0,1,1.2-1.2h.958v2.4h2.4v-2.4h2.4v2.4h2.4v-2.4h7.187v2.4h2.4v-2.4h2.4v2.4h2.4v-2.4h.958a1.2,1.2,0,0,1,1.2,1.2ZM23.719,23.479h-2.4v-1.2a5.982,5.982,0,0,0-4.792-5.866V13.9h-2.4V16.41a5.807,5.807,0,0,0-3.428,2.147,6.493,6.493,0,0,0-1.364,3.98v.942h-2.4v2.4H23.719Zm-4.792,0H11.74v-.942a3.767,3.767,0,0,1,2.981-3.8,3.842,3.842,0,0,1,.59-.05h.027a3.548,3.548,0,0,1,2.321.855,3.59,3.59,0,0,1,1.267,2.739Z" fill="#111e61"/>
          </g>
        </g>
      </g>
      <g id="Grupo_55999" data-name="Grupo 55999" transform="translate(-19 60)">
        <g id="Grupo_55917" data-name="Grupo 55917" transform="translate(993.796 5717.53)">
          <circle id="Elipse_1410-14" data-name="Elipse 1410" cx="45" cy="45" r="45" transform="translate(0.205 0.47)" fill="#ffc571"/>
          <g transform="matrix(1, 0, 0, 1, -794.8, -210.53)" filter="url(#Elipse_1408-13)">
            <g id="Elipse_1408-27" data-name="Elipse 1408" transform="translate(810.28 226.28)" fill="#fff" stroke="#e6e6e6" stroke-width="4">
              <circle cx="29.718" cy="29.718" r="29.718" stroke="none"/>
              <circle cx="29.718" cy="29.718" r="31.718" fill="none"/>
            </g>
          </g>
        </g>
        <g id="swimming-pool" transform="translate(1022.25 5736.903)">
          <g id="Grupo_55977" data-name="Grupo 55977" transform="translate(0 10.001)">
            <g id="Grupo_55976" data-name="Grupo 55976" transform="translate(0 0)">
              <path id="Trazado_102110" data-name="Trazado 102110" d="M32.937,426.205a1.309,1.309,0,0,0-1.821.329c-1.658,2.389-6.485,2.39-8.144,0a1.309,1.309,0,0,0-2.15,0c-1.658,2.389-6.485,2.39-8.144,0a1.309,1.309,0,0,0-2.15,0c-1.658,2.389-6.485,2.39-8.144,0a1.309,1.309,0,1,0-2.15,1.492c2.4,3.461,8.21,3.836,11.369,1.175a8.464,8.464,0,0,0,10.294,0c3.158,2.66,8.969,2.283,11.369-1.175A1.309,1.309,0,0,0,32.937,426.205Z" transform="translate(0 -398.755)" fill="#111e61"/>
              <path id="Trazado_102111" data-name="Trazado 102111" d="M79.31,30.021a1.309,1.309,0,0,0,1.309-1.309V26.75H92.4v1.963a1.309,1.309,0,0,0,2.617,0V14.45a1.832,1.832,0,0,1,3.664,0,1.309,1.309,0,0,0,2.617,0,4.449,4.449,0,0,0-8.9,0v3.795H80.618V14.45a1.832,1.832,0,0,1,3.664,0,1.309,1.309,0,0,0,2.617,0,4.449,4.449,0,0,0-8.9,0V28.713A1.309,1.309,0,0,0,79.31,30.021Zm1.309-9.16H92.4v3.271H80.618Z" transform="translate(-72.897 -10.001)" fill="#111e61"/>
              <path id="Trazado_102112" data-name="Trazado 102112" d="M11.6,339.207a7.971,7.971,0,0,0,5.147,1.743,7.971,7.971,0,0,0,5.147-1.743c3.158,2.66,8.969,2.283,11.369-1.174a1.309,1.309,0,1,0-2.15-1.492c-1.658,2.389-6.485,2.39-8.144,0a1.309,1.309,0,0,0-2.15,0c-1.658,2.389-6.485,2.39-8.144,0a1.309,1.309,0,0,0-2.15,0c-1.658,2.389-6.485,2.39-8.144,0a1.309,1.309,0,1,0-2.15,1.492C2.636,341.493,8.444,341.868,11.6,339.207Z" transform="translate(0 -314.649)" fill="#111e61"/>
            </g>
          </g>
        </g>
      </g>
      <g id="Grupo_56000" data-name="Grupo 56000" transform="translate(-15 44)">
        <g id="Grupo_55919" data-name="Grupo 55919" transform="translate(1028.796 5843.53)">
          <circle id="Elipse_1410-15" data-name="Elipse 1410" cx="45" cy="45" r="45" transform="translate(0.205 0.47)" fill="#ffee58"/>
          <g transform="matrix(1, 0, 0, 1, -833.8, -320.53)" filter="url(#Elipse_1408-14)">
            <g id="Elipse_1408-28" data-name="Elipse 1408" transform="translate(849.28 336.28)" fill="#fff" stroke="#e6e6e6" stroke-width="4">
              <circle cx="29.718" cy="29.718" r="29.718" stroke="none"/>
              <circle cx="29.718" cy="29.718" r="31.718" fill="none"/>
            </g>
          </g>
        </g>
        <g id="restaurant" transform="translate(1057.438 5869.5)">
          <g id="Grupo_55979" data-name="Grupo 55979" transform="translate(1.941 21.084)">
            <g id="Grupo_55978" data-name="Grupo 55978">
              <path id="Trazado_102113" data-name="Trazado 102113" d="M58.39,327.139a2.914,2.914,0,0,0-4.117,0l-2.979,2.979a2.916,2.916,0,0,0-2.726-1.891H45.419c-.447,0-.644-.245-1.1-.643a6.8,6.8,0,0,0-9.617.643H30.97a.97.97,0,0,0-.97.97v7.764a.971.971,0,0,0,.97.97H50.509a2.892,2.892,0,0,0,2.058-.853l5.823-5.823A2.915,2.915,0,0,0,58.39,327.139Zm-24.379,8.852h-2.07v-5.823h2.07Zm23.007-6.107L51.2,335.706a.977.977,0,0,1-.686.284H35.952v-6.224a4.857,4.857,0,0,1,7.087-.726,3.328,3.328,0,0,0,2.379,1.127h3.149a.97.97,0,0,1,0,1.941H44.6a2.919,2.919,0,0,0-2.359,1.205.97.97,0,0,0,1.573,1.137.973.973,0,0,1,.786-.4h5.1a.97.97,0,0,0,.686-.284l5.254-5.254a.97.97,0,0,1,1.372,1.372Z" transform="translate(-30 -325.891)" fill="#111e61"/>
            </g>
          </g>
          <g id="Grupo_55981" data-name="Grupo 55981">
            <g id="Grupo_55980" data-name="Grupo 55980">
              <path id="Trazado_102114" data-name="Trazado 102114" d="M32.155,17.6h-1A14.7,14.7,0,0,0,19.272,4.125a2.911,2.911,0,1,0-5.291,0A14.808,14.808,0,0,0,1.974,17.6h-1a.97.97,0,0,0,0,1.941H32.155a.97.97,0,0,0,0-1.941ZM16.627,1.941a.97.97,0,1,1-.97.97A.972.972,0,0,1,16.627,1.941ZM3.92,17.6A12.948,12.948,0,0,1,16.627,5.81,12.7,12.7,0,0,1,29.207,17.6Z" fill="#111e61"/>
            </g>
          </g>
        </g>
      </g>
    </g>
    <rect id="Rectángulo_5586" data-name="Rectángulo 5586" width="1226" height="736" transform="translate(180 5567)" fill="none"/>
  </g>
</svg>
