<svg xmlns="http://www.w3.org/2000/svg" xmlns:xlink="http://www.w3.org/1999/xlink" width="90" height="90.718" viewBox="0 0 90 90.718">
  <defs>
    <filter id="Elipse_1408" x="2.281" y="5.282" width="85.436" height="85.437" filterUnits="userSpaceOnUse">
      <feOffset dy="3" input="SourceAlpha"/>
      <feGaussianBlur stdDeviation="3" result="blur"/>
      <feFlood flood-color="#ffb74d"/>
      <feComposite operator="in" in2="blur"/>
      <feComposite in="SourceGraphic"/>
    </filter>
  </defs>
  <g id="Grupo_55999" data-name="Grupo 55999" transform="translate(-994 -5718)">
    <g id="Grupo_55917" data-name="Grupo 55917" transform="translate(993.796 5717.53)">
      <circle id="Elipse_1410" data-name="Elipse 1410" cx="45" cy="45" r="45" transform="translate(0.205 0.47)" fill="#ffc571"/>
      <g transform="matrix(1, 0, 0, 1, 0.2, 0.47)" filter="url(#Elipse_1408)">
        <g id="Elipse_1408-2" data-name="Elipse 1408" transform="translate(15.28 15.28)" fill="#fff" stroke="#e6e6e6" stroke-width="4">
          <circle cx="29.718" cy="29.718" r="29.718" stroke="none"/>
          <circle cx="29.718" cy="29.718" r="31.718" fill="none"/>
        </g>
      </g>
    </g>
    <g id="swimming-pool" transform="translate(1022.25 5736.903)">
      <g id="Grupo_55977" data-name="Grupo 55977" transform="translate(0 10.001)">
        <g id="Grupo_55976" data-name="Grupo 55976" transform="translate(0 0)">
          <path id="Trazado_102110" data-name="Trazado 102110" d="M32.937,426.205a1.309,1.309,0,0,0-1.821.329c-1.658,2.389-6.485,2.39-8.144,0a1.309,1.309,0,0,0-2.15,0c-1.658,2.389-6.485,2.39-8.144,0a1.309,1.309,0,0,0-2.15,0c-1.658,2.389-6.485,2.39-8.144,0a1.309,1.309,0,1,0-2.15,1.492c2.4,3.461,8.21,3.836,11.369,1.175a8.464,8.464,0,0,0,10.294,0c3.158,2.66,8.969,2.283,11.369-1.175A1.309,1.309,0,0,0,32.937,426.205Z" transform="translate(0 -398.755)" fill="#111e61"/>
          <path id="Trazado_102111" data-name="Trazado 102111" d="M79.31,30.021a1.309,1.309,0,0,0,1.309-1.309V26.75H92.4v1.963a1.309,1.309,0,0,0,2.617,0V14.45a1.832,1.832,0,0,1,3.664,0,1.309,1.309,0,0,0,2.617,0,4.449,4.449,0,0,0-8.9,0v3.795H80.618V14.45a1.832,1.832,0,0,1,3.664,0,1.309,1.309,0,0,0,2.617,0,4.449,4.449,0,0,0-8.9,0V28.713A1.309,1.309,0,0,0,79.31,30.021Zm1.309-9.16H92.4v3.271H80.618Z" transform="translate(-72.897 -10.001)" fill="#111e61"/>
          <path id="Trazado_102112" data-name="Trazado 102112" d="M11.6,339.207a7.971,7.971,0,0,0,5.147,1.743,7.971,7.971,0,0,0,5.147-1.743c3.158,2.66,8.969,2.283,11.369-1.174a1.309,1.309,0,1,0-2.15-1.492c-1.658,2.389-6.485,2.39-8.144,0a1.309,1.309,0,0,0-2.15,0c-1.658,2.389-6.485,2.39-8.144,0a1.309,1.309,0,0,0-2.15,0c-1.658,2.389-6.485,2.39-8.144,0a1.309,1.309,0,1,0-2.15,1.492C2.636,341.493,8.444,341.868,11.6,339.207Z" transform="translate(0 -314.649)" fill="#111e61"/>
        </g>
      </g>
    </g>
  </g>
</svg>
