<svg xmlns="http://www.w3.org/2000/svg" xmlns:xlink="http://www.w3.org/1999/xlink" width="90" height="90.718" viewBox="0 0 90 90.718">
  <defs>
    <filter id="Elipse_1408" x="2.281" y="5.282" width="85.436" height="85.437" filterUnits="userSpaceOnUse">
      <feOffset dy="3" input="SourceAlpha"/>
      <feGaussianBlur stdDeviation="3" result="blur"/>
      <feFlood flood-color="#ffb74d"/>
      <feComposite operator="in" in2="blur"/>
      <feComposite in="SourceGraphic"/>
    </filter>
    <filter id="Elipse_1408-2" x="2.281" y="5.282" width="85.436" height="85.437" filterUnits="userSpaceOnUse">
      <feOffset dy="3" input="SourceAlpha"/>
      <feGaussianBlur stdDeviation="3" result="blur-2"/>
      <feFlood flood-color="#ffb74d"/>
      <feComposite operator="in" in2="blur-2"/>
      <feComposite in="SourceGraphic"/>
    </filter>
  </defs>
  <g id="Grupo_56005" data-name="Grupo 56005" transform="translate(-554 -6037)">
    <g id="Grupo_55924" data-name="Grupo 55924" transform="translate(553.796 6036.53)">
      <circle id="Elipse_1410" data-name="Elipse 1410" cx="45" cy="45" r="45" transform="translate(0.205 0.47)" fill="#ffc571"/>
      <g transform="matrix(1, 0, 0, 1, 0.2, 0.47)" filter="url(#Elipse_1408)">
        <g id="Elipse_1408-3" data-name="Elipse 1408" transform="translate(15.28 15.28)" fill="#fff" stroke="#e6e6e6" stroke-width="4">
          <circle cx="29.718" cy="29.718" r="29.718" stroke="none"/>
          <circle cx="29.718" cy="29.718" r="31.718" fill="none"/>
        </g>
      </g>
    </g>
    <g id="Grupo_55930" data-name="Grupo 55930" transform="translate(553.796 6036.53)">
      <circle id="Elipse_1410-2" data-name="Elipse 1410" cx="45" cy="45" r="45" transform="translate(0.205 0.47)" fill="#ffc571"/>
      <g transform="matrix(1, 0, 0, 1, 0.2, 0.47)" filter="url(#Elipse_1408-2)">
        <g id="Elipse_1408-4" data-name="Elipse 1408" transform="translate(15.28 15.28)" fill="#fff" stroke="#e6e6e6" stroke-width="4">
          <circle cx="29.718" cy="29.718" r="29.718" stroke="none"/>
          <circle cx="29.718" cy="29.718" r="31.718" fill="none"/>
        </g>
      </g>
    </g>
    <g id="proteccion" transform="translate(577 6064)">
      <path id="Trazado_102105" data-name="Trazado 102105" d="M341.414,6.526a3.866,3.866,0,1,0-6.671-2.659,4,4,0,0,0,.9,2.688l.039.044a5.751,5.751,0,0,0-2.842,4.954v3.6h11.548v-3.6A5.753,5.753,0,0,0,341.414,6.526Zm-4.738-2.659A1.934,1.934,0,1,1,338.61,5.8c-1.337,0-1.934-.6-1.934-1.934Zm5.774,9.351H334.77V11.553a3.829,3.829,0,0,1,2.874-3.7v3.437h1.934V7.857a3.83,3.83,0,0,1,2.873,3.7Z" transform="translate(-310.536)" fill="#111e61"/>
      <path id="Trazado_102106" data-name="Trazado 102106" d="M28.143,245.648H21.775l-1.4-1.288a4.861,4.861,0,0,0-.63-6.087l-4.749-4.749H0V243.3H8.587l8.785,8.167H33V250.5A4.863,4.863,0,0,0,28.143,245.648ZM1.934,235.457H3.883v5.914H1.934Zm16.2,14.082-8.785-8.167H5.816v-5.914h8.375l4.183,4.183a2.924,2.924,0,0,1,.54,3.382l-4.288-3.937-1.308,1.424,7.7,7.072h7.121a2.929,2.929,0,0,1,2.759,1.957Z" transform="translate(3 -218.472)" fill="#111e61"/>
    </g>
  </g>
</svg>
