<svg xmlns="http://www.w3.org/2000/svg" xmlns:xlink="http://www.w3.org/1999/xlink" width="90" height="90.718" viewBox="0 0 90 90.718">
  <defs>
    <filter id="Elipse_1408" x="2.281" y="5.282" width="85.436" height="85.437" filterUnits="userSpaceOnUse">
      <feOffset dy="3" input="SourceAlpha"/>
      <feGaussianBlur stdDeviation="3" result="blur"/>
      <feFlood flood-color="#fb0"/>
      <feComposite operator="in" in2="blur"/>
      <feComposite in="SourceGraphic"/>
    </filter>
  </defs>
  <g id="Grupo_56000" data-name="Grupo 56000" transform="translate(-1029 -5844)">
    <g id="Grupo_55919" data-name="Grupo 55919" transform="translate(1028.796 5843.53)">
      <circle id="Elipse_1410" data-name="Elipse 1410" cx="45" cy="45" r="45" transform="translate(0.205 0.47)" fill="#ffee58"/>
      <g transform="matrix(1, 0, 0, 1, 0.2, 0.47)" filter="url(#Elipse_1408)">
        <g id="Elipse_1408-2" data-name="Elipse 1408" transform="translate(15.28 15.28)" fill="#fff" stroke="#e6e6e6" stroke-width="4">
          <circle cx="29.718" cy="29.718" r="29.718" stroke="none"/>
          <circle cx="29.718" cy="29.718" r="31.718" fill="none"/>
        </g>
      </g>
    </g>
    <g id="restaurant" transform="translate(1057.438 5869.5)">
      <g id="Grupo_55979" data-name="Grupo 55979" transform="translate(1.941 21.084)">
        <g id="Grupo_55978" data-name="Grupo 55978">
          <path id="Trazado_102113" data-name="Trazado 102113" d="M58.39,327.139a2.914,2.914,0,0,0-4.117,0l-2.979,2.979a2.916,2.916,0,0,0-2.726-1.891H45.419c-.447,0-.644-.245-1.1-.643a6.8,6.8,0,0,0-9.617.643H30.97a.97.97,0,0,0-.97.97v7.764a.971.971,0,0,0,.97.97H50.509a2.892,2.892,0,0,0,2.058-.853l5.823-5.823A2.915,2.915,0,0,0,58.39,327.139Zm-24.379,8.852h-2.07v-5.823h2.07Zm23.007-6.107L51.2,335.706a.977.977,0,0,1-.686.284H35.952v-6.224a4.857,4.857,0,0,1,7.087-.726,3.328,3.328,0,0,0,2.379,1.127h3.149a.97.97,0,0,1,0,1.941H44.6a2.919,2.919,0,0,0-2.359,1.205.97.97,0,0,0,1.573,1.137.973.973,0,0,1,.786-.4h5.1a.97.97,0,0,0,.686-.284l5.254-5.254a.97.97,0,0,1,1.372,1.372Z" transform="translate(-30 -325.891)" fill="#111e61"/>
        </g>
      </g>
      <g id="Grupo_55981" data-name="Grupo 55981">
        <g id="Grupo_55980" data-name="Grupo 55980">
          <path id="Trazado_102114" data-name="Trazado 102114" d="M32.155,17.6h-1A14.7,14.7,0,0,0,19.272,4.125a2.911,2.911,0,1,0-5.291,0A14.808,14.808,0,0,0,1.974,17.6h-1a.97.97,0,0,0,0,1.941H32.155a.97.97,0,0,0,0-1.941ZM16.627,1.941a.97.97,0,1,1-.97.97A.972.972,0,0,1,16.627,1.941ZM3.92,17.6A12.948,12.948,0,0,1,16.627,5.81,12.7,12.7,0,0,1,29.207,17.6Z" fill="#111e61"/>
        </g>
      </g>
    </g>
  </g>
</svg>
