<svg xmlns="http://www.w3.org/2000/svg" xmlns:xlink="http://www.w3.org/1999/xlink" width="90" height="90.718" viewBox="0 0 90 90.718">
  <defs>
    <filter id="Elipse_1408" x="2.281" y="5.282" width="85.436" height="85.437" filterUnits="userSpaceOnUse">
      <feOffset dy="3" input="SourceAlpha"/>
      <feGaussianBlur stdDeviation="3" result="blur"/>
      <feFlood flood-color="#ffc571"/>
      <feComposite operator="in" in2="blur"/>
      <feComposite in="SourceGraphic"/>
    </filter>
  </defs>
  <g id="Grupo_55998" data-name="Grupo 55998" transform="translate(-902 -5618)">
    <g id="Grupo_55916" data-name="Grupo 55916" transform="translate(901.796 5617.53)">
      <circle id="Elipse_1410" data-name="Elipse 1410" cx="45" cy="45" r="45" transform="translate(0.205 0.47)" fill="#ffd291"/>
      <g transform="matrix(1, 0, 0, 1, 0.2, 0.47)" filter="url(#Elipse_1408)">
        <g id="Elipse_1408-2" data-name="Elipse 1408" transform="translate(15.28 15.28)" fill="#fff" stroke="#e6e6e6" stroke-width="4">
          <circle cx="29.718" cy="29.718" r="29.718" stroke="none"/>
          <circle cx="29.718" cy="29.718" r="31.718" fill="none"/>
        </g>
      </g>
    </g>
    <g id="housekeeping" transform="translate(904.5 5645.671)">
      <g id="Grupo_55957" data-name="Grupo 55957" transform="translate(27 0.002)">
        <path id="Trazado_102092" data-name="Trazado 102092" d="M57.763,32.206c-2.94-2.519-2.656-5.74-2.281-8.425a1.78,1.78,0,0,0,1.112-1.743l-.037-.71a1.785,1.785,0,0,0-1.871-1.683l-1.628.086-.047-.906a2.011,2.011,0,0,0-1.879-1.9L50.356,2.09a2.2,2.2,0,0,0-4.4.23l.28,5.341H44.371a3.059,3.059,0,0,0-.876-2.316,2.317,2.317,0,0,0-2.315-.664,3.2,3.2,0,0,0-2.65-1.428,3.146,3.146,0,0,0-1.382.316,3.484,3.484,0,0,0-5.621.6A2.474,2.474,0,0,0,29.8,5.519a3.452,3.452,0,0,0-.34,2.143h-.209a2.254,2.254,0,0,0-.619,4.421l1.26,12.094-.92.92a.677.677,0,0,0,.957.957l.143-.143.67,6.433a.677.677,0,0,0,.673.607H44.836a7.02,7.02,0,0,0,1.6.951,10.6,10.6,0,0,0,4.153.756,22.138,22.138,0,0,0,6.964-1.3.677.677,0,0,0,.213-1.152ZM54.757,21h.022a.428.428,0,0,1,.427.4l.037.71a.425.425,0,0,1-.4.447h-.007l-11.2.589a.427.427,0,0,1-.447-.4l-.038-.706a.426.426,0,0,1,.11-.308.419.419,0,0,1,.292-.14h0ZM47.525,1.638A.848.848,0,0,1,49,2.161l.776,14.826-1.7.089L47.307,2.249a.842.842,0,0,1,.218-.611ZM50.974,18.28a.657.657,0,0,1,.685.616l.047.906-5.246.277-.047-.906a.656.656,0,0,1,.618-.685ZM31,6.147a1.1,1.1,0,0,1,.965-.666.677.677,0,0,0,.622-.414,2.131,2.131,0,0,1,3.8-.252A.677.677,0,0,0,37.4,5a1.807,1.807,0,0,1,1.134-.4,1.834,1.834,0,0,1,1.7,1.174.677.677,0,0,0,.965.348,1.011,1.011,0,0,1,1.334.168,1.709,1.709,0,0,1,.478,1.365H30.852A2.08,2.08,0,0,1,31,6.147Zm.305,18.531L37.387,18.6a2.4,2.4,0,1,0-.958-.957l-5.3,5.3L30.005,12.17h5.138a.677.677,0,0,0,0-1.354H29.254A1.181,1.181,0,0,1,29,10.779a.9.9,0,0,1,.255-1.763H46.305l.094,1.8H41.223a.677.677,0,0,0,0,1.354h5.248l.261,4.991a2.009,2.009,0,0,0-1.669,2.082l.047.907-1.626.086A1.782,1.782,0,0,0,41.8,22.108l.038.706a1.763,1.763,0,0,0,.586,1.228,1.8,1.8,0,0,0,.346.243,11.921,11.921,0,0,0-.456,1.586,7.423,7.423,0,0,0-.116,2.345H31.677Zm6.181-8.186a1.049,1.049,0,1,1,.307.742A1.042,1.042,0,0,1,37.49,16.491ZM32.029,31.6l-.211-2.027H42.486A6.956,6.956,0,0,0,43.525,31.6Zm14.936,1.06a5.712,5.712,0,0,1-3.327-6.51,11.059,11.059,0,0,1,.5-1.672l2.313-.122c-.651,2.995-.329,5.088.962,6.229a.677.677,0,0,0,.9-1.015c-.932-.823-1.086-2.647-.453-5.288l2.856-.15a9.509,9.509,0,0,0,.9,6.884.677.677,0,1,0,1.195-.636,8.391,8.391,0,0,1-.687-6.321l1.969-.1c-.341,2.572-.518,5.765,1.954,8.475-2.113.634-6.1,1.5-9.081.23Z" transform="translate(-27 -0.002)" fill="#111e61"/>
        <path id="Trazado_102093" data-name="Trazado 102093" d="M182.9,159.773a.677.677,0,0,0,0,1.354h0a.677.677,0,0,0,0-1.354Z" transform="translate(-171.718 -148.959)" fill="#111e61"/>
      </g>
    </g>
  </g>
</svg>
