<svg xmlns="http://www.w3.org/2000/svg" xmlns:xlink="http://www.w3.org/1999/xlink" width="90" height="90.718" viewBox="0 0 90 90.718">
  <defs>
    <filter id="Elipse_1408" x="2.281" y="5.282" width="85.436" height="85.437" filterUnits="userSpaceOnUse">
      <feOffset dy="3" input="SourceAlpha"/>
      <feGaussianBlur stdDeviation="3" result="blur"/>
      <feFlood flood-color="#fb0"/>
      <feComposite operator="in" in2="blur"/>
      <feComposite in="SourceGraphic"/>
    </filter>
  </defs>
  <g id="Grupo_56006" data-name="Grupo 56006" transform="translate(-487 -5934)">
    <g id="Grupo_55925" data-name="Grupo 55925" transform="translate(486.796 5933.53)">
      <circle id="Elipse_1410" data-name="Elipse 1410" cx="45" cy="45" r="45" transform="translate(0.205 0.47)" fill="#ffee58"/>
      <g transform="matrix(1, 0, 0, 1, 0.2, 0.47)" filter="url(#Elipse_1408)">
        <g id="Elipse_1408-2" data-name="Elipse 1408" transform="translate(15.28 15.28)" fill="#fff" stroke="#e6e6e6" stroke-width="4">
          <circle cx="29.718" cy="29.718" r="29.718" stroke="none"/>
          <circle cx="29.718" cy="29.718" r="31.718" fill="none"/>
        </g>
      </g>
    </g>
    <g id="room-service" transform="translate(516.166 5963.167)">
      <g id="Grupo_55974" data-name="Grupo 55974">
        <path id="Trazado_102107" data-name="Trazado 102107" d="M30.739,11.195H21.4a4.614,4.614,0,0,0,.93-2.783.928.928,0,0,0-.928-.928h-.994a6.508,6.508,0,0,0-5.5-5.5V.928a.928.928,0,0,0-1.855,0V1.984a6.508,6.508,0,0,0-5.5,5.5H6.556a.928.928,0,0,0-.928.928,4.614,4.614,0,0,0,.93,2.783H2.783A2.786,2.786,0,0,0,0,13.978v13.05a.928.928,0,0,0,.928.928h3a2.783,2.783,0,1,0,5.407.928,2.843,2.843,0,0,0-.16-.94h9.6a2.843,2.843,0,0,0-.16.94,2.783,2.783,0,1,0,5.407-.928h2.943a.928.928,0,0,0,.928-.928V13.05h1.917v2.783a.928.928,0,0,0,1.855,0V12.123A.928.928,0,0,0,30.739,11.195ZM13.978,3.773a4.647,4.647,0,0,1,4.546,3.711H9.432A4.647,4.647,0,0,1,13.978,3.773Zm6.335,5.566a2.788,2.788,0,0,1-2.624,1.855H10.267A2.788,2.788,0,0,1,7.643,9.339Zm-4.48,9.277a.928.928,0,0,0-.928.928v2.783H13.05V19.544a.928.928,0,0,0-1.855,0v2.783H9.339V13.05h9.277v9.277H16.761V19.544A.928.928,0,0,0,15.833,18.617ZM6.556,29.812a.928.928,0,1,1,.928-.928A.929.929,0,0,1,6.556,29.812Zm14.844,0a.928.928,0,1,1,.928-.928A.929.929,0,0,1,21.4,29.812ZM26.039,26.1H1.855V13.978a.929.929,0,0,1,.928-.928h4.7V23.255a.928.928,0,0,0,.928.928H19.544a.928.928,0,0,0,.928-.928V13.05h5.566Z" fill="#111e61"/>
      </g>
    </g>
  </g>
</svg>
