<svg xmlns="http://www.w3.org/2000/svg" xmlns:xlink="http://www.w3.org/1999/xlink" width="90" height="90.718" viewBox="0 0 90 90.718">
  <defs>
    <filter id="Elipse_1408" x="2.281" y="5.282" width="85.436" height="85.437" filterUnits="userSpaceOnUse">
      <feOffset dy="3" input="SourceAlpha"/>
      <feGaussianBlur stdDeviation="3" result="blur"/>
      <feFlood flood-color="#ffc571"/>
      <feComposite operator="in" in2="blur"/>
      <feComposite in="SourceGraphic"/>
    </filter>
  </defs>
  <g id="Grupo_56007" data-name="Grupo 56007" transform="translate(-483 -5808)">
    <g id="Grupo_55926" data-name="Grupo 55926" transform="translate(482.796 5807.53)">
      <circle id="Elipse_1410" data-name="Elipse 1410" cx="45" cy="45" r="45" transform="translate(0.205 0.47)" fill="#ffd291"/>
      <g transform="matrix(1, 0, 0, 1, 0.2, 0.47)" filter="url(#Elipse_1408)">
        <g id="Elipse_1408-2" data-name="Elipse 1408" transform="translate(15.28 15.28)" fill="#fff" stroke="#e6e6e6" stroke-width="4">
          <circle cx="29.718" cy="29.718" r="29.718" stroke="none"/>
          <circle cx="29.718" cy="29.718" r="31.718" fill="none"/>
        </g>
      </g>
    </g>
    <g id="llaves" transform="translate(512.166 5835.958)">
      <path id="Trazado_102108" data-name="Trazado 102108" d="M34.022,21.425l-1.795-4.88a1,1,0,0,0-1-.652l-1.731.112-.769-1.555a1,1,0,0,0-.959-.554l-2.094.135-4.589-2.65A7.657,7.657,0,0,0,12.263,2.9a7.609,7.609,0,0,0-2.908.091q-.345-.078-.7-.125V1a1,1,0,0,0-2,0V2.861a7.657,7.657,0,0,0-2,14.637V31.754a1,1,0,0,0,.445.831l2,1.331a1,1,0,0,0,1.321-.192l3.329-3.994a1,1,0,0,0,.064-1.193l-.962-1.443.962-1.443a1,1,0,0,0,0-1.108L10.651,22.8V18.1a7.546,7.546,0,0,0,1.328-.045L19.107,30.4a1,1,0,0,0,.8.5l2.4.155.065,0a1,1,0,0,0,.983-.829l.885-5.123a1,1,0,0,0-.541-1.065l-1.555-.769.112-1.731a1,1,0,0,0-.554-.959l-1.881-.93-1.763-3.053.033-.024L30.435,23.7a1,1,0,0,0,.942.03l2.152-1.064a1,1,0,0,0,.494-1.24Zm-25.2,6.223.918,1.377L7.463,31.757l-.806-.537V16.8a1,1,0,0,0-.7-.953,5.658,5.658,0,0,1,.7-10.967V6.79H6.324a1,1,0,0,0,0,2H8.987a1,1,0,0,0,0-2H8.654V4.883a5.658,5.658,0,0,1,.7,10.967,1,1,0,0,0-.7.953v6.3a1,1,0,0,0,.168.554L9.784,25.1,8.822,26.54a1,1,0,0,0,0,1.108Zm9.418-6.741a1,1,0,0,0,.422.4l1.555.769L20.1,23.8a1,1,0,0,0,.554.959l1.483.733L21.536,29l-.967-.062L13.361,16.452a1,1,0,0,0-.468-.417,7.755,7.755,0,0,0,.9-1.012,7.647,7.647,0,0,0-.53-9.775,5.655,5.655,0,0,1,1.954,9.03,1,1,0,0,0-.129,1.175ZM30.97,21.7,18.485,14.493a1,1,0,0,0-.9-.05,7.661,7.661,0,0,0,.132-7.749,5.631,5.631,0,0,1,1.289,4.987,1,1,0,0,0,.475,1.082l5.453,3.149a1,1,0,0,0,.564.132l1.731-.112L28,17.487a1,1,0,0,0,.959.554l1.651-.107,1.228,3.338Z" transform="translate(0 0)" fill="#111e61"/>
    </g>
  </g>
</svg>
