<svg xmlns="http://www.w3.org/2000/svg" xmlns:xlink="http://www.w3.org/1999/xlink" width="90" height="90.718" viewBox="0 0 90 90.718">
  <defs>
    <filter id="Elipse_1408" x="2.281" y="5.282" width="85.436" height="85.437" filterUnits="userSpaceOnUse">
      <feOffset dy="3" input="SourceAlpha"/>
      <feGaussianBlur stdDeviation="3" result="blur"/>
      <feFlood flood-color="#ffb74d"/>
      <feComposite operator="in" in2="blur"/>
      <feComposite in="SourceGraphic"/>
    </filter>
  </defs>
  <g id="Grupo_56002" data-name="Grupo 56002" transform="translate(-904 -6078)">
    <g id="Grupo_55921" data-name="Grupo 55921" transform="translate(903.796 6077.53)">
      <circle id="Elipse_1410" data-name="Elipse 1410" cx="45" cy="45" r="45" transform="translate(0.205 0.47)" fill="#ffc571"/>
      <g transform="matrix(1, 0, 0, 1, 0.2, 0.47)" filter="url(#Elipse_1408)">
        <g id="Elipse_1408-2" data-name="Elipse 1408" transform="translate(15.28 15.28)" fill="#fff" stroke="#e6e6e6" stroke-width="4">
          <circle cx="29.718" cy="29.718" r="29.718" stroke="none"/>
          <circle cx="29.718" cy="29.718" r="31.718" fill="none"/>
        </g>
      </g>
    </g>
    <g id="laundry" transform="translate(934.084 6082.666)">
      <path id="Trazado_102087" data-name="Trazado 102087" d="M120.1,87.415a.874.874,0,1,0-.24-1.039A.883.883,0,0,0,120.1,87.415Z" transform="translate(-112.803 -56.063)" fill="#111e61"/>
      <path id="Trazado_102088" data-name="Trazado 102088" d="M60.1,87.415a.874.874,0,1,0-.24-1.039A.883.883,0,0,0,60.1,87.415Z" transform="translate(-56.299 -56.063)" fill="#111e61"/>
      <path id="Trazado_102089" data-name="Trazado 102089" d="M99.359,213.584a5.941,5.941,0,1,0,5.941,5.941A5.948,5.948,0,0,0,99.359,213.584Zm0,10.134a4.193,4.193,0,1,1,4.193-4.193A4.2,4.2,0,0,1,99.359,223.718Z" transform="translate(-87.975 -176.339)" fill="#111e61"/>
      <path id="Trazado_102090" data-name="Trazado 102090" d="M252.628,87.611h2.913a.874.874,0,1,0,0-1.748h-2.913a.874.874,0,0,0,0,1.748Z" transform="translate(-237.085 -56.06)" fill="#111e61"/>
      <path id="Trazado_102091" data-name="Trazado 102091" d="M29.626,44a.874.874,0,0,0-.658-.309,2.6,2.6,0,0,0-.517-2.6A2.61,2.61,0,0,0,26.5,36.74H22.843V27.208a.874.874,0,0,0-.874-.874H.874A.874.874,0,0,0,0,27.208V52.224a.874.874,0,0,0,.874.874H26.036A2.8,2.8,0,0,0,28.81,50.75l1.011-6.042a.874.874,0,0,0-.2-.709Zm-7.658-.309a.864.864,0,0,1,0-1.727H26.5a.864.864,0,1,1,0,1.727Zm5.4-4.339a.864.864,0,0,1-.864.864H21.968a.864.864,0,0,1,0-1.727H26.5A.865.865,0,0,1,27.367,39.351ZM21.095,28.082v5.244H1.748V28.082ZM1.748,35.074H21.095V36.89a2.609,2.609,0,0,0-1.074,4.2,2.6,2.6,0,0,0-.516,2.6.872.872,0,0,0-.809,1.015l1.011,6.042a2.84,2.84,0,0,0,.17.6H1.748ZM27.086,50.461a1.061,1.061,0,0,1-1.05.889H22.48a1.061,1.061,0,0,1-1.05-.889l-.841-5.024h7.336Z" fill="#111e61"/>
    </g>
  </g>
</svg>
