<svg xmlns="http://www.w3.org/2000/svg" xmlns:xlink="http://www.w3.org/1999/xlink" width="90" height="90.718" viewBox="0 0 90 90.718">
  <defs>
    <filter id="Elipse_1408" x="2.281" y="5.282" width="85.436" height="85.437" filterUnits="userSpaceOnUse">
      <feOffset dy="3" input="SourceAlpha"/>
      <feGaussianBlur stdDeviation="3" result="blur"/>
      <feFlood flood-color="#fb0"/>
      <feComposite operator="in" in2="blur"/>
      <feComposite in="SourceGraphic"/>
    </filter>
  </defs>
  <g id="Grupo_56003" data-name="Grupo 56003" transform="translate(-790 -6123)">
    <g id="Grupo_55922" data-name="Grupo 55922" transform="translate(789.796 6122.53)">
      <circle id="Elipse_1410" data-name="Elipse 1410" cx="45" cy="45" r="45" transform="translate(0.205 0.47)" fill="#ffee58"/>
      <g transform="matrix(1, 0, 0, 1, 0.2, 0.47)" filter="url(#Elipse_1408)">
        <g id="Elipse_1408-2" data-name="Elipse 1408" transform="translate(15.28 15.28)" fill="#fff" stroke="#e6e6e6" stroke-width="4">
          <circle cx="29.718" cy="29.718" r="29.718" stroke="none"/>
          <circle cx="29.718" cy="29.718" r="31.718" fill="none"/>
        </g>
      </g>
    </g>
    <g id="watering-can" transform="translate(818.834 6150.999)">
      <g id="Grupo_55959" data-name="Grupo 55959" transform="translate(0 0.001)">
        <g id="Grupo_55958" data-name="Grupo 55958" transform="translate(0 0)">
          <path id="Trazado_102094" data-name="Trazado 102094" d="M31.7,334.948H29.127c1.735-1.736,1.184-4.951,1.16-5.087a.631.631,0,0,0-.511-.511c-.136-.024-3.351-.575-5.087,1.161a3.658,3.658,0,0,0-.631.856,3.659,3.659,0,0,0-.631-.856c-1.736-1.736-4.951-1.185-5.087-1.161a.631.631,0,0,0-.511.511c-.024.136-.575,3.35,1.16,5.087H13.343c1.735-1.736,1.184-4.951,1.16-5.087a.631.631,0,0,0-.511-.511c-.136-.024-3.351-.575-5.087,1.161a3.658,3.658,0,0,0-.631.856,3.659,3.659,0,0,0-.631-.856c-1.736-1.736-4.951-1.185-5.087-1.161a.631.631,0,0,0-.511.511c-.024.136-.575,3.35,1.16,5.087H.631A.632.632,0,0,0,0,335.58v4.579a.632.632,0,0,0,.632.632h12.68a.632.632,0,0,0,0-1.263H1.263v-3.316H31.07v3.316H19.021a.632.632,0,0,0,0,1.263H31.7a.632.632,0,0,0,.632-.632V335.58a.632.632,0,0,0-.632-.631Zm-2.6-4.408c.07.825.085,2.566-.864,3.515a3.915,3.915,0,0,1-2.64.89l1.619-1.62a.632.632,0,0,0-.893-.893l-1.628,1.628a3.927,3.927,0,0,1,.89-2.656C26.532,330.455,28.273,330.471,29.1,330.54Zm-9.214,3.515c-.951-.951-.934-2.7-.864-3.519a4.733,4.733,0,0,1,3.515.868,4.051,4.051,0,0,1,.893,2.8q0,.054,0,.106c0,.231-.014.439-.028.608-.17.014-.379.026-.611.028h-.121a4.036,4.036,0,0,1-2.783-.893ZM9.8,331.4c.951-.951,2.7-.934,3.519-.864a4.734,4.734,0,0,1-.868,3.515,4.047,4.047,0,0,1-2.795.893h-.1c-.236,0-.449-.014-.621-.028-.014-.17-.026-.379-.028-.612q0-.048,0-.1a4.054,4.054,0,0,1,.893-2.8Zm-6.563-.864c.825-.07,2.565-.085,3.515.864a3.893,3.893,0,0,1,.889,2.615l-1.667-1.667a.632.632,0,0,0-.893.893l1.7,1.7a4.012,4.012,0,0,1-2.682-.892c-.95-.95-.934-2.69-.864-3.515Z" transform="translate(0 -308.457)" fill="#111e61"/>
          <path id="Trazado_102095" data-name="Trazado 102095" d="M247.409,492.395a.631.631,0,1,0-.224.76A.637.637,0,0,0,247.409,492.395Z" transform="translate(-230.647 -460.934)" fill="#111e61"/>
          <path id="Trazado_102096" data-name="Trazado 102096" d="M146.741,238.305a1.989,1.989,0,0,0,1.983-1.991c0-.964-1.2-2.08-1.569-2.4a.632.632,0,0,0-.828,0c-.368.319-1.569,1.436-1.569,2.4A1.989,1.989,0,0,0,146.741,238.305Zm0-3.039a2.636,2.636,0,0,1,.719,1.049.72.72,0,1,1-1.439,0A2.651,2.651,0,0,1,146.742,235.266Z" transform="translate(-135.617 -218.999)" fill="#111e61"/>
          <path id="Trazado_102097" data-name="Trazado 102097" d="M171.182,13.61a.631.631,0,0,0,.481.431l6.473,1.274.556.576a2.32,2.32,0,0,0,1.661.713h.021a2.32,2.32,0,0,0,1.652-.685l4.322-4.322a2.337,2.337,0,0,0-.029-3.334l-2.466-2.381L185.141,4.6a.632.632,0,0,0,0-.893L181.624.186a.632.632,0,0,0-.893,0L179.367,1.55l-.5-.48a.632.632,0,0,0-.885.008l-6.48,6.479a.632.632,0,0,0-.008.885l1.58,1.635-2.136.286a.632.632,0,0,0-.519.814Zm10-12.085L183.8,4.149l-.856.857-2.669-2.578Zm-2.739.885,7,6.763a1.074,1.074,0,0,1,.013,1.532l-4.322,4.322a1.066,1.066,0,0,1-.759.315h-.01a1.066,1.066,0,0,1-.763-.328l-6.764-7Zm-4.272,8.8,2.434,2.52-4.325-.851-.425-1.358Z" transform="translate(-159.633 -0.001)" fill="#111e61"/>
        </g>
      </g>
    </g>
  </g>
</svg>
